<?xml version="1.0" encoding="utf-8" standalone="no"?>
<!DOCTYPE svg PUBLIC "-//W3C//DTD SVG 1.1//EN"
  "http://www.w3.org/Graphics/SVG/1.1/DTD/svg11.dtd">
<!-- Created with matplotlib (https://matplotlib.org/) -->
<svg height="432pt" version="1.1" viewBox="0 0 648 432" width="648pt" xmlns="http://www.w3.org/2000/svg" xmlns:xlink="http://www.w3.org/1999/xlink">
 <defs>
  <style type="text/css">
*{stroke-linecap:butt;stroke-linejoin:round;}
  </style>
 </defs>
 <g id="figure_1">
  <g id="patch_1">
   <path d="M 0 432 
L 648 432 
L 648 0 
L 0 0 
z
" style="fill:#ffffff;"/>
  </g>
  <g id="axes_1">
   <g id="patch_2">
    <path d="M 81 378 
L 583.2 378 
L 583.2 51.84 
L 81 51.84 
z
" style="fill:#ffffff;"/>
   </g>
   <g id="matplotlib.axis_1">
    <g id="xtick_1">
     <g id="line2d_1">
      <defs>
       <path d="M 0 0 
L 0 3.5 
" id="md71f55d02c" style="stroke:#000000;stroke-width:0.8;"/>
      </defs>
      <g>
       <use style="stroke:#000000;stroke-width:0.8;" x="103.827273" xlink:href="#md71f55d02c" y="378"/>
      </g>
     </g>
     <g id="text_1">
      <!-- 0.0 -->
      <defs>
       <path d="M 31.78125 66.40625 
Q 24.171875 66.40625 20.328125 58.90625 
Q 16.5 51.421875 16.5 36.375 
Q 16.5 21.390625 20.328125 13.890625 
Q 24.171875 6.390625 31.78125 6.390625 
Q 39.453125 6.390625 43.28125 13.890625 
Q 47.125 21.390625 47.125 36.375 
Q 47.125 51.421875 43.28125 58.90625 
Q 39.453125 66.40625 31.78125 66.40625 
z
M 31.78125 74.21875 
Q 44.046875 74.21875 50.515625 64.515625 
Q 56.984375 54.828125 56.984375 36.375 
Q 56.984375 17.96875 50.515625 8.265625 
Q 44.046875 -1.421875 31.78125 -1.421875 
Q 19.53125 -1.421875 13.0625 8.265625 
Q 6.59375 17.96875 6.59375 36.375 
Q 6.59375 54.828125 13.0625 64.515625 
Q 19.53125 74.21875 31.78125 74.21875 
z
" id="DejaVuSans-48"/>
       <path d="M 10.6875 12.40625 
L 21 12.40625 
L 21 0 
L 10.6875 0 
z
" id="DejaVuSans-46"/>
      </defs>
      <g transform="translate(95.87571 392.598437)scale(0.1 -0.1)">
       <use xlink:href="#DejaVuSans-48"/>
       <use x="63.623047" xlink:href="#DejaVuSans-46"/>
       <use x="95.410156" xlink:href="#DejaVuSans-48"/>
      </g>
     </g>
    </g>
    <g id="xtick_2">
     <g id="line2d_2">
      <g>
       <use style="stroke:#000000;stroke-width:0.8;" x="163.899043" xlink:href="#md71f55d02c" y="378"/>
      </g>
     </g>
     <g id="text_2">
      <!-- 2.5 -->
      <defs>
       <path d="M 19.1875 8.296875 
L 53.609375 8.296875 
L 53.609375 0 
L 7.328125 0 
L 7.328125 8.296875 
Q 12.9375 14.109375 22.625 23.890625 
Q 32.328125 33.6875 34.8125 36.53125 
Q 39.546875 41.84375 41.421875 45.53125 
Q 43.3125 49.21875 43.3125 52.78125 
Q 43.3125 58.59375 39.234375 62.25 
Q 35.15625 65.921875 28.609375 65.921875 
Q 23.96875 65.921875 18.8125 64.3125 
Q 13.671875 62.703125 7.8125 59.421875 
L 7.8125 69.390625 
Q 13.765625 71.78125 18.9375 73 
Q 24.125 74.21875 28.421875 74.21875 
Q 39.75 74.21875 46.484375 68.546875 
Q 53.21875 62.890625 53.21875 53.421875 
Q 53.21875 48.921875 51.53125 44.890625 
Q 49.859375 40.875 45.40625 35.40625 
Q 44.1875 33.984375 37.640625 27.21875 
Q 31.109375 20.453125 19.1875 8.296875 
z
" id="DejaVuSans-50"/>
       <path d="M 10.796875 72.90625 
L 49.515625 72.90625 
L 49.515625 64.59375 
L 19.828125 64.59375 
L 19.828125 46.734375 
Q 21.96875 47.46875 24.109375 47.828125 
Q 26.265625 48.1875 28.421875 48.1875 
Q 40.625 48.1875 47.75 41.5 
Q 54.890625 34.8125 54.890625 23.390625 
Q 54.890625 11.625 47.5625 5.09375 
Q 40.234375 -1.421875 26.90625 -1.421875 
Q 22.3125 -1.421875 17.546875 -0.640625 
Q 12.796875 0.140625 7.71875 1.703125 
L 7.71875 11.625 
Q 12.109375 9.234375 16.796875 8.0625 
Q 21.484375 6.890625 26.703125 6.890625 
Q 35.15625 6.890625 40.078125 11.328125 
Q 45.015625 15.765625 45.015625 23.390625 
Q 45.015625 31 40.078125 35.4375 
Q 35.15625 39.890625 26.703125 39.890625 
Q 22.75 39.890625 18.8125 39.015625 
Q 14.890625 38.140625 10.796875 36.28125 
z
" id="DejaVuSans-53"/>
      </defs>
      <g transform="translate(155.947481 392.598437)scale(0.1 -0.1)">
       <use xlink:href="#DejaVuSans-50"/>
       <use x="63.623047" xlink:href="#DejaVuSans-46"/>
       <use x="95.410156" xlink:href="#DejaVuSans-53"/>
      </g>
     </g>
    </g>
    <g id="xtick_3">
     <g id="line2d_3">
      <g>
       <use style="stroke:#000000;stroke-width:0.8;" x="223.970813" xlink:href="#md71f55d02c" y="378"/>
      </g>
     </g>
     <g id="text_3">
      <!-- 5.0 -->
      <g transform="translate(216.019251 392.598437)scale(0.1 -0.1)">
       <use xlink:href="#DejaVuSans-53"/>
       <use x="63.623047" xlink:href="#DejaVuSans-46"/>
       <use x="95.410156" xlink:href="#DejaVuSans-48"/>
      </g>
     </g>
    </g>
    <g id="xtick_4">
     <g id="line2d_4">
      <g>
       <use style="stroke:#000000;stroke-width:0.8;" x="284.042584" xlink:href="#md71f55d02c" y="378"/>
      </g>
     </g>
     <g id="text_4">
      <!-- 7.5 -->
      <defs>
       <path d="M 8.203125 72.90625 
L 55.078125 72.90625 
L 55.078125 68.703125 
L 28.609375 0 
L 18.3125 0 
L 43.21875 64.59375 
L 8.203125 64.59375 
z
" id="DejaVuSans-55"/>
      </defs>
      <g transform="translate(276.091021 392.598437)scale(0.1 -0.1)">
       <use xlink:href="#DejaVuSans-55"/>
       <use x="63.623047" xlink:href="#DejaVuSans-46"/>
       <use x="95.410156" xlink:href="#DejaVuSans-53"/>
      </g>
     </g>
    </g>
    <g id="xtick_5">
     <g id="line2d_5">
      <g>
       <use style="stroke:#000000;stroke-width:0.8;" x="344.114354" xlink:href="#md71f55d02c" y="378"/>
      </g>
     </g>
     <g id="text_5">
      <!-- 10.0 -->
      <defs>
       <path d="M 12.40625 8.296875 
L 28.515625 8.296875 
L 28.515625 63.921875 
L 10.984375 60.40625 
L 10.984375 69.390625 
L 28.421875 72.90625 
L 38.28125 72.90625 
L 38.28125 8.296875 
L 54.390625 8.296875 
L 54.390625 0 
L 12.40625 0 
z
" id="DejaVuSans-49"/>
      </defs>
      <g transform="translate(332.981542 392.598437)scale(0.1 -0.1)">
       <use xlink:href="#DejaVuSans-49"/>
       <use x="63.623047" xlink:href="#DejaVuSans-48"/>
       <use x="127.246094" xlink:href="#DejaVuSans-46"/>
       <use x="159.033203" xlink:href="#DejaVuSans-48"/>
      </g>
     </g>
    </g>
    <g id="xtick_6">
     <g id="line2d_6">
      <g>
       <use style="stroke:#000000;stroke-width:0.8;" x="404.186124" xlink:href="#md71f55d02c" y="378"/>
      </g>
     </g>
     <g id="text_6">
      <!-- 12.5 -->
      <g transform="translate(393.053312 392.598437)scale(0.1 -0.1)">
       <use xlink:href="#DejaVuSans-49"/>
       <use x="63.623047" xlink:href="#DejaVuSans-50"/>
       <use x="127.246094" xlink:href="#DejaVuSans-46"/>
       <use x="159.033203" xlink:href="#DejaVuSans-53"/>
      </g>
     </g>
    </g>
    <g id="xtick_7">
     <g id="line2d_7">
      <g>
       <use style="stroke:#000000;stroke-width:0.8;" x="464.257895" xlink:href="#md71f55d02c" y="378"/>
      </g>
     </g>
     <g id="text_7">
      <!-- 15.0 -->
      <g transform="translate(453.125082 392.598437)scale(0.1 -0.1)">
       <use xlink:href="#DejaVuSans-49"/>
       <use x="63.623047" xlink:href="#DejaVuSans-53"/>
       <use x="127.246094" xlink:href="#DejaVuSans-46"/>
       <use x="159.033203" xlink:href="#DejaVuSans-48"/>
      </g>
     </g>
    </g>
    <g id="xtick_8">
     <g id="line2d_8">
      <g>
       <use style="stroke:#000000;stroke-width:0.8;" x="524.329665" xlink:href="#md71f55d02c" y="378"/>
      </g>
     </g>
     <g id="text_8">
      <!-- 17.5 -->
      <g transform="translate(513.196853 392.598437)scale(0.1 -0.1)">
       <use xlink:href="#DejaVuSans-49"/>
       <use x="63.623047" xlink:href="#DejaVuSans-55"/>
       <use x="127.246094" xlink:href="#DejaVuSans-46"/>
       <use x="159.033203" xlink:href="#DejaVuSans-53"/>
      </g>
     </g>
    </g>
    <g id="text_9">
     <!-- t (s) -->
     <defs>
      <path d="M 18.3125 70.21875 
L 18.3125 54.6875 
L 36.8125 54.6875 
L 36.8125 47.703125 
L 18.3125 47.703125 
L 18.3125 18.015625 
Q 18.3125 11.328125 20.140625 9.421875 
Q 21.96875 7.515625 27.59375 7.515625 
L 36.8125 7.515625 
L 36.8125 0 
L 27.59375 0 
Q 17.1875 0 13.234375 3.875 
Q 9.28125 7.765625 9.28125 18.015625 
L 9.28125 47.703125 
L 2.6875 47.703125 
L 2.6875 54.6875 
L 9.28125 54.6875 
L 9.28125 70.21875 
z
" id="DejaVuSans-116"/>
      <path id="DejaVuSans-32"/>
      <path d="M 31 75.875 
Q 24.46875 64.65625 21.28125 53.65625 
Q 18.109375 42.671875 18.109375 31.390625 
Q 18.109375 20.125 21.3125 9.0625 
Q 24.515625 -2 31 -13.1875 
L 23.1875 -13.1875 
Q 15.875 -1.703125 12.234375 9.375 
Q 8.59375 20.453125 8.59375 31.390625 
Q 8.59375 42.28125 12.203125 53.3125 
Q 15.828125 64.359375 23.1875 75.875 
z
" id="DejaVuSans-40"/>
      <path d="M 44.28125 53.078125 
L 44.28125 44.578125 
Q 40.484375 46.53125 36.375 47.5 
Q 32.28125 48.484375 27.875 48.484375 
Q 21.1875 48.484375 17.84375 46.4375 
Q 14.5 44.390625 14.5 40.28125 
Q 14.5 37.15625 16.890625 35.375 
Q 19.28125 33.59375 26.515625 31.984375 
L 29.59375 31.296875 
Q 39.15625 29.25 43.1875 25.515625 
Q 47.21875 21.78125 47.21875 15.09375 
Q 47.21875 7.46875 41.1875 3.015625 
Q 35.15625 -1.421875 24.609375 -1.421875 
Q 20.21875 -1.421875 15.453125 -0.5625 
Q 10.6875 0.296875 5.421875 2 
L 5.421875 11.28125 
Q 10.40625 8.6875 15.234375 7.390625 
Q 20.0625 6.109375 24.8125 6.109375 
Q 31.15625 6.109375 34.5625 8.28125 
Q 37.984375 10.453125 37.984375 14.40625 
Q 37.984375 18.0625 35.515625 20.015625 
Q 33.0625 21.96875 24.703125 23.78125 
L 21.578125 24.515625 
Q 13.234375 26.265625 9.515625 29.90625 
Q 5.8125 33.546875 5.8125 39.890625 
Q 5.8125 47.609375 11.28125 51.796875 
Q 16.75 56 26.8125 56 
Q 31.78125 56 36.171875 55.265625 
Q 40.578125 54.546875 44.28125 53.078125 
z
" id="DejaVuSans-115"/>
      <path d="M 8.015625 75.875 
L 15.828125 75.875 
Q 23.140625 64.359375 26.78125 53.3125 
Q 30.421875 42.28125 30.421875 31.390625 
Q 30.421875 20.453125 26.78125 9.375 
Q 23.140625 -1.703125 15.828125 -13.1875 
L 8.015625 -13.1875 
Q 14.5 -2 17.703125 9.0625 
Q 20.90625 20.125 20.90625 31.390625 
Q 20.90625 42.671875 17.703125 53.65625 
Q 14.5 64.65625 8.015625 75.875 
z
" id="DejaVuSans-41"/>
     </defs>
     <g transform="translate(320.033438 407.79625)scale(0.12 -0.12)">
      <use xlink:href="#DejaVuSans-116"/>
      <use x="39.208984" xlink:href="#DejaVuSans-32"/>
      <use x="70.996094" xlink:href="#DejaVuSans-40"/>
      <use x="110.009766" xlink:href="#DejaVuSans-115"/>
      <use x="162.109375" xlink:href="#DejaVuSans-41"/>
     </g>
    </g>
   </g>
   <g id="matplotlib.axis_2">
    <g id="ytick_1">
     <g id="line2d_9">
      <defs>
       <path d="M 0 0 
L -3.5 0 
" id="m220948f998" style="stroke:#000000;stroke-width:0.8;"/>
      </defs>
      <g>
       <use style="stroke:#000000;stroke-width:0.8;" x="81" xlink:href="#m220948f998" y="363.198864"/>
      </g>
     </g>
     <g id="text_10">
      <!-- 0.0 -->
      <g transform="translate(58.096875 366.998083)scale(0.1 -0.1)">
       <use xlink:href="#DejaVuSans-48"/>
       <use x="63.623047" xlink:href="#DejaVuSans-46"/>
       <use x="95.410156" xlink:href="#DejaVuSans-48"/>
      </g>
     </g>
    </g>
    <g id="ytick_2">
     <g id="line2d_10">
      <g>
       <use style="stroke:#000000;stroke-width:0.8;" x="81" xlink:href="#m220948f998" y="303.891821"/>
      </g>
     </g>
     <g id="text_11">
      <!-- 0.2 -->
      <g transform="translate(58.096875 307.69104)scale(0.1 -0.1)">
       <use xlink:href="#DejaVuSans-48"/>
       <use x="63.623047" xlink:href="#DejaVuSans-46"/>
       <use x="95.410156" xlink:href="#DejaVuSans-50"/>
      </g>
     </g>
    </g>
    <g id="ytick_3">
     <g id="line2d_11">
      <g>
       <use style="stroke:#000000;stroke-width:0.8;" x="81" xlink:href="#m220948f998" y="244.584778"/>
      </g>
     </g>
     <g id="text_12">
      <!-- 0.4 -->
      <defs>
       <path d="M 37.796875 64.3125 
L 12.890625 25.390625 
L 37.796875 25.390625 
z
M 35.203125 72.90625 
L 47.609375 72.90625 
L 47.609375 25.390625 
L 58.015625 25.390625 
L 58.015625 17.1875 
L 47.609375 17.1875 
L 47.609375 0 
L 37.796875 0 
L 37.796875 17.1875 
L 4.890625 17.1875 
L 4.890625 26.703125 
z
" id="DejaVuSans-52"/>
      </defs>
      <g transform="translate(58.096875 248.383996)scale(0.1 -0.1)">
       <use xlink:href="#DejaVuSans-48"/>
       <use x="63.623047" xlink:href="#DejaVuSans-46"/>
       <use x="95.410156" xlink:href="#DejaVuSans-52"/>
      </g>
     </g>
    </g>
    <g id="ytick_4">
     <g id="line2d_12">
      <g>
       <use style="stroke:#000000;stroke-width:0.8;" x="81" xlink:href="#m220948f998" y="185.277734"/>
      </g>
     </g>
     <g id="text_13">
      <!-- 0.6 -->
      <defs>
       <path d="M 33.015625 40.375 
Q 26.375 40.375 22.484375 35.828125 
Q 18.609375 31.296875 18.609375 23.390625 
Q 18.609375 15.53125 22.484375 10.953125 
Q 26.375 6.390625 33.015625 6.390625 
Q 39.65625 6.390625 43.53125 10.953125 
Q 47.40625 15.53125 47.40625 23.390625 
Q 47.40625 31.296875 43.53125 35.828125 
Q 39.65625 40.375 33.015625 40.375 
z
M 52.59375 71.296875 
L 52.59375 62.3125 
Q 48.875 64.0625 45.09375 64.984375 
Q 41.3125 65.921875 37.59375 65.921875 
Q 27.828125 65.921875 22.671875 59.328125 
Q 17.53125 52.734375 16.796875 39.40625 
Q 19.671875 43.65625 24.015625 45.921875 
Q 28.375 48.1875 33.59375 48.1875 
Q 44.578125 48.1875 50.953125 41.515625 
Q 57.328125 34.859375 57.328125 23.390625 
Q 57.328125 12.15625 50.6875 5.359375 
Q 44.046875 -1.421875 33.015625 -1.421875 
Q 20.359375 -1.421875 13.671875 8.265625 
Q 6.984375 17.96875 6.984375 36.375 
Q 6.984375 53.65625 15.1875 63.9375 
Q 23.390625 74.21875 37.203125 74.21875 
Q 40.921875 74.21875 44.703125 73.484375 
Q 48.484375 72.75 52.59375 71.296875 
z
" id="DejaVuSans-54"/>
      </defs>
      <g transform="translate(58.096875 189.076953)scale(0.1 -0.1)">
       <use xlink:href="#DejaVuSans-48"/>
       <use x="63.623047" xlink:href="#DejaVuSans-46"/>
       <use x="95.410156" xlink:href="#DejaVuSans-54"/>
      </g>
     </g>
    </g>
    <g id="ytick_5">
     <g id="line2d_13">
      <g>
       <use style="stroke:#000000;stroke-width:0.8;" x="81" xlink:href="#m220948f998" y="125.970691"/>
      </g>
     </g>
     <g id="text_14">
      <!-- 0.8 -->
      <defs>
       <path d="M 31.78125 34.625 
Q 24.75 34.625 20.71875 30.859375 
Q 16.703125 27.09375 16.703125 20.515625 
Q 16.703125 13.921875 20.71875 10.15625 
Q 24.75 6.390625 31.78125 6.390625 
Q 38.8125 6.390625 42.859375 10.171875 
Q 46.921875 13.96875 46.921875 20.515625 
Q 46.921875 27.09375 42.890625 30.859375 
Q 38.875 34.625 31.78125 34.625 
z
M 21.921875 38.8125 
Q 15.578125 40.375 12.03125 44.71875 
Q 8.5 49.078125 8.5 55.328125 
Q 8.5 64.0625 14.71875 69.140625 
Q 20.953125 74.21875 31.78125 74.21875 
Q 42.671875 74.21875 48.875 69.140625 
Q 55.078125 64.0625 55.078125 55.328125 
Q 55.078125 49.078125 51.53125 44.71875 
Q 48 40.375 41.703125 38.8125 
Q 48.828125 37.15625 52.796875 32.3125 
Q 56.78125 27.484375 56.78125 20.515625 
Q 56.78125 9.90625 50.3125 4.234375 
Q 43.84375 -1.421875 31.78125 -1.421875 
Q 19.734375 -1.421875 13.25 4.234375 
Q 6.78125 9.90625 6.78125 20.515625 
Q 6.78125 27.484375 10.78125 32.3125 
Q 14.796875 37.15625 21.921875 38.8125 
z
M 18.3125 54.390625 
Q 18.3125 48.734375 21.84375 45.5625 
Q 25.390625 42.390625 31.78125 42.390625 
Q 38.140625 42.390625 41.71875 45.5625 
Q 45.3125 48.734375 45.3125 54.390625 
Q 45.3125 60.0625 41.71875 63.234375 
Q 38.140625 66.40625 31.78125 66.40625 
Q 25.390625 66.40625 21.84375 63.234375 
Q 18.3125 60.0625 18.3125 54.390625 
z
" id="DejaVuSans-56"/>
      </defs>
      <g transform="translate(58.096875 129.76991)scale(0.1 -0.1)">
       <use xlink:href="#DejaVuSans-48"/>
       <use x="63.623047" xlink:href="#DejaVuSans-46"/>
       <use x="95.410156" xlink:href="#DejaVuSans-56"/>
      </g>
     </g>
    </g>
    <g id="ytick_6">
     <g id="line2d_14">
      <g>
       <use style="stroke:#000000;stroke-width:0.8;" x="81" xlink:href="#m220948f998" y="66.663648"/>
      </g>
     </g>
     <g id="text_15">
      <!-- 1.0 -->
      <g transform="translate(58.096875 70.462867)scale(0.1 -0.1)">
       <use xlink:href="#DejaVuSans-49"/>
       <use x="63.623047" xlink:href="#DejaVuSans-46"/>
       <use x="95.410156" xlink:href="#DejaVuSans-48"/>
      </g>
     </g>
    </g>
    <g id="text_16">
     <!-- Saída -->
     <defs>
      <path d="M 53.515625 70.515625 
L 53.515625 60.890625 
Q 47.90625 63.578125 42.921875 64.890625 
Q 37.9375 66.21875 33.296875 66.21875 
Q 25.25 66.21875 20.875 63.09375 
Q 16.5 59.96875 16.5 54.203125 
Q 16.5 49.359375 19.40625 46.890625 
Q 22.3125 44.4375 30.421875 42.921875 
L 36.375 41.703125 
Q 47.40625 39.59375 52.65625 34.296875 
Q 57.90625 29 57.90625 20.125 
Q 57.90625 9.515625 50.796875 4.046875 
Q 43.703125 -1.421875 29.984375 -1.421875 
Q 24.8125 -1.421875 18.96875 -0.25 
Q 13.140625 0.921875 6.890625 3.21875 
L 6.890625 13.375 
Q 12.890625 10.015625 18.65625 8.296875 
Q 24.421875 6.59375 29.984375 6.59375 
Q 38.421875 6.59375 43.015625 9.90625 
Q 47.609375 13.234375 47.609375 19.390625 
Q 47.609375 24.75 44.3125 27.78125 
Q 41.015625 30.8125 33.5 32.328125 
L 27.484375 33.5 
Q 16.453125 35.6875 11.515625 40.375 
Q 6.59375 45.0625 6.59375 53.421875 
Q 6.59375 63.09375 13.40625 68.65625 
Q 20.21875 74.21875 32.171875 74.21875 
Q 37.3125 74.21875 42.625 73.28125 
Q 47.953125 72.359375 53.515625 70.515625 
z
" id="DejaVuSans-83"/>
      <path d="M 34.28125 27.484375 
Q 23.390625 27.484375 19.1875 25 
Q 14.984375 22.515625 14.984375 16.5 
Q 14.984375 11.71875 18.140625 8.90625 
Q 21.296875 6.109375 26.703125 6.109375 
Q 34.1875 6.109375 38.703125 11.40625 
Q 43.21875 16.703125 43.21875 25.484375 
L 43.21875 27.484375 
z
M 52.203125 31.203125 
L 52.203125 0 
L 43.21875 0 
L 43.21875 8.296875 
Q 40.140625 3.328125 35.546875 0.953125 
Q 30.953125 -1.421875 24.3125 -1.421875 
Q 15.921875 -1.421875 10.953125 3.296875 
Q 6 8.015625 6 15.921875 
Q 6 25.140625 12.171875 29.828125 
Q 18.359375 34.515625 30.609375 34.515625 
L 43.21875 34.515625 
L 43.21875 35.40625 
Q 43.21875 41.609375 39.140625 45 
Q 35.0625 48.390625 27.6875 48.390625 
Q 23 48.390625 18.546875 47.265625 
Q 14.109375 46.140625 10.015625 43.890625 
L 10.015625 52.203125 
Q 14.9375 54.109375 19.578125 55.046875 
Q 24.21875 56 28.609375 56 
Q 40.484375 56 46.34375 49.84375 
Q 52.203125 43.703125 52.203125 31.203125 
z
" id="DejaVuSans-97"/>
      <path d="M 20.703125 79.984375 
L 30.421875 79.984375 
L 14.5 61.625 
L 7.03125 61.625 
z
M 9.421875 54.6875 
L 18.40625 54.6875 
L 18.40625 0 
L 9.421875 0 
z
M 13.921875 56 
z
" id="DejaVuSans-237"/>
      <path d="M 45.40625 46.390625 
L 45.40625 75.984375 
L 54.390625 75.984375 
L 54.390625 0 
L 45.40625 0 
L 45.40625 8.203125 
Q 42.578125 3.328125 38.25 0.953125 
Q 33.9375 -1.421875 27.875 -1.421875 
Q 17.96875 -1.421875 11.734375 6.484375 
Q 5.515625 14.40625 5.515625 27.296875 
Q 5.515625 40.1875 11.734375 48.09375 
Q 17.96875 56 27.875 56 
Q 33.9375 56 38.25 53.625 
Q 42.578125 51.265625 45.40625 46.390625 
z
M 14.796875 27.296875 
Q 14.796875 17.390625 18.875 11.75 
Q 22.953125 6.109375 30.078125 6.109375 
Q 37.203125 6.109375 41.296875 11.75 
Q 45.40625 17.390625 45.40625 27.296875 
Q 45.40625 37.203125 41.296875 42.84375 
Q 37.203125 48.484375 30.078125 48.484375 
Q 22.953125 48.484375 18.875 42.84375 
Q 14.796875 37.203125 14.796875 27.296875 
z
" id="DejaVuSans-100"/>
     </defs>
     <g transform="translate(51.60125 231.55875)rotate(-90)scale(0.12 -0.12)">
      <use xlink:href="#DejaVuSans-83"/>
      <use x="63.476562" xlink:href="#DejaVuSans-97"/>
      <use x="124.755859" xlink:href="#DejaVuSans-237"/>
      <use x="152.539062" xlink:href="#DejaVuSans-100"/>
      <use x="216.015625" xlink:href="#DejaVuSans-97"/>
     </g>
    </g>
   </g>
   <g id="line2d_15">
    <path clip-path="url(#p1814056e19)" d="M 103.827273 362.482648 
L 103.827273 361.120615 
L 106.230144 361.120615 
L 106.230144 359.177972 
L 108.633014 359.177972 
L 108.633014 356.715079 
L 111.035885 356.715079 
L 111.035885 353.787764 
L 113.438756 353.787764 
L 113.438756 350.447625 
L 115.841627 350.447625 
L 115.841627 346.742308 
L 118.244498 346.742308 
L 118.244498 342.715775 
L 120.647368 342.715775 
L 120.647368 338.408549 
L 123.050239 338.408549 
L 123.050239 333.857945 
L 125.45311 333.857945 
L 125.45311 329.098287 
L 127.855981 329.098287 
L 127.855981 324.161116 
L 130.258852 324.161116 
L 130.258852 319.075374 
L 132.661722 319.075374 
L 132.661722 313.867591 
L 135.064593 313.867591 
L 135.064593 308.562044 
L 137.467464 308.562044 
L 137.467464 303.180923 
L 139.870335 303.180923 
L 139.870335 297.744469 
L 142.273206 297.744469 
L 142.273206 292.271118 
L 144.676077 292.271118 
L 144.676077 286.777627 
L 147.078947 286.777627 
L 147.078947 281.279196 
L 149.481818 281.279196 
L 149.481818 275.789579 
L 151.884689 275.789579 
L 151.884689 270.321189 
L 154.28756 270.321189 
L 154.28756 264.885199 
L 156.690431 264.885199 
L 156.690431 259.491632 
L 159.093301 259.491632 
L 159.093301 254.149448 
L 161.496172 254.149448 
L 161.496172 248.866623 
L 163.899043 248.866623 
L 163.899043 243.650225 
L 166.301914 243.650225 
L 166.301914 238.506486 
L 168.704785 238.506486 
L 168.704785 233.440861 
L 171.107656 233.440861 
L 171.107656 228.458097 
L 173.510526 228.458097 
L 173.510526 223.562283 
L 175.913397 223.562283 
L 175.913397 218.75691 
L 178.316268 218.75691 
L 178.316268 214.04491 
L 180.719139 214.04491 
L 180.719139 209.428714 
L 183.12201 209.428714 
L 183.12201 204.910284 
L 185.52488 204.910284 
L 185.52488 200.491162 
L 187.927751 200.491162 
L 187.927751 196.172498 
L 190.330622 196.172498 
L 190.330622 191.955093 
L 192.733493 191.955093 
L 192.733493 187.839423 
L 195.136364 187.839423 
L 195.136364 183.825676 
L 197.539234 183.825676 
L 197.539234 179.913774 
L 199.942105 179.913774 
L 199.942105 176.103401 
L 202.344976 176.103401 
L 202.344976 172.394025 
L 204.747847 172.394025 
L 204.747847 168.784923 
L 207.150718 168.784923 
L 207.150718 165.275197 
L 209.553589 165.275197 
L 209.553589 161.863797 
L 211.956459 161.863797 
L 211.956459 158.549535 
L 214.35933 158.549535 
L 214.35933 155.331102 
L 216.762201 155.331102 
L 216.762201 152.207085 
L 219.165072 152.207085 
L 219.165072 149.175976 
L 221.567943 149.175976 
L 221.567943 146.236189 
L 223.970813 146.236189 
L 223.970813 143.386069 
L 226.373684 143.386069 
L 226.373684 140.623902 
L 228.776555 140.623902 
L 228.776555 137.947927 
L 231.179426 137.947927 
L 231.179426 135.356343 
L 233.582297 135.356343 
L 233.582297 132.84732 
L 235.985167 132.84732 
L 235.985167 130.419 
L 238.388038 130.419 
L 238.388038 128.069513 
L 240.790909 128.069513 
L 240.790909 125.796973 
L 243.19378 125.796973 
L 243.19378 123.599494 
L 245.596651 123.599494 
L 245.596651 121.475185 
L 247.999522 121.475185 
L 247.999522 119.422161 
L 250.402392 119.422161 
L 250.402392 117.438548 
L 252.805263 117.438548 
L 252.805263 115.522482 
L 255.208134 115.522482 
L 255.208134 113.672113 
L 257.611005 113.672113 
L 257.611005 111.885612 
L 260.013876 111.885612 
L 260.013876 110.161171 
L 262.416746 110.161171 
L 262.416746 108.497005 
L 264.819617 108.497005 
L 264.819617 106.891354 
L 267.222488 106.891354 
L 267.222488 105.342486 
L 269.625359 105.342486 
L 269.625359 103.848698 
L 272.02823 103.848698 
L 272.02823 102.408317 
L 274.4311 102.408317 
L 274.4311 101.0197 
L 276.833971 101.0197 
L 276.833971 99.681241 
L 279.236842 99.681241 
L 279.236842 98.391361 
L 281.639713 98.391361 
L 281.639713 97.148519 
L 284.042584 97.148519 
L 284.042584 95.951207 
L 286.445455 95.951207 
L 286.445455 94.797951 
L 288.848325 94.797951 
L 288.848325 93.687313 
L 291.251196 93.687313 
L 291.251196 92.61789 
L 293.654067 92.61789 
L 293.654067 91.588312 
L 296.056938 91.588312 
L 296.056938 90.597246 
L 298.459809 90.597246 
L 298.459809 89.643395 
L 300.862679 89.643395 
L 300.862679 88.725492 
L 303.26555 88.725492 
L 303.26555 87.842309 
L 305.668421 87.842309 
L 305.668421 86.992651 
L 308.071292 86.992651 
L 308.071292 86.175354 
L 310.474163 86.175354 
L 310.474163 85.389291 
L 312.877033 85.389291 
L 312.877033 84.633365 
L 315.279904 84.633365 
L 315.279904 83.906512 
L 317.682775 83.906512 
L 317.682775 83.207702 
L 320.085646 83.207702 
L 320.085646 82.535932 
L 322.488517 82.535932 
L 322.488517 81.890233 
L 324.891388 81.890233 
L 324.891388 81.269665 
L 327.294258 81.269665 
L 327.294258 80.673318 
L 329.697129 80.673318 
L 329.697129 80.100309 
L 332.1 80.100309 
L 332.1 79.549784 
L 334.502871 79.549784 
L 334.502871 79.020919 
L 336.905742 79.020919 
L 336.905742 78.512912 
L 339.308612 78.512912 
L 339.308612 78.024993 
L 341.711483 78.024993 
L 341.711483 77.556412 
L 344.114354 77.556412 
L 344.114354 77.106449 
L 346.517225 77.106449 
L 346.517225 76.674404 
L 348.920096 76.674404 
L 348.920096 76.259603 
L 351.322967 76.259603 
L 351.322967 75.861395 
L 353.725837 75.861395 
L 353.725837 75.47915 
L 356.128708 75.47915 
L 356.128708 75.112262 
L 358.531579 75.112262 
L 358.531579 74.760144 
L 360.93445 74.760144 
L 360.93445 74.422231 
L 363.337321 74.422231 
L 363.337321 74.097976 
L 365.740191 74.097976 
L 365.740191 73.786854 
L 368.143062 73.786854 
L 368.143062 73.488357 
L 370.545933 73.488357 
L 370.545933 73.201995 
L 372.948804 73.201995 
L 372.948804 72.927296 
L 375.351675 72.927296 
L 375.351675 72.663806 
L 377.754545 72.663806 
L 377.754545 72.411086 
L 380.157416 72.411086 
L 380.157416 72.168715 
L 382.560287 72.168715 
L 382.560287 71.936285 
L 384.963158 71.936285 
L 384.963158 71.713405 
L 387.366029 71.713405 
L 387.366029 71.499697 
L 389.7689 71.499697 
L 389.7689 71.294798 
L 392.17177 71.294798 
L 392.17177 71.098359 
L 394.574641 71.098359 
L 394.574641 70.910043 
L 396.977512 70.910043 
L 396.977512 70.729525 
L 399.380383 70.729525 
L 399.380383 70.556495 
L 401.783254 70.556495 
L 401.783254 70.390652 
L 404.186124 70.390652 
L 404.186124 70.231707 
L 406.588995 70.231707 
L 406.588995 70.079384 
L 408.991866 70.079384 
L 408.991866 69.933415 
L 411.394737 69.933415 
L 411.394737 69.793543 
L 413.797608 69.793543 
L 413.797608 69.659523 
L 416.200478 69.659523 
L 416.200478 69.531116 
L 418.603349 69.531116 
L 418.603349 69.408094 
L 421.00622 69.408094 
L 421.00622 69.290239 
L 423.409091 69.290239 
L 423.409091 69.177339 
L 428.214833 69.069193 
L 428.214833 68.965605 
L 433.020574 68.866389 
L 433.020574 68.771365 
L 437.826316 68.680361 
L 437.826316 68.593211 
L 442.632057 68.509756 
L 442.632057 68.429844 
L 447.437799 68.353328 
L 447.437799 68.280066 
L 452.243541 68.209925 
L 452.243541 68.142774 
L 457.049282 68.078489 
L 457.049282 68.016949 
L 461.855024 67.958042 
L 461.855024 67.901656 
L 469.063636 67.79603 
L 469.063636 67.746592 
L 476.272249 67.654 
L 476.272249 67.61067 
L 483.480861 67.529533 
L 483.480861 67.491571 
L 493.092344 67.38725 
L 493.092344 67.355443 
L 502.703828 67.26806 
L 502.703828 67.241425 
L 514.718182 67.145981 
L 514.718182 67.124662 
L 531.538278 67.014947 
L 531.538278 66.999358 
L 553.164115 66.896935 
L 553.164115 66.886535 
L 560.372727 66.867092 
L 560.372727 66.867092 
" style="fill:none;stroke:#000000;stroke-linecap:square;stroke-width:1.2;"/>
   </g>
   <g id="line2d_16">
    <path clip-path="url(#p1814056e19)" d="M 103.827273 363.174545 
L 103.827273 363.086527 
L 106.230144 363.086527 
L 106.230144 362.887422 
L 108.633014 362.887422 
L 108.633014 362.527107 
L 111.035885 362.527107 
L 111.035885 361.95656 
L 113.438756 361.95656 
L 113.438756 361.130556 
L 115.841627 361.130556 
L 115.841627 360.009458 
L 118.244498 360.009458 
L 118.244498 358.560298 
L 120.647368 358.560298 
L 120.647368 356.757324 
L 123.050239 356.757324 
L 123.050239 354.582126 
L 125.45311 354.582126 
L 125.45311 352.023465 
L 127.855981 352.023465 
L 127.855981 349.076883 
L 130.258852 349.076883 
L 130.258852 345.74416 
L 132.661722 345.74416 
L 132.661722 342.032687 
L 135.064593 342.032687 
L 135.064593 337.954776 
L 137.467464 337.954776 
L 137.467464 333.52696 
L 139.870335 333.52696 
L 139.870335 328.769296 
L 142.273206 328.769296 
L 142.273206 323.704693 
L 144.676077 323.704693 
L 144.676077 318.358278 
L 147.078947 318.358278 
L 147.078947 312.756803 
L 149.481818 312.756803 
L 149.481818 306.928116 
L 151.884689 306.928116 
L 151.884689 300.900671 
L 154.28756 300.900671 
L 154.28756 294.703106 
L 156.690431 294.703106 
L 156.690431 288.363866 
L 159.093301 288.363866 
L 159.093301 281.910887 
L 161.496172 281.910887 
L 161.496172 275.371322 
L 163.899043 275.371322 
L 163.899043 268.771321 
L 166.301914 268.771321 
L 166.301914 262.135845 
L 168.704785 262.135845 
L 168.704785 255.488529 
L 171.107656 255.488529 
L 171.107656 248.851575 
L 173.510526 248.851575 
L 173.510526 242.245674 
L 175.913397 242.245674 
L 175.913397 235.689963 
L 178.316268 235.689963 
L 178.316268 229.201998 
L 180.719139 229.201998 
L 180.719139 222.797759 
L 183.12201 222.797759 
L 183.12201 216.491658 
L 185.52488 216.491658 
L 185.52488 210.296576 
L 187.927751 210.296576 
L 187.927751 204.223906 
L 190.330622 204.223906 
L 190.330622 198.283604 
L 192.733493 198.283604 
L 192.733493 192.484254 
L 195.136364 192.484254 
L 195.136364 186.833134 
L 197.539234 186.833134 
L 197.539234 181.336288 
L 199.942105 181.336288 
L 199.942105 175.998603 
L 202.344976 175.998603 
L 202.344976 170.823885 
L 204.747847 170.823885 
L 204.747847 165.814935 
L 207.150718 165.814935 
L 207.150718 160.973631 
L 209.553589 160.973631 
L 209.553589 156.300998 
L 211.956459 156.300998 
L 211.956459 151.797288 
L 214.35933 151.797288 
L 214.35933 147.462048 
L 216.762201 147.462048 
L 216.762201 143.294192 
L 219.165072 143.294192 
L 219.165072 139.292069 
L 221.567943 139.292069 
L 221.567943 135.453522 
L 223.970813 135.453522 
L 223.970813 131.775952 
L 226.373684 131.775952 
L 226.373684 128.256371 
L 228.776555 128.256371 
L 228.776555 124.89146 
L 231.179426 124.89146 
L 231.179426 121.677612 
L 233.582297 121.677612 
L 233.582297 118.610984 
L 235.985167 118.610984 
L 235.985167 115.687534 
L 238.388038 115.687534 
L 238.388038 112.903064 
L 240.790909 112.903064 
L 240.790909 110.253252 
L 243.19378 110.253252 
L 243.19378 107.733689 
L 245.596651 107.733689 
L 245.596651 105.339905 
L 247.999522 105.339905 
L 247.999522 103.067395 
L 250.402392 103.067395 
L 250.402392 100.911647 
L 252.805263 100.911647 
L 252.805263 98.86816 
L 255.208134 98.86816 
L 255.208134 96.932463 
L 257.611005 96.932463 
L 257.611005 95.100134 
L 260.013876 95.100134 
L 260.013876 93.366813 
L 262.416746 93.366813 
L 262.416746 91.728213 
L 264.819617 91.728213 
L 264.819617 90.180135 
L 267.222488 90.180135 
L 267.222488 88.718473 
L 269.625359 88.718473 
L 269.625359 87.339225 
L 272.02823 87.339225 
L 272.02823 86.038498 
L 274.4311 86.038498 
L 274.4311 84.812512 
L 276.833971 84.812512 
L 276.833971 83.657606 
L 279.236842 83.657606 
L 279.236842 82.570239 
L 281.639713 82.570239 
L 281.639713 81.546992 
L 284.042584 81.546992 
L 284.042584 80.584573 
L 286.445455 80.584573 
L 286.445455 79.679812 
L 288.848325 79.679812 
L 288.848325 78.829663 
L 291.251196 78.829663 
L 291.251196 78.031204 
L 293.654067 78.031204 
L 293.654067 77.281636 
L 296.056938 77.281636 
L 296.056938 76.578279 
L 298.459809 76.578279 
L 298.459809 75.918572 
L 300.862679 75.918572 
L 300.862679 75.300068 
L 303.26555 75.300068 
L 303.26555 74.720435 
L 305.668421 74.720435 
L 305.668421 74.177451 
L 308.071292 74.177451 
L 308.071292 73.669 
L 310.474163 73.669 
L 310.474163 73.19307 
L 312.877033 73.19307 
L 312.877033 72.74775 
L 315.279904 72.74775 
L 315.279904 72.331225 
L 317.682775 72.331225 
L 317.682775 71.941775 
L 320.085646 71.941775 
L 320.085646 71.577769 
L 322.488517 71.577769 
L 322.488517 71.237662 
L 324.891388 71.237662 
L 324.891388 70.919994 
L 327.294258 70.919994 
L 327.294258 70.623382 
L 329.697129 70.623382 
L 329.697129 70.346522 
L 332.1 70.346522 
L 332.1 70.088179 
L 334.502871 70.088179 
L 334.502871 69.847191 
L 336.905742 69.847191 
L 336.905742 69.622462 
L 339.308612 69.622462 
L 339.308612 69.412956 
L 341.711483 69.412956 
L 341.711483 69.2177 
L 344.114354 69.2177 
L 344.114354 69.035778 
L 346.517225 69.035778 
L 346.517225 68.866326 
L 348.920096 68.866326 
L 348.920096 68.708534 
L 351.322967 68.708534 
L 351.322967 68.561639 
L 353.725837 68.561639 
L 353.725837 68.424926 
L 356.128708 68.424926 
L 356.128708 68.297721 
L 358.531579 68.297721 
L 358.531579 68.179395 
L 363.337321 68.069354 
L 363.337321 67.967046 
L 368.143062 67.871948 
L 368.143062 67.783574 
L 372.948804 67.701469 
L 372.948804 67.625204 
L 377.754545 67.554381 
L 377.754545 67.488626 
L 382.560287 67.42759 
L 382.560287 67.370945 
L 389.7689 67.269634 
L 389.7689 67.224417 
L 396.977512 67.143616 
L 396.977512 67.107586 
L 406.588995 67.014597 
L 406.588995 66.988051 
L 421.00622 66.882091 
L 421.00622 66.865394 
L 445.034928 66.761688 
L 445.034928 66.754076 
L 560.372727 66.665455 
L 560.372727 66.665455 
" style="fill:none;stroke:#ff0000;stroke-linecap:square;stroke-width:1.2;"/>
   </g>
   <g id="patch_3">
    <path d="M 81 378 
L 81 51.84 
" style="fill:none;stroke:#000000;stroke-linecap:square;stroke-linejoin:miter;stroke-width:0.8;"/>
   </g>
   <g id="patch_4">
    <path d="M 583.2 378 
L 583.2 51.84 
" style="fill:none;stroke:#000000;stroke-linecap:square;stroke-linejoin:miter;stroke-width:0.8;"/>
   </g>
   <g id="patch_5">
    <path d="M 81 378 
L 583.2 378 
" style="fill:none;stroke:#000000;stroke-linecap:square;stroke-linejoin:miter;stroke-width:0.8;"/>
   </g>
   <g id="patch_6">
    <path d="M 81 51.84 
L 583.2 51.84 
" style="fill:none;stroke:#000000;stroke-linecap:square;stroke-linejoin:miter;stroke-width:0.8;"/>
   </g>
   <g id="legend_1">
    <g id="patch_7">
     <path d="M 89.4 96.6675 
L 185.971875 96.6675 
Q 188.371875 96.6675 188.371875 94.2675 
L 188.371875 60.24 
Q 188.371875 57.84 185.971875 57.84 
L 89.4 57.84 
Q 87 57.84 87 60.24 
L 87 94.2675 
Q 87 96.6675 89.4 96.6675 
z
" style="fill:#ffffff;opacity:0.8;stroke:#cccccc;stroke-linejoin:miter;"/>
    </g>
    <g id="line2d_17">
     <path d="M 91.8 67.558125 
L 115.8 67.558125 
" style="fill:none;stroke:#000000;stroke-linecap:square;stroke-width:1.2;"/>
    </g>
    <g id="line2d_18"/>
    <g id="text_17">
     <!-- FOPDT -->
     <defs>
      <path d="M 9.8125 72.90625 
L 51.703125 72.90625 
L 51.703125 64.59375 
L 19.671875 64.59375 
L 19.671875 43.109375 
L 48.578125 43.109375 
L 48.578125 34.8125 
L 19.671875 34.8125 
L 19.671875 0 
L 9.8125 0 
z
" id="DejaVuSans-70"/>
      <path d="M 39.40625 66.21875 
Q 28.65625 66.21875 22.328125 58.203125 
Q 16.015625 50.203125 16.015625 36.375 
Q 16.015625 22.609375 22.328125 14.59375 
Q 28.65625 6.59375 39.40625 6.59375 
Q 50.140625 6.59375 56.421875 14.59375 
Q 62.703125 22.609375 62.703125 36.375 
Q 62.703125 50.203125 56.421875 58.203125 
Q 50.140625 66.21875 39.40625 66.21875 
z
M 39.40625 74.21875 
Q 54.734375 74.21875 63.90625 63.9375 
Q 73.09375 53.65625 73.09375 36.375 
Q 73.09375 19.140625 63.90625 8.859375 
Q 54.734375 -1.421875 39.40625 -1.421875 
Q 24.03125 -1.421875 14.8125 8.828125 
Q 5.609375 19.09375 5.609375 36.375 
Q 5.609375 53.65625 14.8125 63.9375 
Q 24.03125 74.21875 39.40625 74.21875 
z
" id="DejaVuSans-79"/>
      <path d="M 19.671875 64.796875 
L 19.671875 37.40625 
L 32.078125 37.40625 
Q 38.96875 37.40625 42.71875 40.96875 
Q 46.484375 44.53125 46.484375 51.125 
Q 46.484375 57.671875 42.71875 61.234375 
Q 38.96875 64.796875 32.078125 64.796875 
z
M 9.8125 72.90625 
L 32.078125 72.90625 
Q 44.34375 72.90625 50.609375 67.359375 
Q 56.890625 61.8125 56.890625 51.125 
Q 56.890625 40.328125 50.609375 34.8125 
Q 44.34375 29.296875 32.078125 29.296875 
L 19.671875 29.296875 
L 19.671875 0 
L 9.8125 0 
z
" id="DejaVuSans-80"/>
      <path d="M 19.671875 64.796875 
L 19.671875 8.109375 
L 31.59375 8.109375 
Q 46.6875 8.109375 53.6875 14.9375 
Q 60.6875 21.78125 60.6875 36.53125 
Q 60.6875 51.171875 53.6875 57.984375 
Q 46.6875 64.796875 31.59375 64.796875 
z
M 9.8125 72.90625 
L 30.078125 72.90625 
Q 51.265625 72.90625 61.171875 64.09375 
Q 71.09375 55.28125 71.09375 36.53125 
Q 71.09375 17.671875 61.125 8.828125 
Q 51.171875 0 30.078125 0 
L 9.8125 0 
z
" id="DejaVuSans-68"/>
      <path d="M -0.296875 72.90625 
L 61.375 72.90625 
L 61.375 64.59375 
L 35.5 64.59375 
L 35.5 0 
L 25.59375 0 
L 25.59375 64.59375 
L -0.296875 64.59375 
z
" id="DejaVuSans-84"/>
     </defs>
     <g transform="translate(125.4 71.758125)scale(0.12 -0.12)">
      <use xlink:href="#DejaVuSans-70"/>
      <use x="57.519531" xlink:href="#DejaVuSans-79"/>
      <use x="136.230469" xlink:href="#DejaVuSans-80"/>
      <use x="196.533203" xlink:href="#DejaVuSans-68"/>
      <use x="273.535156" xlink:href="#DejaVuSans-84"/>
     </g>
    </g>
    <g id="line2d_19">
     <path d="M 91.8 85.171875 
L 115.8 85.171875 
" style="fill:none;stroke:#ff0000;stroke-linecap:square;stroke-width:1.2;"/>
    </g>
    <g id="line2d_20"/>
    <g id="text_18">
     <!-- 4º Ordem -->
     <defs>
      <path d="M 6.78125 28.90625 
L 40.375 28.90625 
L 40.375 22.90625 
L 6.78125 22.90625 
z
M 23.578125 74.21875 
Q 32.328125 74.21875 37.359375 68.8125 
Q 42.390625 63.421875 42.390625 54.109375 
Q 42.390625 44.78125 37.359375 39.421875 
Q 32.328125 34.078125 23.578125 34.078125 
Q 14.84375 34.078125 9.765625 39.453125 
Q 4.6875 44.828125 4.6875 54.109375 
Q 4.6875 63.421875 9.765625 68.8125 
Q 14.84375 74.21875 23.578125 74.21875 
z
M 23.578125 68.609375 
Q 18.453125 68.609375 15.375 64.671875 
Q 12.3125 60.75 12.3125 54.109375 
Q 12.3125 47.609375 15.40625 43.703125 
Q 18.5 39.796875 23.578125 39.796875 
Q 28.71875 39.796875 31.765625 43.703125 
Q 34.8125 47.609375 34.8125 54.109375 
Q 34.8125 60.796875 31.78125 64.703125 
Q 28.765625 68.609375 23.578125 68.609375 
z
" id="DejaVuSans-186"/>
      <path d="M 41.109375 46.296875 
Q 39.59375 47.171875 37.8125 47.578125 
Q 36.03125 48 33.890625 48 
Q 26.265625 48 22.1875 43.046875 
Q 18.109375 38.09375 18.109375 28.8125 
L 18.109375 0 
L 9.078125 0 
L 9.078125 54.6875 
L 18.109375 54.6875 
L 18.109375 46.1875 
Q 20.953125 51.171875 25.484375 53.578125 
Q 30.03125 56 36.53125 56 
Q 37.453125 56 38.578125 55.875 
Q 39.703125 55.765625 41.0625 55.515625 
z
" id="DejaVuSans-114"/>
      <path d="M 56.203125 29.59375 
L 56.203125 25.203125 
L 14.890625 25.203125 
Q 15.484375 15.921875 20.484375 11.0625 
Q 25.484375 6.203125 34.421875 6.203125 
Q 39.59375 6.203125 44.453125 7.46875 
Q 49.3125 8.734375 54.109375 11.28125 
L 54.109375 2.78125 
Q 49.265625 0.734375 44.1875 -0.34375 
Q 39.109375 -1.421875 33.890625 -1.421875 
Q 20.796875 -1.421875 13.15625 6.1875 
Q 5.515625 13.8125 5.515625 26.8125 
Q 5.515625 40.234375 12.765625 48.109375 
Q 20.015625 56 32.328125 56 
Q 43.359375 56 49.78125 48.890625 
Q 56.203125 41.796875 56.203125 29.59375 
z
M 47.21875 32.234375 
Q 47.125 39.59375 43.09375 43.984375 
Q 39.0625 48.390625 32.421875 48.390625 
Q 24.90625 48.390625 20.390625 44.140625 
Q 15.875 39.890625 15.1875 32.171875 
z
" id="DejaVuSans-101"/>
      <path d="M 52 44.1875 
Q 55.375 50.25 60.0625 53.125 
Q 64.75 56 71.09375 56 
Q 79.640625 56 84.28125 50.015625 
Q 88.921875 44.046875 88.921875 33.015625 
L 88.921875 0 
L 79.890625 0 
L 79.890625 32.71875 
Q 79.890625 40.578125 77.09375 44.375 
Q 74.3125 48.1875 68.609375 48.1875 
Q 61.625 48.1875 57.5625 43.546875 
Q 53.515625 38.921875 53.515625 30.90625 
L 53.515625 0 
L 44.484375 0 
L 44.484375 32.71875 
Q 44.484375 40.625 41.703125 44.40625 
Q 38.921875 48.1875 33.109375 48.1875 
Q 26.21875 48.1875 22.15625 43.53125 
Q 18.109375 38.875 18.109375 30.90625 
L 18.109375 0 
L 9.078125 0 
L 9.078125 54.6875 
L 18.109375 54.6875 
L 18.109375 46.1875 
Q 21.1875 51.21875 25.484375 53.609375 
Q 29.78125 56 35.6875 56 
Q 41.65625 56 45.828125 52.96875 
Q 50 49.953125 52 44.1875 
z
" id="DejaVuSans-109"/>
     </defs>
     <g transform="translate(125.4 89.371875)scale(0.12 -0.12)">
      <use xlink:href="#DejaVuSans-52"/>
      <use x="63.623047" xlink:href="#DejaVuSans-186"/>
      <use x="110.742188" xlink:href="#DejaVuSans-32"/>
      <use x="142.529297" xlink:href="#DejaVuSans-79"/>
      <use x="221.240234" xlink:href="#DejaVuSans-114"/>
      <use x="262.337891" xlink:href="#DejaVuSans-100"/>
      <use x="325.814453" xlink:href="#DejaVuSans-101"/>
      <use x="387.337891" xlink:href="#DejaVuSans-109"/>
     </g>
    </g>
   </g>
  </g>
 </g>
 <defs>
  <clipPath id="p1814056e19">
   <rect height="326.16" width="502.2" x="81" y="51.84"/>
  </clipPath>
 </defs>
</svg>
