<?xml version="1.0" encoding="utf-8" standalone="no"?>
<!DOCTYPE svg PUBLIC "-//W3C//DTD SVG 1.1//EN"
  "http://www.w3.org/Graphics/SVG/1.1/DTD/svg11.dtd">
<!-- Created with matplotlib (https://matplotlib.org/) -->
<svg height="432pt" version="1.1" viewBox="0 0 648 432" width="648pt" xmlns="http://www.w3.org/2000/svg" xmlns:xlink="http://www.w3.org/1999/xlink">
 <defs>
  <style type="text/css">
*{stroke-linecap:butt;stroke-linejoin:round;}
  </style>
 </defs>
 <g id="figure_1">
  <g id="patch_1">
   <path d="M 0 432 
L 648 432 
L 648 0 
L 0 0 
z
" style="fill:#ffffff;"/>
  </g>
  <g id="axes_1">
   <g id="patch_2">
    <path d="M 81 378 
L 583.2 378 
L 583.2 51.84 
L 81 51.84 
z
" style="fill:#ffffff;"/>
   </g>
   <g id="matplotlib.axis_1">
    <g id="xtick_1">
     <g id="line2d_1">
      <defs>
       <path d="M 0 0 
L 0 3.5 
" id="mb14c6e63d5" style="stroke:#000000;stroke-width:0.8;"/>
      </defs>
      <g>
       <use style="stroke:#000000;stroke-width:0.8;" x="103.827273" xlink:href="#mb14c6e63d5" y="378"/>
      </g>
     </g>
     <g id="text_1">
      <!-- 0.0 -->
      <defs>
       <path d="M 31.78125 66.40625 
Q 24.171875 66.40625 20.328125 58.90625 
Q 16.5 51.421875 16.5 36.375 
Q 16.5 21.390625 20.328125 13.890625 
Q 24.171875 6.390625 31.78125 6.390625 
Q 39.453125 6.390625 43.28125 13.890625 
Q 47.125 21.390625 47.125 36.375 
Q 47.125 51.421875 43.28125 58.90625 
Q 39.453125 66.40625 31.78125 66.40625 
z
M 31.78125 74.21875 
Q 44.046875 74.21875 50.515625 64.515625 
Q 56.984375 54.828125 56.984375 36.375 
Q 56.984375 17.96875 50.515625 8.265625 
Q 44.046875 -1.421875 31.78125 -1.421875 
Q 19.53125 -1.421875 13.0625 8.265625 
Q 6.59375 17.96875 6.59375 36.375 
Q 6.59375 54.828125 13.0625 64.515625 
Q 19.53125 74.21875 31.78125 74.21875 
z
" id="DejaVuSans-48"/>
       <path d="M 10.6875 12.40625 
L 21 12.40625 
L 21 0 
L 10.6875 0 
z
" id="DejaVuSans-46"/>
      </defs>
      <g transform="translate(95.87571 392.598437)scale(0.1 -0.1)">
       <use xlink:href="#DejaVuSans-48"/>
       <use x="63.623047" xlink:href="#DejaVuSans-46"/>
       <use x="95.410156" xlink:href="#DejaVuSans-48"/>
      </g>
     </g>
    </g>
    <g id="xtick_2">
     <g id="line2d_2">
      <g>
       <use style="stroke:#000000;stroke-width:0.8;" x="160.895455" xlink:href="#mb14c6e63d5" y="378"/>
      </g>
     </g>
     <g id="text_2">
      <!-- 2.5 -->
      <defs>
       <path d="M 19.1875 8.296875 
L 53.609375 8.296875 
L 53.609375 0 
L 7.328125 0 
L 7.328125 8.296875 
Q 12.9375 14.109375 22.625 23.890625 
Q 32.328125 33.6875 34.8125 36.53125 
Q 39.546875 41.84375 41.421875 45.53125 
Q 43.3125 49.21875 43.3125 52.78125 
Q 43.3125 58.59375 39.234375 62.25 
Q 35.15625 65.921875 28.609375 65.921875 
Q 23.96875 65.921875 18.8125 64.3125 
Q 13.671875 62.703125 7.8125 59.421875 
L 7.8125 69.390625 
Q 13.765625 71.78125 18.9375 73 
Q 24.125 74.21875 28.421875 74.21875 
Q 39.75 74.21875 46.484375 68.546875 
Q 53.21875 62.890625 53.21875 53.421875 
Q 53.21875 48.921875 51.53125 44.890625 
Q 49.859375 40.875 45.40625 35.40625 
Q 44.1875 33.984375 37.640625 27.21875 
Q 31.109375 20.453125 19.1875 8.296875 
z
" id="DejaVuSans-50"/>
       <path d="M 10.796875 72.90625 
L 49.515625 72.90625 
L 49.515625 64.59375 
L 19.828125 64.59375 
L 19.828125 46.734375 
Q 21.96875 47.46875 24.109375 47.828125 
Q 26.265625 48.1875 28.421875 48.1875 
Q 40.625 48.1875 47.75 41.5 
Q 54.890625 34.8125 54.890625 23.390625 
Q 54.890625 11.625 47.5625 5.09375 
Q 40.234375 -1.421875 26.90625 -1.421875 
Q 22.3125 -1.421875 17.546875 -0.640625 
Q 12.796875 0.140625 7.71875 1.703125 
L 7.71875 11.625 
Q 12.109375 9.234375 16.796875 8.0625 
Q 21.484375 6.890625 26.703125 6.890625 
Q 35.15625 6.890625 40.078125 11.328125 
Q 45.015625 15.765625 45.015625 23.390625 
Q 45.015625 31 40.078125 35.4375 
Q 35.15625 39.890625 26.703125 39.890625 
Q 22.75 39.890625 18.8125 39.015625 
Q 14.890625 38.140625 10.796875 36.28125 
z
" id="DejaVuSans-53"/>
      </defs>
      <g transform="translate(152.943892 392.598437)scale(0.1 -0.1)">
       <use xlink:href="#DejaVuSans-50"/>
       <use x="63.623047" xlink:href="#DejaVuSans-46"/>
       <use x="95.410156" xlink:href="#DejaVuSans-53"/>
      </g>
     </g>
    </g>
    <g id="xtick_3">
     <g id="line2d_3">
      <g>
       <use style="stroke:#000000;stroke-width:0.8;" x="217.963636" xlink:href="#mb14c6e63d5" y="378"/>
      </g>
     </g>
     <g id="text_3">
      <!-- 5.0 -->
      <g transform="translate(210.012074 392.598437)scale(0.1 -0.1)">
       <use xlink:href="#DejaVuSans-53"/>
       <use x="63.623047" xlink:href="#DejaVuSans-46"/>
       <use x="95.410156" xlink:href="#DejaVuSans-48"/>
      </g>
     </g>
    </g>
    <g id="xtick_4">
     <g id="line2d_4">
      <g>
       <use style="stroke:#000000;stroke-width:0.8;" x="275.031818" xlink:href="#mb14c6e63d5" y="378"/>
      </g>
     </g>
     <g id="text_4">
      <!-- 7.5 -->
      <defs>
       <path d="M 8.203125 72.90625 
L 55.078125 72.90625 
L 55.078125 68.703125 
L 28.609375 0 
L 18.3125 0 
L 43.21875 64.59375 
L 8.203125 64.59375 
z
" id="DejaVuSans-55"/>
      </defs>
      <g transform="translate(267.080256 392.598437)scale(0.1 -0.1)">
       <use xlink:href="#DejaVuSans-55"/>
       <use x="63.623047" xlink:href="#DejaVuSans-46"/>
       <use x="95.410156" xlink:href="#DejaVuSans-53"/>
      </g>
     </g>
    </g>
    <g id="xtick_5">
     <g id="line2d_5">
      <g>
       <use style="stroke:#000000;stroke-width:0.8;" x="332.1" xlink:href="#mb14c6e63d5" y="378"/>
      </g>
     </g>
     <g id="text_5">
      <!-- 10.0 -->
      <defs>
       <path d="M 12.40625 8.296875 
L 28.515625 8.296875 
L 28.515625 63.921875 
L 10.984375 60.40625 
L 10.984375 69.390625 
L 28.421875 72.90625 
L 38.28125 72.90625 
L 38.28125 8.296875 
L 54.390625 8.296875 
L 54.390625 0 
L 12.40625 0 
z
" id="DejaVuSans-49"/>
      </defs>
      <g transform="translate(320.967188 392.598437)scale(0.1 -0.1)">
       <use xlink:href="#DejaVuSans-49"/>
       <use x="63.623047" xlink:href="#DejaVuSans-48"/>
       <use x="127.246094" xlink:href="#DejaVuSans-46"/>
       <use x="159.033203" xlink:href="#DejaVuSans-48"/>
      </g>
     </g>
    </g>
    <g id="xtick_6">
     <g id="line2d_6">
      <g>
       <use style="stroke:#000000;stroke-width:0.8;" x="389.168182" xlink:href="#mb14c6e63d5" y="378"/>
      </g>
     </g>
     <g id="text_6">
      <!-- 12.5 -->
      <g transform="translate(378.035369 392.598437)scale(0.1 -0.1)">
       <use xlink:href="#DejaVuSans-49"/>
       <use x="63.623047" xlink:href="#DejaVuSans-50"/>
       <use x="127.246094" xlink:href="#DejaVuSans-46"/>
       <use x="159.033203" xlink:href="#DejaVuSans-53"/>
      </g>
     </g>
    </g>
    <g id="xtick_7">
     <g id="line2d_7">
      <g>
       <use style="stroke:#000000;stroke-width:0.8;" x="446.236364" xlink:href="#mb14c6e63d5" y="378"/>
      </g>
     </g>
     <g id="text_7">
      <!-- 15.0 -->
      <g transform="translate(435.103551 392.598437)scale(0.1 -0.1)">
       <use xlink:href="#DejaVuSans-49"/>
       <use x="63.623047" xlink:href="#DejaVuSans-53"/>
       <use x="127.246094" xlink:href="#DejaVuSans-46"/>
       <use x="159.033203" xlink:href="#DejaVuSans-48"/>
      </g>
     </g>
    </g>
    <g id="xtick_8">
     <g id="line2d_8">
      <g>
       <use style="stroke:#000000;stroke-width:0.8;" x="503.304545" xlink:href="#mb14c6e63d5" y="378"/>
      </g>
     </g>
     <g id="text_8">
      <!-- 17.5 -->
      <g transform="translate(492.171733 392.598437)scale(0.1 -0.1)">
       <use xlink:href="#DejaVuSans-49"/>
       <use x="63.623047" xlink:href="#DejaVuSans-55"/>
       <use x="127.246094" xlink:href="#DejaVuSans-46"/>
       <use x="159.033203" xlink:href="#DejaVuSans-53"/>
      </g>
     </g>
    </g>
    <g id="xtick_9">
     <g id="line2d_9">
      <g>
       <use style="stroke:#000000;stroke-width:0.8;" x="560.372727" xlink:href="#mb14c6e63d5" y="378"/>
      </g>
     </g>
     <g id="text_9">
      <!-- 20.0 -->
      <g transform="translate(549.239915 392.598437)scale(0.1 -0.1)">
       <use xlink:href="#DejaVuSans-50"/>
       <use x="63.623047" xlink:href="#DejaVuSans-48"/>
       <use x="127.246094" xlink:href="#DejaVuSans-46"/>
       <use x="159.033203" xlink:href="#DejaVuSans-48"/>
      </g>
     </g>
    </g>
    <g id="text_10">
     <!-- t (s) -->
     <defs>
      <path d="M 18.3125 70.21875 
L 18.3125 54.6875 
L 36.8125 54.6875 
L 36.8125 47.703125 
L 18.3125 47.703125 
L 18.3125 18.015625 
Q 18.3125 11.328125 20.140625 9.421875 
Q 21.96875 7.515625 27.59375 7.515625 
L 36.8125 7.515625 
L 36.8125 0 
L 27.59375 0 
Q 17.1875 0 13.234375 3.875 
Q 9.28125 7.765625 9.28125 18.015625 
L 9.28125 47.703125 
L 2.6875 47.703125 
L 2.6875 54.6875 
L 9.28125 54.6875 
L 9.28125 70.21875 
z
" id="DejaVuSans-116"/>
      <path id="DejaVuSans-32"/>
      <path d="M 31 75.875 
Q 24.46875 64.65625 21.28125 53.65625 
Q 18.109375 42.671875 18.109375 31.390625 
Q 18.109375 20.125 21.3125 9.0625 
Q 24.515625 -2 31 -13.1875 
L 23.1875 -13.1875 
Q 15.875 -1.703125 12.234375 9.375 
Q 8.59375 20.453125 8.59375 31.390625 
Q 8.59375 42.28125 12.203125 53.3125 
Q 15.828125 64.359375 23.1875 75.875 
z
" id="DejaVuSans-40"/>
      <path d="M 44.28125 53.078125 
L 44.28125 44.578125 
Q 40.484375 46.53125 36.375 47.5 
Q 32.28125 48.484375 27.875 48.484375 
Q 21.1875 48.484375 17.84375 46.4375 
Q 14.5 44.390625 14.5 40.28125 
Q 14.5 37.15625 16.890625 35.375 
Q 19.28125 33.59375 26.515625 31.984375 
L 29.59375 31.296875 
Q 39.15625 29.25 43.1875 25.515625 
Q 47.21875 21.78125 47.21875 15.09375 
Q 47.21875 7.46875 41.1875 3.015625 
Q 35.15625 -1.421875 24.609375 -1.421875 
Q 20.21875 -1.421875 15.453125 -0.5625 
Q 10.6875 0.296875 5.421875 2 
L 5.421875 11.28125 
Q 10.40625 8.6875 15.234375 7.390625 
Q 20.0625 6.109375 24.8125 6.109375 
Q 31.15625 6.109375 34.5625 8.28125 
Q 37.984375 10.453125 37.984375 14.40625 
Q 37.984375 18.0625 35.515625 20.015625 
Q 33.0625 21.96875 24.703125 23.78125 
L 21.578125 24.515625 
Q 13.234375 26.265625 9.515625 29.90625 
Q 5.8125 33.546875 5.8125 39.890625 
Q 5.8125 47.609375 11.28125 51.796875 
Q 16.75 56 26.8125 56 
Q 31.78125 56 36.171875 55.265625 
Q 40.578125 54.546875 44.28125 53.078125 
z
" id="DejaVuSans-115"/>
      <path d="M 8.015625 75.875 
L 15.828125 75.875 
Q 23.140625 64.359375 26.78125 53.3125 
Q 30.421875 42.28125 30.421875 31.390625 
Q 30.421875 20.453125 26.78125 9.375 
Q 23.140625 -1.703125 15.828125 -13.1875 
L 8.015625 -13.1875 
Q 14.5 -2 17.703125 9.0625 
Q 20.90625 20.125 20.90625 31.390625 
Q 20.90625 42.671875 17.703125 53.65625 
Q 14.5 64.65625 8.015625 75.875 
z
" id="DejaVuSans-41"/>
     </defs>
     <g transform="translate(320.033438 407.79625)scale(0.12 -0.12)">
      <use xlink:href="#DejaVuSans-116"/>
      <use x="39.208984" xlink:href="#DejaVuSans-32"/>
      <use x="70.996094" xlink:href="#DejaVuSans-40"/>
      <use x="110.009766" xlink:href="#DejaVuSans-115"/>
      <use x="162.109375" xlink:href="#DejaVuSans-41"/>
     </g>
    </g>
   </g>
   <g id="matplotlib.axis_2">
    <g id="ytick_1">
     <g id="line2d_10">
      <defs>
       <path d="M 0 0 
L -3.5 0 
" id="ma8911f7a3c" style="stroke:#000000;stroke-width:0.8;"/>
      </defs>
      <g>
       <use style="stroke:#000000;stroke-width:0.8;" x="81" xlink:href="#ma8911f7a3c" y="363.174545"/>
      </g>
     </g>
     <g id="text_11">
      <!-- 0.0 -->
      <g transform="translate(58.096875 366.973764)scale(0.1 -0.1)">
       <use xlink:href="#DejaVuSans-48"/>
       <use x="63.623047" xlink:href="#DejaVuSans-46"/>
       <use x="95.410156" xlink:href="#DejaVuSans-48"/>
      </g>
     </g>
    </g>
    <g id="ytick_2">
     <g id="line2d_11">
      <g>
       <use style="stroke:#000000;stroke-width:0.8;" x="81" xlink:href="#ma8911f7a3c" y="303.872549"/>
      </g>
     </g>
     <g id="text_12">
      <!-- 0.2 -->
      <g transform="translate(58.096875 307.671768)scale(0.1 -0.1)">
       <use xlink:href="#DejaVuSans-48"/>
       <use x="63.623047" xlink:href="#DejaVuSans-46"/>
       <use x="95.410156" xlink:href="#DejaVuSans-50"/>
      </g>
     </g>
    </g>
    <g id="ytick_3">
     <g id="line2d_12">
      <g>
       <use style="stroke:#000000;stroke-width:0.8;" x="81" xlink:href="#ma8911f7a3c" y="244.570553"/>
      </g>
     </g>
     <g id="text_13">
      <!-- 0.4 -->
      <defs>
       <path d="M 37.796875 64.3125 
L 12.890625 25.390625 
L 37.796875 25.390625 
z
M 35.203125 72.90625 
L 47.609375 72.90625 
L 47.609375 25.390625 
L 58.015625 25.390625 
L 58.015625 17.1875 
L 47.609375 17.1875 
L 47.609375 0 
L 37.796875 0 
L 37.796875 17.1875 
L 4.890625 17.1875 
L 4.890625 26.703125 
z
" id="DejaVuSans-52"/>
      </defs>
      <g transform="translate(58.096875 248.369771)scale(0.1 -0.1)">
       <use xlink:href="#DejaVuSans-48"/>
       <use x="63.623047" xlink:href="#DejaVuSans-46"/>
       <use x="95.410156" xlink:href="#DejaVuSans-52"/>
      </g>
     </g>
    </g>
    <g id="ytick_4">
     <g id="line2d_13">
      <g>
       <use style="stroke:#000000;stroke-width:0.8;" x="81" xlink:href="#ma8911f7a3c" y="185.268556"/>
      </g>
     </g>
     <g id="text_14">
      <!-- 0.6 -->
      <defs>
       <path d="M 33.015625 40.375 
Q 26.375 40.375 22.484375 35.828125 
Q 18.609375 31.296875 18.609375 23.390625 
Q 18.609375 15.53125 22.484375 10.953125 
Q 26.375 6.390625 33.015625 6.390625 
Q 39.65625 6.390625 43.53125 10.953125 
Q 47.40625 15.53125 47.40625 23.390625 
Q 47.40625 31.296875 43.53125 35.828125 
Q 39.65625 40.375 33.015625 40.375 
z
M 52.59375 71.296875 
L 52.59375 62.3125 
Q 48.875 64.0625 45.09375 64.984375 
Q 41.3125 65.921875 37.59375 65.921875 
Q 27.828125 65.921875 22.671875 59.328125 
Q 17.53125 52.734375 16.796875 39.40625 
Q 19.671875 43.65625 24.015625 45.921875 
Q 28.375 48.1875 33.59375 48.1875 
Q 44.578125 48.1875 50.953125 41.515625 
Q 57.328125 34.859375 57.328125 23.390625 
Q 57.328125 12.15625 50.6875 5.359375 
Q 44.046875 -1.421875 33.015625 -1.421875 
Q 20.359375 -1.421875 13.671875 8.265625 
Q 6.984375 17.96875 6.984375 36.375 
Q 6.984375 53.65625 15.1875 63.9375 
Q 23.390625 74.21875 37.203125 74.21875 
Q 40.921875 74.21875 44.703125 73.484375 
Q 48.484375 72.75 52.59375 71.296875 
z
" id="DejaVuSans-54"/>
      </defs>
      <g transform="translate(58.096875 189.067775)scale(0.1 -0.1)">
       <use xlink:href="#DejaVuSans-48"/>
       <use x="63.623047" xlink:href="#DejaVuSans-46"/>
       <use x="95.410156" xlink:href="#DejaVuSans-54"/>
      </g>
     </g>
    </g>
    <g id="ytick_5">
     <g id="line2d_14">
      <g>
       <use style="stroke:#000000;stroke-width:0.8;" x="81" xlink:href="#ma8911f7a3c" y="125.96656"/>
      </g>
     </g>
     <g id="text_15">
      <!-- 0.8 -->
      <defs>
       <path d="M 31.78125 34.625 
Q 24.75 34.625 20.71875 30.859375 
Q 16.703125 27.09375 16.703125 20.515625 
Q 16.703125 13.921875 20.71875 10.15625 
Q 24.75 6.390625 31.78125 6.390625 
Q 38.8125 6.390625 42.859375 10.171875 
Q 46.921875 13.96875 46.921875 20.515625 
Q 46.921875 27.09375 42.890625 30.859375 
Q 38.875 34.625 31.78125 34.625 
z
M 21.921875 38.8125 
Q 15.578125 40.375 12.03125 44.71875 
Q 8.5 49.078125 8.5 55.328125 
Q 8.5 64.0625 14.71875 69.140625 
Q 20.953125 74.21875 31.78125 74.21875 
Q 42.671875 74.21875 48.875 69.140625 
Q 55.078125 64.0625 55.078125 55.328125 
Q 55.078125 49.078125 51.53125 44.71875 
Q 48 40.375 41.703125 38.8125 
Q 48.828125 37.15625 52.796875 32.3125 
Q 56.78125 27.484375 56.78125 20.515625 
Q 56.78125 9.90625 50.3125 4.234375 
Q 43.84375 -1.421875 31.78125 -1.421875 
Q 19.734375 -1.421875 13.25 4.234375 
Q 6.78125 9.90625 6.78125 20.515625 
Q 6.78125 27.484375 10.78125 32.3125 
Q 14.796875 37.15625 21.921875 38.8125 
z
M 18.3125 54.390625 
Q 18.3125 48.734375 21.84375 45.5625 
Q 25.390625 42.390625 31.78125 42.390625 
Q 38.140625 42.390625 41.71875 45.5625 
Q 45.3125 48.734375 45.3125 54.390625 
Q 45.3125 60.0625 41.71875 63.234375 
Q 38.140625 66.40625 31.78125 66.40625 
Q 25.390625 66.40625 21.84375 63.234375 
Q 18.3125 60.0625 18.3125 54.390625 
z
" id="DejaVuSans-56"/>
      </defs>
      <g transform="translate(58.096875 129.765779)scale(0.1 -0.1)">
       <use xlink:href="#DejaVuSans-48"/>
       <use x="63.623047" xlink:href="#DejaVuSans-46"/>
       <use x="95.410156" xlink:href="#DejaVuSans-56"/>
      </g>
     </g>
    </g>
    <g id="ytick_6">
     <g id="line2d_15">
      <g>
       <use style="stroke:#000000;stroke-width:0.8;" x="81" xlink:href="#ma8911f7a3c" y="66.664564"/>
      </g>
     </g>
     <g id="text_16">
      <!-- 1.0 -->
      <g transform="translate(58.096875 70.463782)scale(0.1 -0.1)">
       <use xlink:href="#DejaVuSans-49"/>
       <use x="63.623047" xlink:href="#DejaVuSans-46"/>
       <use x="95.410156" xlink:href="#DejaVuSans-48"/>
      </g>
     </g>
    </g>
    <g id="text_17">
     <!-- Saída -->
     <defs>
      <path d="M 53.515625 70.515625 
L 53.515625 60.890625 
Q 47.90625 63.578125 42.921875 64.890625 
Q 37.9375 66.21875 33.296875 66.21875 
Q 25.25 66.21875 20.875 63.09375 
Q 16.5 59.96875 16.5 54.203125 
Q 16.5 49.359375 19.40625 46.890625 
Q 22.3125 44.4375 30.421875 42.921875 
L 36.375 41.703125 
Q 47.40625 39.59375 52.65625 34.296875 
Q 57.90625 29 57.90625 20.125 
Q 57.90625 9.515625 50.796875 4.046875 
Q 43.703125 -1.421875 29.984375 -1.421875 
Q 24.8125 -1.421875 18.96875 -0.25 
Q 13.140625 0.921875 6.890625 3.21875 
L 6.890625 13.375 
Q 12.890625 10.015625 18.65625 8.296875 
Q 24.421875 6.59375 29.984375 6.59375 
Q 38.421875 6.59375 43.015625 9.90625 
Q 47.609375 13.234375 47.609375 19.390625 
Q 47.609375 24.75 44.3125 27.78125 
Q 41.015625 30.8125 33.5 32.328125 
L 27.484375 33.5 
Q 16.453125 35.6875 11.515625 40.375 
Q 6.59375 45.0625 6.59375 53.421875 
Q 6.59375 63.09375 13.40625 68.65625 
Q 20.21875 74.21875 32.171875 74.21875 
Q 37.3125 74.21875 42.625 73.28125 
Q 47.953125 72.359375 53.515625 70.515625 
z
" id="DejaVuSans-83"/>
      <path d="M 34.28125 27.484375 
Q 23.390625 27.484375 19.1875 25 
Q 14.984375 22.515625 14.984375 16.5 
Q 14.984375 11.71875 18.140625 8.90625 
Q 21.296875 6.109375 26.703125 6.109375 
Q 34.1875 6.109375 38.703125 11.40625 
Q 43.21875 16.703125 43.21875 25.484375 
L 43.21875 27.484375 
z
M 52.203125 31.203125 
L 52.203125 0 
L 43.21875 0 
L 43.21875 8.296875 
Q 40.140625 3.328125 35.546875 0.953125 
Q 30.953125 -1.421875 24.3125 -1.421875 
Q 15.921875 -1.421875 10.953125 3.296875 
Q 6 8.015625 6 15.921875 
Q 6 25.140625 12.171875 29.828125 
Q 18.359375 34.515625 30.609375 34.515625 
L 43.21875 34.515625 
L 43.21875 35.40625 
Q 43.21875 41.609375 39.140625 45 
Q 35.0625 48.390625 27.6875 48.390625 
Q 23 48.390625 18.546875 47.265625 
Q 14.109375 46.140625 10.015625 43.890625 
L 10.015625 52.203125 
Q 14.9375 54.109375 19.578125 55.046875 
Q 24.21875 56 28.609375 56 
Q 40.484375 56 46.34375 49.84375 
Q 52.203125 43.703125 52.203125 31.203125 
z
" id="DejaVuSans-97"/>
      <path d="M 20.703125 79.984375 
L 30.421875 79.984375 
L 14.5 61.625 
L 7.03125 61.625 
z
M 9.421875 54.6875 
L 18.40625 54.6875 
L 18.40625 0 
L 9.421875 0 
z
M 13.921875 56 
z
" id="DejaVuSans-237"/>
      <path d="M 45.40625 46.390625 
L 45.40625 75.984375 
L 54.390625 75.984375 
L 54.390625 0 
L 45.40625 0 
L 45.40625 8.203125 
Q 42.578125 3.328125 38.25 0.953125 
Q 33.9375 -1.421875 27.875 -1.421875 
Q 17.96875 -1.421875 11.734375 6.484375 
Q 5.515625 14.40625 5.515625 27.296875 
Q 5.515625 40.1875 11.734375 48.09375 
Q 17.96875 56 27.875 56 
Q 33.9375 56 38.25 53.625 
Q 42.578125 51.265625 45.40625 46.390625 
z
M 14.796875 27.296875 
Q 14.796875 17.390625 18.875 11.75 
Q 22.953125 6.109375 30.078125 6.109375 
Q 37.203125 6.109375 41.296875 11.75 
Q 45.40625 17.390625 45.40625 27.296875 
Q 45.40625 37.203125 41.296875 42.84375 
Q 37.203125 48.484375 30.078125 48.484375 
Q 22.953125 48.484375 18.875 42.84375 
Q 14.796875 37.203125 14.796875 27.296875 
z
" id="DejaVuSans-100"/>
     </defs>
     <g transform="translate(51.60125 231.55875)rotate(-90)scale(0.12 -0.12)">
      <use xlink:href="#DejaVuSans-83"/>
      <use x="63.476562" xlink:href="#DejaVuSans-97"/>
      <use x="124.755859" xlink:href="#DejaVuSans-237"/>
      <use x="152.539062" xlink:href="#DejaVuSans-100"/>
      <use x="216.015625" xlink:href="#DejaVuSans-97"/>
     </g>
    </g>
   </g>
   <g id="line2d_16">
    <path clip-path="url(#pd44f2b17d5)" d="M 103.827273 362.990828 
L 103.827273 362.63254 
L 104.968636 362.63254 
L 104.968636 362.108485 
L 106.11 362.108485 
L 106.11 361.427138 
L 107.251364 361.427138 
L 107.251364 360.596655 
L 108.392727 360.596655 
L 108.392727 359.624881 
L 109.534091 359.624881 
L 109.534091 358.519366 
L 110.675455 358.519366 
L 110.675455 357.287369 
L 111.816818 357.287369 
L 111.816818 355.935872 
L 112.958182 355.935872 
L 112.958182 354.471588 
L 114.099545 354.471588 
L 114.099545 352.90097 
L 115.240909 352.90097 
L 115.240909 351.230217 
L 116.382273 351.230217 
L 116.382273 349.465288 
L 117.523636 349.465288 
L 117.523636 347.611907 
L 118.665 347.611907 
L 118.665 345.675572 
L 119.806364 345.675572 
L 119.806364 343.661558 
L 120.947727 343.661558 
L 120.947727 341.574935 
L 122.089091 341.574935 
L 122.089091 339.420564 
L 123.230455 339.420564 
L 123.230455 337.203111 
L 124.371818 337.203111 
L 124.371818 334.927052 
L 125.513182 334.927052 
L 125.513182 332.596677 
L 126.654545 332.596677 
L 126.654545 330.216101 
L 127.795909 330.216101 
L 127.795909 327.789268 
L 128.937273 327.789268 
L 128.937273 325.319955 
L 130.078636 325.319955 
L 130.078636 322.81178 
L 131.22 322.81178 
L 131.22 320.268208 
L 132.361364 320.268208 
L 132.361364 317.692555 
L 133.502727 317.692555 
L 133.502727 315.087995 
L 134.644091 315.087995 
L 134.644091 312.457563 
L 135.785455 312.457563 
L 135.785455 309.80416 
L 136.926818 309.80416 
L 136.926818 307.130559 
L 138.068182 307.130559 
L 138.068182 304.439411 
L 139.209545 304.439411 
L 139.209545 301.733245 
L 140.350909 301.733245 
L 140.350909 299.014476 
L 141.492273 299.014476 
L 141.492273 296.285409 
L 142.633636 296.285409 
L 142.633636 293.54824 
L 143.775 293.54824 
L 143.775 290.805065 
L 144.916364 290.805065 
L 144.916364 288.057878 
L 146.057727 288.057878 
L 146.057727 285.308578 
L 147.199091 285.308578 
L 147.199091 282.558972 
L 148.340455 282.558972 
L 148.340455 279.81078 
L 149.481818 279.81078 
L 149.481818 277.065635 
L 150.623182 277.065635 
L 150.623182 274.325088 
L 151.764545 274.325088 
L 151.764545 271.59061 
L 152.905909 271.59061 
L 152.905909 268.863598 
L 154.047273 268.863598 
L 154.047273 266.145374 
L 155.188636 266.145374 
L 155.188636 263.437191 
L 156.33 263.437191 
L 156.33 260.740232 
L 157.471364 260.740232 
L 157.471364 258.055617 
L 158.612727 258.055617 
L 158.612727 255.384403 
L 159.754091 255.384403 
L 159.754091 252.727585 
L 160.895455 252.727585 
L 160.895455 250.086103 
L 162.036818 250.086103 
L 162.036818 247.460838 
L 163.178182 247.460838 
L 163.178182 244.85262 
L 164.319545 244.85262 
L 164.319545 242.262228 
L 165.460909 242.262228 
L 165.460909 239.690389 
L 166.602273 239.690389 
L 166.602273 237.137785 
L 167.743636 237.137785 
L 167.743636 234.605052 
L 168.885 234.605052 
L 168.885 232.092782 
L 170.026364 232.092782 
L 170.026364 229.601526 
L 171.167727 229.601526 
L 171.167727 227.131795 
L 172.309091 227.131795 
L 172.309091 224.684059 
L 173.450455 224.684059 
L 173.450455 222.258755 
L 174.591818 222.258755 
L 174.591818 219.856283 
L 175.733182 219.856283 
L 175.733182 217.477008 
L 176.874545 217.477008 
L 176.874545 215.121264 
L 178.015909 215.121264 
L 178.015909 212.789354 
L 179.157273 212.789354 
L 179.157273 210.481552 
L 180.298636 210.481552 
L 180.298636 208.198101 
L 181.44 208.198101 
L 181.44 205.939219 
L 182.581364 205.939219 
L 182.581364 203.705098 
L 183.722727 203.705098 
L 183.722727 201.495905 
L 184.864091 201.495905 
L 184.864091 199.311784 
L 186.005455 199.311784 
L 186.005455 197.152854 
L 187.146818 197.152854 
L 187.146818 195.019215 
L 188.288182 195.019215 
L 188.288182 192.910946 
L 189.429545 192.910946 
L 189.429545 190.828105 
L 190.570909 190.828105 
L 190.570909 188.770734 
L 191.712273 188.770734 
L 191.712273 186.738853 
L 192.853636 186.738853 
L 192.853636 184.732471 
L 193.995 184.732471 
L 193.995 182.751575 
L 195.136364 182.751575 
L 195.136364 180.79614 
L 196.277727 180.79614 
L 196.277727 178.866126 
L 197.419091 178.866126 
L 197.419091 176.961479 
L 198.560455 176.961479 
L 198.560455 175.082132 
L 199.701818 175.082132 
L 199.701818 173.228006 
L 200.843182 173.228006 
L 200.843182 171.399009 
L 201.984545 171.399009 
L 201.984545 169.59504 
L 203.125909 169.59504 
L 203.125909 167.815985 
L 204.267273 167.815985 
L 204.267273 166.061722 
L 205.408636 166.061722 
L 205.408636 164.332119 
L 206.55 164.332119 
L 206.55 162.627036 
L 207.691364 162.627036 
L 207.691364 160.946322 
L 208.832727 160.946322 
L 208.832727 159.289822 
L 209.974091 159.289822 
L 209.974091 157.657372 
L 211.115455 157.657372 
L 211.115455 156.0488 
L 212.256818 156.0488 
L 212.256818 154.46393 
L 213.398182 154.46393 
L 213.398182 152.902577 
L 214.539545 152.902577 
L 214.539545 151.364554 
L 215.680909 151.364554 
L 215.680909 149.849666 
L 216.822273 149.849666 
L 216.822273 148.357714 
L 217.963636 148.357714 
L 217.963636 146.888496 
L 219.105 146.888496 
L 219.105 145.441803 
L 220.246364 145.441803 
L 220.246364 144.017425 
L 221.387727 144.017425 
L 221.387727 142.615148 
L 222.529091 142.615148 
L 222.529091 141.234752 
L 223.670455 141.234752 
L 223.670455 139.876019 
L 224.811818 139.876019 
L 224.811818 138.538725 
L 225.953182 138.538725 
L 225.953182 137.222644 
L 227.094545 137.222644 
L 227.094545 135.927549 
L 228.235909 135.927549 
L 228.235909 134.653211 
L 229.377273 134.653211 
L 229.377273 133.399398 
L 230.518636 133.399398 
L 230.518636 132.165879 
L 231.66 132.165879 
L 231.66 130.95242 
L 232.801364 130.95242 
L 232.801364 129.758787 
L 233.942727 129.758787 
L 233.942727 128.584744 
L 235.084091 128.584744 
L 235.084091 127.430056 
L 236.225455 127.430056 
L 236.225455 126.294487 
L 237.366818 126.294487 
L 237.366818 125.1778 
L 238.508182 125.1778 
L 238.508182 124.079759 
L 239.649545 124.079759 
L 239.649545 123.000128 
L 240.790909 123.000128 
L 240.790909 121.93867 
L 241.932273 121.93867 
L 241.932273 120.89515 
L 243.073636 120.89515 
L 243.073636 119.869332 
L 244.215 119.869332 
L 244.215 118.860981 
L 245.356364 118.860981 
L 245.356364 117.869865 
L 246.497727 117.869865 
L 246.497727 116.895748 
L 247.639091 116.895748 
L 247.639091 115.9384 
L 248.780455 115.9384 
L 248.780455 114.997589 
L 249.921818 114.997589 
L 249.921818 114.073084 
L 251.063182 114.073084 
L 251.063182 113.164658 
L 252.204545 113.164658 
L 252.204545 112.272082 
L 253.345909 112.272082 
L 253.345909 111.39513 
L 254.487273 111.39513 
L 254.487273 110.533577 
L 255.628636 110.533577 
L 255.628636 109.687201 
L 256.77 109.687201 
L 256.77 108.855779 
L 257.911364 108.855779 
L 257.911364 108.039091 
L 259.052727 108.039091 
L 259.052727 107.236919 
L 260.194091 107.236919 
L 260.194091 106.449046 
L 261.335455 106.449046 
L 261.335455 105.675258 
L 262.476818 105.675258 
L 262.476818 104.915342 
L 263.618182 104.915342 
L 263.618182 104.169085 
L 264.759545 104.169085 
L 264.759545 103.43628 
L 265.900909 103.43628 
L 265.900909 102.716719 
L 267.042273 102.716719 
L 267.042273 102.010196 
L 268.183636 102.010196 
L 268.183636 101.316508 
L 269.325 101.316508 
L 269.325 100.635455 
L 270.466364 100.635455 
L 270.466364 99.966837 
L 271.607727 99.966837 
L 271.607727 99.310456 
L 272.749091 99.310456 
L 272.749091 98.666118 
L 273.890455 98.666118 
L 273.890455 98.03363 
L 275.031818 98.03363 
L 275.031818 97.412802 
L 276.173182 97.412802 
L 276.173182 96.803444 
L 277.314545 96.803444 
L 277.314545 96.205371 
L 278.455909 96.205371 
L 278.455909 95.618397 
L 279.597273 95.618397 
L 279.597273 95.042342 
L 280.738636 95.042342 
L 280.738636 94.477026 
L 281.88 94.477026 
L 281.88 93.922269 
L 283.021364 93.922269 
L 283.021364 93.377898 
L 284.162727 93.377898 
L 284.162727 92.843739 
L 285.304091 92.843739 
L 285.304091 92.319621 
L 286.445455 92.319621 
L 286.445455 91.805374 
L 287.586818 91.805374 
L 287.586818 91.300833 
L 288.728182 91.300833 
L 288.728182 90.805832 
L 289.869545 90.805832 
L 289.869545 90.320209 
L 291.010909 90.320209 
L 291.010909 89.843805 
L 292.152273 89.843805 
L 292.152273 89.37646 
L 293.293636 89.37646 
L 293.293636 88.91802 
L 294.435 88.91802 
L 294.435 88.468331 
L 295.576364 88.468331 
L 295.576364 88.02724 
L 296.717727 88.02724 
L 296.717727 87.594598 
L 297.859091 87.594598 
L 297.859091 87.170259 
L 299.000455 87.170259 
L 299.000455 86.754077 
L 300.141818 86.754077 
L 300.141818 86.345908 
L 301.283182 86.345908 
L 301.283182 85.945612 
L 302.424545 85.945612 
L 302.424545 85.553049 
L 303.565909 85.553049 
L 303.565909 85.168084 
L 304.707273 85.168084 
L 304.707273 84.790579 
L 305.848636 84.790579 
L 305.848636 84.420404 
L 306.99 84.420404 
L 306.99 84.057426 
L 308.131364 84.057426 
L 308.131364 83.701517 
L 309.272727 83.701517 
L 309.272727 83.35255 
L 310.414091 83.35255 
L 310.414091 83.0104 
L 311.555455 83.0104 
L 311.555455 82.674943 
L 312.696818 82.674943 
L 312.696818 82.346058 
L 313.838182 82.346058 
L 313.838182 82.023627 
L 314.979545 82.023627 
L 314.979545 81.707531 
L 316.120909 81.707531 
L 316.120909 81.397655 
L 317.262273 81.397655 
L 317.262273 81.093885 
L 318.403636 81.093885 
L 318.403636 80.796109 
L 319.545 80.796109 
L 319.545 80.504217 
L 320.686364 80.504217 
L 320.686364 80.218101 
L 321.827727 80.218101 
L 321.827727 79.937653 
L 322.969091 79.937653 
L 322.969091 79.66277 
L 324.110455 79.66277 
L 324.110455 79.393347 
L 325.251818 79.393347 
L 325.251818 79.129283 
L 326.393182 79.129283 
L 326.393182 78.870478 
L 327.534545 78.870478 
L 327.534545 78.616835 
L 328.675909 78.616835 
L 328.675909 78.368256 
L 329.817273 78.368256 
L 329.817273 78.124646 
L 330.958636 78.124646 
L 330.958636 77.885913 
L 332.1 77.885913 
L 332.1 77.651964 
L 333.241364 77.651964 
L 333.241364 77.422709 
L 334.382727 77.422709 
L 334.382727 77.198059 
L 335.524091 77.198059 
L 335.524091 76.977928 
L 336.665455 76.977928 
L 336.665455 76.762229 
L 337.806818 76.762229 
L 337.806818 76.550878 
L 338.948182 76.550878 
L 338.948182 76.343792 
L 340.089545 76.343792 
L 340.089545 76.14089 
L 341.230909 76.14089 
L 341.230909 75.942092 
L 342.372273 75.942092 
L 342.372273 75.74732 
L 343.513636 75.74732 
L 343.513636 75.556495 
L 344.655 75.556495 
L 344.655 75.369543 
L 345.796364 75.369543 
L 345.796364 75.186388 
L 346.937727 75.186388 
L 346.937727 75.006958 
L 348.079091 75.006958 
L 348.079091 74.831181 
L 349.220455 74.831181 
L 349.220455 74.658985 
L 350.361818 74.658985 
L 350.361818 74.490302 
L 351.503182 74.490302 
L 351.503182 74.325063 
L 352.644545 74.325063 
L 352.644545 74.163202 
L 353.785909 74.163202 
L 353.785909 74.004652 
L 354.927273 74.004652 
L 354.927273 73.849349 
L 356.068636 73.849349 
L 356.068636 73.69723 
L 357.21 73.69723 
L 357.21 73.548232 
L 358.351364 73.548232 
L 358.351364 73.402294 
L 359.492727 73.402294 
L 359.492727 73.259356 
L 360.634091 73.259356 
L 360.634091 73.11936 
L 361.775455 73.11936 
L 361.775455 72.982247 
L 362.916818 72.982247 
L 362.916818 72.847961 
L 364.058182 72.847961 
L 364.058182 72.716445 
L 365.199545 72.716445 
L 365.199545 72.587646 
L 366.340909 72.587646 
L 366.340909 72.461508 
L 367.482273 72.461508 
L 367.482273 72.337981 
L 368.623636 72.337981 
L 368.623636 72.217011 
L 369.765 72.217011 
L 369.765 72.098549 
L 370.906364 72.098549 
L 370.906364 71.982543 
L 372.047727 71.982543 
L 372.047727 71.868946 
L 373.189091 71.868946 
L 373.189091 71.757709 
L 375.471818 71.648785 
L 375.471818 71.542129 
L 377.754545 71.437693 
L 377.754545 71.335435 
L 380.037273 71.23531 
L 380.037273 71.137275 
L 382.32 71.041289 
L 382.32 70.947311 
L 384.602727 70.855299 
L 384.602727 70.765214 
L 386.885455 70.677017 
L 386.885455 70.59067 
L 389.168182 70.506136 
L 389.168182 70.423378 
L 391.450909 70.342359 
L 391.450909 70.263045 
L 393.733636 70.1854 
L 393.733636 70.109392 
L 396.016364 70.034985 
L 396.016364 69.962149 
L 398.299091 69.89085 
L 398.299091 69.821058 
L 400.581818 69.752741 
L 400.581818 69.68587 
L 402.864545 69.620414 
L 402.864545 69.556345 
L 405.147273 69.493633 
L 405.147273 69.432253 
L 407.43 69.372175 
L 407.43 69.313373 
L 409.712727 69.25582 
L 409.712727 69.199492 
L 413.136818 69.090407 
L 413.136818 69.037601 
L 416.560909 68.935343 
L 416.560909 68.885845 
L 419.985 68.789998 
L 419.985 68.743606 
L 423.409091 68.653779 
L 423.409091 68.610304 
L 426.833182 68.526129 
L 426.833182 68.485391 
L 430.257273 68.40652 
L 430.257273 68.368352 
L 434.822727 68.258702 
L 434.822727 68.223715 
L 439.388182 68.123215 
L 439.388182 68.09115 
L 443.953636 67.999053 
L 443.953636 67.969672 
L 448.519091 67.88529 
L 448.519091 67.858373 
L 454.225909 67.756417 
L 454.225909 67.732297 
L 459.932727 67.640948 
L 459.932727 67.61934 
L 466.780909 67.518163 
L 466.780909 67.499233 
L 474.770455 67.394032 
L 474.770455 67.377817 
L 483.901364 67.273842 
L 483.901364 67.260263 
L 495.315 67.150745 
L 495.315 67.139877 
L 509.011364 67.035065 
L 509.011364 67.026755 
L 528.414545 66.916294 
L 528.414545 66.910622 
L 559.231364 66.800349 
L 559.231364 363.174545 
L 560.372727 363.174545 
L 560.372727 363.174545 
" style="fill:none;stroke:#000000;stroke-linecap:square;stroke-width:1.2;"/>
   </g>
   <g id="line2d_17">
    <path clip-path="url(#pd44f2b17d5)" d="M 103.827273 363.172868 
L 103.827273 363.166485 
L 108.392727 363.074358 
L 108.392727 363.001196 
L 110.675455 362.896806 
L 110.675455 362.754949 
L 111.816818 362.754949 
L 111.816818 362.569409 
L 112.958182 362.569409 
L 112.958182 362.334088 
L 114.099545 362.334088 
L 114.099545 362.04309 
L 115.240909 362.04309 
L 115.240909 361.690792 
L 116.382273 361.690792 
L 116.382273 361.271897 
L 117.523636 361.271897 
L 117.523636 360.781478 
L 118.665 360.781478 
L 118.665 360.215012 
L 119.806364 360.215012 
L 119.806364 359.568405 
L 120.947727 359.568405 
L 120.947727 358.838008 
L 122.089091 358.838008 
L 122.089091 358.020626 
L 123.230455 358.020626 
L 123.230455 357.113521 
L 124.371818 357.113521 
L 124.371818 356.114415 
L 125.513182 356.114415 
L 125.513182 355.021478 
L 126.654545 355.021478 
L 126.654545 353.833326 
L 127.795909 353.833326 
L 127.795909 352.549001 
L 128.937273 352.549001 
L 128.937273 351.167964 
L 130.078636 351.167964 
L 130.078636 349.690069 
L 131.22 349.690069 
L 131.22 348.115555 
L 132.361364 348.115555 
L 132.361364 346.445016 
L 133.502727 346.445016 
L 133.502727 344.679388 
L 134.644091 344.679388 
L 134.644091 342.819922 
L 135.785455 342.819922 
L 135.785455 340.868166 
L 136.926818 340.868166 
L 136.926818 338.825941 
L 138.068182 338.825941 
L 138.068182 336.695321 
L 139.209545 336.695321 
L 139.209545 334.478609 
L 140.350909 334.478609 
L 140.350909 332.178316 
L 141.492273 332.178316 
L 141.492273 329.797142 
L 142.633636 329.797142 
L 142.633636 327.337952 
L 143.775 327.337952 
L 143.775 324.80376 
L 144.916364 324.80376 
L 144.916364 322.197709 
L 146.057727 322.197709 
L 146.057727 319.523049 
L 147.199091 319.523049 
L 147.199091 316.783125 
L 148.340455 316.783125 
L 148.340455 313.981357 
L 149.481818 313.981357 
L 149.481818 311.121223 
L 150.623182 311.121223 
L 150.623182 308.206248 
L 151.764545 308.206248 
L 151.764545 305.239986 
L 152.905909 305.239986 
L 152.905909 302.226009 
L 154.047273 302.226009 
L 154.047273 299.167893 
L 155.188636 299.167893 
L 155.188636 296.069208 
L 156.33 296.069208 
L 156.33 292.933506 
L 157.471364 292.933506 
L 157.471364 289.76431 
L 158.612727 289.76431 
L 158.612727 286.565108 
L 159.754091 286.565108 
L 159.754091 283.339343 
L 160.895455 283.339343 
L 160.895455 280.090403 
L 162.036818 280.090403 
L 162.036818 276.821619 
L 163.178182 276.821619 
L 163.178182 273.536253 
L 164.319545 273.536253 
L 164.319545 270.237498 
L 165.460909 270.237498 
L 165.460909 266.928469 
L 166.602273 266.928469 
L 166.602273 263.612199 
L 167.743636 263.612199 
L 167.743636 260.291637 
L 168.885 260.291637 
L 168.885 256.969644 
L 170.026364 256.969644 
L 170.026364 253.64899 
L 171.167727 253.64899 
L 171.167727 250.332351 
L 172.309091 250.332351 
L 172.309091 247.022308 
L 173.450455 247.022308 
L 173.450455 243.721345 
L 174.591818 243.721345 
L 174.591818 240.43185 
L 175.733182 240.43185 
L 175.733182 237.156111 
L 176.874545 237.156111 
L 176.874545 233.896317 
L 178.015909 233.896317 
L 178.015909 230.654559 
L 179.157273 230.654559 
L 179.157273 227.432829 
L 180.298636 227.432829 
L 180.298636 224.233021 
L 181.44 224.233021 
L 181.44 221.056934 
L 182.581364 221.056934 
L 182.581364 217.906266 
L 183.722727 217.906266 
L 183.722727 214.782624 
L 184.864091 214.782624 
L 184.864091 211.687519 
L 186.005455 211.687519 
L 186.005455 208.622372 
L 187.146818 208.622372 
L 187.146818 205.588512 
L 188.288182 205.588512 
L 188.288182 202.587179 
L 189.429545 202.587179 
L 189.429545 199.619527 
L 190.570909 199.619527 
L 190.570909 196.686625 
L 191.712273 196.686625 
L 191.712273 193.78946 
L 192.853636 193.78946 
L 192.853636 190.928939 
L 193.995 190.928939 
L 193.995 188.105888 
L 195.136364 188.105888 
L 195.136364 185.321062 
L 196.277727 185.321062 
L 196.277727 182.575138 
L 197.419091 182.575138 
L 197.419091 179.868724 
L 198.560455 179.868724 
L 198.560455 177.20236 
L 199.701818 177.20236 
L 199.701818 174.576519 
L 200.843182 174.576519 
L 200.843182 171.99161 
L 201.984545 171.99161 
L 201.984545 169.447981 
L 203.125909 169.447981 
L 203.125909 166.945921 
L 204.267273 166.945921 
L 204.267273 164.485662 
L 205.408636 164.485662 
L 205.408636 162.067382 
L 206.55 162.067382 
L 206.55 159.691207 
L 207.691364 159.691207 
L 207.691364 157.357215 
L 208.832727 157.357215 
L 208.832727 155.065435 
L 209.974091 155.065435 
L 209.974091 152.815852 
L 211.115455 152.815852 
L 211.115455 150.608407 
L 212.256818 150.608407 
L 212.256818 148.443002 
L 213.398182 148.443002 
L 213.398182 146.319501 
L 214.539545 146.319501 
L 214.539545 144.237728 
L 215.680909 144.237728 
L 215.680909 142.197478 
L 216.822273 142.197478 
L 216.822273 140.19851 
L 217.963636 140.19851 
L 217.963636 138.240552 
L 219.105 138.240552 
L 219.105 136.323307 
L 220.246364 136.323307 
L 220.246364 134.446449 
L 221.387727 134.446449 
L 221.387727 132.609626 
L 222.529091 132.609626 
L 222.529091 130.812466 
L 223.670455 130.812466 
L 223.670455 129.054571 
L 224.811818 129.054571 
L 224.811818 127.335527 
L 225.953182 127.335527 
L 225.953182 125.654899 
L 227.094545 125.654899 
L 227.094545 124.012236 
L 228.235909 124.012236 
L 228.235909 122.407072 
L 229.377273 122.407072 
L 229.377273 120.838926 
L 230.518636 120.838926 
L 230.518636 119.307304 
L 231.66 119.307304 
L 231.66 117.811701 
L 232.801364 117.811701 
L 232.801364 116.3516 
L 233.942727 116.3516 
L 233.942727 114.926478 
L 235.084091 114.926478 
L 235.084091 113.5358 
L 236.225455 113.5358 
L 236.225455 112.179028 
L 237.366818 112.179028 
L 237.366818 110.855614 
L 238.508182 110.855614 
L 238.508182 109.565007 
L 239.649545 109.565007 
L 239.649545 108.306653 
L 240.790909 108.306653 
L 240.790909 107.079991 
L 241.932273 107.079991 
L 241.932273 105.884463 
L 243.073636 105.884463 
L 243.073636 104.719503 
L 244.215 104.719503 
L 244.215 103.58455 
L 245.356364 103.58455 
L 245.356364 102.479038 
L 246.497727 102.479038 
L 246.497727 101.402405 
L 247.639091 101.402405 
L 247.639091 100.354088 
L 248.780455 100.354088 
L 248.780455 99.333526 
L 249.921818 99.333526 
L 249.921818 98.340161 
L 251.063182 98.340161 
L 251.063182 97.373438 
L 252.204545 97.373438 
L 252.204545 96.432803 
L 253.345909 96.432803 
L 253.345909 95.517708 
L 254.487273 95.517708 
L 254.487273 94.627608 
L 255.628636 94.627608 
L 255.628636 93.761963 
L 256.77 93.761963 
L 256.77 92.920238 
L 257.911364 92.920238 
L 257.911364 92.101902 
L 259.052727 92.101902 
L 259.052727 91.306431 
L 260.194091 91.306431 
L 260.194091 90.533306 
L 261.335455 90.533306 
L 261.335455 89.782015 
L 262.476818 89.782015 
L 262.476818 89.05205 
L 263.618182 89.05205 
L 263.618182 88.342913 
L 264.759545 88.342913 
L 264.759545 87.654109 
L 265.900909 87.654109 
L 265.900909 86.985154 
L 267.042273 86.985154 
L 267.042273 86.335566 
L 268.183636 86.335566 
L 268.183636 85.704875 
L 269.325 85.704875 
L 269.325 85.092616 
L 270.466364 85.092616 
L 270.466364 84.498332 
L 271.607727 84.498332 
L 271.607727 83.921572 
L 272.749091 83.921572 
L 272.749091 83.361895 
L 273.890455 83.361895 
L 273.890455 82.818866 
L 275.031818 82.818866 
L 275.031818 82.292059 
L 276.173182 82.292059 
L 276.173182 81.781053 
L 277.314545 81.781053 
L 277.314545 81.285439 
L 278.455909 81.285439 
L 278.455909 80.804812 
L 279.597273 80.804812 
L 279.597273 80.338777 
L 280.738636 80.338777 
L 280.738636 79.886946 
L 281.88 79.886946 
L 281.88 79.448938 
L 283.021364 79.448938 
L 283.021364 79.02438 
L 284.162727 79.02438 
L 284.162727 78.612909 
L 285.304091 78.612909 
L 285.304091 78.214167 
L 286.445455 78.214167 
L 286.445455 77.827804 
L 287.586818 77.827804 
L 287.586818 77.453478 
L 288.728182 77.453478 
L 288.728182 77.090855 
L 289.869545 77.090855 
L 289.869545 76.739608 
L 291.010909 76.739608 
L 291.010909 76.399416 
L 292.152273 76.399416 
L 292.152273 76.069967 
L 293.293636 76.069967 
L 293.293636 75.750956 
L 294.435 75.750956 
L 294.435 75.442085 
L 295.576364 75.442085 
L 295.576364 75.143062 
L 296.717727 75.143062 
L 296.717727 74.853603 
L 297.859091 74.853603 
L 297.859091 74.57343 
L 299.000455 74.57343 
L 299.000455 74.302273 
L 300.141818 74.302273 
L 300.141818 74.039868 
L 301.283182 74.039868 
L 301.283182 73.785957 
L 302.424545 73.785957 
L 302.424545 73.540289 
L 303.565909 73.540289 
L 303.565909 73.302619 
L 304.707273 73.302619 
L 304.707273 73.072709 
L 305.848636 73.072709 
L 305.848636 72.850325 
L 306.99 72.850325 
L 306.99 72.635242 
L 308.131364 72.635242 
L 308.131364 72.427238 
L 309.272727 72.427238 
L 309.272727 72.2261 
L 310.414091 72.2261 
L 310.414091 72.031618 
L 311.555455 72.031618 
L 311.555455 71.843587 
L 312.696818 71.843587 
L 312.696818 71.661811 
L 313.838182 71.661811 
L 313.838182 71.486097 
L 314.979545 71.486097 
L 314.979545 71.316256 
L 316.120909 71.316256 
L 316.120909 71.152106 
L 317.262273 71.152106 
L 317.262273 70.993471 
L 318.403636 70.993471 
L 318.403636 70.840177 
L 319.545 70.840177 
L 319.545 70.692057 
L 320.686364 70.692057 
L 320.686364 70.548948 
L 321.827727 70.548948 
L 321.827727 70.410691 
L 322.969091 70.410691 
L 322.969091 70.277133 
L 324.110455 70.277133 
L 324.110455 70.148124 
L 325.251818 70.148124 
L 325.251818 70.023519 
L 326.393182 70.023519 
L 326.393182 69.903177 
L 327.534545 69.903177 
L 327.534545 69.78696 
L 328.675909 69.78696 
L 328.675909 69.674737 
L 330.958636 69.566377 
L 330.958636 69.461757 
L 333.241364 69.360753 
L 333.241364 69.263248 
L 335.524091 69.169128 
L 335.524091 69.078282 
L 337.806818 68.990601 
L 337.806818 68.905983 
L 340.089545 68.824324 
L 340.089545 68.745528 
L 342.372273 68.669499 
L 342.372273 68.596145 
L 344.655 68.525376 
L 344.655 68.457106 
L 346.937727 68.391251 
L 346.937727 68.327729 
L 349.220455 68.266463 
L 349.220455 68.207375 
L 351.503182 68.150391 
L 351.503182 68.095441 
L 354.927273 67.991366 
L 354.927273 67.942108 
L 358.351364 67.84884 
L 358.351364 67.80471 
L 361.775455 67.721171 
L 361.775455 67.681655 
L 366.340909 67.571505 
L 366.340909 67.537426 
L 370.906364 67.442476 
L 370.906364 67.413113 
L 376.613182 67.306057 
L 376.613182 67.281712 
L 383.461364 67.172844 
L 383.461364 67.153433 
L 391.450909 67.051258 
L 391.450909 67.036389 
L 402.864545 66.925381 
L 402.864545 66.915259 
L 419.985 66.808079 
L 419.985 66.802438 
L 466.780909 66.691626 
L 466.780909 66.690532 
L 559.231364 66.665455 
L 559.231364 363.174545 
L 560.372727 363.174545 
L 560.372727 363.174545 
" style="fill:none;stroke:#ff0000;stroke-linecap:square;stroke-width:1.2;"/>
   </g>
   <g id="patch_3">
    <path d="M 81 378 
L 81 51.84 
" style="fill:none;stroke:#000000;stroke-linecap:square;stroke-linejoin:miter;stroke-width:0.8;"/>
   </g>
   <g id="patch_4">
    <path d="M 583.2 378 
L 583.2 51.84 
" style="fill:none;stroke:#000000;stroke-linecap:square;stroke-linejoin:miter;stroke-width:0.8;"/>
   </g>
   <g id="patch_5">
    <path d="M 81 378 
L 583.2 378 
" style="fill:none;stroke:#000000;stroke-linecap:square;stroke-linejoin:miter;stroke-width:0.8;"/>
   </g>
   <g id="patch_6">
    <path d="M 81 51.84 
L 583.2 51.84 
" style="fill:none;stroke:#000000;stroke-linecap:square;stroke-linejoin:miter;stroke-width:0.8;"/>
   </g>
   <g id="legend_1">
    <g id="patch_7">
     <path d="M 89.4 96.6675 
L 185.971875 96.6675 
Q 188.371875 96.6675 188.371875 94.2675 
L 188.371875 60.24 
Q 188.371875 57.84 185.971875 57.84 
L 89.4 57.84 
Q 87 57.84 87 60.24 
L 87 94.2675 
Q 87 96.6675 89.4 96.6675 
z
" style="fill:#ffffff;opacity:0.8;stroke:#cccccc;stroke-linejoin:miter;"/>
    </g>
    <g id="line2d_18">
     <path d="M 91.8 67.558125 
L 115.8 67.558125 
" style="fill:none;stroke:#000000;stroke-linecap:square;stroke-width:1.2;"/>
    </g>
    <g id="line2d_19"/>
    <g id="text_18">
     <!-- FOPDT -->
     <defs>
      <path d="M 9.8125 72.90625 
L 51.703125 72.90625 
L 51.703125 64.59375 
L 19.671875 64.59375 
L 19.671875 43.109375 
L 48.578125 43.109375 
L 48.578125 34.8125 
L 19.671875 34.8125 
L 19.671875 0 
L 9.8125 0 
z
" id="DejaVuSans-70"/>
      <path d="M 39.40625 66.21875 
Q 28.65625 66.21875 22.328125 58.203125 
Q 16.015625 50.203125 16.015625 36.375 
Q 16.015625 22.609375 22.328125 14.59375 
Q 28.65625 6.59375 39.40625 6.59375 
Q 50.140625 6.59375 56.421875 14.59375 
Q 62.703125 22.609375 62.703125 36.375 
Q 62.703125 50.203125 56.421875 58.203125 
Q 50.140625 66.21875 39.40625 66.21875 
z
M 39.40625 74.21875 
Q 54.734375 74.21875 63.90625 63.9375 
Q 73.09375 53.65625 73.09375 36.375 
Q 73.09375 19.140625 63.90625 8.859375 
Q 54.734375 -1.421875 39.40625 -1.421875 
Q 24.03125 -1.421875 14.8125 8.828125 
Q 5.609375 19.09375 5.609375 36.375 
Q 5.609375 53.65625 14.8125 63.9375 
Q 24.03125 74.21875 39.40625 74.21875 
z
" id="DejaVuSans-79"/>
      <path d="M 19.671875 64.796875 
L 19.671875 37.40625 
L 32.078125 37.40625 
Q 38.96875 37.40625 42.71875 40.96875 
Q 46.484375 44.53125 46.484375 51.125 
Q 46.484375 57.671875 42.71875 61.234375 
Q 38.96875 64.796875 32.078125 64.796875 
z
M 9.8125 72.90625 
L 32.078125 72.90625 
Q 44.34375 72.90625 50.609375 67.359375 
Q 56.890625 61.8125 56.890625 51.125 
Q 56.890625 40.328125 50.609375 34.8125 
Q 44.34375 29.296875 32.078125 29.296875 
L 19.671875 29.296875 
L 19.671875 0 
L 9.8125 0 
z
" id="DejaVuSans-80"/>
      <path d="M 19.671875 64.796875 
L 19.671875 8.109375 
L 31.59375 8.109375 
Q 46.6875 8.109375 53.6875 14.9375 
Q 60.6875 21.78125 60.6875 36.53125 
Q 60.6875 51.171875 53.6875 57.984375 
Q 46.6875 64.796875 31.59375 64.796875 
z
M 9.8125 72.90625 
L 30.078125 72.90625 
Q 51.265625 72.90625 61.171875 64.09375 
Q 71.09375 55.28125 71.09375 36.53125 
Q 71.09375 17.671875 61.125 8.828125 
Q 51.171875 0 30.078125 0 
L 9.8125 0 
z
" id="DejaVuSans-68"/>
      <path d="M -0.296875 72.90625 
L 61.375 72.90625 
L 61.375 64.59375 
L 35.5 64.59375 
L 35.5 0 
L 25.59375 0 
L 25.59375 64.59375 
L -0.296875 64.59375 
z
" id="DejaVuSans-84"/>
     </defs>
     <g transform="translate(125.4 71.758125)scale(0.12 -0.12)">
      <use xlink:href="#DejaVuSans-70"/>
      <use x="57.519531" xlink:href="#DejaVuSans-79"/>
      <use x="136.230469" xlink:href="#DejaVuSans-80"/>
      <use x="196.533203" xlink:href="#DejaVuSans-68"/>
      <use x="273.535156" xlink:href="#DejaVuSans-84"/>
     </g>
    </g>
    <g id="line2d_20">
     <path d="M 91.8 85.171875 
L 115.8 85.171875 
" style="fill:none;stroke:#ff0000;stroke-linecap:square;stroke-width:1.2;"/>
    </g>
    <g id="line2d_21"/>
    <g id="text_19">
     <!-- 4º Ordem -->
     <defs>
      <path d="M 6.78125 28.90625 
L 40.375 28.90625 
L 40.375 22.90625 
L 6.78125 22.90625 
z
M 23.578125 74.21875 
Q 32.328125 74.21875 37.359375 68.8125 
Q 42.390625 63.421875 42.390625 54.109375 
Q 42.390625 44.78125 37.359375 39.421875 
Q 32.328125 34.078125 23.578125 34.078125 
Q 14.84375 34.078125 9.765625 39.453125 
Q 4.6875 44.828125 4.6875 54.109375 
Q 4.6875 63.421875 9.765625 68.8125 
Q 14.84375 74.21875 23.578125 74.21875 
z
M 23.578125 68.609375 
Q 18.453125 68.609375 15.375 64.671875 
Q 12.3125 60.75 12.3125 54.109375 
Q 12.3125 47.609375 15.40625 43.703125 
Q 18.5 39.796875 23.578125 39.796875 
Q 28.71875 39.796875 31.765625 43.703125 
Q 34.8125 47.609375 34.8125 54.109375 
Q 34.8125 60.796875 31.78125 64.703125 
Q 28.765625 68.609375 23.578125 68.609375 
z
" id="DejaVuSans-186"/>
      <path d="M 41.109375 46.296875 
Q 39.59375 47.171875 37.8125 47.578125 
Q 36.03125 48 33.890625 48 
Q 26.265625 48 22.1875 43.046875 
Q 18.109375 38.09375 18.109375 28.8125 
L 18.109375 0 
L 9.078125 0 
L 9.078125 54.6875 
L 18.109375 54.6875 
L 18.109375 46.1875 
Q 20.953125 51.171875 25.484375 53.578125 
Q 30.03125 56 36.53125 56 
Q 37.453125 56 38.578125 55.875 
Q 39.703125 55.765625 41.0625 55.515625 
z
" id="DejaVuSans-114"/>
      <path d="M 56.203125 29.59375 
L 56.203125 25.203125 
L 14.890625 25.203125 
Q 15.484375 15.921875 20.484375 11.0625 
Q 25.484375 6.203125 34.421875 6.203125 
Q 39.59375 6.203125 44.453125 7.46875 
Q 49.3125 8.734375 54.109375 11.28125 
L 54.109375 2.78125 
Q 49.265625 0.734375 44.1875 -0.34375 
Q 39.109375 -1.421875 33.890625 -1.421875 
Q 20.796875 -1.421875 13.15625 6.1875 
Q 5.515625 13.8125 5.515625 26.8125 
Q 5.515625 40.234375 12.765625 48.109375 
Q 20.015625 56 32.328125 56 
Q 43.359375 56 49.78125 48.890625 
Q 56.203125 41.796875 56.203125 29.59375 
z
M 47.21875 32.234375 
Q 47.125 39.59375 43.09375 43.984375 
Q 39.0625 48.390625 32.421875 48.390625 
Q 24.90625 48.390625 20.390625 44.140625 
Q 15.875 39.890625 15.1875 32.171875 
z
" id="DejaVuSans-101"/>
      <path d="M 52 44.1875 
Q 55.375 50.25 60.0625 53.125 
Q 64.75 56 71.09375 56 
Q 79.640625 56 84.28125 50.015625 
Q 88.921875 44.046875 88.921875 33.015625 
L 88.921875 0 
L 79.890625 0 
L 79.890625 32.71875 
Q 79.890625 40.578125 77.09375 44.375 
Q 74.3125 48.1875 68.609375 48.1875 
Q 61.625 48.1875 57.5625 43.546875 
Q 53.515625 38.921875 53.515625 30.90625 
L 53.515625 0 
L 44.484375 0 
L 44.484375 32.71875 
Q 44.484375 40.625 41.703125 44.40625 
Q 38.921875 48.1875 33.109375 48.1875 
Q 26.21875 48.1875 22.15625 43.53125 
Q 18.109375 38.875 18.109375 30.90625 
L 18.109375 0 
L 9.078125 0 
L 9.078125 54.6875 
L 18.109375 54.6875 
L 18.109375 46.1875 
Q 21.1875 51.21875 25.484375 53.609375 
Q 29.78125 56 35.6875 56 
Q 41.65625 56 45.828125 52.96875 
Q 50 49.953125 52 44.1875 
z
" id="DejaVuSans-109"/>
     </defs>
     <g transform="translate(125.4 89.371875)scale(0.12 -0.12)">
      <use xlink:href="#DejaVuSans-52"/>
      <use x="63.623047" xlink:href="#DejaVuSans-186"/>
      <use x="110.742188" xlink:href="#DejaVuSans-32"/>
      <use x="142.529297" xlink:href="#DejaVuSans-79"/>
      <use x="221.240234" xlink:href="#DejaVuSans-114"/>
      <use x="262.337891" xlink:href="#DejaVuSans-100"/>
      <use x="325.814453" xlink:href="#DejaVuSans-101"/>
      <use x="387.337891" xlink:href="#DejaVuSans-109"/>
     </g>
    </g>
   </g>
  </g>
 </g>
 <defs>
  <clipPath id="pd44f2b17d5">
   <rect height="326.16" width="502.2" x="81" y="51.84"/>
  </clipPath>
 </defs>
</svg>
