<?xml version="1.0" encoding="utf-8" standalone="no"?>
<!DOCTYPE svg PUBLIC "-//W3C//DTD SVG 1.1//EN"
  "http://www.w3.org/Graphics/SVG/1.1/DTD/svg11.dtd">
<!-- Created with matplotlib (https://matplotlib.org/) -->
<svg height="432pt" version="1.1" viewBox="0 0 648 432" width="648pt" xmlns="http://www.w3.org/2000/svg" xmlns:xlink="http://www.w3.org/1999/xlink">
 <defs>
  <style type="text/css">
*{stroke-linecap:butt;stroke-linejoin:round;}
  </style>
 </defs>
 <g id="figure_1">
  <g id="patch_1">
   <path d="M 0 432 
L 648 432 
L 648 0 
L 0 0 
z
" style="fill:#ffffff;"/>
  </g>
  <g id="axes_1">
   <g id="patch_2">
    <path d="M 81 378 
L 583.2 378 
L 583.2 51.84 
L 81 51.84 
z
" style="fill:#ffffff;"/>
   </g>
   <g id="matplotlib.axis_1">
    <g id="xtick_1">
     <g id="line2d_1">
      <defs>
       <path d="M 0 0 
L 0 3.5 
" id="m611b19098a" style="stroke:#000000;stroke-width:0.8;"/>
      </defs>
      <g>
       <use style="stroke:#000000;stroke-width:0.8;" x="103.827273" xlink:href="#m611b19098a" y="378"/>
      </g>
     </g>
     <g id="text_1">
      <!-- 0.0 -->
      <defs>
       <path d="M 31.78125 66.40625 
Q 24.171875 66.40625 20.328125 58.90625 
Q 16.5 51.421875 16.5 36.375 
Q 16.5 21.390625 20.328125 13.890625 
Q 24.171875 6.390625 31.78125 6.390625 
Q 39.453125 6.390625 43.28125 13.890625 
Q 47.125 21.390625 47.125 36.375 
Q 47.125 51.421875 43.28125 58.90625 
Q 39.453125 66.40625 31.78125 66.40625 
z
M 31.78125 74.21875 
Q 44.046875 74.21875 50.515625 64.515625 
Q 56.984375 54.828125 56.984375 36.375 
Q 56.984375 17.96875 50.515625 8.265625 
Q 44.046875 -1.421875 31.78125 -1.421875 
Q 19.53125 -1.421875 13.0625 8.265625 
Q 6.59375 17.96875 6.59375 36.375 
Q 6.59375 54.828125 13.0625 64.515625 
Q 19.53125 74.21875 31.78125 74.21875 
z
" id="DejaVuSans-48"/>
       <path d="M 10.6875 12.40625 
L 21 12.40625 
L 21 0 
L 10.6875 0 
z
" id="DejaVuSans-46"/>
      </defs>
      <g transform="translate(95.87571 392.598437)scale(0.1 -0.1)">
       <use xlink:href="#DejaVuSans-48"/>
       <use x="63.623047" xlink:href="#DejaVuSans-46"/>
       <use x="95.410156" xlink:href="#DejaVuSans-48"/>
      </g>
     </g>
    </g>
    <g id="xtick_2">
     <g id="line2d_2">
      <g>
       <use style="stroke:#000000;stroke-width:0.8;" x="160.895455" xlink:href="#m611b19098a" y="378"/>
      </g>
     </g>
     <g id="text_2">
      <!-- 2.5 -->
      <defs>
       <path d="M 19.1875 8.296875 
L 53.609375 8.296875 
L 53.609375 0 
L 7.328125 0 
L 7.328125 8.296875 
Q 12.9375 14.109375 22.625 23.890625 
Q 32.328125 33.6875 34.8125 36.53125 
Q 39.546875 41.84375 41.421875 45.53125 
Q 43.3125 49.21875 43.3125 52.78125 
Q 43.3125 58.59375 39.234375 62.25 
Q 35.15625 65.921875 28.609375 65.921875 
Q 23.96875 65.921875 18.8125 64.3125 
Q 13.671875 62.703125 7.8125 59.421875 
L 7.8125 69.390625 
Q 13.765625 71.78125 18.9375 73 
Q 24.125 74.21875 28.421875 74.21875 
Q 39.75 74.21875 46.484375 68.546875 
Q 53.21875 62.890625 53.21875 53.421875 
Q 53.21875 48.921875 51.53125 44.890625 
Q 49.859375 40.875 45.40625 35.40625 
Q 44.1875 33.984375 37.640625 27.21875 
Q 31.109375 20.453125 19.1875 8.296875 
z
" id="DejaVuSans-50"/>
       <path d="M 10.796875 72.90625 
L 49.515625 72.90625 
L 49.515625 64.59375 
L 19.828125 64.59375 
L 19.828125 46.734375 
Q 21.96875 47.46875 24.109375 47.828125 
Q 26.265625 48.1875 28.421875 48.1875 
Q 40.625 48.1875 47.75 41.5 
Q 54.890625 34.8125 54.890625 23.390625 
Q 54.890625 11.625 47.5625 5.09375 
Q 40.234375 -1.421875 26.90625 -1.421875 
Q 22.3125 -1.421875 17.546875 -0.640625 
Q 12.796875 0.140625 7.71875 1.703125 
L 7.71875 11.625 
Q 12.109375 9.234375 16.796875 8.0625 
Q 21.484375 6.890625 26.703125 6.890625 
Q 35.15625 6.890625 40.078125 11.328125 
Q 45.015625 15.765625 45.015625 23.390625 
Q 45.015625 31 40.078125 35.4375 
Q 35.15625 39.890625 26.703125 39.890625 
Q 22.75 39.890625 18.8125 39.015625 
Q 14.890625 38.140625 10.796875 36.28125 
z
" id="DejaVuSans-53"/>
      </defs>
      <g transform="translate(152.943892 392.598437)scale(0.1 -0.1)">
       <use xlink:href="#DejaVuSans-50"/>
       <use x="63.623047" xlink:href="#DejaVuSans-46"/>
       <use x="95.410156" xlink:href="#DejaVuSans-53"/>
      </g>
     </g>
    </g>
    <g id="xtick_3">
     <g id="line2d_3">
      <g>
       <use style="stroke:#000000;stroke-width:0.8;" x="217.963636" xlink:href="#m611b19098a" y="378"/>
      </g>
     </g>
     <g id="text_3">
      <!-- 5.0 -->
      <g transform="translate(210.012074 392.598437)scale(0.1 -0.1)">
       <use xlink:href="#DejaVuSans-53"/>
       <use x="63.623047" xlink:href="#DejaVuSans-46"/>
       <use x="95.410156" xlink:href="#DejaVuSans-48"/>
      </g>
     </g>
    </g>
    <g id="xtick_4">
     <g id="line2d_4">
      <g>
       <use style="stroke:#000000;stroke-width:0.8;" x="275.031818" xlink:href="#m611b19098a" y="378"/>
      </g>
     </g>
     <g id="text_4">
      <!-- 7.5 -->
      <defs>
       <path d="M 8.203125 72.90625 
L 55.078125 72.90625 
L 55.078125 68.703125 
L 28.609375 0 
L 18.3125 0 
L 43.21875 64.59375 
L 8.203125 64.59375 
z
" id="DejaVuSans-55"/>
      </defs>
      <g transform="translate(267.080256 392.598437)scale(0.1 -0.1)">
       <use xlink:href="#DejaVuSans-55"/>
       <use x="63.623047" xlink:href="#DejaVuSans-46"/>
       <use x="95.410156" xlink:href="#DejaVuSans-53"/>
      </g>
     </g>
    </g>
    <g id="xtick_5">
     <g id="line2d_5">
      <g>
       <use style="stroke:#000000;stroke-width:0.8;" x="332.1" xlink:href="#m611b19098a" y="378"/>
      </g>
     </g>
     <g id="text_5">
      <!-- 10.0 -->
      <defs>
       <path d="M 12.40625 8.296875 
L 28.515625 8.296875 
L 28.515625 63.921875 
L 10.984375 60.40625 
L 10.984375 69.390625 
L 28.421875 72.90625 
L 38.28125 72.90625 
L 38.28125 8.296875 
L 54.390625 8.296875 
L 54.390625 0 
L 12.40625 0 
z
" id="DejaVuSans-49"/>
      </defs>
      <g transform="translate(320.967188 392.598437)scale(0.1 -0.1)">
       <use xlink:href="#DejaVuSans-49"/>
       <use x="63.623047" xlink:href="#DejaVuSans-48"/>
       <use x="127.246094" xlink:href="#DejaVuSans-46"/>
       <use x="159.033203" xlink:href="#DejaVuSans-48"/>
      </g>
     </g>
    </g>
    <g id="xtick_6">
     <g id="line2d_6">
      <g>
       <use style="stroke:#000000;stroke-width:0.8;" x="389.168182" xlink:href="#m611b19098a" y="378"/>
      </g>
     </g>
     <g id="text_6">
      <!-- 12.5 -->
      <g transform="translate(378.035369 392.598437)scale(0.1 -0.1)">
       <use xlink:href="#DejaVuSans-49"/>
       <use x="63.623047" xlink:href="#DejaVuSans-50"/>
       <use x="127.246094" xlink:href="#DejaVuSans-46"/>
       <use x="159.033203" xlink:href="#DejaVuSans-53"/>
      </g>
     </g>
    </g>
    <g id="xtick_7">
     <g id="line2d_7">
      <g>
       <use style="stroke:#000000;stroke-width:0.8;" x="446.236364" xlink:href="#m611b19098a" y="378"/>
      </g>
     </g>
     <g id="text_7">
      <!-- 15.0 -->
      <g transform="translate(435.103551 392.598437)scale(0.1 -0.1)">
       <use xlink:href="#DejaVuSans-49"/>
       <use x="63.623047" xlink:href="#DejaVuSans-53"/>
       <use x="127.246094" xlink:href="#DejaVuSans-46"/>
       <use x="159.033203" xlink:href="#DejaVuSans-48"/>
      </g>
     </g>
    </g>
    <g id="xtick_8">
     <g id="line2d_8">
      <g>
       <use style="stroke:#000000;stroke-width:0.8;" x="503.304545" xlink:href="#m611b19098a" y="378"/>
      </g>
     </g>
     <g id="text_8">
      <!-- 17.5 -->
      <g transform="translate(492.171733 392.598437)scale(0.1 -0.1)">
       <use xlink:href="#DejaVuSans-49"/>
       <use x="63.623047" xlink:href="#DejaVuSans-55"/>
       <use x="127.246094" xlink:href="#DejaVuSans-46"/>
       <use x="159.033203" xlink:href="#DejaVuSans-53"/>
      </g>
     </g>
    </g>
    <g id="xtick_9">
     <g id="line2d_9">
      <g>
       <use style="stroke:#000000;stroke-width:0.8;" x="560.372727" xlink:href="#m611b19098a" y="378"/>
      </g>
     </g>
     <g id="text_9">
      <!-- 20.0 -->
      <g transform="translate(549.239915 392.598437)scale(0.1 -0.1)">
       <use xlink:href="#DejaVuSans-50"/>
       <use x="63.623047" xlink:href="#DejaVuSans-48"/>
       <use x="127.246094" xlink:href="#DejaVuSans-46"/>
       <use x="159.033203" xlink:href="#DejaVuSans-48"/>
      </g>
     </g>
    </g>
    <g id="text_10">
     <!-- t (s) -->
     <defs>
      <path d="M 18.3125 70.21875 
L 18.3125 54.6875 
L 36.8125 54.6875 
L 36.8125 47.703125 
L 18.3125 47.703125 
L 18.3125 18.015625 
Q 18.3125 11.328125 20.140625 9.421875 
Q 21.96875 7.515625 27.59375 7.515625 
L 36.8125 7.515625 
L 36.8125 0 
L 27.59375 0 
Q 17.1875 0 13.234375 3.875 
Q 9.28125 7.765625 9.28125 18.015625 
L 9.28125 47.703125 
L 2.6875 47.703125 
L 2.6875 54.6875 
L 9.28125 54.6875 
L 9.28125 70.21875 
z
" id="DejaVuSans-116"/>
      <path id="DejaVuSans-32"/>
      <path d="M 31 75.875 
Q 24.46875 64.65625 21.28125 53.65625 
Q 18.109375 42.671875 18.109375 31.390625 
Q 18.109375 20.125 21.3125 9.0625 
Q 24.515625 -2 31 -13.1875 
L 23.1875 -13.1875 
Q 15.875 -1.703125 12.234375 9.375 
Q 8.59375 20.453125 8.59375 31.390625 
Q 8.59375 42.28125 12.203125 53.3125 
Q 15.828125 64.359375 23.1875 75.875 
z
" id="DejaVuSans-40"/>
      <path d="M 44.28125 53.078125 
L 44.28125 44.578125 
Q 40.484375 46.53125 36.375 47.5 
Q 32.28125 48.484375 27.875 48.484375 
Q 21.1875 48.484375 17.84375 46.4375 
Q 14.5 44.390625 14.5 40.28125 
Q 14.5 37.15625 16.890625 35.375 
Q 19.28125 33.59375 26.515625 31.984375 
L 29.59375 31.296875 
Q 39.15625 29.25 43.1875 25.515625 
Q 47.21875 21.78125 47.21875 15.09375 
Q 47.21875 7.46875 41.1875 3.015625 
Q 35.15625 -1.421875 24.609375 -1.421875 
Q 20.21875 -1.421875 15.453125 -0.5625 
Q 10.6875 0.296875 5.421875 2 
L 5.421875 11.28125 
Q 10.40625 8.6875 15.234375 7.390625 
Q 20.0625 6.109375 24.8125 6.109375 
Q 31.15625 6.109375 34.5625 8.28125 
Q 37.984375 10.453125 37.984375 14.40625 
Q 37.984375 18.0625 35.515625 20.015625 
Q 33.0625 21.96875 24.703125 23.78125 
L 21.578125 24.515625 
Q 13.234375 26.265625 9.515625 29.90625 
Q 5.8125 33.546875 5.8125 39.890625 
Q 5.8125 47.609375 11.28125 51.796875 
Q 16.75 56 26.8125 56 
Q 31.78125 56 36.171875 55.265625 
Q 40.578125 54.546875 44.28125 53.078125 
z
" id="DejaVuSans-115"/>
      <path d="M 8.015625 75.875 
L 15.828125 75.875 
Q 23.140625 64.359375 26.78125 53.3125 
Q 30.421875 42.28125 30.421875 31.390625 
Q 30.421875 20.453125 26.78125 9.375 
Q 23.140625 -1.703125 15.828125 -13.1875 
L 8.015625 -13.1875 
Q 14.5 -2 17.703125 9.0625 
Q 20.90625 20.125 20.90625 31.390625 
Q 20.90625 42.671875 17.703125 53.65625 
Q 14.5 64.65625 8.015625 75.875 
z
" id="DejaVuSans-41"/>
     </defs>
     <g transform="translate(320.033438 407.79625)scale(0.12 -0.12)">
      <use xlink:href="#DejaVuSans-116"/>
      <use x="39.208984" xlink:href="#DejaVuSans-32"/>
      <use x="70.996094" xlink:href="#DejaVuSans-40"/>
      <use x="110.009766" xlink:href="#DejaVuSans-115"/>
      <use x="162.109375" xlink:href="#DejaVuSans-41"/>
     </g>
    </g>
   </g>
   <g id="matplotlib.axis_2">
    <g id="ytick_1">
     <g id="line2d_10">
      <defs>
       <path d="M 0 0 
L -3.5 0 
" id="m3151472e3a" style="stroke:#000000;stroke-width:0.8;"/>
      </defs>
      <g>
       <use style="stroke:#000000;stroke-width:0.8;" x="81" xlink:href="#m3151472e3a" y="363.174545"/>
      </g>
     </g>
     <g id="text_11">
      <!-- 0.0 -->
      <g transform="translate(58.096875 366.973764)scale(0.1 -0.1)">
       <use xlink:href="#DejaVuSans-48"/>
       <use x="63.623047" xlink:href="#DejaVuSans-46"/>
       <use x="95.410156" xlink:href="#DejaVuSans-48"/>
      </g>
     </g>
    </g>
    <g id="ytick_2">
     <g id="line2d_11">
      <g>
       <use style="stroke:#000000;stroke-width:0.8;" x="81" xlink:href="#m3151472e3a" y="303.872574"/>
      </g>
     </g>
     <g id="text_12">
      <!-- 0.2 -->
      <g transform="translate(58.096875 307.671793)scale(0.1 -0.1)">
       <use xlink:href="#DejaVuSans-48"/>
       <use x="63.623047" xlink:href="#DejaVuSans-46"/>
       <use x="95.410156" xlink:href="#DejaVuSans-50"/>
      </g>
     </g>
    </g>
    <g id="ytick_3">
     <g id="line2d_12">
      <g>
       <use style="stroke:#000000;stroke-width:0.8;" x="81" xlink:href="#m3151472e3a" y="244.570602"/>
      </g>
     </g>
     <g id="text_13">
      <!-- 0.4 -->
      <defs>
       <path d="M 37.796875 64.3125 
L 12.890625 25.390625 
L 37.796875 25.390625 
z
M 35.203125 72.90625 
L 47.609375 72.90625 
L 47.609375 25.390625 
L 58.015625 25.390625 
L 58.015625 17.1875 
L 47.609375 17.1875 
L 47.609375 0 
L 37.796875 0 
L 37.796875 17.1875 
L 4.890625 17.1875 
L 4.890625 26.703125 
z
" id="DejaVuSans-52"/>
      </defs>
      <g transform="translate(58.096875 248.369821)scale(0.1 -0.1)">
       <use xlink:href="#DejaVuSans-48"/>
       <use x="63.623047" xlink:href="#DejaVuSans-46"/>
       <use x="95.410156" xlink:href="#DejaVuSans-52"/>
      </g>
     </g>
    </g>
    <g id="ytick_4">
     <g id="line2d_13">
      <g>
       <use style="stroke:#000000;stroke-width:0.8;" x="81" xlink:href="#m3151472e3a" y="185.26863"/>
      </g>
     </g>
     <g id="text_14">
      <!-- 0.6 -->
      <defs>
       <path d="M 33.015625 40.375 
Q 26.375 40.375 22.484375 35.828125 
Q 18.609375 31.296875 18.609375 23.390625 
Q 18.609375 15.53125 22.484375 10.953125 
Q 26.375 6.390625 33.015625 6.390625 
Q 39.65625 6.390625 43.53125 10.953125 
Q 47.40625 15.53125 47.40625 23.390625 
Q 47.40625 31.296875 43.53125 35.828125 
Q 39.65625 40.375 33.015625 40.375 
z
M 52.59375 71.296875 
L 52.59375 62.3125 
Q 48.875 64.0625 45.09375 64.984375 
Q 41.3125 65.921875 37.59375 65.921875 
Q 27.828125 65.921875 22.671875 59.328125 
Q 17.53125 52.734375 16.796875 39.40625 
Q 19.671875 43.65625 24.015625 45.921875 
Q 28.375 48.1875 33.59375 48.1875 
Q 44.578125 48.1875 50.953125 41.515625 
Q 57.328125 34.859375 57.328125 23.390625 
Q 57.328125 12.15625 50.6875 5.359375 
Q 44.046875 -1.421875 33.015625 -1.421875 
Q 20.359375 -1.421875 13.671875 8.265625 
Q 6.984375 17.96875 6.984375 36.375 
Q 6.984375 53.65625 15.1875 63.9375 
Q 23.390625 74.21875 37.203125 74.21875 
Q 40.921875 74.21875 44.703125 73.484375 
Q 48.484375 72.75 52.59375 71.296875 
z
" id="DejaVuSans-54"/>
      </defs>
      <g transform="translate(58.096875 189.067849)scale(0.1 -0.1)">
       <use xlink:href="#DejaVuSans-48"/>
       <use x="63.623047" xlink:href="#DejaVuSans-46"/>
       <use x="95.410156" xlink:href="#DejaVuSans-54"/>
      </g>
     </g>
    </g>
    <g id="ytick_5">
     <g id="line2d_14">
      <g>
       <use style="stroke:#000000;stroke-width:0.8;" x="81" xlink:href="#m3151472e3a" y="125.966659"/>
      </g>
     </g>
     <g id="text_15">
      <!-- 0.8 -->
      <defs>
       <path d="M 31.78125 34.625 
Q 24.75 34.625 20.71875 30.859375 
Q 16.703125 27.09375 16.703125 20.515625 
Q 16.703125 13.921875 20.71875 10.15625 
Q 24.75 6.390625 31.78125 6.390625 
Q 38.8125 6.390625 42.859375 10.171875 
Q 46.921875 13.96875 46.921875 20.515625 
Q 46.921875 27.09375 42.890625 30.859375 
Q 38.875 34.625 31.78125 34.625 
z
M 21.921875 38.8125 
Q 15.578125 40.375 12.03125 44.71875 
Q 8.5 49.078125 8.5 55.328125 
Q 8.5 64.0625 14.71875 69.140625 
Q 20.953125 74.21875 31.78125 74.21875 
Q 42.671875 74.21875 48.875 69.140625 
Q 55.078125 64.0625 55.078125 55.328125 
Q 55.078125 49.078125 51.53125 44.71875 
Q 48 40.375 41.703125 38.8125 
Q 48.828125 37.15625 52.796875 32.3125 
Q 56.78125 27.484375 56.78125 20.515625 
Q 56.78125 9.90625 50.3125 4.234375 
Q 43.84375 -1.421875 31.78125 -1.421875 
Q 19.734375 -1.421875 13.25 4.234375 
Q 6.78125 9.90625 6.78125 20.515625 
Q 6.78125 27.484375 10.78125 32.3125 
Q 14.796875 37.15625 21.921875 38.8125 
z
M 18.3125 54.390625 
Q 18.3125 48.734375 21.84375 45.5625 
Q 25.390625 42.390625 31.78125 42.390625 
Q 38.140625 42.390625 41.71875 45.5625 
Q 45.3125 48.734375 45.3125 54.390625 
Q 45.3125 60.0625 41.71875 63.234375 
Q 38.140625 66.40625 31.78125 66.40625 
Q 25.390625 66.40625 21.84375 63.234375 
Q 18.3125 60.0625 18.3125 54.390625 
z
" id="DejaVuSans-56"/>
      </defs>
      <g transform="translate(58.096875 129.765878)scale(0.1 -0.1)">
       <use xlink:href="#DejaVuSans-48"/>
       <use x="63.623047" xlink:href="#DejaVuSans-46"/>
       <use x="95.410156" xlink:href="#DejaVuSans-56"/>
      </g>
     </g>
    </g>
    <g id="ytick_6">
     <g id="line2d_15">
      <g>
       <use style="stroke:#000000;stroke-width:0.8;" x="81" xlink:href="#m3151472e3a" y="66.664687"/>
      </g>
     </g>
     <g id="text_16">
      <!-- 1.0 -->
      <g transform="translate(58.096875 70.463906)scale(0.1 -0.1)">
       <use xlink:href="#DejaVuSans-49"/>
       <use x="63.623047" xlink:href="#DejaVuSans-46"/>
       <use x="95.410156" xlink:href="#DejaVuSans-48"/>
      </g>
     </g>
    </g>
    <g id="text_17">
     <!-- y(t) -->
     <defs>
      <path d="M 32.171875 -5.078125 
Q 28.375 -14.84375 24.75 -17.8125 
Q 21.140625 -20.796875 15.09375 -20.796875 
L 7.90625 -20.796875 
L 7.90625 -13.28125 
L 13.1875 -13.28125 
Q 16.890625 -13.28125 18.9375 -11.515625 
Q 21 -9.765625 23.484375 -3.21875 
L 25.09375 0.875 
L 2.984375 54.6875 
L 12.5 54.6875 
L 29.59375 11.921875 
L 46.6875 54.6875 
L 56.203125 54.6875 
z
" id="DejaVuSans-121"/>
     </defs>
     <g transform="translate(51.60125 225.505312)rotate(-90)scale(0.12 -0.12)">
      <use xlink:href="#DejaVuSans-121"/>
      <use x="59.179688" xlink:href="#DejaVuSans-40"/>
      <use x="98.193359" xlink:href="#DejaVuSans-116"/>
      <use x="137.402344" xlink:href="#DejaVuSans-41"/>
     </g>
    </g>
   </g>
   <g id="line2d_16">
    <path clip-path="url(#pb352da05be)" d="M 103.827273 363.174545 
L 140.350909 363.174545 
L 140.350909 350.736677 
L 142.633636 350.736677 
L 142.633636 338.820547 
L 144.916364 338.820547 
L 144.916364 327.404269 
L 147.199091 327.404269 
L 147.199091 316.466877 
L 149.481818 316.466877 
L 149.481818 305.988281 
L 151.764545 305.988281 
L 151.764545 295.949238 
L 154.047273 295.949238 
L 154.047273 286.331307 
L 156.33 286.331307 
L 156.33 277.116826 
L 158.612727 277.116826 
L 158.612727 268.28887 
L 160.895455 268.28887 
L 160.895455 259.831225 
L 163.178182 259.831225 
L 163.178182 251.728358 
L 165.460909 251.728358 
L 165.460909 243.965386 
L 167.743636 243.965386 
L 167.743636 236.528052 
L 170.026364 236.528052 
L 170.026364 229.402696 
L 172.309091 229.402696 
L 172.309091 222.576232 
L 174.591818 222.576232 
L 174.591818 216.036121 
L 176.874545 216.036121 
L 176.874545 209.770352 
L 179.157273 209.770352 
L 179.157273 203.767417 
L 181.44 203.767417 
L 181.44 198.016291 
L 183.722727 198.016291 
L 183.722727 192.50641 
L 186.005455 192.50641 
L 186.005455 187.227655 
L 188.288182 187.227655 
L 188.288182 182.170331 
L 190.570909 182.170331 
L 190.570909 177.32515 
L 192.853636 177.32515 
L 192.853636 172.683212 
L 195.136364 172.683212 
L 195.136364 168.235992 
L 197.419091 168.235992 
L 197.419091 163.975323 
L 199.701818 163.975323 
L 199.701818 159.893378 
L 201.984545 159.893378 
L 201.984545 155.982661 
L 204.267273 155.982661 
L 204.267273 152.235989 
L 206.55 152.235989 
L 206.55 148.64648 
L 208.832727 148.64648 
L 208.832727 145.207543 
L 211.115455 145.207543 
L 211.115455 141.912861 
L 213.398182 141.912861 
L 213.398182 138.756383 
L 215.680909 138.756383 
L 215.680909 135.732311 
L 217.963636 135.732311 
L 217.963636 132.835092 
L 220.246364 132.835092 
L 220.246364 130.059404 
L 222.529091 130.059404 
L 222.529091 127.40015 
L 224.811818 127.40015 
L 224.811818 124.852445 
L 227.094545 124.852445 
L 227.094545 122.411609 
L 229.377273 122.411609 
L 229.377273 120.073161 
L 231.66 120.073161 
L 231.66 117.832806 
L 233.942727 117.832806 
L 233.942727 115.686427 
L 236.225455 115.686427 
L 236.225455 113.630084 
L 238.508182 113.630084 
L 238.508182 111.66 
L 240.790909 111.66 
L 240.790909 109.772556 
L 243.073636 109.772556 
L 243.073636 107.964285 
L 245.356364 107.964285 
L 245.356364 106.231867 
L 247.639091 106.231867 
L 247.639091 104.57212 
L 249.921818 104.57212 
L 249.921818 102.981996 
L 252.204545 102.981996 
L 252.204545 101.458573 
L 254.487273 101.458573 
L 254.487273 99.999054 
L 256.77 99.999054 
L 256.77 98.600758 
L 259.052727 98.600758 
L 259.052727 97.261117 
L 261.335455 97.261117 
L 261.335455 95.977671 
L 263.618182 95.977671 
L 263.618182 94.748063 
L 265.900909 94.748063 
L 265.900909 93.570033 
L 268.183636 93.570033 
L 268.183636 92.441419 
L 270.466364 92.441419 
L 270.466364 91.360148 
L 272.749091 91.360148 
L 272.749091 90.324233 
L 275.031818 90.324233 
L 275.031818 89.331773 
L 277.314545 89.331773 
L 277.314545 88.380944 
L 279.597273 88.380944 
L 279.597273 87.469999 
L 281.88 87.469999 
L 281.88 86.597267 
L 284.162727 86.597267 
L 284.162727 85.761144 
L 286.445455 85.761144 
L 286.445455 84.960094 
L 288.728182 84.960094 
L 288.728182 84.192646 
L 291.010909 84.192646 
L 291.010909 83.457391 
L 293.293636 83.457391 
L 293.293636 82.752977 
L 295.576364 82.752977 
L 295.576364 82.078113 
L 297.859091 82.078113 
L 297.859091 81.431557 
L 300.141818 81.431557 
L 300.141818 80.812123 
L 302.424545 80.812123 
L 302.424545 80.218672 
L 304.707273 80.218672 
L 304.707273 79.650115 
L 306.99 79.650115 
L 306.99 79.105408 
L 309.272727 79.105408 
L 309.272727 78.58355 
L 311.555455 78.58355 
L 311.555455 78.083583 
L 313.838182 78.083583 
L 313.838182 77.604588 
L 316.120909 77.604588 
L 316.120909 77.145685 
L 318.403636 77.145685 
L 318.403636 76.706033 
L 320.686364 76.706033 
L 320.686364 76.284823 
L 322.969091 76.284823 
L 322.969091 75.881282 
L 325.251818 75.881282 
L 325.251818 75.494668 
L 327.534545 75.494668 
L 327.534545 75.124272 
L 329.817273 75.124272 
L 329.817273 74.769413 
L 332.1 74.769413 
L 332.1 74.429439 
L 334.382727 74.429439 
L 334.382727 74.103727 
L 336.665455 74.103727 
L 336.665455 73.791677 
L 338.948182 73.791677 
L 338.948182 73.492717 
L 341.230909 73.492717 
L 341.230909 73.206298 
L 343.513636 73.206298 
L 343.513636 72.931893 
L 345.796364 72.931893 
L 345.796364 72.668999 
L 348.079091 72.668999 
L 348.079091 72.417133 
L 350.361818 72.417133 
L 350.361818 72.175832 
L 352.644545 72.175832 
L 352.644545 71.944652 
L 354.927273 71.944652 
L 354.927273 71.723171 
L 357.21 71.723171 
L 357.21 71.51098 
L 359.492727 71.51098 
L 359.492727 71.307689 
L 361.775455 71.307689 
L 361.775455 71.112927 
L 364.058182 71.112927 
L 364.058182 70.926334 
L 366.340909 70.926334 
L 366.340909 70.747568 
L 368.623636 70.747568 
L 368.623636 70.576301 
L 370.906364 70.576301 
L 370.906364 70.412218 
L 373.189091 70.412218 
L 373.189091 70.255019 
L 375.471818 70.255019 
L 375.471818 70.104413 
L 377.754545 70.104413 
L 377.754545 69.960125 
L 380.037273 69.960125 
L 380.037273 69.821889 
L 382.32 69.821889 
L 382.32 69.689452 
L 384.602727 69.689452 
L 384.602727 69.562571 
L 386.885455 69.562571 
L 386.885455 69.441011 
L 389.168182 69.441011 
L 389.168182 69.324551 
L 391.450909 69.324551 
L 391.450909 69.212977 
L 396.016364 69.106082 
L 396.016364 69.003671 
L 400.581818 68.905557 
L 400.581818 68.811558 
L 405.147273 68.721502 
L 405.147273 68.635223 
L 409.712727 68.552564 
L 409.712727 68.473372 
L 414.278182 68.397502 
L 414.278182 68.324815 
L 418.843636 68.255177 
L 418.843636 68.188459 
L 423.409091 68.124541 
L 423.409091 68.063304 
L 427.974545 68.004635 
L 427.974545 67.948427 
L 434.822727 67.842987 
L 434.822727 67.79356 
L 441.670909 67.700839 
L 441.670909 67.657375 
L 448.519091 67.57584 
L 448.519091 67.53762 
L 457.65 67.432311 
L 457.65 67.400111 
L 466.780909 67.311391 
L 466.780909 67.284263 
L 478.194545 67.186665 
L 478.194545 67.164769 
L 491.890909 67.068321 
L 491.890909 67.05139 
L 510.152727 66.951172 
L 510.152727 66.939155 
L 539.828182 66.828807 
L 539.828182 66.821923 
L 560.372727 66.776288 
L 560.372727 66.776288 
" style="fill:none;stroke:#000000;stroke-linecap:square;stroke-width:1.2;"/>
   </g>
   <g id="line2d_17">
    <path clip-path="url(#pb352da05be)" d="M 103.827273 363.150229 
L 103.827273 363.062218 
L 106.11 363.062218 
L 106.11 362.86313 
L 108.392727 362.86313 
L 108.392727 362.502846 
L 110.675455 362.502846 
L 110.675455 361.932348 
L 112.958182 361.932348 
L 112.958182 361.106415 
L 115.240909 361.106415 
L 115.240909 359.985412 
L 117.523636 359.985412 
L 117.523636 358.536376 
L 119.806364 358.536376 
L 119.806364 356.733556 
L 122.089091 356.733556 
L 122.089091 354.558544 
L 124.371818 354.558544 
L 124.371818 352.000102 
L 126.654545 352.000102 
L 126.654545 349.053772 
L 128.937273 349.053772 
L 128.937273 345.721334 
L 131.22 345.721334 
L 131.22 342.010178 
L 133.502727 342.010178 
L 133.502727 337.932616 
L 135.785455 337.932616 
L 135.785455 333.505178 
L 138.068182 333.505178 
L 138.068182 328.747921 
L 140.350909 328.747921 
L 140.350909 323.683752 
L 142.633636 323.683752 
L 142.633636 318.337793 
L 144.916364 318.337793 
L 144.916364 312.736798 
L 147.199091 312.736798 
L 147.199091 306.908609 
L 149.481818 306.908609 
L 149.481818 300.88168 
L 151.764545 300.88168 
L 151.764545 294.684644 
L 154.047273 294.684644 
L 154.047273 288.345947 
L 156.33 288.345947 
L 156.33 281.893519 
L 158.612727 281.893519 
L 158.612727 275.354514 
L 160.895455 275.354514 
L 160.895455 268.755077 
L 163.178182 268.755077 
L 163.178182 262.120168 
L 165.460909 262.120168 
L 165.460909 255.473421 
L 167.743636 255.473421 
L 167.743636 248.837035 
L 170.026364 248.837035 
L 170.026364 242.231699 
L 172.309091 242.231699 
L 172.309091 235.676548 
L 174.591818 235.676548 
L 174.591818 229.189138 
L 176.874545 229.189138 
L 176.874545 222.785446 
L 179.157273 222.785446 
L 179.157273 216.479885 
L 181.44 216.479885 
L 181.44 210.285333 
L 183.722727 210.285333 
L 183.722727 204.213182 
L 186.005455 204.213182 
L 186.005455 198.273388 
L 188.288182 198.273388 
L 188.288182 192.474534 
L 190.570909 192.474534 
L 190.570909 186.823897 
L 192.853636 186.823897 
L 192.853636 181.327521 
L 195.136364 181.327521 
L 195.136364 175.990293 
L 197.419091 175.990293 
L 197.419091 170.816017 
L 199.701818 170.816017 
L 199.701818 165.807496 
L 201.984545 165.807496 
L 201.984545 160.966605 
L 204.267273 160.966605 
L 204.267273 156.294372 
L 206.55 156.294372 
L 206.55 151.791047 
L 208.832727 151.791047 
L 208.832727 147.456178 
L 211.115455 147.456178 
L 211.115455 143.288679 
L 213.398182 143.288679 
L 213.398182 139.286898 
L 215.680909 139.286898 
L 215.680909 135.448679 
L 217.963636 135.448679 
L 217.963636 131.771423 
L 220.246364 131.771423 
L 220.246364 128.252143 
L 222.529091 128.252143 
L 222.529091 124.88752 
L 224.811818 124.88752 
L 224.811818 121.673947 
L 227.094545 121.673947 
L 227.094545 118.607581 
L 229.377273 118.607581 
L 229.377273 115.684381 
L 231.66 115.684381 
L 231.66 112.900149 
L 233.942727 112.900149 
L 233.942727 110.250564 
L 236.225455 110.250564 
L 236.225455 107.731216 
L 238.508182 107.731216 
L 238.508182 105.337636 
L 240.790909 105.337636 
L 240.790909 103.065321 
L 243.073636 103.065321 
L 243.073636 100.909757 
L 245.356364 100.909757 
L 245.356364 98.866445 
L 247.639091 98.866445 
L 247.639091 96.930914 
L 249.921818 96.930914 
L 249.921818 95.098742 
L 252.204545 95.098742 
L 252.204545 93.365568 
L 254.487273 93.365568 
L 254.487273 91.727109 
L 256.77 91.727109 
L 256.77 90.179163 
L 259.052727 90.179163 
L 259.052727 88.717626 
L 261.335455 88.717626 
L 261.335455 87.338496 
L 263.618182 87.338496 
L 263.618182 86.037881 
L 265.900909 86.037881 
L 265.900909 84.812 
L 268.183636 84.812 
L 268.183636 83.657192 
L 270.466364 83.657192 
L 270.466364 82.569918 
L 272.749091 82.569918 
L 272.749091 81.546759 
L 275.031818 81.546759 
L 275.031818 80.584422 
L 277.314545 80.584422 
L 277.314545 79.679738 
L 279.597273 79.679738 
L 279.597273 78.829662 
L 281.88 78.829662 
L 281.88 78.031272 
L 284.162727 78.031272 
L 284.162727 77.281768 
L 286.445455 77.281768 
L 286.445455 76.578471 
L 288.728182 76.578471 
L 288.728182 75.91882 
L 291.010909 75.91882 
L 291.010909 75.300369 
L 293.293636 75.300369 
L 293.293636 74.720786 
L 295.576364 74.720786 
L 295.576364 74.177848 
L 297.859091 74.177848 
L 297.859091 73.66944 
L 300.141818 73.66944 
L 300.141818 73.193551 
L 302.424545 73.193551 
L 302.424545 72.748269 
L 304.707273 72.748269 
L 304.707273 72.33178 
L 306.99 72.33178 
L 306.99 71.942363 
L 309.272727 71.942363 
L 309.272727 71.578388 
L 311.555455 71.578388 
L 311.555455 71.23831 
L 313.838182 71.23831 
L 313.838182 70.920669 
L 316.120909 70.920669 
L 316.120909 70.624083 
L 318.403636 70.624083 
L 318.403636 70.347246 
L 320.686364 70.347246 
L 320.686364 70.088925 
L 322.969091 70.088925 
L 322.969091 69.847958 
L 325.251818 69.847958 
L 325.251818 69.623248 
L 327.534545 69.623248 
L 327.534545 69.41376 
L 329.817273 69.41376 
L 329.817273 69.218521 
L 332.1 69.218521 
L 332.1 69.036614 
L 334.382727 69.036614 
L 334.382727 68.867177 
L 336.665455 68.867177 
L 336.665455 68.709398 
L 338.948182 68.709398 
L 338.948182 68.562516 
L 341.230909 68.562516 
L 341.230909 68.425814 
L 343.513636 68.425814 
L 343.513636 68.298621 
L 345.796364 68.298621 
L 345.796364 68.180304 
L 350.361818 68.070274 
L 350.361818 67.967973 
L 354.927273 67.872884 
L 354.927273 67.784518 
L 359.492727 67.702419 
L 359.492727 67.626161 
L 364.058182 67.555344 
L 364.058182 67.489595 
L 368.623636 67.428563 
L 368.623636 67.371924 
L 375.471818 67.270622 
L 375.471818 67.225408 
L 382.32 67.144615 
L 382.32 67.108587 
L 391.450909 67.015606 
L 391.450909 66.989063 
L 405.147273 66.883112 
L 405.147273 66.866416 
L 427.974545 66.762718 
L 427.974545 66.755108 
L 560.372727 66.665455 
L 560.372727 66.665455 
" style="fill:none;stroke:#ff0000;stroke-linecap:square;stroke-width:1.2;"/>
   </g>
   <g id="patch_3">
    <path d="M 81 378 
L 81 51.84 
" style="fill:none;stroke:#000000;stroke-linecap:square;stroke-linejoin:miter;stroke-width:0.8;"/>
   </g>
   <g id="patch_4">
    <path d="M 583.2 378 
L 583.2 51.84 
" style="fill:none;stroke:#000000;stroke-linecap:square;stroke-linejoin:miter;stroke-width:0.8;"/>
   </g>
   <g id="patch_5">
    <path d="M 81 378 
L 583.2 378 
" style="fill:none;stroke:#000000;stroke-linecap:square;stroke-linejoin:miter;stroke-width:0.8;"/>
   </g>
   <g id="patch_6">
    <path d="M 81 51.84 
L 583.2 51.84 
" style="fill:none;stroke:#000000;stroke-linecap:square;stroke-linejoin:miter;stroke-width:0.8;"/>
   </g>
   <g id="legend_1">
    <g id="patch_7">
     <path d="M 89.4 96.6675 
L 185.971875 96.6675 
Q 188.371875 96.6675 188.371875 94.2675 
L 188.371875 60.24 
Q 188.371875 57.84 185.971875 57.84 
L 89.4 57.84 
Q 87 57.84 87 60.24 
L 87 94.2675 
Q 87 96.6675 89.4 96.6675 
z
" style="fill:#ffffff;opacity:0.8;stroke:#cccccc;stroke-linejoin:miter;"/>
    </g>
    <g id="line2d_18">
     <path d="M 91.8 67.558125 
L 115.8 67.558125 
" style="fill:none;stroke:#000000;stroke-linecap:square;stroke-width:1.2;"/>
    </g>
    <g id="line2d_19"/>
    <g id="text_18">
     <!-- FOPDT -->
     <defs>
      <path d="M 9.8125 72.90625 
L 51.703125 72.90625 
L 51.703125 64.59375 
L 19.671875 64.59375 
L 19.671875 43.109375 
L 48.578125 43.109375 
L 48.578125 34.8125 
L 19.671875 34.8125 
L 19.671875 0 
L 9.8125 0 
z
" id="DejaVuSans-70"/>
      <path d="M 39.40625 66.21875 
Q 28.65625 66.21875 22.328125 58.203125 
Q 16.015625 50.203125 16.015625 36.375 
Q 16.015625 22.609375 22.328125 14.59375 
Q 28.65625 6.59375 39.40625 6.59375 
Q 50.140625 6.59375 56.421875 14.59375 
Q 62.703125 22.609375 62.703125 36.375 
Q 62.703125 50.203125 56.421875 58.203125 
Q 50.140625 66.21875 39.40625 66.21875 
z
M 39.40625 74.21875 
Q 54.734375 74.21875 63.90625 63.9375 
Q 73.09375 53.65625 73.09375 36.375 
Q 73.09375 19.140625 63.90625 8.859375 
Q 54.734375 -1.421875 39.40625 -1.421875 
Q 24.03125 -1.421875 14.8125 8.828125 
Q 5.609375 19.09375 5.609375 36.375 
Q 5.609375 53.65625 14.8125 63.9375 
Q 24.03125 74.21875 39.40625 74.21875 
z
" id="DejaVuSans-79"/>
      <path d="M 19.671875 64.796875 
L 19.671875 37.40625 
L 32.078125 37.40625 
Q 38.96875 37.40625 42.71875 40.96875 
Q 46.484375 44.53125 46.484375 51.125 
Q 46.484375 57.671875 42.71875 61.234375 
Q 38.96875 64.796875 32.078125 64.796875 
z
M 9.8125 72.90625 
L 32.078125 72.90625 
Q 44.34375 72.90625 50.609375 67.359375 
Q 56.890625 61.8125 56.890625 51.125 
Q 56.890625 40.328125 50.609375 34.8125 
Q 44.34375 29.296875 32.078125 29.296875 
L 19.671875 29.296875 
L 19.671875 0 
L 9.8125 0 
z
" id="DejaVuSans-80"/>
      <path d="M 19.671875 64.796875 
L 19.671875 8.109375 
L 31.59375 8.109375 
Q 46.6875 8.109375 53.6875 14.9375 
Q 60.6875 21.78125 60.6875 36.53125 
Q 60.6875 51.171875 53.6875 57.984375 
Q 46.6875 64.796875 31.59375 64.796875 
z
M 9.8125 72.90625 
L 30.078125 72.90625 
Q 51.265625 72.90625 61.171875 64.09375 
Q 71.09375 55.28125 71.09375 36.53125 
Q 71.09375 17.671875 61.125 8.828125 
Q 51.171875 0 30.078125 0 
L 9.8125 0 
z
" id="DejaVuSans-68"/>
      <path d="M -0.296875 72.90625 
L 61.375 72.90625 
L 61.375 64.59375 
L 35.5 64.59375 
L 35.5 0 
L 25.59375 0 
L 25.59375 64.59375 
L -0.296875 64.59375 
z
" id="DejaVuSans-84"/>
     </defs>
     <g transform="translate(125.4 71.758125)scale(0.12 -0.12)">
      <use xlink:href="#DejaVuSans-70"/>
      <use x="57.519531" xlink:href="#DejaVuSans-79"/>
      <use x="136.230469" xlink:href="#DejaVuSans-80"/>
      <use x="196.533203" xlink:href="#DejaVuSans-68"/>
      <use x="273.535156" xlink:href="#DejaVuSans-84"/>
     </g>
    </g>
    <g id="line2d_20">
     <path d="M 91.8 85.171875 
L 115.8 85.171875 
" style="fill:none;stroke:#ff0000;stroke-linecap:square;stroke-width:1.2;"/>
    </g>
    <g id="line2d_21"/>
    <g id="text_19">
     <!-- 4ยบ Ordem -->
     <defs>
      <path d="M 6.78125 28.90625 
L 40.375 28.90625 
L 40.375 22.90625 
L 6.78125 22.90625 
z
M 23.578125 74.21875 
Q 32.328125 74.21875 37.359375 68.8125 
Q 42.390625 63.421875 42.390625 54.109375 
Q 42.390625 44.78125 37.359375 39.421875 
Q 32.328125 34.078125 23.578125 34.078125 
Q 14.84375 34.078125 9.765625 39.453125 
Q 4.6875 44.828125 4.6875 54.109375 
Q 4.6875 63.421875 9.765625 68.8125 
Q 14.84375 74.21875 23.578125 74.21875 
z
M 23.578125 68.609375 
Q 18.453125 68.609375 15.375 64.671875 
Q 12.3125 60.75 12.3125 54.109375 
Q 12.3125 47.609375 15.40625 43.703125 
Q 18.5 39.796875 23.578125 39.796875 
Q 28.71875 39.796875 31.765625 43.703125 
Q 34.8125 47.609375 34.8125 54.109375 
Q 34.8125 60.796875 31.78125 64.703125 
Q 28.765625 68.609375 23.578125 68.609375 
z
" id="DejaVuSans-186"/>
      <path d="M 41.109375 46.296875 
Q 39.59375 47.171875 37.8125 47.578125 
Q 36.03125 48 33.890625 48 
Q 26.265625 48 22.1875 43.046875 
Q 18.109375 38.09375 18.109375 28.8125 
L 18.109375 0 
L 9.078125 0 
L 9.078125 54.6875 
L 18.109375 54.6875 
L 18.109375 46.1875 
Q 20.953125 51.171875 25.484375 53.578125 
Q 30.03125 56 36.53125 56 
Q 37.453125 56 38.578125 55.875 
Q 39.703125 55.765625 41.0625 55.515625 
z
" id="DejaVuSans-114"/>
      <path d="M 45.40625 46.390625 
L 45.40625 75.984375 
L 54.390625 75.984375 
L 54.390625 0 
L 45.40625 0 
L 45.40625 8.203125 
Q 42.578125 3.328125 38.25 0.953125 
Q 33.9375 -1.421875 27.875 -1.421875 
Q 17.96875 -1.421875 11.734375 6.484375 
Q 5.515625 14.40625 5.515625 27.296875 
Q 5.515625 40.1875 11.734375 48.09375 
Q 17.96875 56 27.875 56 
Q 33.9375 56 38.25 53.625 
Q 42.578125 51.265625 45.40625 46.390625 
z
M 14.796875 27.296875 
Q 14.796875 17.390625 18.875 11.75 
Q 22.953125 6.109375 30.078125 6.109375 
Q 37.203125 6.109375 41.296875 11.75 
Q 45.40625 17.390625 45.40625 27.296875 
Q 45.40625 37.203125 41.296875 42.84375 
Q 37.203125 48.484375 30.078125 48.484375 
Q 22.953125 48.484375 18.875 42.84375 
Q 14.796875 37.203125 14.796875 27.296875 
z
" id="DejaVuSans-100"/>
      <path d="M 56.203125 29.59375 
L 56.203125 25.203125 
L 14.890625 25.203125 
Q 15.484375 15.921875 20.484375 11.0625 
Q 25.484375 6.203125 34.421875 6.203125 
Q 39.59375 6.203125 44.453125 7.46875 
Q 49.3125 8.734375 54.109375 11.28125 
L 54.109375 2.78125 
Q 49.265625 0.734375 44.1875 -0.34375 
Q 39.109375 -1.421875 33.890625 -1.421875 
Q 20.796875 -1.421875 13.15625 6.1875 
Q 5.515625 13.8125 5.515625 26.8125 
Q 5.515625 40.234375 12.765625 48.109375 
Q 20.015625 56 32.328125 56 
Q 43.359375 56 49.78125 48.890625 
Q 56.203125 41.796875 56.203125 29.59375 
z
M 47.21875 32.234375 
Q 47.125 39.59375 43.09375 43.984375 
Q 39.0625 48.390625 32.421875 48.390625 
Q 24.90625 48.390625 20.390625 44.140625 
Q 15.875 39.890625 15.1875 32.171875 
z
" id="DejaVuSans-101"/>
      <path d="M 52 44.1875 
Q 55.375 50.25 60.0625 53.125 
Q 64.75 56 71.09375 56 
Q 79.640625 56 84.28125 50.015625 
Q 88.921875 44.046875 88.921875 33.015625 
L 88.921875 0 
L 79.890625 0 
L 79.890625 32.71875 
Q 79.890625 40.578125 77.09375 44.375 
Q 74.3125 48.1875 68.609375 48.1875 
Q 61.625 48.1875 57.5625 43.546875 
Q 53.515625 38.921875 53.515625 30.90625 
L 53.515625 0 
L 44.484375 0 
L 44.484375 32.71875 
Q 44.484375 40.625 41.703125 44.40625 
Q 38.921875 48.1875 33.109375 48.1875 
Q 26.21875 48.1875 22.15625 43.53125 
Q 18.109375 38.875 18.109375 30.90625 
L 18.109375 0 
L 9.078125 0 
L 9.078125 54.6875 
L 18.109375 54.6875 
L 18.109375 46.1875 
Q 21.1875 51.21875 25.484375 53.609375 
Q 29.78125 56 35.6875 56 
Q 41.65625 56 45.828125 52.96875 
Q 50 49.953125 52 44.1875 
z
" id="DejaVuSans-109"/>
     </defs>
     <g transform="translate(125.4 89.371875)scale(0.12 -0.12)">
      <use xlink:href="#DejaVuSans-52"/>
      <use x="63.623047" xlink:href="#DejaVuSans-186"/>
      <use x="110.742188" xlink:href="#DejaVuSans-32"/>
      <use x="142.529297" xlink:href="#DejaVuSans-79"/>
      <use x="221.240234" xlink:href="#DejaVuSans-114"/>
      <use x="262.337891" xlink:href="#DejaVuSans-100"/>
      <use x="325.814453" xlink:href="#DejaVuSans-101"/>
      <use x="387.337891" xlink:href="#DejaVuSans-109"/>
     </g>
    </g>
   </g>
  </g>
 </g>
 <defs>
  <clipPath id="pb352da05be">
   <rect height="326.16" width="502.2" x="81" y="51.84"/>
  </clipPath>
 </defs>
</svg>
