<?xml version="1.0" encoding="utf-8" standalone="no"?>
<!DOCTYPE svg PUBLIC "-//W3C//DTD SVG 1.1//EN"
  "http://www.w3.org/Graphics/SVG/1.1/DTD/svg11.dtd">
<!-- Created with matplotlib (https://matplotlib.org/) -->
<svg height="432pt" version="1.1" viewBox="0 0 648 432" width="648pt" xmlns="http://www.w3.org/2000/svg" xmlns:xlink="http://www.w3.org/1999/xlink">
 <defs>
  <style type="text/css">
*{stroke-linecap:butt;stroke-linejoin:round;}
  </style>
 </defs>
 <g id="figure_1">
  <g id="patch_1">
   <path d="M 0 432 
L 648 432 
L 648 0 
L 0 0 
z
" style="fill:#ffffff;"/>
  </g>
  <g id="axes_1">
   <g id="patch_2">
    <path d="M 39.58149 193.911635 
L 638.63726 193.911635 
L 638.63726 6.50024 
L 39.58149 6.50024 
z
" style="fill:#ffffff;"/>
   </g>
   <g id="matplotlib.axis_1">
    <g id="xtick_1">
     <g id="line2d_1">
      <defs>
       <path d="M 0 0 
L 0 3.5 
" id="md708b66777" style="stroke:#000000;stroke-width:0.8;"/>
      </defs>
      <g>
       <use style="stroke:#000000;stroke-width:0.8;" x="39.58149" xlink:href="#md708b66777" y="193.911635"/>
      </g>
     </g>
    </g>
    <g id="xtick_2">
     <g id="line2d_2">
      <g>
       <use style="stroke:#000000;stroke-width:0.8;" x="139.424118" xlink:href="#md708b66777" y="193.911635"/>
      </g>
     </g>
    </g>
    <g id="xtick_3">
     <g id="line2d_3">
      <g>
       <use style="stroke:#000000;stroke-width:0.8;" x="239.266747" xlink:href="#md708b66777" y="193.911635"/>
      </g>
     </g>
    </g>
    <g id="xtick_4">
     <g id="line2d_4">
      <g>
       <use style="stroke:#000000;stroke-width:0.8;" x="339.109375" xlink:href="#md708b66777" y="193.911635"/>
      </g>
     </g>
    </g>
    <g id="xtick_5">
     <g id="line2d_5">
      <g>
       <use style="stroke:#000000;stroke-width:0.8;" x="438.952003" xlink:href="#md708b66777" y="193.911635"/>
      </g>
     </g>
    </g>
    <g id="xtick_6">
     <g id="line2d_6">
      <g>
       <use style="stroke:#000000;stroke-width:0.8;" x="538.794632" xlink:href="#md708b66777" y="193.911635"/>
      </g>
     </g>
    </g>
    <g id="xtick_7">
     <g id="line2d_7">
      <g>
       <use style="stroke:#000000;stroke-width:0.8;" x="638.63726" xlink:href="#md708b66777" y="193.911635"/>
      </g>
     </g>
    </g>
   </g>
   <g id="matplotlib.axis_2">
    <g id="ytick_1">
     <g id="line2d_8">
      <defs>
       <path d="M 0 0 
L -3.5 0 
" id="m811036436a" style="stroke:#000000;stroke-width:0.8;"/>
      </defs>
      <g>
       <use style="stroke:#000000;stroke-width:0.8;" x="39.58149" xlink:href="#m811036436a" y="185.392935"/>
      </g>
     </g>
     <g id="text_1">
      <!-- 0.0 -->
      <defs>
       <path d="M 31.78125 66.40625 
Q 24.171875 66.40625 20.328125 58.90625 
Q 16.5 51.421875 16.5 36.375 
Q 16.5 21.390625 20.328125 13.890625 
Q 24.171875 6.390625 31.78125 6.390625 
Q 39.453125 6.390625 43.28125 13.890625 
Q 47.125 21.390625 47.125 36.375 
Q 47.125 51.421875 43.28125 58.90625 
Q 39.453125 66.40625 31.78125 66.40625 
z
M 31.78125 74.21875 
Q 44.046875 74.21875 50.515625 64.515625 
Q 56.984375 54.828125 56.984375 36.375 
Q 56.984375 17.96875 50.515625 8.265625 
Q 44.046875 -1.421875 31.78125 -1.421875 
Q 19.53125 -1.421875 13.0625 8.265625 
Q 6.59375 17.96875 6.59375 36.375 
Q 6.59375 54.828125 13.0625 64.515625 
Q 19.53125 74.21875 31.78125 74.21875 
z
" id="DejaVuSans-48"/>
       <path d="M 10.6875 12.40625 
L 21 12.40625 
L 21 0 
L 10.6875 0 
z
" id="DejaVuSans-46"/>
      </defs>
      <g transform="translate(16.678365 189.192154)scale(0.1 -0.1)">
       <use xlink:href="#DejaVuSans-48"/>
       <use x="63.623047" xlink:href="#DejaVuSans-46"/>
       <use x="95.410156" xlink:href="#DejaVuSans-48"/>
      </g>
     </g>
    </g>
    <g id="ytick_2">
     <g id="line2d_9">
      <g>
       <use style="stroke:#000000;stroke-width:0.8;" x="39.58149" xlink:href="#m811036436a" y="156.741825"/>
      </g>
     </g>
     <g id="text_2">
      <!-- 0.2 -->
      <defs>
       <path d="M 19.1875 8.296875 
L 53.609375 8.296875 
L 53.609375 0 
L 7.328125 0 
L 7.328125 8.296875 
Q 12.9375 14.109375 22.625 23.890625 
Q 32.328125 33.6875 34.8125 36.53125 
Q 39.546875 41.84375 41.421875 45.53125 
Q 43.3125 49.21875 43.3125 52.78125 
Q 43.3125 58.59375 39.234375 62.25 
Q 35.15625 65.921875 28.609375 65.921875 
Q 23.96875 65.921875 18.8125 64.3125 
Q 13.671875 62.703125 7.8125 59.421875 
L 7.8125 69.390625 
Q 13.765625 71.78125 18.9375 73 
Q 24.125 74.21875 28.421875 74.21875 
Q 39.75 74.21875 46.484375 68.546875 
Q 53.21875 62.890625 53.21875 53.421875 
Q 53.21875 48.921875 51.53125 44.890625 
Q 49.859375 40.875 45.40625 35.40625 
Q 44.1875 33.984375 37.640625 27.21875 
Q 31.109375 20.453125 19.1875 8.296875 
z
" id="DejaVuSans-50"/>
      </defs>
      <g transform="translate(16.678365 160.541044)scale(0.1 -0.1)">
       <use xlink:href="#DejaVuSans-48"/>
       <use x="63.623047" xlink:href="#DejaVuSans-46"/>
       <use x="95.410156" xlink:href="#DejaVuSans-50"/>
      </g>
     </g>
    </g>
    <g id="ytick_3">
     <g id="line2d_10">
      <g>
       <use style="stroke:#000000;stroke-width:0.8;" x="39.58149" xlink:href="#m811036436a" y="128.090715"/>
      </g>
     </g>
     <g id="text_3">
      <!-- 0.4 -->
      <defs>
       <path d="M 37.796875 64.3125 
L 12.890625 25.390625 
L 37.796875 25.390625 
z
M 35.203125 72.90625 
L 47.609375 72.90625 
L 47.609375 25.390625 
L 58.015625 25.390625 
L 58.015625 17.1875 
L 47.609375 17.1875 
L 47.609375 0 
L 37.796875 0 
L 37.796875 17.1875 
L 4.890625 17.1875 
L 4.890625 26.703125 
z
" id="DejaVuSans-52"/>
      </defs>
      <g transform="translate(16.678365 131.889934)scale(0.1 -0.1)">
       <use xlink:href="#DejaVuSans-48"/>
       <use x="63.623047" xlink:href="#DejaVuSans-46"/>
       <use x="95.410156" xlink:href="#DejaVuSans-52"/>
      </g>
     </g>
    </g>
    <g id="ytick_4">
     <g id="line2d_11">
      <g>
       <use style="stroke:#000000;stroke-width:0.8;" x="39.58149" xlink:href="#m811036436a" y="99.439605"/>
      </g>
     </g>
     <g id="text_4">
      <!-- 0.6 -->
      <defs>
       <path d="M 33.015625 40.375 
Q 26.375 40.375 22.484375 35.828125 
Q 18.609375 31.296875 18.609375 23.390625 
Q 18.609375 15.53125 22.484375 10.953125 
Q 26.375 6.390625 33.015625 6.390625 
Q 39.65625 6.390625 43.53125 10.953125 
Q 47.40625 15.53125 47.40625 23.390625 
Q 47.40625 31.296875 43.53125 35.828125 
Q 39.65625 40.375 33.015625 40.375 
z
M 52.59375 71.296875 
L 52.59375 62.3125 
Q 48.875 64.0625 45.09375 64.984375 
Q 41.3125 65.921875 37.59375 65.921875 
Q 27.828125 65.921875 22.671875 59.328125 
Q 17.53125 52.734375 16.796875 39.40625 
Q 19.671875 43.65625 24.015625 45.921875 
Q 28.375 48.1875 33.59375 48.1875 
Q 44.578125 48.1875 50.953125 41.515625 
Q 57.328125 34.859375 57.328125 23.390625 
Q 57.328125 12.15625 50.6875 5.359375 
Q 44.046875 -1.421875 33.015625 -1.421875 
Q 20.359375 -1.421875 13.671875 8.265625 
Q 6.984375 17.96875 6.984375 36.375 
Q 6.984375 53.65625 15.1875 63.9375 
Q 23.390625 74.21875 37.203125 74.21875 
Q 40.921875 74.21875 44.703125 73.484375 
Q 48.484375 72.75 52.59375 71.296875 
z
" id="DejaVuSans-54"/>
      </defs>
      <g transform="translate(16.678365 103.238824)scale(0.1 -0.1)">
       <use xlink:href="#DejaVuSans-48"/>
       <use x="63.623047" xlink:href="#DejaVuSans-46"/>
       <use x="95.410156" xlink:href="#DejaVuSans-54"/>
      </g>
     </g>
    </g>
    <g id="ytick_5">
     <g id="line2d_12">
      <g>
       <use style="stroke:#000000;stroke-width:0.8;" x="39.58149" xlink:href="#m811036436a" y="70.788495"/>
      </g>
     </g>
     <g id="text_5">
      <!-- 0.8 -->
      <defs>
       <path d="M 31.78125 34.625 
Q 24.75 34.625 20.71875 30.859375 
Q 16.703125 27.09375 16.703125 20.515625 
Q 16.703125 13.921875 20.71875 10.15625 
Q 24.75 6.390625 31.78125 6.390625 
Q 38.8125 6.390625 42.859375 10.171875 
Q 46.921875 13.96875 46.921875 20.515625 
Q 46.921875 27.09375 42.890625 30.859375 
Q 38.875 34.625 31.78125 34.625 
z
M 21.921875 38.8125 
Q 15.578125 40.375 12.03125 44.71875 
Q 8.5 49.078125 8.5 55.328125 
Q 8.5 64.0625 14.71875 69.140625 
Q 20.953125 74.21875 31.78125 74.21875 
Q 42.671875 74.21875 48.875 69.140625 
Q 55.078125 64.0625 55.078125 55.328125 
Q 55.078125 49.078125 51.53125 44.71875 
Q 48 40.375 41.703125 38.8125 
Q 48.828125 37.15625 52.796875 32.3125 
Q 56.78125 27.484375 56.78125 20.515625 
Q 56.78125 9.90625 50.3125 4.234375 
Q 43.84375 -1.421875 31.78125 -1.421875 
Q 19.734375 -1.421875 13.25 4.234375 
Q 6.78125 9.90625 6.78125 20.515625 
Q 6.78125 27.484375 10.78125 32.3125 
Q 14.796875 37.15625 21.921875 38.8125 
z
M 18.3125 54.390625 
Q 18.3125 48.734375 21.84375 45.5625 
Q 25.390625 42.390625 31.78125 42.390625 
Q 38.140625 42.390625 41.71875 45.5625 
Q 45.3125 48.734375 45.3125 54.390625 
Q 45.3125 60.0625 41.71875 63.234375 
Q 38.140625 66.40625 31.78125 66.40625 
Q 25.390625 66.40625 21.84375 63.234375 
Q 18.3125 60.0625 18.3125 54.390625 
z
" id="DejaVuSans-56"/>
      </defs>
      <g transform="translate(16.678365 74.587714)scale(0.1 -0.1)">
       <use xlink:href="#DejaVuSans-48"/>
       <use x="63.623047" xlink:href="#DejaVuSans-46"/>
       <use x="95.410156" xlink:href="#DejaVuSans-56"/>
      </g>
     </g>
    </g>
    <g id="ytick_6">
     <g id="line2d_13">
      <g>
       <use style="stroke:#000000;stroke-width:0.8;" x="39.58149" xlink:href="#m811036436a" y="42.137386"/>
      </g>
     </g>
     <g id="text_6">
      <!-- 1.0 -->
      <defs>
       <path d="M 12.40625 8.296875 
L 28.515625 8.296875 
L 28.515625 63.921875 
L 10.984375 60.40625 
L 10.984375 69.390625 
L 28.421875 72.90625 
L 38.28125 72.90625 
L 38.28125 8.296875 
L 54.390625 8.296875 
L 54.390625 0 
L 12.40625 0 
z
" id="DejaVuSans-49"/>
      </defs>
      <g transform="translate(16.678365 45.936604)scale(0.1 -0.1)">
       <use xlink:href="#DejaVuSans-49"/>
       <use x="63.623047" xlink:href="#DejaVuSans-46"/>
       <use x="95.410156" xlink:href="#DejaVuSans-48"/>
      </g>
     </g>
    </g>
    <g id="ytick_7">
     <g id="line2d_14">
      <g>
       <use style="stroke:#000000;stroke-width:0.8;" x="39.58149" xlink:href="#m811036436a" y="13.486276"/>
      </g>
     </g>
     <g id="text_7">
      <!-- 1.2 -->
      <g transform="translate(16.678365 17.285494)scale(0.1 -0.1)">
       <use xlink:href="#DejaVuSans-49"/>
       <use x="63.623047" xlink:href="#DejaVuSans-46"/>
       <use x="95.410156" xlink:href="#DejaVuSans-50"/>
      </g>
     </g>
    </g>
    <g id="text_8">
     <!-- y(t) -->
     <defs>
      <path d="M 32.171875 -5.078125 
Q 28.375 -14.84375 24.75 -17.8125 
Q 21.140625 -20.796875 15.09375 -20.796875 
L 7.90625 -20.796875 
L 7.90625 -13.28125 
L 13.1875 -13.28125 
Q 16.890625 -13.28125 18.9375 -11.515625 
Q 21 -9.765625 23.484375 -3.21875 
L 25.09375 0.875 
L 2.984375 54.6875 
L 12.5 54.6875 
L 29.59375 11.921875 
L 46.6875 54.6875 
L 56.203125 54.6875 
z
" id="DejaVuSans-121"/>
      <path d="M 31 75.875 
Q 24.46875 64.65625 21.28125 53.65625 
Q 18.109375 42.671875 18.109375 31.390625 
Q 18.109375 20.125 21.3125 9.0625 
Q 24.515625 -2 31 -13.1875 
L 23.1875 -13.1875 
Q 15.875 -1.703125 12.234375 9.375 
Q 8.59375 20.453125 8.59375 31.390625 
Q 8.59375 42.28125 12.203125 53.3125 
Q 15.828125 64.359375 23.1875 75.875 
z
" id="DejaVuSans-40"/>
      <path d="M 18.3125 70.21875 
L 18.3125 54.6875 
L 36.8125 54.6875 
L 36.8125 47.703125 
L 18.3125 47.703125 
L 18.3125 18.015625 
Q 18.3125 11.328125 20.140625 9.421875 
Q 21.96875 7.515625 27.59375 7.515625 
L 36.8125 7.515625 
L 36.8125 0 
L 27.59375 0 
Q 17.1875 0 13.234375 3.875 
Q 9.28125 7.765625 9.28125 18.015625 
L 9.28125 47.703125 
L 2.6875 47.703125 
L 2.6875 54.6875 
L 9.28125 54.6875 
L 9.28125 70.21875 
z
" id="DejaVuSans-116"/>
      <path d="M 8.015625 75.875 
L 15.828125 75.875 
Q 23.140625 64.359375 26.78125 53.3125 
Q 30.421875 42.28125 30.421875 31.390625 
Q 30.421875 20.453125 26.78125 9.375 
Q 23.140625 -1.703125 15.828125 -13.1875 
L 8.015625 -13.1875 
Q 14.5 -2 17.703125 9.0625 
Q 20.90625 20.125 20.90625 31.390625 
Q 20.90625 42.671875 17.703125 53.65625 
Q 14.5 64.65625 8.015625 75.875 
z
" id="DejaVuSans-41"/>
     </defs>
     <g transform="translate(10.598678 109.027031)rotate(-90)scale(0.1 -0.1)">
      <use xlink:href="#DejaVuSans-121"/>
      <use x="59.179688" xlink:href="#DejaVuSans-40"/>
      <use x="98.193359" xlink:href="#DejaVuSans-116"/>
      <use x="137.402344" xlink:href="#DejaVuSans-41"/>
     </g>
    </g>
   </g>
   <g id="line2d_15">
    <path clip-path="url(#pd2122c47b2)" d="M 39.58149 42.137386 
L 638.63726 42.137386 
L 638.63726 42.137386 
" style="fill:none;stroke:#000000;stroke-dasharray:4.44,1.92;stroke-dashoffset:0;stroke-width:1.2;"/>
   </g>
   <g id="line2d_16">
    <path clip-path="url(#pd2122c47b2)" d="M 39.58149 185.392935 
L 45.572048 185.333381 
L 49.565753 184.997518 
L 51.562605 184.631762 
L 53.559458 184.083274 
L 55.556311 183.317126 
L 57.553163 182.302478 
L 59.550016 181.013321 
L 61.546868 179.428883 
L 63.543721 177.53377 
L 65.540573 175.31793 
L 67.537426 172.776463 
L 69.534279 169.909343 
L 71.531131 166.721066 
L 73.527984 163.220267 
L 75.524836 159.419298 
L 77.521689 155.333816 
L 81.515394 146.385926 
L 85.509099 136.55219 
L 89.502804 126.035555 
L 95.493362 109.461869 
L 105.477625 81.577657 
L 109.47133 70.953817 
L 113.465035 60.917855 
L 117.45874 51.630863 
L 121.452445 43.229199 
L 123.449298 39.395777 
L 125.44615 35.82278 
L 127.443003 32.519664 
L 129.439856 29.494158 
L 131.436708 26.752275 
L 133.433561 24.298326 
L 135.430413 22.134951 
L 137.427266 20.263159 
L 139.424118 18.682367 
L 141.420971 17.390456 
L 143.417823 16.38383 
L 145.414676 15.65748 
L 147.411529 15.205055 
L 149.408381 15.01894 
L 151.405234 15.090334 
L 153.402086 15.409337 
L 155.398939 15.965037 
L 157.395791 16.7456 
L 159.392644 17.738364 
L 161.389497 18.929931 
L 163.386349 20.306265 
L 165.383202 21.852787 
L 169.376907 25.395938 
L 173.370612 29.435505 
L 177.364317 33.844946 
L 183.354875 40.876924 
L 193.339138 52.711573 
L 197.332843 57.16726 
L 201.326548 61.322348 
L 205.320253 65.098648 
L 209.313958 68.431076 
L 213.307663 71.268219 
L 215.304516 72.4888 
L 217.301368 73.57259 
L 219.298221 74.517068 
L 221.295074 75.320557 
L 223.291926 75.982211 
L 225.288779 76.50199 
L 227.285631 76.880636 
L 229.282484 77.119643 
L 231.279336 77.221228 
L 233.276189 77.188294 
L 235.273042 77.024393 
L 237.269894 76.733687 
L 239.266747 76.320906 
L 243.260452 75.150615 
L 247.254157 73.561031 
L 251.247862 71.605839 
L 255.241567 69.343369 
L 259.235272 66.835067 
L 265.22583 62.749704 
L 283.197503 50.092645 
L 287.191208 47.549826 
L 291.184913 45.202746 
L 295.178619 43.084985 
L 299.172324 41.223298 
L 303.166029 39.637466 
L 307.159734 38.340294 
L 311.153439 37.337769 
L 315.147144 36.629347 
L 319.140849 36.208361 
L 323.134554 36.062542 
L 327.12826 36.174616 
L 331.121965 36.522981 
L 335.11567 37.082426 
L 339.109375 37.824891 
L 345.099933 39.215438 
L 351.09049 40.843175 
L 375.052721 47.661954 
L 381.043279 49.005881 
L 387.033837 50.07961 
L 393.024394 50.849859 
L 399.014952 51.300947 
L 405.00551 51.433926 
L 410.996067 51.264993 
L 416.986625 50.823348 
L 422.977183 50.148622 
L 430.964593 48.968806 
L 440.948856 47.218964 
L 458.920529 44.024015 
L 466.907939 42.839527 
L 474.89535 41.904069 
L 482.88276 41.255568 
L 490.87017 40.904384 
L 498.85758 40.835722 
L 506.844991 41.013817 
L 516.829253 41.504253 
L 530.807221 42.473919 
L 548.778895 43.723171 
L 560.76001 44.308175 
L 570.744273 44.565233 
L 580.728536 44.600187 
L 590.712798 44.432923 
L 604.690766 43.943766 
L 638.63726 42.445912 
L 638.63726 42.445912 
" style="fill:none;stroke:#1f77b4;stroke-linecap:square;stroke-width:1.5;"/>
   </g>
   <g id="line2d_17">
    <path clip-path="url(#pd2122c47b2)" d="M 39.58149 185.392935 
L 45.572048 185.353677 
L 49.565753 185.131703 
L 51.562605 184.889461 
L 53.559458 184.525582 
L 55.556311 184.016402 
L 57.553163 183.340809 
L 59.550016 182.480743 
L 61.546868 181.421469 
L 63.543721 180.151679 
L 65.540573 178.663472 
L 67.537426 176.952235 
L 69.534279 175.016467 
L 71.531131 172.857552 
L 73.527984 170.479507 
L 75.524836 167.888715 
L 77.521689 165.093653 
L 81.515394 158.93349 
L 85.509099 152.098686 
L 89.502804 144.706215 
L 93.496509 136.883508 
L 99.487067 124.631727 
L 111.468182 99.850996 
L 117.45874 88.100528 
L 121.452445 80.725446 
L 125.44615 73.80613 
L 129.439856 67.403715 
L 133.433561 61.565897 
L 137.427266 56.327214 
L 141.420971 51.709548 
L 145.414676 47.722828 
L 147.411529 45.966116 
L 149.408381 44.365886 
L 151.405234 42.920422 
L 153.402086 41.627435 
L 155.398939 40.484111 
L 157.395791 39.487136 
L 159.392644 38.632739 
L 161.389497 37.916727 
L 163.386349 37.334522 
L 165.383202 36.881194 
L 167.380054 36.551506 
L 169.376907 36.339942 
L 173.370612 36.247969 
L 177.364317 36.557002 
L 181.358022 37.216595 
L 185.351727 38.175162 
L 189.345433 39.380939 
L 193.339138 40.782864 
L 199.329695 43.14568 
L 221.295074 52.267598 
L 227.285631 54.368836 
L 233.276189 56.151355 
L 237.269894 57.139543 
L 241.263599 57.957387 
L 245.257304 58.600434 
L 249.25101 59.067767 
L 253.244715 59.361702 
L 257.23842 59.487457 
L 261.232125 59.452799 
L 267.222683 59.122331 
L 273.21324 58.494672 
L 279.203798 57.617204 
L 285.194356 56.541144 
L 293.181766 54.888364 
L 325.131407 47.937223 
L 333.118817 46.543023 
L 341.106228 45.387795 
L 349.093638 44.486597 
L 357.081048 43.836851 
L 365.068458 43.421404 
L 373.055869 43.212021 
L 383.040131 43.185252 
L 395.021247 43.394744 
L 444.942561 44.614412 
L 460.917382 44.606906 
L 478.889055 44.336721 
L 506.844991 43.631154 
L 536.797779 42.936806 
L 560.76001 42.621302 
L 588.715946 42.507969 
L 638.63726 42.542567 
L 638.63726 42.542567 
" style="fill:none;stroke:#ff7f0e;stroke-linecap:square;stroke-width:1.5;"/>
   </g>
   <g id="line2d_18">
    <path clip-path="url(#pd2122c47b2)" d="M 39.58149 185.392935 
L 45.572048 185.323607 
L 47.5689 185.190119 
L 49.565753 184.934405 
L 51.562605 184.512132 
L 53.559458 183.880763 
L 55.556311 183.001568 
L 57.553163 181.840967 
L 59.550016 180.371344 
L 61.546868 178.571474 
L 63.543721 176.426629 
L 65.540573 173.928478 
L 67.537426 171.074816 
L 69.534279 167.869184 
L 71.531131 164.32041 
L 73.527984 160.442112 
L 75.524836 156.252168 
L 79.518541 147.026978 
L 83.512246 136.853075 
L 87.505952 125.974 
L 95.493362 103.165251 
L 101.48392 86.200825 
L 105.477625 75.437473 
L 109.47133 65.376005 
L 113.465035 56.211855 
L 115.461888 52.018535 
L 117.45874 48.107936 
L 119.455593 44.494914 
L 121.452445 41.19203 
L 123.449298 38.209538 
L 125.44615 35.555379 
L 127.443003 33.235202 
L 129.439856 31.252389 
L 131.436708 29.608102 
L 133.433561 28.301341 
L 135.430413 27.329011 
L 137.427266 26.686006 
L 139.424118 26.365298 
L 141.420971 26.358042 
L 143.417823 26.653683 
L 145.414676 27.240075 
L 147.411529 28.103602 
L 149.408381 29.229313 
L 151.405234 30.601051 
L 153.402086 32.201594 
L 155.398939 34.012794 
L 157.395791 36.015721 
L 161.389497 40.517968 
L 165.383202 45.546628 
L 169.376907 50.9365 
L 183.354875 70.325682 
L 187.34858 75.408508 
L 191.342285 80.057346 
L 195.33599 84.173291 
L 197.332843 86.005719 
L 199.329695 87.676549 
L 201.326548 89.178935 
L 203.3234 90.507301 
L 205.320253 91.657344 
L 207.317106 92.626018 
L 209.313958 93.411517 
L 211.310811 94.013252 
L 213.307663 94.431816 
L 215.304516 94.668948 
L 217.301368 94.727483 
L 219.298221 94.611307 
L 221.295074 94.3253 
L 223.291926 93.875271 
L 225.288779 93.267902 
L 227.285631 92.510673 
L 229.282484 91.611794 
L 233.276189 89.42513 
L 237.269894 86.785349 
L 241.263599 83.776705 
L 245.257304 80.487782 
L 251.247862 75.22668 
L 261.232125 66.318234 
L 267.222683 61.332358 
L 271.216388 58.301689 
L 275.210093 55.57002 
L 279.203798 53.180844 
L 283.197503 51.166708 
L 287.191208 49.549039 
L 291.184913 48.338268 
L 295.178619 47.534204 
L 299.172324 47.126667 
L 303.166029 47.096315 
L 307.159734 47.415664 
L 311.153439 48.050242 
L 315.147144 48.959849 
L 319.140849 50.099892 
L 325.131407 52.137347 
L 333.118817 55.205556 
L 343.10308 59.066707 
L 349.093638 61.14035 
L 353.087343 62.347815 
L 357.081048 63.383305 
L 361.074753 64.225983 
L 365.068458 64.86108 
L 369.062164 65.279908 
L 373.055869 65.479713 
L 377.049574 65.463403 
L 381.043279 65.23914 
L 385.036984 64.819829 
L 389.030689 64.222524 
L 395.021247 63.03852 
L 401.011805 61.581071 
L 408.999215 59.366022 
L 424.974035 54.798879 
L 430.964593 53.28322 
L 436.955151 51.972145 
L 442.945708 50.90658 
L 448.936266 50.11071 
L 454.926824 49.592098 
L 460.917382 49.342697 
L 466.907939 49.340632 
L 472.898497 49.552596 
L 480.885907 50.0948 
L 490.87017 51.02844 
L 508.841843 52.747363 
L 516.829253 53.291612 
L 524.816664 53.608799 
L 532.804074 53.671021 
L 540.791484 53.478543 
L 548.778895 53.056563 
L 558.763157 52.27607 
L 574.737978 50.719823 
L 590.712798 49.218714 
L 600.697061 48.484768 
L 610.681324 47.972717 
L 620.665587 47.692856 
L 630.64985 47.621078 
L 638.63726 47.680344 
L 638.63726 47.680344 
" style="fill:none;stroke:#2ca02c;stroke-linecap:square;stroke-width:1.5;"/>
   </g>
   <g id="patch_3">
    <path d="M 39.58149 193.911635 
L 39.58149 6.50024 
" style="fill:none;stroke:#000000;stroke-linecap:square;stroke-linejoin:miter;stroke-width:0.8;"/>
   </g>
   <g id="patch_4">
    <path d="M 638.63726 193.911635 
L 638.63726 6.50024 
" style="fill:none;stroke:#000000;stroke-linecap:square;stroke-linejoin:miter;stroke-width:0.8;"/>
   </g>
   <g id="patch_5">
    <path d="M 39.58149 193.911635 
L 638.63726 193.911635 
" style="fill:none;stroke:#000000;stroke-linecap:square;stroke-linejoin:miter;stroke-width:0.8;"/>
   </g>
   <g id="patch_6">
    <path d="M 39.58149 6.50024 
L 638.63726 6.50024 
" style="fill:none;stroke:#000000;stroke-linecap:square;stroke-linejoin:miter;stroke-width:0.8;"/>
   </g>
  </g>
  <g id="axes_2">
   <g id="patch_7">
    <path d="M 39.58149 398.64351 
L 638.63726 398.64351 
L 638.63726 211.232115 
L 39.58149 211.232115 
z
" style="fill:#ffffff;"/>
   </g>
   <g id="matplotlib.axis_3">
    <g id="xtick_8">
     <g id="line2d_19">
      <g>
       <use style="stroke:#000000;stroke-width:0.8;" x="39.58149" xlink:href="#md708b66777" y="398.64351"/>
      </g>
     </g>
     <g id="text_9">
      <!-- 0 -->
      <g transform="translate(36.40024 413.241948)scale(0.1 -0.1)">
       <use xlink:href="#DejaVuSans-48"/>
      </g>
     </g>
    </g>
    <g id="xtick_9">
     <g id="line2d_20">
      <g>
       <use style="stroke:#000000;stroke-width:0.8;" x="139.424118" xlink:href="#md708b66777" y="398.64351"/>
      </g>
     </g>
     <g id="text_10">
      <!-- 5 -->
      <defs>
       <path d="M 10.796875 72.90625 
L 49.515625 72.90625 
L 49.515625 64.59375 
L 19.828125 64.59375 
L 19.828125 46.734375 
Q 21.96875 47.46875 24.109375 47.828125 
Q 26.265625 48.1875 28.421875 48.1875 
Q 40.625 48.1875 47.75 41.5 
Q 54.890625 34.8125 54.890625 23.390625 
Q 54.890625 11.625 47.5625 5.09375 
Q 40.234375 -1.421875 26.90625 -1.421875 
Q 22.3125 -1.421875 17.546875 -0.640625 
Q 12.796875 0.140625 7.71875 1.703125 
L 7.71875 11.625 
Q 12.109375 9.234375 16.796875 8.0625 
Q 21.484375 6.890625 26.703125 6.890625 
Q 35.15625 6.890625 40.078125 11.328125 
Q 45.015625 15.765625 45.015625 23.390625 
Q 45.015625 31 40.078125 35.4375 
Q 35.15625 39.890625 26.703125 39.890625 
Q 22.75 39.890625 18.8125 39.015625 
Q 14.890625 38.140625 10.796875 36.28125 
z
" id="DejaVuSans-53"/>
      </defs>
      <g transform="translate(136.242868 413.241948)scale(0.1 -0.1)">
       <use xlink:href="#DejaVuSans-53"/>
      </g>
     </g>
    </g>
    <g id="xtick_10">
     <g id="line2d_21">
      <g>
       <use style="stroke:#000000;stroke-width:0.8;" x="239.266747" xlink:href="#md708b66777" y="398.64351"/>
      </g>
     </g>
     <g id="text_11">
      <!-- 10 -->
      <g transform="translate(232.904247 413.241948)scale(0.1 -0.1)">
       <use xlink:href="#DejaVuSans-49"/>
       <use x="63.623047" xlink:href="#DejaVuSans-48"/>
      </g>
     </g>
    </g>
    <g id="xtick_11">
     <g id="line2d_22">
      <g>
       <use style="stroke:#000000;stroke-width:0.8;" x="339.109375" xlink:href="#md708b66777" y="398.64351"/>
      </g>
     </g>
     <g id="text_12">
      <!-- 15 -->
      <g transform="translate(332.746875 413.241948)scale(0.1 -0.1)">
       <use xlink:href="#DejaVuSans-49"/>
       <use x="63.623047" xlink:href="#DejaVuSans-53"/>
      </g>
     </g>
    </g>
    <g id="xtick_12">
     <g id="line2d_23">
      <g>
       <use style="stroke:#000000;stroke-width:0.8;" x="438.952003" xlink:href="#md708b66777" y="398.64351"/>
      </g>
     </g>
     <g id="text_13">
      <!-- 20 -->
      <g transform="translate(432.589503 413.241948)scale(0.1 -0.1)">
       <use xlink:href="#DejaVuSans-50"/>
       <use x="63.623047" xlink:href="#DejaVuSans-48"/>
      </g>
     </g>
    </g>
    <g id="xtick_13">
     <g id="line2d_24">
      <g>
       <use style="stroke:#000000;stroke-width:0.8;" x="538.794632" xlink:href="#md708b66777" y="398.64351"/>
      </g>
     </g>
     <g id="text_14">
      <!-- 25 -->
      <g transform="translate(532.432132 413.241948)scale(0.1 -0.1)">
       <use xlink:href="#DejaVuSans-50"/>
       <use x="63.623047" xlink:href="#DejaVuSans-53"/>
      </g>
     </g>
    </g>
    <g id="xtick_14">
     <g id="line2d_25">
      <g>
       <use style="stroke:#000000;stroke-width:0.8;" x="638.63726" xlink:href="#md708b66777" y="398.64351"/>
      </g>
     </g>
     <g id="text_15">
      <!-- 30 -->
      <defs>
       <path d="M 40.578125 39.3125 
Q 47.65625 37.796875 51.625 33 
Q 55.609375 28.21875 55.609375 21.1875 
Q 55.609375 10.40625 48.1875 4.484375 
Q 40.765625 -1.421875 27.09375 -1.421875 
Q 22.515625 -1.421875 17.65625 -0.515625 
Q 12.796875 0.390625 7.625 2.203125 
L 7.625 11.71875 
Q 11.71875 9.328125 16.59375 8.109375 
Q 21.484375 6.890625 26.8125 6.890625 
Q 36.078125 6.890625 40.9375 10.546875 
Q 45.796875 14.203125 45.796875 21.1875 
Q 45.796875 27.640625 41.28125 31.265625 
Q 36.765625 34.90625 28.71875 34.90625 
L 20.21875 34.90625 
L 20.21875 43.015625 
L 29.109375 43.015625 
Q 36.375 43.015625 40.234375 45.921875 
Q 44.09375 48.828125 44.09375 54.296875 
Q 44.09375 59.90625 40.109375 62.90625 
Q 36.140625 65.921875 28.71875 65.921875 
Q 24.65625 65.921875 20.015625 65.03125 
Q 15.375 64.15625 9.8125 62.3125 
L 9.8125 71.09375 
Q 15.4375 72.65625 20.34375 73.4375 
Q 25.25 74.21875 29.59375 74.21875 
Q 40.828125 74.21875 47.359375 69.109375 
Q 53.90625 64.015625 53.90625 55.328125 
Q 53.90625 49.265625 50.4375 45.09375 
Q 46.96875 40.921875 40.578125 39.3125 
z
" id="DejaVuSans-51"/>
      </defs>
      <g transform="translate(632.27476 413.241948)scale(0.1 -0.1)">
       <use xlink:href="#DejaVuSans-51"/>
       <use x="63.623047" xlink:href="#DejaVuSans-48"/>
      </g>
     </g>
    </g>
    <g id="text_16">
     <!-- t (s) -->
     <defs>
      <path id="DejaVuSans-32"/>
      <path d="M 44.28125 53.078125 
L 44.28125 44.578125 
Q 40.484375 46.53125 36.375 47.5 
Q 32.28125 48.484375 27.875 48.484375 
Q 21.1875 48.484375 17.84375 46.4375 
Q 14.5 44.390625 14.5 40.28125 
Q 14.5 37.15625 16.890625 35.375 
Q 19.28125 33.59375 26.515625 31.984375 
L 29.59375 31.296875 
Q 39.15625 29.25 43.1875 25.515625 
Q 47.21875 21.78125 47.21875 15.09375 
Q 47.21875 7.46875 41.1875 3.015625 
Q 35.15625 -1.421875 24.609375 -1.421875 
Q 20.21875 -1.421875 15.453125 -0.5625 
Q 10.6875 0.296875 5.421875 2 
L 5.421875 11.28125 
Q 10.40625 8.6875 15.234375 7.390625 
Q 20.0625 6.109375 24.8125 6.109375 
Q 31.15625 6.109375 34.5625 8.28125 
Q 37.984375 10.453125 37.984375 14.40625 
Q 37.984375 18.0625 35.515625 20.015625 
Q 33.0625 21.96875 24.703125 23.78125 
L 21.578125 24.515625 
Q 13.234375 26.265625 9.515625 29.90625 
Q 5.8125 33.546875 5.8125 39.890625 
Q 5.8125 47.609375 11.28125 51.796875 
Q 16.75 56 26.8125 56 
Q 31.78125 56 36.171875 55.265625 
Q 40.578125 54.546875 44.28125 53.078125 
z
" id="DejaVuSans-115"/>
     </defs>
     <g transform="translate(329.053906 426.920073)scale(0.1 -0.1)">
      <use xlink:href="#DejaVuSans-116"/>
      <use x="39.208984" xlink:href="#DejaVuSans-32"/>
      <use x="70.996094" xlink:href="#DejaVuSans-40"/>
      <use x="110.009766" xlink:href="#DejaVuSans-115"/>
      <use x="162.109375" xlink:href="#DejaVuSans-41"/>
     </g>
    </g>
   </g>
   <g id="matplotlib.axis_4">
    <g id="ytick_8">
     <g id="line2d_26">
      <g>
       <use style="stroke:#000000;stroke-width:0.8;" x="39.58149" xlink:href="#m811036436a" y="396.819517"/>
      </g>
     </g>
     <g id="text_17">
      <!-- 0.4 -->
      <g transform="translate(16.678365 400.618736)scale(0.1 -0.1)">
       <use xlink:href="#DejaVuSans-48"/>
       <use x="63.623047" xlink:href="#DejaVuSans-46"/>
       <use x="95.410156" xlink:href="#DejaVuSans-52"/>
      </g>
     </g>
    </g>
    <g id="ytick_9">
     <g id="line2d_27">
      <g>
       <use style="stroke:#000000;stroke-width:0.8;" x="39.58149" xlink:href="#m811036436a" y="372.005547"/>
      </g>
     </g>
     <g id="text_18">
      <!-- 0.6 -->
      <g transform="translate(16.678365 375.804766)scale(0.1 -0.1)">
       <use xlink:href="#DejaVuSans-48"/>
       <use x="63.623047" xlink:href="#DejaVuSans-46"/>
       <use x="95.410156" xlink:href="#DejaVuSans-54"/>
      </g>
     </g>
    </g>
    <g id="ytick_10">
     <g id="line2d_28">
      <g>
       <use style="stroke:#000000;stroke-width:0.8;" x="39.58149" xlink:href="#m811036436a" y="347.191577"/>
      </g>
     </g>
     <g id="text_19">
      <!-- 0.8 -->
      <g transform="translate(16.678365 350.990796)scale(0.1 -0.1)">
       <use xlink:href="#DejaVuSans-48"/>
       <use x="63.623047" xlink:href="#DejaVuSans-46"/>
       <use x="95.410156" xlink:href="#DejaVuSans-56"/>
      </g>
     </g>
    </g>
    <g id="ytick_11">
     <g id="line2d_29">
      <g>
       <use style="stroke:#000000;stroke-width:0.8;" x="39.58149" xlink:href="#m811036436a" y="322.377607"/>
      </g>
     </g>
     <g id="text_20">
      <!-- 1.0 -->
      <g transform="translate(16.678365 326.176825)scale(0.1 -0.1)">
       <use xlink:href="#DejaVuSans-49"/>
       <use x="63.623047" xlink:href="#DejaVuSans-46"/>
       <use x="95.410156" xlink:href="#DejaVuSans-48"/>
      </g>
     </g>
    </g>
    <g id="ytick_12">
     <g id="line2d_30">
      <g>
       <use style="stroke:#000000;stroke-width:0.8;" x="39.58149" xlink:href="#m811036436a" y="297.563636"/>
      </g>
     </g>
     <g id="text_21">
      <!-- 1.2 -->
      <g transform="translate(16.678365 301.362855)scale(0.1 -0.1)">
       <use xlink:href="#DejaVuSans-49"/>
       <use x="63.623047" xlink:href="#DejaVuSans-46"/>
       <use x="95.410156" xlink:href="#DejaVuSans-50"/>
      </g>
     </g>
    </g>
    <g id="ytick_13">
     <g id="line2d_31">
      <g>
       <use style="stroke:#000000;stroke-width:0.8;" x="39.58149" xlink:href="#m811036436a" y="272.749666"/>
      </g>
     </g>
     <g id="text_22">
      <!-- 1.4 -->
      <g transform="translate(16.678365 276.548885)scale(0.1 -0.1)">
       <use xlink:href="#DejaVuSans-49"/>
       <use x="63.623047" xlink:href="#DejaVuSans-46"/>
       <use x="95.410156" xlink:href="#DejaVuSans-52"/>
      </g>
     </g>
    </g>
    <g id="ytick_14">
     <g id="line2d_32">
      <g>
       <use style="stroke:#000000;stroke-width:0.8;" x="39.58149" xlink:href="#m811036436a" y="247.935696"/>
      </g>
     </g>
     <g id="text_23">
      <!-- 1.6 -->
      <g transform="translate(16.678365 251.734915)scale(0.1 -0.1)">
       <use xlink:href="#DejaVuSans-49"/>
       <use x="63.623047" xlink:href="#DejaVuSans-46"/>
       <use x="95.410156" xlink:href="#DejaVuSans-54"/>
      </g>
     </g>
    </g>
    <g id="ytick_15">
     <g id="line2d_33">
      <g>
       <use style="stroke:#000000;stroke-width:0.8;" x="39.58149" xlink:href="#m811036436a" y="223.121726"/>
      </g>
     </g>
     <g id="text_24">
      <!-- 1.8 -->
      <g transform="translate(16.678365 226.920944)scale(0.1 -0.1)">
       <use xlink:href="#DejaVuSans-49"/>
       <use x="63.623047" xlink:href="#DejaVuSans-46"/>
       <use x="95.410156" xlink:href="#DejaVuSans-56"/>
      </g>
     </g>
    </g>
    <g id="text_25">
     <!-- u(t) -->
     <defs>
      <path d="M 8.5 21.578125 
L 8.5 54.6875 
L 17.484375 54.6875 
L 17.484375 21.921875 
Q 17.484375 14.15625 20.5 10.265625 
Q 23.53125 6.390625 29.59375 6.390625 
Q 36.859375 6.390625 41.078125 11.03125 
Q 45.3125 15.671875 45.3125 23.6875 
L 45.3125 54.6875 
L 54.296875 54.6875 
L 54.296875 0 
L 45.3125 0 
L 45.3125 8.40625 
Q 42.046875 3.421875 37.71875 1 
Q 33.40625 -1.421875 27.6875 -1.421875 
Q 18.265625 -1.421875 13.375 4.4375 
Q 8.5 10.296875 8.5 21.578125 
z
M 31.109375 56 
z
" id="DejaVuSans-117"/>
     </defs>
     <g transform="translate(10.598678 313.968281)rotate(-90)scale(0.1 -0.1)">
      <use xlink:href="#DejaVuSans-117"/>
      <use x="63.378906" xlink:href="#DejaVuSans-40"/>
      <use x="102.392578" xlink:href="#DejaVuSans-116"/>
      <use x="141.601562" xlink:href="#DejaVuSans-41"/>
     </g>
    </g>
   </g>
   <g id="line2d_34">
    <path clip-path="url(#p75f567059e)" d="M 39.58149 253.244363 
L 45.572048 242.30578 
L 49.565753 235.418581 
L 51.562605 232.248918 
L 53.559458 229.335074 
L 55.556311 226.728845 
L 57.553163 224.477402 
L 59.550016 222.622193 
L 61.546868 221.198273 
L 63.543721 220.233972 
L 65.540573 219.750815 
L 67.537426 219.763632 
L 69.534279 220.280808 
L 71.531131 221.304628 
L 73.527984 222.831683 
L 75.524836 224.853324 
L 77.521689 227.356136 
L 79.518541 230.322413 
L 81.515394 233.730643 
L 83.512246 237.555975 
L 85.509099 241.770675 
L 87.505952 246.34456 
L 91.499657 256.439406 
L 95.493362 267.565405 
L 99.487067 279.432675 
L 107.474477 304.217207 
L 113.465035 322.611633 
L 117.45874 334.295261 
L 121.452445 345.250166 
L 125.44615 355.281212 
L 127.443003 359.8979 
L 129.439856 364.224879 
L 131.436708 368.246922 
L 133.433561 371.950942 
L 135.430413 375.325994 
L 137.427266 378.36327 
L 139.424118 381.056079 
L 141.420971 383.399816 
L 143.417823 385.391926 
L 145.414676 387.031849 
L 147.411529 388.320963 
L 149.408381 389.262516 
L 151.405234 389.861549 
L 153.402086 390.12481 
L 155.398939 390.060669 
L 157.395791 389.679015 
L 159.392644 388.991161 
L 161.389497 388.009735 
L 163.386349 386.748568 
L 165.383202 385.222586 
L 167.380054 383.447691 
L 169.376907 381.440645 
L 171.373759 379.218954 
L 173.370612 376.800746 
L 177.364317 371.449715 
L 181.358022 365.540624 
L 185.351727 359.22914 
L 193.339138 346.014015 
L 199.329695 336.159676 
L 203.3234 329.867566 
L 207.317106 323.933732 
L 211.310811 318.458771 
L 215.304516 313.52743 
L 219.298221 309.207773 
L 221.295074 307.293921 
L 223.291926 305.550755 
L 225.288779 303.981966 
L 227.285631 302.59019 
L 229.282484 301.377031 
L 231.279336 300.34308 
L 233.276189 299.487945 
L 235.273042 298.810284 
L 237.269894 298.307842 
L 239.266747 297.977492 
L 241.263599 297.815277 
L 243.260452 297.81646 
L 245.257304 297.975571 
L 247.254157 298.286462 
L 249.25101 298.742362 
L 251.247862 299.335929 
L 253.244715 300.059311 
L 257.23842 301.861908 
L 261.232125 304.079349 
L 265.22583 306.636425 
L 269.219535 309.455394 
L 275.210093 314.003479 
L 287.191208 323.319122 
L 293.181766 327.628369 
L 297.175471 330.240795 
L 301.169176 332.592169 
L 305.162881 334.646618 
L 309.156587 336.376845 
L 313.150292 337.764186 
L 317.143997 338.798473 
L 321.137702 339.477725 
L 325.131407 339.807687 
L 329.125112 339.801233 
L 333.118817 339.477647 
L 337.112522 338.861824 
L 341.106228 337.983386 
L 345.099933 336.875767 
L 349.093638 335.575263 
L 355.084196 333.346715 
L 363.071606 330.062562 
L 375.052721 325.078505 
L 381.043279 322.805182 
L 387.033837 320.799576 
L 391.027542 319.645023 
L 395.021247 318.653932 
L 399.014952 317.836384 
L 403.008657 317.198171 
L 407.002362 316.74094 
L 410.996067 316.462409 
L 414.989773 316.356658 
L 418.983478 316.414477 
L 424.974035 316.780743 
L 430.964593 317.436516 
L 436.955151 318.322172 
L 444.942561 319.748114 
L 468.904792 324.262723 
L 476.892202 325.42104 
L 482.88276 326.084817 
L 488.873318 326.553309 
L 494.863875 326.820567 
L 500.854433 326.890716 
L 506.844991 326.776845 
L 514.832401 326.375283 
L 522.819811 325.748208 
L 534.800927 324.550674 
L 554.769452 322.503587 
L 564.753715 321.713619 
L 574.737978 321.181743 
L 582.725388 320.960212 
L 592.709651 320.929425 
L 602.693914 321.133338 
L 616.671882 321.689885 
L 638.63726 322.746043 
L 638.63726 322.746043 
" style="fill:none;stroke:#1f77b4;stroke-linecap:square;stroke-width:1.5;"/>
   </g>
   <g id="patch_8">
    <path d="M 39.58149 398.64351 
L 39.58149 211.232115 
" style="fill:none;stroke:#000000;stroke-linecap:square;stroke-linejoin:miter;stroke-width:0.8;"/>
   </g>
   <g id="patch_9">
    <path d="M 638.63726 398.64351 
L 638.63726 211.232115 
" style="fill:none;stroke:#000000;stroke-linecap:square;stroke-linejoin:miter;stroke-width:0.8;"/>
   </g>
   <g id="patch_10">
    <path d="M 39.58149 398.64351 
L 638.63726 398.64351 
" style="fill:none;stroke:#000000;stroke-linecap:square;stroke-linejoin:miter;stroke-width:0.8;"/>
   </g>
   <g id="patch_11">
    <path d="M 39.58149 211.232115 
L 638.63726 211.232115 
" style="fill:none;stroke:#000000;stroke-linecap:square;stroke-linejoin:miter;stroke-width:0.8;"/>
   </g>
  </g>
 </g>
 <defs>
  <clipPath id="pd2122c47b2">
   <rect height="187.411395" width="599.05577" x="39.58149" y="6.50024"/>
  </clipPath>
  <clipPath id="p75f567059e">
   <rect height="187.411395" width="599.05577" x="39.58149" y="211.232115"/>
  </clipPath>
 </defs>
</svg>
