<?xml version="1.0" encoding="utf-8" standalone="no"?>
<!DOCTYPE svg PUBLIC "-//W3C//DTD SVG 1.1//EN"
  "http://www.w3.org/Graphics/SVG/1.1/DTD/svg11.dtd">
<!-- Created with matplotlib (https://matplotlib.org/) -->
<svg height="288pt" version="1.1" viewBox="0 0 432 288" width="432pt" xmlns="http://www.w3.org/2000/svg" xmlns:xlink="http://www.w3.org/1999/xlink">
 <defs>
  <style type="text/css">
*{stroke-linecap:butt;stroke-linejoin:round;}
  </style>
 </defs>
 <g id="figure_1">
  <g id="patch_1">
   <path d="M 0 288 
L 432 288 
L 432 0 
L 0 0 
z
" style="fill:#ffffff;"/>
  </g>
  <g id="axes_1">
   <g id="patch_2">
    <path d="M 39.58149 122.631635 
L 422.63726 122.631635 
L 422.63726 6.50024 
L 39.58149 6.50024 
z
" style="fill:#ffffff;"/>
   </g>
   <g id="matplotlib.axis_1">
    <g id="xtick_1">
     <g id="line2d_1">
      <defs>
       <path d="M 0 0 
L 0 3.5 
" id="m49cc53464e" style="stroke:#000000;stroke-width:0.8;"/>
      </defs>
      <g>
       <use style="stroke:#000000;stroke-width:0.8;" x="39.58149" xlink:href="#m49cc53464e" y="122.631635"/>
      </g>
     </g>
    </g>
    <g id="xtick_2">
     <g id="line2d_2">
      <g>
       <use style="stroke:#000000;stroke-width:0.8;" x="103.424118" xlink:href="#m49cc53464e" y="122.631635"/>
      </g>
     </g>
    </g>
    <g id="xtick_3">
     <g id="line2d_3">
      <g>
       <use style="stroke:#000000;stroke-width:0.8;" x="167.266747" xlink:href="#m49cc53464e" y="122.631635"/>
      </g>
     </g>
    </g>
    <g id="xtick_4">
     <g id="line2d_4">
      <g>
       <use style="stroke:#000000;stroke-width:0.8;" x="231.109375" xlink:href="#m49cc53464e" y="122.631635"/>
      </g>
     </g>
    </g>
    <g id="xtick_5">
     <g id="line2d_5">
      <g>
       <use style="stroke:#000000;stroke-width:0.8;" x="294.952003" xlink:href="#m49cc53464e" y="122.631635"/>
      </g>
     </g>
    </g>
    <g id="xtick_6">
     <g id="line2d_6">
      <g>
       <use style="stroke:#000000;stroke-width:0.8;" x="358.794632" xlink:href="#m49cc53464e" y="122.631635"/>
      </g>
     </g>
    </g>
    <g id="xtick_7">
     <g id="line2d_7">
      <g>
       <use style="stroke:#000000;stroke-width:0.8;" x="422.63726" xlink:href="#m49cc53464e" y="122.631635"/>
      </g>
     </g>
    </g>
   </g>
   <g id="matplotlib.axis_2">
    <g id="ytick_1">
     <g id="line2d_8">
      <defs>
       <path d="M 0 0 
L -3.5 0 
" id="m9753d4e7d4" style="stroke:#000000;stroke-width:0.8;"/>
      </defs>
      <g>
       <use style="stroke:#000000;stroke-width:0.8;" x="39.58149" xlink:href="#m9753d4e7d4" y="117.352935"/>
      </g>
     </g>
     <g id="text_1">
      <!-- 0.0 -->
      <defs>
       <path d="M 31.78125 66.40625 
Q 24.171875 66.40625 20.328125 58.90625 
Q 16.5 51.421875 16.5 36.375 
Q 16.5 21.390625 20.328125 13.890625 
Q 24.171875 6.390625 31.78125 6.390625 
Q 39.453125 6.390625 43.28125 13.890625 
Q 47.125 21.390625 47.125 36.375 
Q 47.125 51.421875 43.28125 58.90625 
Q 39.453125 66.40625 31.78125 66.40625 
z
M 31.78125 74.21875 
Q 44.046875 74.21875 50.515625 64.515625 
Q 56.984375 54.828125 56.984375 36.375 
Q 56.984375 17.96875 50.515625 8.265625 
Q 44.046875 -1.421875 31.78125 -1.421875 
Q 19.53125 -1.421875 13.0625 8.265625 
Q 6.59375 17.96875 6.59375 36.375 
Q 6.59375 54.828125 13.0625 64.515625 
Q 19.53125 74.21875 31.78125 74.21875 
z
" id="DejaVuSans-48"/>
       <path d="M 10.6875 12.40625 
L 21 12.40625 
L 21 0 
L 10.6875 0 
z
" id="DejaVuSans-46"/>
      </defs>
      <g transform="translate(16.678365 121.152154)scale(0.1 -0.1)">
       <use xlink:href="#DejaVuSans-48"/>
       <use x="63.623047" xlink:href="#DejaVuSans-46"/>
       <use x="95.410156" xlink:href="#DejaVuSans-48"/>
      </g>
     </g>
    </g>
    <g id="ytick_2">
     <g id="line2d_9">
      <g>
       <use style="stroke:#000000;stroke-width:0.8;" x="39.58149" xlink:href="#m9753d4e7d4" y="71.403124"/>
      </g>
     </g>
     <g id="text_2">
      <!-- 0.5 -->
      <defs>
       <path d="M 10.796875 72.90625 
L 49.515625 72.90625 
L 49.515625 64.59375 
L 19.828125 64.59375 
L 19.828125 46.734375 
Q 21.96875 47.46875 24.109375 47.828125 
Q 26.265625 48.1875 28.421875 48.1875 
Q 40.625 48.1875 47.75 41.5 
Q 54.890625 34.8125 54.890625 23.390625 
Q 54.890625 11.625 47.5625 5.09375 
Q 40.234375 -1.421875 26.90625 -1.421875 
Q 22.3125 -1.421875 17.546875 -0.640625 
Q 12.796875 0.140625 7.71875 1.703125 
L 7.71875 11.625 
Q 12.109375 9.234375 16.796875 8.0625 
Q 21.484375 6.890625 26.703125 6.890625 
Q 35.15625 6.890625 40.078125 11.328125 
Q 45.015625 15.765625 45.015625 23.390625 
Q 45.015625 31 40.078125 35.4375 
Q 35.15625 39.890625 26.703125 39.890625 
Q 22.75 39.890625 18.8125 39.015625 
Q 14.890625 38.140625 10.796875 36.28125 
z
" id="DejaVuSans-53"/>
      </defs>
      <g transform="translate(16.678365 75.202343)scale(0.1 -0.1)">
       <use xlink:href="#DejaVuSans-48"/>
       <use x="63.623047" xlink:href="#DejaVuSans-46"/>
       <use x="95.410156" xlink:href="#DejaVuSans-53"/>
      </g>
     </g>
    </g>
    <g id="ytick_3">
     <g id="line2d_10">
      <g>
       <use style="stroke:#000000;stroke-width:0.8;" x="39.58149" xlink:href="#m9753d4e7d4" y="25.453313"/>
      </g>
     </g>
     <g id="text_3">
      <!-- 1.0 -->
      <defs>
       <path d="M 12.40625 8.296875 
L 28.515625 8.296875 
L 28.515625 63.921875 
L 10.984375 60.40625 
L 10.984375 69.390625 
L 28.421875 72.90625 
L 38.28125 72.90625 
L 38.28125 8.296875 
L 54.390625 8.296875 
L 54.390625 0 
L 12.40625 0 
z
" id="DejaVuSans-49"/>
      </defs>
      <g transform="translate(16.678365 29.252532)scale(0.1 -0.1)">
       <use xlink:href="#DejaVuSans-49"/>
       <use x="63.623047" xlink:href="#DejaVuSans-46"/>
       <use x="95.410156" xlink:href="#DejaVuSans-48"/>
      </g>
     </g>
    </g>
    <g id="text_4">
     <!-- y(t) -->
     <defs>
      <path d="M 32.171875 -5.078125 
Q 28.375 -14.84375 24.75 -17.8125 
Q 21.140625 -20.796875 15.09375 -20.796875 
L 7.90625 -20.796875 
L 7.90625 -13.28125 
L 13.1875 -13.28125 
Q 16.890625 -13.28125 18.9375 -11.515625 
Q 21 -9.765625 23.484375 -3.21875 
L 25.09375 0.875 
L 2.984375 54.6875 
L 12.5 54.6875 
L 29.59375 11.921875 
L 46.6875 54.6875 
L 56.203125 54.6875 
z
" id="DejaVuSans-121"/>
      <path d="M 31 75.875 
Q 24.46875 64.65625 21.28125 53.65625 
Q 18.109375 42.671875 18.109375 31.390625 
Q 18.109375 20.125 21.3125 9.0625 
Q 24.515625 -2 31 -13.1875 
L 23.1875 -13.1875 
Q 15.875 -1.703125 12.234375 9.375 
Q 8.59375 20.453125 8.59375 31.390625 
Q 8.59375 42.28125 12.203125 53.3125 
Q 15.828125 64.359375 23.1875 75.875 
z
" id="DejaVuSans-40"/>
      <path d="M 18.3125 70.21875 
L 18.3125 54.6875 
L 36.8125 54.6875 
L 36.8125 47.703125 
L 18.3125 47.703125 
L 18.3125 18.015625 
Q 18.3125 11.328125 20.140625 9.421875 
Q 21.96875 7.515625 27.59375 7.515625 
L 36.8125 7.515625 
L 36.8125 0 
L 27.59375 0 
Q 17.1875 0 13.234375 3.875 
Q 9.28125 7.765625 9.28125 18.015625 
L 9.28125 47.703125 
L 2.6875 47.703125 
L 2.6875 54.6875 
L 9.28125 54.6875 
L 9.28125 70.21875 
z
" id="DejaVuSans-116"/>
      <path d="M 8.015625 75.875 
L 15.828125 75.875 
Q 23.140625 64.359375 26.78125 53.3125 
Q 30.421875 42.28125 30.421875 31.390625 
Q 30.421875 20.453125 26.78125 9.375 
Q 23.140625 -1.703125 15.828125 -13.1875 
L 8.015625 -13.1875 
Q 14.5 -2 17.703125 9.0625 
Q 20.90625 20.125 20.90625 31.390625 
Q 20.90625 42.671875 17.703125 53.65625 
Q 14.5 64.65625 8.015625 75.875 
z
" id="DejaVuSans-41"/>
     </defs>
     <g transform="translate(10.598677 73.387031)rotate(-90)scale(0.1 -0.1)">
      <use xlink:href="#DejaVuSans-121"/>
      <use x="59.179688" xlink:href="#DejaVuSans-40"/>
      <use x="98.193359" xlink:href="#DejaVuSans-116"/>
      <use x="137.402344" xlink:href="#DejaVuSans-41"/>
     </g>
    </g>
   </g>
   <g id="line2d_11">
    <path clip-path="url(#pb8ecc53ec4)" d="M 39.58149 25.453313 
L 422.63726 25.453313 
L 422.63726 25.453313 
" style="fill:none;stroke:#000000;stroke-dasharray:4.44,1.92;stroke-dashoffset:0;stroke-width:1.2;"/>
   </g>
   <g id="line2d_12">
    <path clip-path="url(#pb8ecc53ec4)" d="M 39.58149 117.352935 
L 44.6889 117.254207 
L 47.242605 116.922002 
L 48.519458 116.611116 
L 49.796311 116.176557 
L 51.073163 115.600627 
L 52.350016 114.868316 
L 53.626868 113.967535 
L 54.903721 112.889198 
L 56.180573 111.627202 
L 57.457426 110.178326 
L 58.734279 108.542075 
L 61.287984 104.717902 
L 63.841689 100.197328 
L 66.395394 95.052542 
L 68.949099 89.377937 
L 72.779657 80.115385 
L 79.16392 63.684627 
L 84.27133 50.726345 
L 88.101888 41.684287 
L 90.655593 36.14743 
L 93.209298 31.088247 
L 95.763003 26.563879 
L 98.316708 22.617358 
L 100.870413 19.277672 
L 103.424118 16.560118 
L 104.700971 15.435827 
L 105.977823 14.466928 
L 107.254676 13.6518 
L 108.531529 12.988117 
L 109.808381 12.472891 
L 111.085234 12.10251 
L 112.362086 11.872774 
L 113.638939 11.77894 
L 114.915791 11.815762 
L 116.192644 11.97754 
L 118.746349 12.651136 
L 121.300054 13.746674 
L 123.853759 15.206672 
L 126.407465 16.970652 
L 128.96117 18.976537 
L 132.791727 22.302787 
L 145.560253 33.78853 
L 149.390811 36.714362 
L 151.944516 38.41461 
L 154.498221 39.885875 
L 157.051926 41.110618 
L 159.605631 42.077504 
L 162.159336 42.781201 
L 164.713042 43.222054 
L 167.266747 43.40569 
L 169.820452 43.34253 
L 172.374157 43.047252 
L 174.927862 42.5382 
L 177.481567 41.836769 
L 181.312125 40.476486 
L 185.142683 38.824486 
L 190.250093 36.326091 
L 203.018619 29.884738 
L 206.849176 28.203205 
L 210.679734 26.736424 
L 214.510292 25.51874 
L 218.340849 24.570504 
L 222.171407 23.898605 
L 226.001965 23.497535 
L 229.832522 23.350875 
L 233.66308 23.433113 
L 237.493638 23.711672 
L 242.601048 24.323168 
L 248.985311 25.337965 
L 264.307542 27.890459 
L 270.691805 28.653194 
L 275.799215 29.050487 
L 280.906625 29.243962 
L 286.014035 29.238896 
L 292.398298 28.985022 
L 300.059414 28.402928 
L 312.827939 27.116714 
L 324.319612 26.050905 
L 331.980728 25.549278 
L 339.641843 25.260864 
L 347.302959 25.179551 
L 356.240927 25.295032 
L 371.563157 25.760123 
L 388.162241 26.189781 
L 400.930766 26.267955 
L 414.976145 26.107639 
L 422.63726 25.957325 
L 422.63726 25.957325 
" style="fill:none;stroke:#1f77b4;stroke-linecap:square;stroke-width:1.5;"/>
   </g>
   <g id="line2d_13">
    <path clip-path="url(#pb8ecc53ec4)" d="M 39.58149 117.352935 
L 44.6889 117.279044 
L 47.242605 117.029952 
L 49.796311 116.469878 
L 51.073163 116.036479 
L 52.350016 115.48474 
L 53.626868 114.805207 
L 54.903721 113.990626 
L 56.180573 113.035929 
L 58.734279 110.696345 
L 61.287984 107.785848 
L 63.841689 104.330778 
L 66.395394 100.378982 
L 68.949099 95.994399 
L 72.779657 88.772136 
L 77.887067 78.374117 
L 86.825035 59.914767 
L 90.655593 52.539704 
L 94.48615 45.769075 
L 97.039855 41.661873 
L 99.593561 37.916864 
L 102.147266 34.556206 
L 104.700971 31.593935 
L 107.254676 29.036421 
L 109.808381 26.882915 
L 112.362086 25.126176 
L 114.915791 23.753156 
L 117.469497 22.745726 
L 120.023202 22.081423 
L 122.576907 21.734205 
L 125.130612 21.675203 
L 127.684317 21.873451 
L 130.238022 22.296585 
L 132.791727 22.911514 
L 136.622285 24.12099 
L 140.452843 25.577755 
L 148.113958 28.827408 
L 154.498221 31.464143 
L 159.605631 33.29989 
L 163.436189 34.443391 
L 167.266747 35.353542 
L 171.097304 36.014495 
L 174.927862 36.422311 
L 178.75842 36.583528 
L 182.588977 36.513536 
L 186.419535 36.234831 
L 191.526945 35.58719 
L 196.634356 34.693444 
L 204.295471 33.0652 
L 219.617702 29.672149 
L 226.001965 28.489441 
L 232.386228 27.538478 
L 238.77049 26.841311 
L 245.154753 26.392482 
L 251.539016 26.16508 
L 259.200131 26.125528 
L 269.414952 26.328366 
L 297.505708 27.031522 
L 308.997382 27.037531 
L 323.04276 26.808063 
L 371.563157 25.77496 
L 393.269651 25.690069 
L 422.63726 25.71324 
L 422.63726 25.71324 
" style="fill:none;stroke:#ff7f0e;stroke-linecap:square;stroke-width:1.5;"/>
   </g>
   <g id="line2d_14">
    <path clip-path="url(#pb8ecc53ec4)" d="M 39.58149 117.352935 
L 43.412048 117.308461 
L 45.965753 117.058784 
L 47.242605 116.787893 
L 48.519458 116.382865 
L 49.796311 115.818854 
L 51.073163 115.074318 
L 52.350016 114.131543 
L 53.626868 112.976911 
L 54.903721 111.600975 
L 56.180573 109.998391 
L 57.457426 108.167743 
L 58.734279 106.111303 
L 61.287984 101.346775 
L 63.841689 95.784946 
L 66.395394 89.544262 
L 68.949099 82.770865 
L 72.779657 71.973331 
L 79.16392 53.720374 
L 82.994477 43.523755 
L 85.548182 37.342642 
L 88.101888 31.792152 
L 90.655593 26.965687 
L 93.209298 22.933566 
L 94.48615 21.230902 
L 95.763003 19.742489 
L 97.039855 18.470498 
L 98.316708 17.415674 
L 99.593561 16.577376 
L 100.870413 15.953618 
L 102.147266 15.541125 
L 103.424118 15.335388 
L 104.700971 15.330734 
L 105.977823 15.52039 
L 107.254676 15.896565 
L 108.531529 16.450525 
L 109.808381 17.172677 
L 111.085234 18.052659 
L 113.638939 20.241321 
L 116.192644 22.921547 
L 118.746349 25.991799 
L 122.576907 31.098018 
L 132.791727 45.197055 
L 135.345432 48.327193 
L 137.899138 51.145715 
L 140.452843 53.595213 
L 143.006548 55.630857 
L 145.560253 57.220777 
L 148.113958 58.346093 
L 149.390811 58.732111 
L 150.667663 59.000624 
L 151.944516 59.152745 
L 153.221368 59.190296 
L 155.775074 58.932293 
L 158.328779 58.253963 
L 160.882484 57.191556 
L 163.436189 55.788793 
L 165.989894 54.095351 
L 168.543599 52.165282 
L 172.374157 48.951178 
L 185.142683 37.767047 
L 188.97324 34.920772 
L 191.526945 33.275186 
L 194.080651 31.860641 
L 196.634356 30.694451 
L 199.188061 29.786814 
L 201.741766 29.140974 
L 204.295471 28.753546 
L 206.849176 28.614985 
L 209.402881 28.710185 
L 211.956586 29.019174 
L 214.510292 29.517898 
L 218.340849 30.561327 
L 222.171407 31.868371 
L 228.55567 34.342837 
L 234.939933 36.776098 
L 238.77049 38.043977 
L 242.601048 39.082746 
L 246.431606 39.844126 
L 250.262163 40.299433 
L 254.092721 40.439457 
L 257.923279 40.27328 
L 261.753837 39.826197 
L 265.584394 39.136923 
L 270.691805 37.926599 
L 277.076067 36.133727 
L 287.290888 33.239131 
L 292.398298 32.026327 
L 297.505708 31.078824 
L 301.336266 30.568267 
L 305.166824 30.235573 
L 310.274234 30.058429 
L 315.381644 30.151219 
L 320.489055 30.456607 
L 328.15017 31.156999 
L 340.918696 32.358962 
L 347.302959 32.730345 
L 353.687221 32.857876 
L 360.071484 32.72876 
L 366.455747 32.37053 
L 375.393715 31.598548 
L 395.823356 29.697651 
L 403.484471 29.250376 
L 411.145587 29.017194 
L 420.083555 28.983299 
L 422.63726 29.009167 
L 422.63726 29.009167 
" style="fill:none;stroke:#2ca02c;stroke-linecap:square;stroke-width:1.5;"/>
   </g>
   <g id="line2d_15">
    <path clip-path="url(#pb8ecc53ec4)" d="M 39.58149 117.352935 
L 43.412048 117.311617 
L 45.965753 117.079364 
L 47.242605 116.827116 
L 48.519458 116.449648 
L 49.796311 115.923557 
L 51.073163 115.228439 
L 52.350016 114.347389 
L 53.626868 113.267253 
L 54.903721 111.978707 
L 56.180573 110.4762 
L 57.457426 108.757805 
L 58.734279 106.824992 
L 61.287984 102.337395 
L 63.841689 97.082573 
L 66.395394 91.16535 
L 68.949099 84.716552 
L 72.779657 74.372788 
L 81.717625 49.852861 
L 84.27133 43.415755 
L 86.825035 37.465305 
L 89.37874 32.101994 
L 91.932445 27.406814 
L 94.48615 23.44038 
L 95.763003 21.743734 
L 97.039855 20.242656 
L 98.316708 18.938959 
L 99.593561 17.83323 
L 100.870413 16.92486 
L 102.147266 16.212087 
L 103.424118 15.692042 
L 104.700971 15.360803 
L 105.977823 15.213448 
L 107.254676 15.24412 
L 108.531529 15.446089 
L 109.808381 15.811819 
L 111.085234 16.333042 
L 112.362086 17.000826 
L 114.915791 18.737494 
L 117.469497 20.939997 
L 120.023202 23.520753 
L 122.576907 26.388843 
L 126.407465 31.028949 
L 134.06858 40.438778 
L 137.899138 44.67893 
L 140.452843 47.184765 
L 143.006548 49.376019 
L 145.560253 51.214858 
L 148.113958 52.674169 
L 150.667663 53.737528 
L 153.221368 54.398921 
L 155.775074 54.662237 
L 158.328779 54.540563 
L 160.882484 54.055302 
L 163.436189 53.235155 
L 165.989894 52.114993 
L 168.543599 50.734651 
L 171.097304 49.137688 
L 174.927862 46.437127 
L 181.312125 41.515545 
L 187.696388 36.67538 
L 191.526945 34.0638 
L 195.357503 31.797034 
L 197.911208 30.514159 
L 200.464913 29.431629 
L 203.018619 28.558394 
L 205.572324 27.898002 
L 208.126029 27.448851 
L 210.679734 27.204547 
L 213.233439 27.154345 
L 215.787144 27.283678 
L 219.617702 27.77459 
L 223.44826 28.558197 
L 228.55567 29.921215 
L 243.877901 34.392566 
L 247.708458 35.238734 
L 251.539016 35.879923 
L 255.369574 36.2921 
L 259.200131 36.465551 
L 263.030689 36.404068 
L 266.861247 36.123505 
L 270.691805 35.64985 
L 275.799215 34.77725 
L 282.183478 33.433026 
L 296.228856 30.378031 
L 301.336266 29.490994 
L 306.443676 28.809301 
L 311.551087 28.354423 
L 316.658497 28.125256 
L 321.765907 28.100913 
L 328.15017 28.301979 
L 337.088138 28.846235 
L 351.133516 29.729483 
L 358.794632 29.979309 
L 366.455747 29.984947 
L 374.116862 29.754053 
L 383.05483 29.259749 
L 409.868734 27.598108 
L 420.083555 27.294893 
L 422.63726 27.257074 
L 422.63726 27.257074 
" style="fill:none;stroke:#d62728;stroke-linecap:square;stroke-width:1.5;"/>
   </g>
   <g id="patch_3">
    <path d="M 39.58149 122.631635 
L 39.58149 6.50024 
" style="fill:none;stroke:#000000;stroke-linecap:square;stroke-linejoin:miter;stroke-width:0.8;"/>
   </g>
   <g id="patch_4">
    <path d="M 422.63726 122.631635 
L 422.63726 6.50024 
" style="fill:none;stroke:#000000;stroke-linecap:square;stroke-linejoin:miter;stroke-width:0.8;"/>
   </g>
   <g id="patch_5">
    <path d="M 39.58149 122.631635 
L 422.63726 122.631635 
" style="fill:none;stroke:#000000;stroke-linecap:square;stroke-linejoin:miter;stroke-width:0.8;"/>
   </g>
   <g id="patch_6">
    <path d="M 39.58149 6.50024 
L 422.63726 6.50024 
" style="fill:none;stroke:#000000;stroke-linecap:square;stroke-linejoin:miter;stroke-width:0.8;"/>
   </g>
   <g id="legend_1">
    <g id="patch_7">
     <path d="M 308.665385 117.631635 
L 415.63726 117.631635 
Q 417.63726 117.631635 417.63726 115.631635 
L 417.63726 57.919135 
Q 417.63726 55.919135 415.63726 55.919135 
L 308.665385 55.919135 
Q 306.665385 55.919135 306.665385 57.919135 
L 306.665385 115.631635 
Q 306.665385 117.631635 308.665385 117.631635 
z
" style="fill:#ffffff;opacity:0.8;stroke:#cccccc;stroke-linejoin:miter;"/>
    </g>
    <g id="line2d_16">
     <path d="M 310.665385 64.017572 
L 330.665385 64.017572 
" style="fill:none;stroke:#1f77b4;stroke-linecap:square;stroke-width:1.5;"/>
    </g>
    <g id="line2d_17"/>
    <g id="text_5">
     <!-- PSO -->
     <defs>
      <path d="M 19.671875 64.796875 
L 19.671875 37.40625 
L 32.078125 37.40625 
Q 38.96875 37.40625 42.71875 40.96875 
Q 46.484375 44.53125 46.484375 51.125 
Q 46.484375 57.671875 42.71875 61.234375 
Q 38.96875 64.796875 32.078125 64.796875 
z
M 9.8125 72.90625 
L 32.078125 72.90625 
Q 44.34375 72.90625 50.609375 67.359375 
Q 56.890625 61.8125 56.890625 51.125 
Q 56.890625 40.328125 50.609375 34.8125 
Q 44.34375 29.296875 32.078125 29.296875 
L 19.671875 29.296875 
L 19.671875 0 
L 9.8125 0 
z
" id="DejaVuSans-80"/>
      <path d="M 53.515625 70.515625 
L 53.515625 60.890625 
Q 47.90625 63.578125 42.921875 64.890625 
Q 37.9375 66.21875 33.296875 66.21875 
Q 25.25 66.21875 20.875 63.09375 
Q 16.5 59.96875 16.5 54.203125 
Q 16.5 49.359375 19.40625 46.890625 
Q 22.3125 44.4375 30.421875 42.921875 
L 36.375 41.703125 
Q 47.40625 39.59375 52.65625 34.296875 
Q 57.90625 29 57.90625 20.125 
Q 57.90625 9.515625 50.796875 4.046875 
Q 43.703125 -1.421875 29.984375 -1.421875 
Q 24.8125 -1.421875 18.96875 -0.25 
Q 13.140625 0.921875 6.890625 3.21875 
L 6.890625 13.375 
Q 12.890625 10.015625 18.65625 8.296875 
Q 24.421875 6.59375 29.984375 6.59375 
Q 38.421875 6.59375 43.015625 9.90625 
Q 47.609375 13.234375 47.609375 19.390625 
Q 47.609375 24.75 44.3125 27.78125 
Q 41.015625 30.8125 33.5 32.328125 
L 27.484375 33.5 
Q 16.453125 35.6875 11.515625 40.375 
Q 6.59375 45.0625 6.59375 53.421875 
Q 6.59375 63.09375 13.40625 68.65625 
Q 20.21875 74.21875 32.171875 74.21875 
Q 37.3125 74.21875 42.625 73.28125 
Q 47.953125 72.359375 53.515625 70.515625 
z
" id="DejaVuSans-83"/>
      <path d="M 39.40625 66.21875 
Q 28.65625 66.21875 22.328125 58.203125 
Q 16.015625 50.203125 16.015625 36.375 
Q 16.015625 22.609375 22.328125 14.59375 
Q 28.65625 6.59375 39.40625 6.59375 
Q 50.140625 6.59375 56.421875 14.59375 
Q 62.703125 22.609375 62.703125 36.375 
Q 62.703125 50.203125 56.421875 58.203125 
Q 50.140625 66.21875 39.40625 66.21875 
z
M 39.40625 74.21875 
Q 54.734375 74.21875 63.90625 63.9375 
Q 73.09375 53.65625 73.09375 36.375 
Q 73.09375 19.140625 63.90625 8.859375 
Q 54.734375 -1.421875 39.40625 -1.421875 
Q 24.03125 -1.421875 14.8125 8.828125 
Q 5.609375 19.09375 5.609375 36.375 
Q 5.609375 53.65625 14.8125 63.9375 
Q 24.03125 74.21875 39.40625 74.21875 
z
" id="DejaVuSans-79"/>
     </defs>
     <g transform="translate(338.665385 67.517572)scale(0.1 -0.1)">
      <use xlink:href="#DejaVuSans-80"/>
      <use x="60.302734" xlink:href="#DejaVuSans-83"/>
      <use x="123.779297" xlink:href="#DejaVuSans-79"/>
     </g>
    </g>
    <g id="line2d_18">
     <path d="M 310.665385 78.695697 
L 330.665385 78.695697 
" style="fill:none;stroke:#ff7f0e;stroke-linecap:square;stroke-width:1.5;"/>
    </g>
    <g id="line2d_19"/>
    <g id="text_6">
     <!-- IMC -->
     <defs>
      <path d="M 9.8125 72.90625 
L 19.671875 72.90625 
L 19.671875 0 
L 9.8125 0 
z
" id="DejaVuSans-73"/>
      <path d="M 9.8125 72.90625 
L 24.515625 72.90625 
L 43.109375 23.296875 
L 61.8125 72.90625 
L 76.515625 72.90625 
L 76.515625 0 
L 66.890625 0 
L 66.890625 64.015625 
L 48.09375 14.015625 
L 38.1875 14.015625 
L 19.390625 64.015625 
L 19.390625 0 
L 9.8125 0 
z
" id="DejaVuSans-77"/>
      <path d="M 64.40625 67.28125 
L 64.40625 56.890625 
Q 59.421875 61.53125 53.78125 63.8125 
Q 48.140625 66.109375 41.796875 66.109375 
Q 29.296875 66.109375 22.65625 58.46875 
Q 16.015625 50.828125 16.015625 36.375 
Q 16.015625 21.96875 22.65625 14.328125 
Q 29.296875 6.6875 41.796875 6.6875 
Q 48.140625 6.6875 53.78125 8.984375 
Q 59.421875 11.28125 64.40625 15.921875 
L 64.40625 5.609375 
Q 59.234375 2.09375 53.4375 0.328125 
Q 47.65625 -1.421875 41.21875 -1.421875 
Q 24.65625 -1.421875 15.125 8.703125 
Q 5.609375 18.84375 5.609375 36.375 
Q 5.609375 53.953125 15.125 64.078125 
Q 24.65625 74.21875 41.21875 74.21875 
Q 47.75 74.21875 53.53125 72.484375 
Q 59.328125 70.75 64.40625 67.28125 
z
" id="DejaVuSans-67"/>
     </defs>
     <g transform="translate(338.665385 82.195697)scale(0.1 -0.1)">
      <use xlink:href="#DejaVuSans-73"/>
      <use x="29.492188" xlink:href="#DejaVuSans-77"/>
      <use x="115.771484" xlink:href="#DejaVuSans-67"/>
     </g>
    </g>
    <g id="line2d_20">
     <path d="M 310.665385 93.373822 
L 330.665385 93.373822 
" style="fill:none;stroke:#2ca02c;stroke-linecap:square;stroke-width:1.5;"/>
    </g>
    <g id="line2d_21"/>
    <g id="text_7">
     <!-- Ziegler-Nichols -->
     <defs>
      <path d="M 5.609375 72.90625 
L 62.890625 72.90625 
L 62.890625 65.375 
L 16.796875 8.296875 
L 64.015625 8.296875 
L 64.015625 0 
L 4.5 0 
L 4.5 7.515625 
L 50.59375 64.59375 
L 5.609375 64.59375 
z
" id="DejaVuSans-90"/>
      <path d="M 9.421875 54.6875 
L 18.40625 54.6875 
L 18.40625 0 
L 9.421875 0 
z
M 9.421875 75.984375 
L 18.40625 75.984375 
L 18.40625 64.59375 
L 9.421875 64.59375 
z
" id="DejaVuSans-105"/>
      <path d="M 56.203125 29.59375 
L 56.203125 25.203125 
L 14.890625 25.203125 
Q 15.484375 15.921875 20.484375 11.0625 
Q 25.484375 6.203125 34.421875 6.203125 
Q 39.59375 6.203125 44.453125 7.46875 
Q 49.3125 8.734375 54.109375 11.28125 
L 54.109375 2.78125 
Q 49.265625 0.734375 44.1875 -0.34375 
Q 39.109375 -1.421875 33.890625 -1.421875 
Q 20.796875 -1.421875 13.15625 6.1875 
Q 5.515625 13.8125 5.515625 26.8125 
Q 5.515625 40.234375 12.765625 48.109375 
Q 20.015625 56 32.328125 56 
Q 43.359375 56 49.78125 48.890625 
Q 56.203125 41.796875 56.203125 29.59375 
z
M 47.21875 32.234375 
Q 47.125 39.59375 43.09375 43.984375 
Q 39.0625 48.390625 32.421875 48.390625 
Q 24.90625 48.390625 20.390625 44.140625 
Q 15.875 39.890625 15.1875 32.171875 
z
" id="DejaVuSans-101"/>
      <path d="M 45.40625 27.984375 
Q 45.40625 37.75 41.375 43.109375 
Q 37.359375 48.484375 30.078125 48.484375 
Q 22.859375 48.484375 18.828125 43.109375 
Q 14.796875 37.75 14.796875 27.984375 
Q 14.796875 18.265625 18.828125 12.890625 
Q 22.859375 7.515625 30.078125 7.515625 
Q 37.359375 7.515625 41.375 12.890625 
Q 45.40625 18.265625 45.40625 27.984375 
z
M 54.390625 6.78125 
Q 54.390625 -7.171875 48.1875 -13.984375 
Q 42 -20.796875 29.203125 -20.796875 
Q 24.46875 -20.796875 20.265625 -20.09375 
Q 16.0625 -19.390625 12.109375 -17.921875 
L 12.109375 -9.1875 
Q 16.0625 -11.328125 19.921875 -12.34375 
Q 23.78125 -13.375 27.78125 -13.375 
Q 36.625 -13.375 41.015625 -8.765625 
Q 45.40625 -4.15625 45.40625 5.171875 
L 45.40625 9.625 
Q 42.625 4.78125 38.28125 2.390625 
Q 33.9375 0 27.875 0 
Q 17.828125 0 11.671875 7.65625 
Q 5.515625 15.328125 5.515625 27.984375 
Q 5.515625 40.671875 11.671875 48.328125 
Q 17.828125 56 27.875 56 
Q 33.9375 56 38.28125 53.609375 
Q 42.625 51.21875 45.40625 46.390625 
L 45.40625 54.6875 
L 54.390625 54.6875 
z
" id="DejaVuSans-103"/>
      <path d="M 9.421875 75.984375 
L 18.40625 75.984375 
L 18.40625 0 
L 9.421875 0 
z
" id="DejaVuSans-108"/>
      <path d="M 41.109375 46.296875 
Q 39.59375 47.171875 37.8125 47.578125 
Q 36.03125 48 33.890625 48 
Q 26.265625 48 22.1875 43.046875 
Q 18.109375 38.09375 18.109375 28.8125 
L 18.109375 0 
L 9.078125 0 
L 9.078125 54.6875 
L 18.109375 54.6875 
L 18.109375 46.1875 
Q 20.953125 51.171875 25.484375 53.578125 
Q 30.03125 56 36.53125 56 
Q 37.453125 56 38.578125 55.875 
Q 39.703125 55.765625 41.0625 55.515625 
z
" id="DejaVuSans-114"/>
      <path d="M 4.890625 31.390625 
L 31.203125 31.390625 
L 31.203125 23.390625 
L 4.890625 23.390625 
z
" id="DejaVuSans-45"/>
      <path d="M 9.8125 72.90625 
L 23.09375 72.90625 
L 55.421875 11.921875 
L 55.421875 72.90625 
L 64.984375 72.90625 
L 64.984375 0 
L 51.703125 0 
L 19.390625 60.984375 
L 19.390625 0 
L 9.8125 0 
z
" id="DejaVuSans-78"/>
      <path d="M 48.78125 52.59375 
L 48.78125 44.1875 
Q 44.96875 46.296875 41.140625 47.34375 
Q 37.3125 48.390625 33.40625 48.390625 
Q 24.65625 48.390625 19.8125 42.84375 
Q 14.984375 37.3125 14.984375 27.296875 
Q 14.984375 17.28125 19.8125 11.734375 
Q 24.65625 6.203125 33.40625 6.203125 
Q 37.3125 6.203125 41.140625 7.25 
Q 44.96875 8.296875 48.78125 10.40625 
L 48.78125 2.09375 
Q 45.015625 0.34375 40.984375 -0.53125 
Q 36.96875 -1.421875 32.421875 -1.421875 
Q 20.0625 -1.421875 12.78125 6.34375 
Q 5.515625 14.109375 5.515625 27.296875 
Q 5.515625 40.671875 12.859375 48.328125 
Q 20.21875 56 33.015625 56 
Q 37.15625 56 41.109375 55.140625 
Q 45.0625 54.296875 48.78125 52.59375 
z
" id="DejaVuSans-99"/>
      <path d="M 54.890625 33.015625 
L 54.890625 0 
L 45.90625 0 
L 45.90625 32.71875 
Q 45.90625 40.484375 42.875 44.328125 
Q 39.84375 48.1875 33.796875 48.1875 
Q 26.515625 48.1875 22.3125 43.546875 
Q 18.109375 38.921875 18.109375 30.90625 
L 18.109375 0 
L 9.078125 0 
L 9.078125 75.984375 
L 18.109375 75.984375 
L 18.109375 46.1875 
Q 21.34375 51.125 25.703125 53.5625 
Q 30.078125 56 35.796875 56 
Q 45.21875 56 50.046875 50.171875 
Q 54.890625 44.34375 54.890625 33.015625 
z
" id="DejaVuSans-104"/>
      <path d="M 30.609375 48.390625 
Q 23.390625 48.390625 19.1875 42.75 
Q 14.984375 37.109375 14.984375 27.296875 
Q 14.984375 17.484375 19.15625 11.84375 
Q 23.34375 6.203125 30.609375 6.203125 
Q 37.796875 6.203125 41.984375 11.859375 
Q 46.1875 17.53125 46.1875 27.296875 
Q 46.1875 37.015625 41.984375 42.703125 
Q 37.796875 48.390625 30.609375 48.390625 
z
M 30.609375 56 
Q 42.328125 56 49.015625 48.375 
Q 55.71875 40.765625 55.71875 27.296875 
Q 55.71875 13.875 49.015625 6.21875 
Q 42.328125 -1.421875 30.609375 -1.421875 
Q 18.84375 -1.421875 12.171875 6.21875 
Q 5.515625 13.875 5.515625 27.296875 
Q 5.515625 40.765625 12.171875 48.375 
Q 18.84375 56 30.609375 56 
z
" id="DejaVuSans-111"/>
      <path d="M 44.28125 53.078125 
L 44.28125 44.578125 
Q 40.484375 46.53125 36.375 47.5 
Q 32.28125 48.484375 27.875 48.484375 
Q 21.1875 48.484375 17.84375 46.4375 
Q 14.5 44.390625 14.5 40.28125 
Q 14.5 37.15625 16.890625 35.375 
Q 19.28125 33.59375 26.515625 31.984375 
L 29.59375 31.296875 
Q 39.15625 29.25 43.1875 25.515625 
Q 47.21875 21.78125 47.21875 15.09375 
Q 47.21875 7.46875 41.1875 3.015625 
Q 35.15625 -1.421875 24.609375 -1.421875 
Q 20.21875 -1.421875 15.453125 -0.5625 
Q 10.6875 0.296875 5.421875 2 
L 5.421875 11.28125 
Q 10.40625 8.6875 15.234375 7.390625 
Q 20.0625 6.109375 24.8125 6.109375 
Q 31.15625 6.109375 34.5625 8.28125 
Q 37.984375 10.453125 37.984375 14.40625 
Q 37.984375 18.0625 35.515625 20.015625 
Q 33.0625 21.96875 24.703125 23.78125 
L 21.578125 24.515625 
Q 13.234375 26.265625 9.515625 29.90625 
Q 5.8125 33.546875 5.8125 39.890625 
Q 5.8125 47.609375 11.28125 51.796875 
Q 16.75 56 26.8125 56 
Q 31.78125 56 36.171875 55.265625 
Q 40.578125 54.546875 44.28125 53.078125 
z
" id="DejaVuSans-115"/>
     </defs>
     <g transform="translate(338.665385 96.873822)scale(0.1 -0.1)">
      <use xlink:href="#DejaVuSans-90"/>
      <use x="68.505859" xlink:href="#DejaVuSans-105"/>
      <use x="96.289062" xlink:href="#DejaVuSans-101"/>
      <use x="157.8125" xlink:href="#DejaVuSans-103"/>
      <use x="221.289062" xlink:href="#DejaVuSans-108"/>
      <use x="249.072266" xlink:href="#DejaVuSans-101"/>
      <use x="310.595703" xlink:href="#DejaVuSans-114"/>
      <use x="351.615234" xlink:href="#DejaVuSans-45"/>
      <use x="387.699219" xlink:href="#DejaVuSans-78"/>
      <use x="462.503906" xlink:href="#DejaVuSans-105"/>
      <use x="490.287109" xlink:href="#DejaVuSans-99"/>
      <use x="545.267578" xlink:href="#DejaVuSans-104"/>
      <use x="608.646484" xlink:href="#DejaVuSans-111"/>
      <use x="669.828125" xlink:href="#DejaVuSans-108"/>
      <use x="697.611328" xlink:href="#DejaVuSans-115"/>
     </g>
    </g>
    <g id="line2d_22">
     <path d="M 310.665385 108.051947 
L 330.665385 108.051947 
" style="fill:none;stroke:#d62728;stroke-linecap:square;stroke-width:1.5;"/>
    </g>
    <g id="line2d_23"/>
    <g id="text_8">
     <!-- SIMC -->
     <g transform="translate(338.665385 111.551947)scale(0.1 -0.1)">
      <use xlink:href="#DejaVuSans-83"/>
      <use x="63.476562" xlink:href="#DejaVuSans-73"/>
      <use x="92.96875" xlink:href="#DejaVuSans-77"/>
      <use x="179.248047" xlink:href="#DejaVuSans-67"/>
     </g>
    </g>
   </g>
  </g>
  <g id="axes_2">
   <g id="patch_8">
    <path d="M 39.58149 254.64351 
L 422.63726 254.64351 
L 422.63726 138.512115 
L 39.58149 138.512115 
z
" style="fill:#ffffff;"/>
   </g>
   <g id="matplotlib.axis_3">
    <g id="xtick_8">
     <g id="line2d_24">
      <g>
       <use style="stroke:#000000;stroke-width:0.8;" x="39.58149" xlink:href="#m49cc53464e" y="254.64351"/>
      </g>
     </g>
     <g id="text_9">
      <!-- 0 -->
      <g transform="translate(36.40024 269.241947)scale(0.1 -0.1)">
       <use xlink:href="#DejaVuSans-48"/>
      </g>
     </g>
    </g>
    <g id="xtick_9">
     <g id="line2d_25">
      <g>
       <use style="stroke:#000000;stroke-width:0.8;" x="103.424118" xlink:href="#m49cc53464e" y="254.64351"/>
      </g>
     </g>
     <g id="text_10">
      <!-- 5 -->
      <g transform="translate(100.242868 269.241947)scale(0.1 -0.1)">
       <use xlink:href="#DejaVuSans-53"/>
      </g>
     </g>
    </g>
    <g id="xtick_10">
     <g id="line2d_26">
      <g>
       <use style="stroke:#000000;stroke-width:0.8;" x="167.266747" xlink:href="#m49cc53464e" y="254.64351"/>
      </g>
     </g>
     <g id="text_11">
      <!-- 10 -->
      <g transform="translate(160.904247 269.241947)scale(0.1 -0.1)">
       <use xlink:href="#DejaVuSans-49"/>
       <use x="63.623047" xlink:href="#DejaVuSans-48"/>
      </g>
     </g>
    </g>
    <g id="xtick_11">
     <g id="line2d_27">
      <g>
       <use style="stroke:#000000;stroke-width:0.8;" x="231.109375" xlink:href="#m49cc53464e" y="254.64351"/>
      </g>
     </g>
     <g id="text_12">
      <!-- 15 -->
      <g transform="translate(224.746875 269.241947)scale(0.1 -0.1)">
       <use xlink:href="#DejaVuSans-49"/>
       <use x="63.623047" xlink:href="#DejaVuSans-53"/>
      </g>
     </g>
    </g>
    <g id="xtick_12">
     <g id="line2d_28">
      <g>
       <use style="stroke:#000000;stroke-width:0.8;" x="294.952003" xlink:href="#m49cc53464e" y="254.64351"/>
      </g>
     </g>
     <g id="text_13">
      <!-- 20 -->
      <defs>
       <path d="M 19.1875 8.296875 
L 53.609375 8.296875 
L 53.609375 0 
L 7.328125 0 
L 7.328125 8.296875 
Q 12.9375 14.109375 22.625 23.890625 
Q 32.328125 33.6875 34.8125 36.53125 
Q 39.546875 41.84375 41.421875 45.53125 
Q 43.3125 49.21875 43.3125 52.78125 
Q 43.3125 58.59375 39.234375 62.25 
Q 35.15625 65.921875 28.609375 65.921875 
Q 23.96875 65.921875 18.8125 64.3125 
Q 13.671875 62.703125 7.8125 59.421875 
L 7.8125 69.390625 
Q 13.765625 71.78125 18.9375 73 
Q 24.125 74.21875 28.421875 74.21875 
Q 39.75 74.21875 46.484375 68.546875 
Q 53.21875 62.890625 53.21875 53.421875 
Q 53.21875 48.921875 51.53125 44.890625 
Q 49.859375 40.875 45.40625 35.40625 
Q 44.1875 33.984375 37.640625 27.21875 
Q 31.109375 20.453125 19.1875 8.296875 
z
" id="DejaVuSans-50"/>
      </defs>
      <g transform="translate(288.589503 269.241947)scale(0.1 -0.1)">
       <use xlink:href="#DejaVuSans-50"/>
       <use x="63.623047" xlink:href="#DejaVuSans-48"/>
      </g>
     </g>
    </g>
    <g id="xtick_13">
     <g id="line2d_29">
      <g>
       <use style="stroke:#000000;stroke-width:0.8;" x="358.794632" xlink:href="#m49cc53464e" y="254.64351"/>
      </g>
     </g>
     <g id="text_14">
      <!-- 25 -->
      <g transform="translate(352.432132 269.241947)scale(0.1 -0.1)">
       <use xlink:href="#DejaVuSans-50"/>
       <use x="63.623047" xlink:href="#DejaVuSans-53"/>
      </g>
     </g>
    </g>
    <g id="xtick_14">
     <g id="line2d_30">
      <g>
       <use style="stroke:#000000;stroke-width:0.8;" x="422.63726" xlink:href="#m49cc53464e" y="254.64351"/>
      </g>
     </g>
     <g id="text_15">
      <!-- 30 -->
      <defs>
       <path d="M 40.578125 39.3125 
Q 47.65625 37.796875 51.625 33 
Q 55.609375 28.21875 55.609375 21.1875 
Q 55.609375 10.40625 48.1875 4.484375 
Q 40.765625 -1.421875 27.09375 -1.421875 
Q 22.515625 -1.421875 17.65625 -0.515625 
Q 12.796875 0.390625 7.625 2.203125 
L 7.625 11.71875 
Q 11.71875 9.328125 16.59375 8.109375 
Q 21.484375 6.890625 26.8125 6.890625 
Q 36.078125 6.890625 40.9375 10.546875 
Q 45.796875 14.203125 45.796875 21.1875 
Q 45.796875 27.640625 41.28125 31.265625 
Q 36.765625 34.90625 28.71875 34.90625 
L 20.21875 34.90625 
L 20.21875 43.015625 
L 29.109375 43.015625 
Q 36.375 43.015625 40.234375 45.921875 
Q 44.09375 48.828125 44.09375 54.296875 
Q 44.09375 59.90625 40.109375 62.90625 
Q 36.140625 65.921875 28.71875 65.921875 
Q 24.65625 65.921875 20.015625 65.03125 
Q 15.375 64.15625 9.8125 62.3125 
L 9.8125 71.09375 
Q 15.4375 72.65625 20.34375 73.4375 
Q 25.25 74.21875 29.59375 74.21875 
Q 40.828125 74.21875 47.359375 69.109375 
Q 53.90625 64.015625 53.90625 55.328125 
Q 53.90625 49.265625 50.4375 45.09375 
Q 46.96875 40.921875 40.578125 39.3125 
z
" id="DejaVuSans-51"/>
      </defs>
      <g transform="translate(416.27476 269.241947)scale(0.1 -0.1)">
       <use xlink:href="#DejaVuSans-51"/>
       <use x="63.623047" xlink:href="#DejaVuSans-48"/>
      </g>
     </g>
    </g>
    <g id="text_16">
     <!-- t (s) -->
     <defs>
      <path id="DejaVuSans-32"/>
     </defs>
     <g transform="translate(221.053906 282.920073)scale(0.1 -0.1)">
      <use xlink:href="#DejaVuSans-116"/>
      <use x="39.208984" xlink:href="#DejaVuSans-32"/>
      <use x="70.996094" xlink:href="#DejaVuSans-40"/>
      <use x="110.009766" xlink:href="#DejaVuSans-115"/>
      <use x="162.109375" xlink:href="#DejaVuSans-41"/>
     </g>
    </g>
   </g>
   <g id="matplotlib.axis_4">
    <g id="ytick_4">
     <g id="line2d_31">
      <g>
       <use style="stroke:#000000;stroke-width:0.8;" x="39.58149" xlink:href="#m9753d4e7d4" y="232.442615"/>
      </g>
     </g>
     <g id="text_17">
      <!-- 0.5 -->
      <g transform="translate(16.678365 236.241833)scale(0.1 -0.1)">
       <use xlink:href="#DejaVuSans-48"/>
       <use x="63.623047" xlink:href="#DejaVuSans-46"/>
       <use x="95.410156" xlink:href="#DejaVuSans-53"/>
      </g>
     </g>
    </g>
    <g id="ytick_5">
     <g id="line2d_32">
      <g>
       <use style="stroke:#000000;stroke-width:0.8;" x="39.58149" xlink:href="#m9753d4e7d4" y="201.278773"/>
      </g>
     </g>
     <g id="text_18">
      <!-- 1.0 -->
      <g transform="translate(16.678365 205.077992)scale(0.1 -0.1)">
       <use xlink:href="#DejaVuSans-49"/>
       <use x="63.623047" xlink:href="#DejaVuSans-46"/>
       <use x="95.410156" xlink:href="#DejaVuSans-48"/>
      </g>
     </g>
    </g>
    <g id="ytick_6">
     <g id="line2d_33">
      <g>
       <use style="stroke:#000000;stroke-width:0.8;" x="39.58149" xlink:href="#m9753d4e7d4" y="170.114931"/>
      </g>
     </g>
     <g id="text_19">
      <!-- 1.5 -->
      <g transform="translate(16.678365 173.91415)scale(0.1 -0.1)">
       <use xlink:href="#DejaVuSans-49"/>
       <use x="63.623047" xlink:href="#DejaVuSans-46"/>
       <use x="95.410156" xlink:href="#DejaVuSans-53"/>
      </g>
     </g>
    </g>
    <g id="ytick_7">
     <g id="line2d_34">
      <g>
       <use style="stroke:#000000;stroke-width:0.8;" x="39.58149" xlink:href="#m9753d4e7d4" y="138.95109"/>
      </g>
     </g>
     <g id="text_20">
      <!-- 2.0 -->
      <g transform="translate(16.678365 142.750308)scale(0.1 -0.1)">
       <use xlink:href="#DejaVuSans-50"/>
       <use x="63.623047" xlink:href="#DejaVuSans-46"/>
       <use x="95.410156" xlink:href="#DejaVuSans-48"/>
      </g>
     </g>
    </g>
    <g id="text_21">
     <!-- u(t) -->
     <defs>
      <path d="M 8.5 21.578125 
L 8.5 54.6875 
L 17.484375 54.6875 
L 17.484375 21.921875 
Q 17.484375 14.15625 20.5 10.265625 
Q 23.53125 6.390625 29.59375 6.390625 
Q 36.859375 6.390625 41.078125 11.03125 
Q 45.3125 15.671875 45.3125 23.6875 
L 45.3125 54.6875 
L 54.296875 54.6875 
L 54.296875 0 
L 45.3125 0 
L 45.3125 8.40625 
Q 42.046875 3.421875 37.71875 1 
Q 33.40625 -1.421875 27.6875 -1.421875 
Q 18.265625 -1.421875 13.375 4.4375 
Q 8.5 10.296875 8.5 21.578125 
z
M 31.109375 56 
z
" id="DejaVuSans-117"/>
     </defs>
     <g transform="translate(10.598677 205.608281)rotate(-90)scale(0.1 -0.1)">
      <use xlink:href="#DejaVuSans-117"/>
      <use x="63.378906" xlink:href="#DejaVuSans-40"/>
      <use x="102.392578" xlink:href="#DejaVuSans-116"/>
      <use x="141.601562" xlink:href="#DejaVuSans-41"/>
     </g>
    </g>
   </g>
   <g id="line2d_35">
    <path clip-path="url(#p717ed632f7)" d="M 39.58149 178.108362 
L 44.6889 170.952091 
L 47.242605 167.643046 
L 49.796311 164.735223 
L 51.073163 163.481998 
L 52.350016 162.385618 
L 53.626868 161.460414 
L 54.903721 160.718162 
L 56.180573 160.168039 
L 57.457426 159.816665 
L 58.734279 159.668185 
L 60.011131 159.724401 
L 61.287984 159.984922 
L 62.564836 160.447336 
L 63.841689 161.107386 
L 65.118541 161.959151 
L 66.395394 162.995231 
L 67.672246 164.206919 
L 70.225952 167.116796 
L 72.779657 170.599379 
L 75.333362 174.554571 
L 77.887067 178.875898 
L 81.717625 185.805845 
L 90.655593 202.232873 
L 94.48615 208.627503 
L 97.039855 212.485067 
L 99.593561 215.951367 
L 102.147266 218.982179 
L 104.700971 221.545016 
L 107.254676 223.618962 
L 109.808381 225.194283 
L 111.085234 225.794834 
L 112.362086 226.271841 
L 113.638939 226.626943 
L 114.915791 226.862341 
L 116.192644 226.98076 
L 118.746349 226.880029 
L 121.300054 226.355883 
L 123.853759 225.445719 
L 126.407465 224.192016 
L 128.96117 222.641149 
L 131.514875 220.842197 
L 135.345432 217.789509 
L 140.452843 213.324335 
L 148.113958 206.556017 
L 151.944516 203.444935 
L 155.775074 200.666091 
L 158.328779 199.039581 
L 160.882484 197.615432 
L 163.436189 196.406263 
L 165.989894 195.419627 
L 168.543599 194.658213 
L 171.097304 194.120126 
L 173.651009 193.799244 
L 176.204715 193.685629 
L 178.75842 193.765985 
L 181.312125 194.024156 
L 185.142683 194.703821 
L 188.97324 195.67192 
L 194.080651 197.28175 
L 203.018619 200.476095 
L 209.402881 202.64822 
L 214.510292 204.126337 
L 218.340849 205.024556 
L 222.171407 205.716336 
L 226.001965 206.190512 
L 229.832522 206.446616 
L 233.66308 206.493799 
L 237.493638 206.349446 
L 242.601048 205.901284 
L 247.708458 205.225568 
L 255.369574 203.956055 
L 268.138099 201.785071 
L 274.522362 200.922875 
L 280.906625 200.308027 
L 287.290888 199.966172 
L 293.675151 199.887507 
L 300.059414 200.033717 
L 308.997382 200.504241 
L 334.534433 202.076889 
L 343.472401 202.313953 
L 352.410369 202.325602 
L 362.625189 202.118668 
L 402.207619 201.052649 
L 416.252997 201.057073 
L 422.63726 201.117979 
L 422.63726 201.117979 
" style="fill:none;stroke:#1f77b4;stroke-linecap:square;stroke-width:1.5;"/>
   </g>
   <g id="line2d_36">
    <path clip-path="url(#p717ed632f7)" d="M 39.58149 199.707662 
L 45.965753 191.970578 
L 48.519458 189.107164 
L 51.073163 186.518079 
L 53.626868 184.28648 
L 56.180573 182.475555 
L 58.734279 181.126504 
L 60.011131 180.632202 
L 61.287984 180.259319 
L 62.564836 180.007411 
L 63.841689 179.875031 
L 65.118541 179.859822 
L 67.672246 180.167549 
L 70.225952 180.897238 
L 72.779657 182.00692 
L 75.333362 183.44857 
L 77.887067 185.170342 
L 80.440772 187.118483 
L 84.27133 190.347177 
L 91.932445 197.274303 
L 97.039855 201.749885 
L 100.870413 204.821875 
L 104.700971 207.547218 
L 107.254676 209.138257 
L 109.808381 210.532368 
L 112.362086 211.72082 
L 114.915791 212.69922 
L 117.469497 213.467197 
L 120.023202 214.028055 
L 122.576907 214.388384 
L 125.130612 214.557657 
L 127.684317 214.547813 
L 130.238022 214.372831 
L 134.06858 213.8352 
L 137.899138 213.018762 
L 141.729695 211.984092 
L 146.837106 210.370463 
L 165.989894 204.018266 
L 171.097304 202.682098 
L 176.204715 201.605437 
L 181.312125 200.805512 
L 186.419535 200.279386 
L 191.526945 200.007516 
L 196.634356 199.957784 
L 203.018619 200.145769 
L 210.679734 200.621631 
L 237.493638 202.547665 
L 246.431606 202.842155 
L 255.369574 202.899284 
L 265.584394 202.727667 
L 280.906625 202.212993 
L 301.336266 201.555836 
L 315.381644 201.325675 
L 331.980728 201.287975 
L 404.761324 201.431398 
L 422.63726 201.360444 
L 422.63726 201.360444 
" style="fill:none;stroke:#ff7f0e;stroke-linecap:square;stroke-width:1.5;"/>
   </g>
   <g id="line2d_37">
    <path clip-path="url(#p717ed632f7)" d="M 39.58149 150.369183 
L 43.412048 147.281938 
L 45.965753 145.496802 
L 47.242605 144.786555 
L 48.519458 144.244678 
L 49.796311 143.903312 
L 51.073163 143.790815 
L 52.350016 143.93107 
L 53.626868 144.343117 
L 54.903721 145.04101 
L 56.180573 146.033859 
L 57.457426 147.325987 
L 58.734279 148.917198 
L 60.011131 150.803083 
L 61.287984 152.97539 
L 62.564836 155.422395 
L 65.118541 161.078601 
L 67.672246 167.623298 
L 70.225952 174.876984 
L 74.056509 186.647386 
L 81.717625 210.802778 
L 84.27133 218.306513 
L 86.825035 225.244966 
L 89.37874 231.475614 
L 91.932445 236.881447 
L 93.209298 239.245889 
L 94.48615 241.372604 
L 95.763003 243.254726 
L 97.039855 244.88714 
L 98.316708 246.26646 
L 99.593561 247.391004 
L 100.870413 248.260748 
L 102.147266 248.877285 
L 103.424118 249.24376 
L 104.700971 249.36481 
L 105.977823 249.246487 
L 107.254676 248.896176 
L 108.531529 248.322514 
L 109.808381 247.535294 
L 111.085234 246.54537 
L 112.362086 245.364556 
L 113.638939 244.005525 
L 116.192644 240.807151 
L 118.746349 237.06473 
L 121.300054 232.899607 
L 125.130612 226.13247 
L 132.791727 212.239351 
L 136.622285 205.864231 
L 139.17599 202.040693 
L 141.729695 198.643446 
L 144.2834 195.728973 
L 146.837106 193.338516 
L 149.390811 191.497948 
L 150.667663 190.78781 
L 151.944516 190.218027 
L 153.221368 189.787682 
L 154.498221 189.495011 
L 155.775074 189.337434 
L 157.051926 189.311599 
L 158.328779 189.413426 
L 159.605631 189.638151 
L 162.159336 190.434143 
L 164.713042 191.649809 
L 167.266747 193.227913 
L 169.820452 195.105606 
L 173.651009 198.337686 
L 178.75842 203.063724 
L 183.86583 207.781504 
L 187.696388 211.029056 
L 190.250093 212.962238 
L 192.803798 214.663421 
L 195.357503 216.101741 
L 197.911208 217.254687 
L 200.464913 218.108172 
L 203.018619 218.656384 
L 205.572324 218.901453 
L 208.126029 218.852933 
L 210.679734 218.527126 
L 213.233439 217.946289 
L 215.787144 217.137729 
L 218.340849 216.132833 
L 222.171407 214.333302 
L 227.278817 211.582458 
L 236.216785 206.625213 
L 240.047343 204.732446 
L 243.877901 203.106175 
L 247.708458 201.806891 
L 250.262163 201.141815 
L 252.815869 200.644543 
L 255.369574 200.315974 
L 257.923279 200.152791 
L 260.476984 200.147791 
L 264.307542 200.41267 
L 268.138099 200.96047 
L 271.968657 201.731703 
L 277.076067 202.992145 
L 289.844593 206.31257 
L 294.952003 207.346039 
L 298.782561 207.919018 
L 302.613119 208.29484 
L 306.443676 208.465712 
L 310.274234 208.435832 
L 314.104792 208.220128 
L 319.212202 207.685817 
L 325.596465 206.729312 
L 344.749253 203.548725 
L 349.856664 202.967752 
L 354.964074 202.581808 
L 360.071484 202.398198 
L 366.455747 202.432241 
L 372.84001 202.701552 
L 383.05483 203.404254 
L 395.823356 204.248983 
L 403.484471 204.523786 
L 411.145587 204.559267 
L 418.806702 204.36925 
L 422.63726 204.206837 
L 422.63726 204.206837 
" style="fill:none;stroke:#2ca02c;stroke-linecap:square;stroke-width:1.5;"/>
   </g>
   <g id="line2d_38">
    <path clip-path="url(#p717ed632f7)" d="M 39.58149 158.470078 
L 44.6889 153.581674 
L 47.242605 151.536541 
L 48.519458 150.718705 
L 49.796311 150.076062 
L 51.073163 149.633986 
L 52.350016 149.41413 
L 53.626868 149.434085 
L 54.903721 149.707241 
L 56.180573 150.242797 
L 57.457426 151.045888 
L 58.734279 152.117781 
L 60.011131 153.456136 
L 61.287984 155.055295 
L 62.564836 156.906595 
L 63.841689 158.998688 
L 66.395394 163.848361 
L 68.949099 169.471904 
L 71.502804 175.7137 
L 75.333362 185.861514 
L 84.27133 210.141412 
L 86.825035 216.499223 
L 89.37874 222.344229 
L 91.932445 227.567126 
L 94.48615 232.079841 
L 97.039855 235.816412 
L 98.316708 237.37915 
L 99.593561 238.733236 
L 100.870413 239.876659 
L 102.147266 240.808736 
L 103.424118 241.530073 
L 104.700971 242.042522 
L 105.977823 242.349131 
L 107.254676 242.454086 
L 108.531529 242.362653 
L 109.808381 242.081109 
L 111.085234 241.616674 
L 112.362086 240.977439 
L 113.638939 240.172288 
L 114.915791 239.210822 
L 117.469497 236.860442 
L 120.023202 234.014341 
L 122.576907 230.766807 
L 126.407465 225.357389 
L 139.17599 206.545744 
L 141.729695 203.274973 
L 144.2834 200.325097 
L 146.837106 197.742679 
L 149.390811 195.562815 
L 151.944516 193.80902 
L 154.498221 192.493394 
L 157.051926 191.617042 
L 159.605631 191.170734 
L 162.159336 191.13576 
L 164.713042 191.484956 
L 167.266747 192.183869 
L 169.820452 193.19201 
L 172.374157 194.464189 
L 174.927862 195.951855 
L 178.75842 198.476578 
L 192.803798 208.213299 
L 196.634356 210.365071 
L 199.188061 211.572927 
L 201.741766 212.576677 
L 204.295471 213.363528 
L 206.849176 213.926602 
L 209.402881 214.264734 
L 211.956586 214.382142 
L 214.510292 214.287995 
L 217.063997 213.995888 
L 219.617702 213.523249 
L 223.44826 212.52159 
L 227.278817 211.240101 
L 232.386228 209.246545 
L 243.877901 204.570387 
L 247.708458 203.223423 
L 251.539016 202.078953 
L 255.369574 201.173254 
L 259.200131 200.527011 
L 263.030689 200.145669 
L 266.861247 200.020545 
L 270.691805 200.13057 
L 274.522362 200.444512 
L 279.629773 201.112409 
L 286.014035 202.199587 
L 298.782561 204.435865 
L 303.889971 205.111151 
L 308.997382 205.574621 
L 314.104792 205.802618 
L 319.212202 205.795864 
L 324.319612 205.576456 
L 330.703875 205.063566 
L 339.641843 204.081664 
L 352.410369 202.669879 
L 360.071484 202.064107 
L 366.455747 201.767321 
L 372.84001 201.664905 
L 380.501125 201.763796 
L 390.715946 202.140685 
L 409.868734 202.889525 
L 420.083555 203.018499 
L 422.63726 203.011676 
L 422.63726 203.011676 
" style="fill:none;stroke:#d62728;stroke-linecap:square;stroke-width:1.5;"/>
   </g>
   <g id="patch_9">
    <path d="M 39.58149 254.64351 
L 39.58149 138.512115 
" style="fill:none;stroke:#000000;stroke-linecap:square;stroke-linejoin:miter;stroke-width:0.8;"/>
   </g>
   <g id="patch_10">
    <path d="M 422.63726 254.64351 
L 422.63726 138.512115 
" style="fill:none;stroke:#000000;stroke-linecap:square;stroke-linejoin:miter;stroke-width:0.8;"/>
   </g>
   <g id="patch_11">
    <path d="M 39.58149 254.64351 
L 422.63726 254.64351 
" style="fill:none;stroke:#000000;stroke-linecap:square;stroke-linejoin:miter;stroke-width:0.8;"/>
   </g>
   <g id="patch_12">
    <path d="M 39.58149 138.512115 
L 422.63726 138.512115 
" style="fill:none;stroke:#000000;stroke-linecap:square;stroke-linejoin:miter;stroke-width:0.8;"/>
   </g>
  </g>
 </g>
 <defs>
  <clipPath id="pb8ecc53ec4">
   <rect height="116.131395" width="383.05577" x="39.58149" y="6.50024"/>
  </clipPath>
  <clipPath id="p717ed632f7">
   <rect height="116.131395" width="383.05577" x="39.58149" y="138.512115"/>
  </clipPath>
 </defs>
</svg>
