<?xml version="1.0" encoding="utf-8" standalone="no"?>
<!DOCTYPE svg PUBLIC "-//W3C//DTD SVG 1.1//EN"
  "http://www.w3.org/Graphics/SVG/1.1/DTD/svg11.dtd">
<!-- Created with matplotlib (https://matplotlib.org/) -->
<svg height="288pt" version="1.1" viewBox="0 0 432 288" width="432pt" xmlns="http://www.w3.org/2000/svg" xmlns:xlink="http://www.w3.org/1999/xlink">
 <defs>
  <style type="text/css">
*{stroke-linecap:butt;stroke-linejoin:round;}
  </style>
 </defs>
 <g id="figure_1">
  <g id="patch_1">
   <path d="M 0 288 
L 432 288 
L 432 0 
L 0 0 
z
" style="fill:#ffffff;"/>
  </g>
  <g id="axes_1">
   <g id="patch_2">
    <path d="M 39.58149 122.631635 
L 422.63726 122.631635 
L 422.63726 6.50024 
L 39.58149 6.50024 
z
" style="fill:#ffffff;"/>
   </g>
   <g id="matplotlib.axis_1">
    <g id="xtick_1">
     <g id="line2d_1">
      <defs>
       <path d="M 0 0 
L 0 3.5 
" id="m61e6670dda" style="stroke:#000000;stroke-width:0.8;"/>
      </defs>
      <g>
       <use style="stroke:#000000;stroke-width:0.8;" x="39.58149" xlink:href="#m61e6670dda" y="122.631635"/>
      </g>
     </g>
    </g>
    <g id="xtick_2">
     <g id="line2d_2">
      <g>
       <use style="stroke:#000000;stroke-width:0.8;" x="103.424118" xlink:href="#m61e6670dda" y="122.631635"/>
      </g>
     </g>
    </g>
    <g id="xtick_3">
     <g id="line2d_3">
      <g>
       <use style="stroke:#000000;stroke-width:0.8;" x="167.266747" xlink:href="#m61e6670dda" y="122.631635"/>
      </g>
     </g>
    </g>
    <g id="xtick_4">
     <g id="line2d_4">
      <g>
       <use style="stroke:#000000;stroke-width:0.8;" x="231.109375" xlink:href="#m61e6670dda" y="122.631635"/>
      </g>
     </g>
    </g>
    <g id="xtick_5">
     <g id="line2d_5">
      <g>
       <use style="stroke:#000000;stroke-width:0.8;" x="294.952003" xlink:href="#m61e6670dda" y="122.631635"/>
      </g>
     </g>
    </g>
    <g id="xtick_6">
     <g id="line2d_6">
      <g>
       <use style="stroke:#000000;stroke-width:0.8;" x="358.794632" xlink:href="#m61e6670dda" y="122.631635"/>
      </g>
     </g>
    </g>
    <g id="xtick_7">
     <g id="line2d_7">
      <g>
       <use style="stroke:#000000;stroke-width:0.8;" x="422.63726" xlink:href="#m61e6670dda" y="122.631635"/>
      </g>
     </g>
    </g>
   </g>
   <g id="matplotlib.axis_2">
    <g id="ytick_1">
     <g id="line2d_8">
      <defs>
       <path d="M 0 0 
L -3.5 0 
" id="m7fa3406b5b" style="stroke:#000000;stroke-width:0.8;"/>
      </defs>
      <g>
       <use style="stroke:#000000;stroke-width:0.8;" x="39.58149" xlink:href="#m7fa3406b5b" y="117.352935"/>
      </g>
     </g>
     <g id="text_1">
      <!-- 0.0 -->
      <defs>
       <path d="M 31.78125 66.40625 
Q 24.171875 66.40625 20.328125 58.90625 
Q 16.5 51.421875 16.5 36.375 
Q 16.5 21.390625 20.328125 13.890625 
Q 24.171875 6.390625 31.78125 6.390625 
Q 39.453125 6.390625 43.28125 13.890625 
Q 47.125 21.390625 47.125 36.375 
Q 47.125 51.421875 43.28125 58.90625 
Q 39.453125 66.40625 31.78125 66.40625 
z
M 31.78125 74.21875 
Q 44.046875 74.21875 50.515625 64.515625 
Q 56.984375 54.828125 56.984375 36.375 
Q 56.984375 17.96875 50.515625 8.265625 
Q 44.046875 -1.421875 31.78125 -1.421875 
Q 19.53125 -1.421875 13.0625 8.265625 
Q 6.59375 17.96875 6.59375 36.375 
Q 6.59375 54.828125 13.0625 64.515625 
Q 19.53125 74.21875 31.78125 74.21875 
z
" id="DejaVuSans-48"/>
       <path d="M 10.6875 12.40625 
L 21 12.40625 
L 21 0 
L 10.6875 0 
z
" id="DejaVuSans-46"/>
      </defs>
      <g transform="translate(16.678365 121.152154)scale(0.1 -0.1)">
       <use xlink:href="#DejaVuSans-48"/>
       <use x="63.623047" xlink:href="#DejaVuSans-46"/>
       <use x="95.410156" xlink:href="#DejaVuSans-48"/>
      </g>
     </g>
    </g>
    <g id="ytick_2">
     <g id="line2d_9">
      <g>
       <use style="stroke:#000000;stroke-width:0.8;" x="39.58149" xlink:href="#m7fa3406b5b" y="73.103151"/>
      </g>
     </g>
     <g id="text_2">
      <!-- 0.5 -->
      <defs>
       <path d="M 10.796875 72.90625 
L 49.515625 72.90625 
L 49.515625 64.59375 
L 19.828125 64.59375 
L 19.828125 46.734375 
Q 21.96875 47.46875 24.109375 47.828125 
Q 26.265625 48.1875 28.421875 48.1875 
Q 40.625 48.1875 47.75 41.5 
Q 54.890625 34.8125 54.890625 23.390625 
Q 54.890625 11.625 47.5625 5.09375 
Q 40.234375 -1.421875 26.90625 -1.421875 
Q 22.3125 -1.421875 17.546875 -0.640625 
Q 12.796875 0.140625 7.71875 1.703125 
L 7.71875 11.625 
Q 12.109375 9.234375 16.796875 8.0625 
Q 21.484375 6.890625 26.703125 6.890625 
Q 35.15625 6.890625 40.078125 11.328125 
Q 45.015625 15.765625 45.015625 23.390625 
Q 45.015625 31 40.078125 35.4375 
Q 35.15625 39.890625 26.703125 39.890625 
Q 22.75 39.890625 18.8125 39.015625 
Q 14.890625 38.140625 10.796875 36.28125 
z
" id="DejaVuSans-53"/>
      </defs>
      <g transform="translate(16.678365 76.90237)scale(0.1 -0.1)">
       <use xlink:href="#DejaVuSans-48"/>
       <use x="63.623047" xlink:href="#DejaVuSans-46"/>
       <use x="95.410156" xlink:href="#DejaVuSans-53"/>
      </g>
     </g>
    </g>
    <g id="ytick_3">
     <g id="line2d_10">
      <g>
       <use style="stroke:#000000;stroke-width:0.8;" x="39.58149" xlink:href="#m7fa3406b5b" y="28.853367"/>
      </g>
     </g>
     <g id="text_3">
      <!-- 1.0 -->
      <defs>
       <path d="M 12.40625 8.296875 
L 28.515625 8.296875 
L 28.515625 63.921875 
L 10.984375 60.40625 
L 10.984375 69.390625 
L 28.421875 72.90625 
L 38.28125 72.90625 
L 38.28125 8.296875 
L 54.390625 8.296875 
L 54.390625 0 
L 12.40625 0 
z
" id="DejaVuSans-49"/>
      </defs>
      <g transform="translate(16.678365 32.652585)scale(0.1 -0.1)">
       <use xlink:href="#DejaVuSans-49"/>
       <use x="63.623047" xlink:href="#DejaVuSans-46"/>
       <use x="95.410156" xlink:href="#DejaVuSans-48"/>
      </g>
     </g>
    </g>
    <g id="text_4">
     <!-- y(t) -->
     <defs>
      <path d="M 32.171875 -5.078125 
Q 28.375 -14.84375 24.75 -17.8125 
Q 21.140625 -20.796875 15.09375 -20.796875 
L 7.90625 -20.796875 
L 7.90625 -13.28125 
L 13.1875 -13.28125 
Q 16.890625 -13.28125 18.9375 -11.515625 
Q 21 -9.765625 23.484375 -3.21875 
L 25.09375 0.875 
L 2.984375 54.6875 
L 12.5 54.6875 
L 29.59375 11.921875 
L 46.6875 54.6875 
L 56.203125 54.6875 
z
" id="DejaVuSans-121"/>
      <path d="M 31 75.875 
Q 24.46875 64.65625 21.28125 53.65625 
Q 18.109375 42.671875 18.109375 31.390625 
Q 18.109375 20.125 21.3125 9.0625 
Q 24.515625 -2 31 -13.1875 
L 23.1875 -13.1875 
Q 15.875 -1.703125 12.234375 9.375 
Q 8.59375 20.453125 8.59375 31.390625 
Q 8.59375 42.28125 12.203125 53.3125 
Q 15.828125 64.359375 23.1875 75.875 
z
" id="DejaVuSans-40"/>
      <path d="M 18.3125 70.21875 
L 18.3125 54.6875 
L 36.8125 54.6875 
L 36.8125 47.703125 
L 18.3125 47.703125 
L 18.3125 18.015625 
Q 18.3125 11.328125 20.140625 9.421875 
Q 21.96875 7.515625 27.59375 7.515625 
L 36.8125 7.515625 
L 36.8125 0 
L 27.59375 0 
Q 17.1875 0 13.234375 3.875 
Q 9.28125 7.765625 9.28125 18.015625 
L 9.28125 47.703125 
L 2.6875 47.703125 
L 2.6875 54.6875 
L 9.28125 54.6875 
L 9.28125 70.21875 
z
" id="DejaVuSans-116"/>
      <path d="M 8.015625 75.875 
L 15.828125 75.875 
Q 23.140625 64.359375 26.78125 53.3125 
Q 30.421875 42.28125 30.421875 31.390625 
Q 30.421875 20.453125 26.78125 9.375 
Q 23.140625 -1.703125 15.828125 -13.1875 
L 8.015625 -13.1875 
Q 14.5 -2 17.703125 9.0625 
Q 20.90625 20.125 20.90625 31.390625 
Q 20.90625 42.671875 17.703125 53.65625 
Q 14.5 64.65625 8.015625 75.875 
z
" id="DejaVuSans-41"/>
     </defs>
     <g transform="translate(10.598677 73.387031)rotate(-90)scale(0.1 -0.1)">
      <use xlink:href="#DejaVuSans-121"/>
      <use x="59.179688" xlink:href="#DejaVuSans-40"/>
      <use x="98.193359" xlink:href="#DejaVuSans-116"/>
      <use x="137.402344" xlink:href="#DejaVuSans-41"/>
     </g>
    </g>
   </g>
   <g id="line2d_11">
    <path clip-path="url(#p17049a7dde)" d="M 39.58149 28.853367 
L 422.63726 28.853367 
L 422.63726 28.853367 
" style="fill:none;stroke:#000000;stroke-dasharray:4.44,1.92;stroke-dashoffset:0;stroke-width:1.2;"/>
   </g>
   <g id="line2d_12">
    <path clip-path="url(#p17049a7dde)" d="M 39.58149 117.352935 
L 44.6889 117.243818 
L 47.242605 116.877142 
L 48.519458 116.534335 
L 49.796311 116.055526 
L 51.073163 115.421462 
L 52.350016 114.615921 
L 53.626868 113.625954 
L 54.903721 112.441983 
L 56.180573 111.057772 
L 57.457426 109.470308 
L 58.734279 107.679629 
L 61.287984 103.502693 
L 63.841689 98.579415 
L 66.395394 92.995301 
L 68.949099 86.860671 
L 72.779657 76.908204 
L 84.27133 46.027042 
L 86.825035 39.802216 
L 89.37874 34.051778 
L 91.932445 28.860843 
L 94.48615 24.297834 
L 97.039855 20.413899 
L 99.593561 17.242791 
L 100.870413 15.930401 
L 102.147266 14.801154 
L 103.424118 13.854566 
L 104.700971 13.089183 
L 105.977823 12.502621 
L 107.254676 12.091605 
L 108.531529 11.852016 
L 109.808381 11.77894 
L 111.085234 11.866716 
L 112.362086 12.108995 
L 113.638939 12.498791 
L 114.915791 13.028542 
L 117.469497 14.475122 
L 120.023202 16.378954 
L 122.576907 18.664865 
L 125.130612 21.254235 
L 128.96117 25.531901 
L 140.452843 38.781408 
L 143.006548 41.374026 
L 145.560253 43.719307 
L 148.113958 45.777023 
L 150.667663 47.515692 
L 153.221368 48.912725 
L 155.775074 49.954359 
L 158.328779 50.635419 
L 160.882484 50.958898 
L 163.436189 50.935397 
L 165.989894 50.58243 
L 168.543599 49.923625 
L 171.097304 48.987843 
L 173.651009 47.80824 
L 176.204715 46.421288 
L 180.035272 44.037362 
L 185.142683 40.503995 
L 194.080651 34.222557 
L 197.911208 31.795546 
L 201.741766 29.662488 
L 204.295471 28.43718 
L 206.849176 27.386172 
L 209.402881 26.518886 
L 211.956586 25.840303 
L 214.510292 25.351122 
L 217.063997 25.048005 
L 219.617702 24.923889 
L 222.171407 24.968365 
L 226.001965 25.321344 
L 229.832522 25.968227 
L 233.66308 26.845429 
L 238.77049 28.254618 
L 252.815869 32.312424 
L 257.923279 33.456886 
L 261.753837 34.10704 
L 265.584394 34.556427 
L 269.414952 34.797355 
L 273.24551 34.832885 
L 277.076067 34.675714 
L 282.183478 34.203412 
L 287.290888 33.492734 
L 294.952003 32.153413 
L 307.720529 29.863299 
L 314.104792 28.966184 
L 319.212202 28.445126 
L 324.319612 28.117955 
L 329.427023 27.983478 
L 335.811285 28.059699 
L 343.472401 28.429025 
L 356.240927 29.365235 
L 367.7326 30.114694 
L 375.393715 30.402885 
L 383.05483 30.479352 
L 391.992798 30.320752 
L 403.484471 29.851045 
L 422.63726 28.989475 
L 422.63726 28.989475 
" style="fill:none;stroke:#1f77b4;stroke-linecap:square;stroke-width:1.5;"/>
   </g>
   <g id="line2d_13">
    <path clip-path="url(#p17049a7dde)" d="M 39.58149 117.352935 
L 44.6889 117.281778 
L 47.242605 117.041902 
L 49.796311 116.502549 
L 52.350016 115.553858 
L 53.626868 114.899466 
L 54.903721 114.115023 
L 56.180573 113.195647 
L 58.734279 110.942622 
L 61.287984 108.139806 
L 63.841689 104.812565 
L 66.395394 101.006975 
L 68.949099 96.78461 
L 72.779657 89.829554 
L 77.887067 79.816234 
L 86.825035 62.039834 
L 90.655593 54.937629 
L 94.48615 48.417497 
L 97.039855 44.46225 
L 99.593561 40.855798 
L 102.147266 37.619475 
L 104.700971 34.766801 
L 107.254676 32.303909 
L 109.808381 30.230077 
L 112.362086 28.538332 
L 114.915791 27.216111 
L 117.469497 26.245953 
L 120.023202 25.606228 
L 122.576907 25.271856 
L 125.130612 25.215037 
L 127.684317 25.40595 
L 130.238022 25.81343 
L 132.791727 26.405608 
L 136.622285 27.570336 
L 140.452843 28.973204 
L 148.113958 32.102628 
L 154.498221 34.641811 
L 159.605631 36.40964 
L 163.436189 37.510834 
L 167.266747 38.387312 
L 171.097304 39.023811 
L 174.927862 39.416539 
L 178.75842 39.571791 
L 182.588977 39.504389 
L 186.419535 39.235996 
L 191.526945 38.612316 
L 196.634356 37.751636 
L 204.295471 36.183633 
L 220.894554 32.672499 
L 227.278817 31.575055 
L 233.66308 30.707378 
L 240.047343 30.085009 
L 246.431606 29.698051 
L 252.815869 29.517249 
L 260.476984 29.512934 
L 271.968657 29.768471 
L 294.952003 30.34494 
L 307.720529 30.387795 
L 321.765907 30.185615 
L 375.393715 29.133439 
L 399.653914 29.084242 
L 422.63726 29.103677 
L 422.63726 29.103677 
" style="fill:none;stroke:#ff7f0e;stroke-linecap:square;stroke-width:1.5;"/>
   </g>
   <g id="line2d_14">
    <path clip-path="url(#p17049a7dde)" d="M 39.58149 117.352935 
L 43.412048 117.310106 
L 45.965753 117.069667 
L 47.242605 116.808798 
L 48.519458 116.418755 
L 49.796311 115.875611 
L 51.073163 115.158621 
L 52.350016 114.250726 
L 53.626868 113.138813 
L 54.903721 111.813783 
L 56.180573 110.27049 
L 57.457426 108.507572 
L 58.734279 106.527215 
L 61.287984 101.938963 
L 63.841689 96.582907 
L 66.395394 90.573112 
L 68.949099 84.050314 
L 72.779657 73.652261 
L 79.16392 56.074618 
L 82.994477 46.255248 
L 85.548182 40.30282 
L 88.101888 34.957685 
L 90.655593 30.309787 
L 93.209298 26.426844 
L 94.48615 24.787174 
L 95.763003 23.353828 
L 97.039855 22.128898 
L 98.316708 21.1131 
L 99.593561 20.305817 
L 100.870413 19.705136 
L 102.147266 19.307904 
L 103.424118 19.109779 
L 104.700971 19.105297 
L 105.977823 19.287936 
L 107.254676 19.650194 
L 108.531529 20.183659 
L 109.808381 20.879093 
L 111.085234 21.726518 
L 113.638939 23.834205 
L 116.192644 26.41527 
L 118.746349 29.37193 
L 122.576907 34.289232 
L 132.791727 47.86664 
L 135.345432 50.880971 
L 137.899138 53.595215 
L 140.452843 55.954087 
L 143.006548 57.914417 
L 145.560253 59.445515 
L 148.113958 60.529197 
L 150.667663 61.159512 
L 153.221368 61.342167 
L 155.775074 61.093708 
L 158.328779 60.440476 
L 160.882484 59.417375 
L 163.436189 58.06651 
L 165.989894 56.435722 
L 168.543599 54.57706 
L 172.374157 51.48187 
L 185.142683 40.711523 
L 188.97324 37.970553 
L 191.526945 36.38585 
L 194.080651 35.023639 
L 196.634356 33.900595 
L 199.188061 33.026539 
L 201.741766 32.404593 
L 204.295471 32.031499 
L 206.849176 31.898064 
L 209.402881 31.989742 
L 211.956586 32.2873 
L 214.510292 32.767572 
L 218.340849 33.772397 
L 222.171407 35.031084 
L 228.55567 37.414 
L 234.939933 39.757237 
L 238.77049 40.978208 
L 242.601048 41.978545 
L 246.431606 42.711756 
L 250.262163 43.150217 
L 254.092721 43.285061 
L 257.923279 43.125032 
L 261.753837 42.69449 
L 265.584394 42.030718 
L 270.691805 40.865172 
L 277.076067 39.138632 
L 287.290888 36.351129 
L 292.398298 35.183195 
L 297.505708 34.270748 
L 301.336266 33.77908 
L 305.166824 33.458695 
L 310.274234 33.288105 
L 315.381644 33.377462 
L 321.765907 33.769251 
L 330.703875 34.596603 
L 340.918696 35.503524 
L 347.302959 35.861166 
L 353.687221 35.983979 
L 360.071484 35.85964 
L 366.455747 35.514664 
L 375.393715 34.771244 
L 395.823356 32.940675 
L 403.484471 32.509947 
L 411.145587 32.285392 
L 420.083555 32.252752 
L 422.63726 32.277663 
L 422.63726 32.277663 
" style="fill:none;stroke:#2ca02c;stroke-linecap:square;stroke-width:1.5;"/>
   </g>
   <g id="line2d_15">
    <path clip-path="url(#p17049a7dde)" d="M 39.58149 117.352935 
L 43.412048 117.313146 
L 45.965753 117.089486 
L 47.242605 116.84657 
L 48.519458 116.483068 
L 49.796311 115.97644 
L 51.073163 115.30704 
L 52.350016 114.458586 
L 53.626868 113.418413 
L 54.903721 112.17754 
L 56.180573 110.730622 
L 57.457426 109.075803 
L 58.734279 107.214499 
L 61.287984 102.892932 
L 63.841689 97.832525 
L 66.395394 92.134224 
L 68.949099 85.924016 
L 72.779657 75.962945 
L 81.717625 52.350193 
L 84.27133 46.151243 
L 86.825035 40.420945 
L 89.37874 35.256063 
L 91.932445 30.734593 
L 94.48615 26.914907 
L 95.763003 25.281032 
L 97.039855 23.83549 
L 98.316708 22.580027 
L 99.593561 21.515208 
L 100.870413 20.640445 
L 102.147266 19.954042 
L 103.424118 19.453238 
L 104.700971 19.134253 
L 105.977823 18.992351 
L 107.254676 19.021888 
L 108.531529 19.216384 
L 109.808381 19.568584 
L 111.085234 20.070522 
L 112.362086 20.7136 
L 114.915791 22.386016 
L 117.469497 24.507032 
L 120.023202 26.992306 
L 122.576907 29.754285 
L 126.407465 34.222718 
L 134.06858 43.284408 
L 137.899138 47.367684 
L 140.452843 49.780809 
L 143.006548 51.890992 
L 145.560253 53.6618 
L 148.113958 55.06712 
L 150.667663 56.091138 
L 153.221368 56.72806 
L 155.775074 56.981634 
L 158.328779 56.864461 
L 160.882484 56.397154 
L 163.436189 55.607351 
L 165.989894 54.528632 
L 168.543599 53.199359 
L 171.097304 51.66148 
L 174.927862 49.060833 
L 181.312125 44.321336 
L 187.696388 39.660245 
L 191.526945 37.145287 
L 195.357503 34.962385 
L 197.911208 33.726974 
L 200.464913 32.684495 
L 203.018619 31.843568 
L 205.572324 31.207608 
L 208.126029 30.775075 
L 210.679734 30.539809 
L 213.233439 30.491465 
L 215.787144 30.616012 
L 219.617702 31.088762 
L 223.44826 31.843378 
L 228.55567 33.155967 
L 243.877901 37.461889 
L 247.708458 38.276752 
L 251.539016 38.894218 
L 255.369574 39.291146 
L 259.200131 39.45818 
L 263.030689 39.398971 
L 266.861247 39.128788 
L 270.691805 38.672657 
L 275.799215 37.832341 
L 282.183478 36.537851 
L 296.228856 33.595883 
L 302.613119 32.557812 
L 307.720529 31.954887 
L 312.827939 31.572081 
L 317.93535 31.403252 
L 324.319612 31.454753 
L 331.980728 31.797601 
L 356.240927 33.156651 
L 363.902042 33.242274 
L 371.563157 33.091937 
L 380.501125 32.672396 
L 414.976145 30.74276 
L 422.63726 30.590393 
L 422.63726 30.590393 
" style="fill:none;stroke:#d62728;stroke-linecap:square;stroke-width:1.5;"/>
   </g>
   <g id="patch_3">
    <path d="M 39.58149 122.631635 
L 39.58149 6.50024 
" style="fill:none;stroke:#000000;stroke-linecap:square;stroke-linejoin:miter;stroke-width:0.8;"/>
   </g>
   <g id="patch_4">
    <path d="M 422.63726 122.631635 
L 422.63726 6.50024 
" style="fill:none;stroke:#000000;stroke-linecap:square;stroke-linejoin:miter;stroke-width:0.8;"/>
   </g>
   <g id="patch_5">
    <path d="M 39.58149 122.631635 
L 422.63726 122.631635 
" style="fill:none;stroke:#000000;stroke-linecap:square;stroke-linejoin:miter;stroke-width:0.8;"/>
   </g>
   <g id="patch_6">
    <path d="M 39.58149 6.50024 
L 422.63726 6.50024 
" style="fill:none;stroke:#000000;stroke-linecap:square;stroke-linejoin:miter;stroke-width:0.8;"/>
   </g>
   <g id="legend_1">
    <g id="patch_7">
     <path d="M 308.665385 117.631635 
L 415.63726 117.631635 
Q 417.63726 117.631635 417.63726 115.631635 
L 417.63726 57.919135 
Q 417.63726 55.919135 415.63726 55.919135 
L 308.665385 55.919135 
Q 306.665385 55.919135 306.665385 57.919135 
L 306.665385 115.631635 
Q 306.665385 117.631635 308.665385 117.631635 
z
" style="fill:#ffffff;opacity:0.8;stroke:#cccccc;stroke-linejoin:miter;"/>
    </g>
    <g id="line2d_16">
     <path d="M 310.665385 64.017572 
L 330.665385 64.017572 
" style="fill:none;stroke:#1f77b4;stroke-linecap:square;stroke-width:1.5;"/>
    </g>
    <g id="line2d_17"/>
    <g id="text_5">
     <!-- PSO -->
     <defs>
      <path d="M 19.671875 64.796875 
L 19.671875 37.40625 
L 32.078125 37.40625 
Q 38.96875 37.40625 42.71875 40.96875 
Q 46.484375 44.53125 46.484375 51.125 
Q 46.484375 57.671875 42.71875 61.234375 
Q 38.96875 64.796875 32.078125 64.796875 
z
M 9.8125 72.90625 
L 32.078125 72.90625 
Q 44.34375 72.90625 50.609375 67.359375 
Q 56.890625 61.8125 56.890625 51.125 
Q 56.890625 40.328125 50.609375 34.8125 
Q 44.34375 29.296875 32.078125 29.296875 
L 19.671875 29.296875 
L 19.671875 0 
L 9.8125 0 
z
" id="DejaVuSans-80"/>
      <path d="M 53.515625 70.515625 
L 53.515625 60.890625 
Q 47.90625 63.578125 42.921875 64.890625 
Q 37.9375 66.21875 33.296875 66.21875 
Q 25.25 66.21875 20.875 63.09375 
Q 16.5 59.96875 16.5 54.203125 
Q 16.5 49.359375 19.40625 46.890625 
Q 22.3125 44.4375 30.421875 42.921875 
L 36.375 41.703125 
Q 47.40625 39.59375 52.65625 34.296875 
Q 57.90625 29 57.90625 20.125 
Q 57.90625 9.515625 50.796875 4.046875 
Q 43.703125 -1.421875 29.984375 -1.421875 
Q 24.8125 -1.421875 18.96875 -0.25 
Q 13.140625 0.921875 6.890625 3.21875 
L 6.890625 13.375 
Q 12.890625 10.015625 18.65625 8.296875 
Q 24.421875 6.59375 29.984375 6.59375 
Q 38.421875 6.59375 43.015625 9.90625 
Q 47.609375 13.234375 47.609375 19.390625 
Q 47.609375 24.75 44.3125 27.78125 
Q 41.015625 30.8125 33.5 32.328125 
L 27.484375 33.5 
Q 16.453125 35.6875 11.515625 40.375 
Q 6.59375 45.0625 6.59375 53.421875 
Q 6.59375 63.09375 13.40625 68.65625 
Q 20.21875 74.21875 32.171875 74.21875 
Q 37.3125 74.21875 42.625 73.28125 
Q 47.953125 72.359375 53.515625 70.515625 
z
" id="DejaVuSans-83"/>
      <path d="M 39.40625 66.21875 
Q 28.65625 66.21875 22.328125 58.203125 
Q 16.015625 50.203125 16.015625 36.375 
Q 16.015625 22.609375 22.328125 14.59375 
Q 28.65625 6.59375 39.40625 6.59375 
Q 50.140625 6.59375 56.421875 14.59375 
Q 62.703125 22.609375 62.703125 36.375 
Q 62.703125 50.203125 56.421875 58.203125 
Q 50.140625 66.21875 39.40625 66.21875 
z
M 39.40625 74.21875 
Q 54.734375 74.21875 63.90625 63.9375 
Q 73.09375 53.65625 73.09375 36.375 
Q 73.09375 19.140625 63.90625 8.859375 
Q 54.734375 -1.421875 39.40625 -1.421875 
Q 24.03125 -1.421875 14.8125 8.828125 
Q 5.609375 19.09375 5.609375 36.375 
Q 5.609375 53.65625 14.8125 63.9375 
Q 24.03125 74.21875 39.40625 74.21875 
z
" id="DejaVuSans-79"/>
     </defs>
     <g transform="translate(338.665385 67.517572)scale(0.1 -0.1)">
      <use xlink:href="#DejaVuSans-80"/>
      <use x="60.302734" xlink:href="#DejaVuSans-83"/>
      <use x="123.779297" xlink:href="#DejaVuSans-79"/>
     </g>
    </g>
    <g id="line2d_18">
     <path d="M 310.665385 78.695697 
L 330.665385 78.695697 
" style="fill:none;stroke:#ff7f0e;stroke-linecap:square;stroke-width:1.5;"/>
    </g>
    <g id="line2d_19"/>
    <g id="text_6">
     <!-- IMC -->
     <defs>
      <path d="M 9.8125 72.90625 
L 19.671875 72.90625 
L 19.671875 0 
L 9.8125 0 
z
" id="DejaVuSans-73"/>
      <path d="M 9.8125 72.90625 
L 24.515625 72.90625 
L 43.109375 23.296875 
L 61.8125 72.90625 
L 76.515625 72.90625 
L 76.515625 0 
L 66.890625 0 
L 66.890625 64.015625 
L 48.09375 14.015625 
L 38.1875 14.015625 
L 19.390625 64.015625 
L 19.390625 0 
L 9.8125 0 
z
" id="DejaVuSans-77"/>
      <path d="M 64.40625 67.28125 
L 64.40625 56.890625 
Q 59.421875 61.53125 53.78125 63.8125 
Q 48.140625 66.109375 41.796875 66.109375 
Q 29.296875 66.109375 22.65625 58.46875 
Q 16.015625 50.828125 16.015625 36.375 
Q 16.015625 21.96875 22.65625 14.328125 
Q 29.296875 6.6875 41.796875 6.6875 
Q 48.140625 6.6875 53.78125 8.984375 
Q 59.421875 11.28125 64.40625 15.921875 
L 64.40625 5.609375 
Q 59.234375 2.09375 53.4375 0.328125 
Q 47.65625 -1.421875 41.21875 -1.421875 
Q 24.65625 -1.421875 15.125 8.703125 
Q 5.609375 18.84375 5.609375 36.375 
Q 5.609375 53.953125 15.125 64.078125 
Q 24.65625 74.21875 41.21875 74.21875 
Q 47.75 74.21875 53.53125 72.484375 
Q 59.328125 70.75 64.40625 67.28125 
z
" id="DejaVuSans-67"/>
     </defs>
     <g transform="translate(338.665385 82.195697)scale(0.1 -0.1)">
      <use xlink:href="#DejaVuSans-73"/>
      <use x="29.492188" xlink:href="#DejaVuSans-77"/>
      <use x="115.771484" xlink:href="#DejaVuSans-67"/>
     </g>
    </g>
    <g id="line2d_20">
     <path d="M 310.665385 93.373822 
L 330.665385 93.373822 
" style="fill:none;stroke:#2ca02c;stroke-linecap:square;stroke-width:1.5;"/>
    </g>
    <g id="line2d_21"/>
    <g id="text_7">
     <!-- Ziegler-Nichols -->
     <defs>
      <path d="M 5.609375 72.90625 
L 62.890625 72.90625 
L 62.890625 65.375 
L 16.796875 8.296875 
L 64.015625 8.296875 
L 64.015625 0 
L 4.5 0 
L 4.5 7.515625 
L 50.59375 64.59375 
L 5.609375 64.59375 
z
" id="DejaVuSans-90"/>
      <path d="M 9.421875 54.6875 
L 18.40625 54.6875 
L 18.40625 0 
L 9.421875 0 
z
M 9.421875 75.984375 
L 18.40625 75.984375 
L 18.40625 64.59375 
L 9.421875 64.59375 
z
" id="DejaVuSans-105"/>
      <path d="M 56.203125 29.59375 
L 56.203125 25.203125 
L 14.890625 25.203125 
Q 15.484375 15.921875 20.484375 11.0625 
Q 25.484375 6.203125 34.421875 6.203125 
Q 39.59375 6.203125 44.453125 7.46875 
Q 49.3125 8.734375 54.109375 11.28125 
L 54.109375 2.78125 
Q 49.265625 0.734375 44.1875 -0.34375 
Q 39.109375 -1.421875 33.890625 -1.421875 
Q 20.796875 -1.421875 13.15625 6.1875 
Q 5.515625 13.8125 5.515625 26.8125 
Q 5.515625 40.234375 12.765625 48.109375 
Q 20.015625 56 32.328125 56 
Q 43.359375 56 49.78125 48.890625 
Q 56.203125 41.796875 56.203125 29.59375 
z
M 47.21875 32.234375 
Q 47.125 39.59375 43.09375 43.984375 
Q 39.0625 48.390625 32.421875 48.390625 
Q 24.90625 48.390625 20.390625 44.140625 
Q 15.875 39.890625 15.1875 32.171875 
z
" id="DejaVuSans-101"/>
      <path d="M 45.40625 27.984375 
Q 45.40625 37.75 41.375 43.109375 
Q 37.359375 48.484375 30.078125 48.484375 
Q 22.859375 48.484375 18.828125 43.109375 
Q 14.796875 37.75 14.796875 27.984375 
Q 14.796875 18.265625 18.828125 12.890625 
Q 22.859375 7.515625 30.078125 7.515625 
Q 37.359375 7.515625 41.375 12.890625 
Q 45.40625 18.265625 45.40625 27.984375 
z
M 54.390625 6.78125 
Q 54.390625 -7.171875 48.1875 -13.984375 
Q 42 -20.796875 29.203125 -20.796875 
Q 24.46875 -20.796875 20.265625 -20.09375 
Q 16.0625 -19.390625 12.109375 -17.921875 
L 12.109375 -9.1875 
Q 16.0625 -11.328125 19.921875 -12.34375 
Q 23.78125 -13.375 27.78125 -13.375 
Q 36.625 -13.375 41.015625 -8.765625 
Q 45.40625 -4.15625 45.40625 5.171875 
L 45.40625 9.625 
Q 42.625 4.78125 38.28125 2.390625 
Q 33.9375 0 27.875 0 
Q 17.828125 0 11.671875 7.65625 
Q 5.515625 15.328125 5.515625 27.984375 
Q 5.515625 40.671875 11.671875 48.328125 
Q 17.828125 56 27.875 56 
Q 33.9375 56 38.28125 53.609375 
Q 42.625 51.21875 45.40625 46.390625 
L 45.40625 54.6875 
L 54.390625 54.6875 
z
" id="DejaVuSans-103"/>
      <path d="M 9.421875 75.984375 
L 18.40625 75.984375 
L 18.40625 0 
L 9.421875 0 
z
" id="DejaVuSans-108"/>
      <path d="M 41.109375 46.296875 
Q 39.59375 47.171875 37.8125 47.578125 
Q 36.03125 48 33.890625 48 
Q 26.265625 48 22.1875 43.046875 
Q 18.109375 38.09375 18.109375 28.8125 
L 18.109375 0 
L 9.078125 0 
L 9.078125 54.6875 
L 18.109375 54.6875 
L 18.109375 46.1875 
Q 20.953125 51.171875 25.484375 53.578125 
Q 30.03125 56 36.53125 56 
Q 37.453125 56 38.578125 55.875 
Q 39.703125 55.765625 41.0625 55.515625 
z
" id="DejaVuSans-114"/>
      <path d="M 4.890625 31.390625 
L 31.203125 31.390625 
L 31.203125 23.390625 
L 4.890625 23.390625 
z
" id="DejaVuSans-45"/>
      <path d="M 9.8125 72.90625 
L 23.09375 72.90625 
L 55.421875 11.921875 
L 55.421875 72.90625 
L 64.984375 72.90625 
L 64.984375 0 
L 51.703125 0 
L 19.390625 60.984375 
L 19.390625 0 
L 9.8125 0 
z
" id="DejaVuSans-78"/>
      <path d="M 48.78125 52.59375 
L 48.78125 44.1875 
Q 44.96875 46.296875 41.140625 47.34375 
Q 37.3125 48.390625 33.40625 48.390625 
Q 24.65625 48.390625 19.8125 42.84375 
Q 14.984375 37.3125 14.984375 27.296875 
Q 14.984375 17.28125 19.8125 11.734375 
Q 24.65625 6.203125 33.40625 6.203125 
Q 37.3125 6.203125 41.140625 7.25 
Q 44.96875 8.296875 48.78125 10.40625 
L 48.78125 2.09375 
Q 45.015625 0.34375 40.984375 -0.53125 
Q 36.96875 -1.421875 32.421875 -1.421875 
Q 20.0625 -1.421875 12.78125 6.34375 
Q 5.515625 14.109375 5.515625 27.296875 
Q 5.515625 40.671875 12.859375 48.328125 
Q 20.21875 56 33.015625 56 
Q 37.15625 56 41.109375 55.140625 
Q 45.0625 54.296875 48.78125 52.59375 
z
" id="DejaVuSans-99"/>
      <path d="M 54.890625 33.015625 
L 54.890625 0 
L 45.90625 0 
L 45.90625 32.71875 
Q 45.90625 40.484375 42.875 44.328125 
Q 39.84375 48.1875 33.796875 48.1875 
Q 26.515625 48.1875 22.3125 43.546875 
Q 18.109375 38.921875 18.109375 30.90625 
L 18.109375 0 
L 9.078125 0 
L 9.078125 75.984375 
L 18.109375 75.984375 
L 18.109375 46.1875 
Q 21.34375 51.125 25.703125 53.5625 
Q 30.078125 56 35.796875 56 
Q 45.21875 56 50.046875 50.171875 
Q 54.890625 44.34375 54.890625 33.015625 
z
" id="DejaVuSans-104"/>
      <path d="M 30.609375 48.390625 
Q 23.390625 48.390625 19.1875 42.75 
Q 14.984375 37.109375 14.984375 27.296875 
Q 14.984375 17.484375 19.15625 11.84375 
Q 23.34375 6.203125 30.609375 6.203125 
Q 37.796875 6.203125 41.984375 11.859375 
Q 46.1875 17.53125 46.1875 27.296875 
Q 46.1875 37.015625 41.984375 42.703125 
Q 37.796875 48.390625 30.609375 48.390625 
z
M 30.609375 56 
Q 42.328125 56 49.015625 48.375 
Q 55.71875 40.765625 55.71875 27.296875 
Q 55.71875 13.875 49.015625 6.21875 
Q 42.328125 -1.421875 30.609375 -1.421875 
Q 18.84375 -1.421875 12.171875 6.21875 
Q 5.515625 13.875 5.515625 27.296875 
Q 5.515625 40.765625 12.171875 48.375 
Q 18.84375 56 30.609375 56 
z
" id="DejaVuSans-111"/>
      <path d="M 44.28125 53.078125 
L 44.28125 44.578125 
Q 40.484375 46.53125 36.375 47.5 
Q 32.28125 48.484375 27.875 48.484375 
Q 21.1875 48.484375 17.84375 46.4375 
Q 14.5 44.390625 14.5 40.28125 
Q 14.5 37.15625 16.890625 35.375 
Q 19.28125 33.59375 26.515625 31.984375 
L 29.59375 31.296875 
Q 39.15625 29.25 43.1875 25.515625 
Q 47.21875 21.78125 47.21875 15.09375 
Q 47.21875 7.46875 41.1875 3.015625 
Q 35.15625 -1.421875 24.609375 -1.421875 
Q 20.21875 -1.421875 15.453125 -0.5625 
Q 10.6875 0.296875 5.421875 2 
L 5.421875 11.28125 
Q 10.40625 8.6875 15.234375 7.390625 
Q 20.0625 6.109375 24.8125 6.109375 
Q 31.15625 6.109375 34.5625 8.28125 
Q 37.984375 10.453125 37.984375 14.40625 
Q 37.984375 18.0625 35.515625 20.015625 
Q 33.0625 21.96875 24.703125 23.78125 
L 21.578125 24.515625 
Q 13.234375 26.265625 9.515625 29.90625 
Q 5.8125 33.546875 5.8125 39.890625 
Q 5.8125 47.609375 11.28125 51.796875 
Q 16.75 56 26.8125 56 
Q 31.78125 56 36.171875 55.265625 
Q 40.578125 54.546875 44.28125 53.078125 
z
" id="DejaVuSans-115"/>
     </defs>
     <g transform="translate(338.665385 96.873822)scale(0.1 -0.1)">
      <use xlink:href="#DejaVuSans-90"/>
      <use x="68.505859" xlink:href="#DejaVuSans-105"/>
      <use x="96.289062" xlink:href="#DejaVuSans-101"/>
      <use x="157.8125" xlink:href="#DejaVuSans-103"/>
      <use x="221.289062" xlink:href="#DejaVuSans-108"/>
      <use x="249.072266" xlink:href="#DejaVuSans-101"/>
      <use x="310.595703" xlink:href="#DejaVuSans-114"/>
      <use x="351.615234" xlink:href="#DejaVuSans-45"/>
      <use x="387.699219" xlink:href="#DejaVuSans-78"/>
      <use x="462.503906" xlink:href="#DejaVuSans-105"/>
      <use x="490.287109" xlink:href="#DejaVuSans-99"/>
      <use x="545.267578" xlink:href="#DejaVuSans-104"/>
      <use x="608.646484" xlink:href="#DejaVuSans-111"/>
      <use x="669.828125" xlink:href="#DejaVuSans-108"/>
      <use x="697.611328" xlink:href="#DejaVuSans-115"/>
     </g>
    </g>
    <g id="line2d_22">
     <path d="M 310.665385 108.051947 
L 330.665385 108.051947 
" style="fill:none;stroke:#d62728;stroke-linecap:square;stroke-width:1.5;"/>
    </g>
    <g id="line2d_23"/>
    <g id="text_8">
     <!-- SIMC -->
     <g transform="translate(338.665385 111.551947)scale(0.1 -0.1)">
      <use xlink:href="#DejaVuSans-83"/>
      <use x="63.476562" xlink:href="#DejaVuSans-73"/>
      <use x="92.96875" xlink:href="#DejaVuSans-77"/>
      <use x="179.248047" xlink:href="#DejaVuSans-67"/>
     </g>
    </g>
   </g>
  </g>
  <g id="axes_2">
   <g id="patch_8">
    <path d="M 39.58149 254.64351 
L 422.63726 254.64351 
L 422.63726 138.512115 
L 39.58149 138.512115 
z
" style="fill:#ffffff;"/>
   </g>
   <g id="matplotlib.axis_3">
    <g id="xtick_8">
     <g id="line2d_24">
      <g>
       <use style="stroke:#000000;stroke-width:0.8;" x="39.58149" xlink:href="#m61e6670dda" y="254.64351"/>
      </g>
     </g>
     <g id="text_9">
      <!-- 0 -->
      <g transform="translate(36.40024 269.241947)scale(0.1 -0.1)">
       <use xlink:href="#DejaVuSans-48"/>
      </g>
     </g>
    </g>
    <g id="xtick_9">
     <g id="line2d_25">
      <g>
       <use style="stroke:#000000;stroke-width:0.8;" x="103.424118" xlink:href="#m61e6670dda" y="254.64351"/>
      </g>
     </g>
     <g id="text_10">
      <!-- 5 -->
      <g transform="translate(100.242868 269.241947)scale(0.1 -0.1)">
       <use xlink:href="#DejaVuSans-53"/>
      </g>
     </g>
    </g>
    <g id="xtick_10">
     <g id="line2d_26">
      <g>
       <use style="stroke:#000000;stroke-width:0.8;" x="167.266747" xlink:href="#m61e6670dda" y="254.64351"/>
      </g>
     </g>
     <g id="text_11">
      <!-- 10 -->
      <g transform="translate(160.904247 269.241947)scale(0.1 -0.1)">
       <use xlink:href="#DejaVuSans-49"/>
       <use x="63.623047" xlink:href="#DejaVuSans-48"/>
      </g>
     </g>
    </g>
    <g id="xtick_11">
     <g id="line2d_27">
      <g>
       <use style="stroke:#000000;stroke-width:0.8;" x="231.109375" xlink:href="#m61e6670dda" y="254.64351"/>
      </g>
     </g>
     <g id="text_12">
      <!-- 15 -->
      <g transform="translate(224.746875 269.241947)scale(0.1 -0.1)">
       <use xlink:href="#DejaVuSans-49"/>
       <use x="63.623047" xlink:href="#DejaVuSans-53"/>
      </g>
     </g>
    </g>
    <g id="xtick_12">
     <g id="line2d_28">
      <g>
       <use style="stroke:#000000;stroke-width:0.8;" x="294.952003" xlink:href="#m61e6670dda" y="254.64351"/>
      </g>
     </g>
     <g id="text_13">
      <!-- 20 -->
      <defs>
       <path d="M 19.1875 8.296875 
L 53.609375 8.296875 
L 53.609375 0 
L 7.328125 0 
L 7.328125 8.296875 
Q 12.9375 14.109375 22.625 23.890625 
Q 32.328125 33.6875 34.8125 36.53125 
Q 39.546875 41.84375 41.421875 45.53125 
Q 43.3125 49.21875 43.3125 52.78125 
Q 43.3125 58.59375 39.234375 62.25 
Q 35.15625 65.921875 28.609375 65.921875 
Q 23.96875 65.921875 18.8125 64.3125 
Q 13.671875 62.703125 7.8125 59.421875 
L 7.8125 69.390625 
Q 13.765625 71.78125 18.9375 73 
Q 24.125 74.21875 28.421875 74.21875 
Q 39.75 74.21875 46.484375 68.546875 
Q 53.21875 62.890625 53.21875 53.421875 
Q 53.21875 48.921875 51.53125 44.890625 
Q 49.859375 40.875 45.40625 35.40625 
Q 44.1875 33.984375 37.640625 27.21875 
Q 31.109375 20.453125 19.1875 8.296875 
z
" id="DejaVuSans-50"/>
      </defs>
      <g transform="translate(288.589503 269.241947)scale(0.1 -0.1)">
       <use xlink:href="#DejaVuSans-50"/>
       <use x="63.623047" xlink:href="#DejaVuSans-48"/>
      </g>
     </g>
    </g>
    <g id="xtick_13">
     <g id="line2d_29">
      <g>
       <use style="stroke:#000000;stroke-width:0.8;" x="358.794632" xlink:href="#m61e6670dda" y="254.64351"/>
      </g>
     </g>
     <g id="text_14">
      <!-- 25 -->
      <g transform="translate(352.432132 269.241947)scale(0.1 -0.1)">
       <use xlink:href="#DejaVuSans-50"/>
       <use x="63.623047" xlink:href="#DejaVuSans-53"/>
      </g>
     </g>
    </g>
    <g id="xtick_14">
     <g id="line2d_30">
      <g>
       <use style="stroke:#000000;stroke-width:0.8;" x="422.63726" xlink:href="#m61e6670dda" y="254.64351"/>
      </g>
     </g>
     <g id="text_15">
      <!-- 30 -->
      <defs>
       <path d="M 40.578125 39.3125 
Q 47.65625 37.796875 51.625 33 
Q 55.609375 28.21875 55.609375 21.1875 
Q 55.609375 10.40625 48.1875 4.484375 
Q 40.765625 -1.421875 27.09375 -1.421875 
Q 22.515625 -1.421875 17.65625 -0.515625 
Q 12.796875 0.390625 7.625 2.203125 
L 7.625 11.71875 
Q 11.71875 9.328125 16.59375 8.109375 
Q 21.484375 6.890625 26.8125 6.890625 
Q 36.078125 6.890625 40.9375 10.546875 
Q 45.796875 14.203125 45.796875 21.1875 
Q 45.796875 27.640625 41.28125 31.265625 
Q 36.765625 34.90625 28.71875 34.90625 
L 20.21875 34.90625 
L 20.21875 43.015625 
L 29.109375 43.015625 
Q 36.375 43.015625 40.234375 45.921875 
Q 44.09375 48.828125 44.09375 54.296875 
Q 44.09375 59.90625 40.109375 62.90625 
Q 36.140625 65.921875 28.71875 65.921875 
Q 24.65625 65.921875 20.015625 65.03125 
Q 15.375 64.15625 9.8125 62.3125 
L 9.8125 71.09375 
Q 15.4375 72.65625 20.34375 73.4375 
Q 25.25 74.21875 29.59375 74.21875 
Q 40.828125 74.21875 47.359375 69.109375 
Q 53.90625 64.015625 53.90625 55.328125 
Q 53.90625 49.265625 50.4375 45.09375 
Q 46.96875 40.921875 40.578125 39.3125 
z
" id="DejaVuSans-51"/>
      </defs>
      <g transform="translate(416.27476 269.241947)scale(0.1 -0.1)">
       <use xlink:href="#DejaVuSans-51"/>
       <use x="63.623047" xlink:href="#DejaVuSans-48"/>
      </g>
     </g>
    </g>
    <g id="text_16">
     <!-- t (s) -->
     <defs>
      <path id="DejaVuSans-32"/>
     </defs>
     <g transform="translate(221.053906 282.920073)scale(0.1 -0.1)">
      <use xlink:href="#DejaVuSans-116"/>
      <use x="39.208984" xlink:href="#DejaVuSans-32"/>
      <use x="70.996094" xlink:href="#DejaVuSans-40"/>
      <use x="110.009766" xlink:href="#DejaVuSans-115"/>
      <use x="162.109375" xlink:href="#DejaVuSans-41"/>
     </g>
    </g>
   </g>
   <g id="matplotlib.axis_4">
    <g id="ytick_4">
     <g id="line2d_31">
      <g>
       <use style="stroke:#000000;stroke-width:0.8;" x="39.58149" xlink:href="#m7fa3406b5b" y="232.442615"/>
      </g>
     </g>
     <g id="text_17">
      <!-- 0.5 -->
      <g transform="translate(16.678365 236.241833)scale(0.1 -0.1)">
       <use xlink:href="#DejaVuSans-48"/>
       <use x="63.623047" xlink:href="#DejaVuSans-46"/>
       <use x="95.410156" xlink:href="#DejaVuSans-53"/>
      </g>
     </g>
    </g>
    <g id="ytick_5">
     <g id="line2d_32">
      <g>
       <use style="stroke:#000000;stroke-width:0.8;" x="39.58149" xlink:href="#m7fa3406b5b" y="201.278773"/>
      </g>
     </g>
     <g id="text_18">
      <!-- 1.0 -->
      <g transform="translate(16.678365 205.077992)scale(0.1 -0.1)">
       <use xlink:href="#DejaVuSans-49"/>
       <use x="63.623047" xlink:href="#DejaVuSans-46"/>
       <use x="95.410156" xlink:href="#DejaVuSans-48"/>
      </g>
     </g>
    </g>
    <g id="ytick_6">
     <g id="line2d_33">
      <g>
       <use style="stroke:#000000;stroke-width:0.8;" x="39.58149" xlink:href="#m7fa3406b5b" y="170.114931"/>
      </g>
     </g>
     <g id="text_19">
      <!-- 1.5 -->
      <g transform="translate(16.678365 173.91415)scale(0.1 -0.1)">
       <use xlink:href="#DejaVuSans-49"/>
       <use x="63.623047" xlink:href="#DejaVuSans-46"/>
       <use x="95.410156" xlink:href="#DejaVuSans-53"/>
      </g>
     </g>
    </g>
    <g id="ytick_7">
     <g id="line2d_34">
      <g>
       <use style="stroke:#000000;stroke-width:0.8;" x="39.58149" xlink:href="#m7fa3406b5b" y="138.95109"/>
      </g>
     </g>
     <g id="text_20">
      <!-- 2.0 -->
      <g transform="translate(16.678365 142.750308)scale(0.1 -0.1)">
       <use xlink:href="#DejaVuSans-50"/>
       <use x="63.623047" xlink:href="#DejaVuSans-46"/>
       <use x="95.410156" xlink:href="#DejaVuSans-48"/>
      </g>
     </g>
    </g>
    <g id="text_21">
     <!-- u(t) -->
     <defs>
      <path d="M 8.5 21.578125 
L 8.5 54.6875 
L 17.484375 54.6875 
L 17.484375 21.921875 
Q 17.484375 14.15625 20.5 10.265625 
Q 23.53125 6.390625 29.59375 6.390625 
Q 36.859375 6.390625 41.078125 11.03125 
Q 45.3125 15.671875 45.3125 23.6875 
L 45.3125 54.6875 
L 54.296875 54.6875 
L 54.296875 0 
L 45.3125 0 
L 45.3125 8.40625 
Q 42.046875 3.421875 37.71875 1 
Q 33.40625 -1.421875 27.6875 -1.421875 
Q 18.265625 -1.421875 13.375 4.4375 
Q 8.5 10.296875 8.5 21.578125 
z
M 31.109375 56 
z
" id="DejaVuSans-117"/>
     </defs>
     <g transform="translate(10.598677 205.608281)rotate(-90)scale(0.1 -0.1)">
      <use xlink:href="#DejaVuSans-117"/>
      <use x="63.378906" xlink:href="#DejaVuSans-40"/>
      <use x="102.392578" xlink:href="#DejaVuSans-116"/>
      <use x="141.601562" xlink:href="#DejaVuSans-41"/>
     </g>
    </g>
   </g>
   <g id="line2d_35">
    <path clip-path="url(#p6bdf143b33)" d="M 39.58149 165.382572 
L 44.6889 158.124502 
L 47.242605 154.848831 
L 49.796311 152.097646 
L 51.073163 150.983396 
L 52.350016 150.072685 
L 53.626868 149.383457 
L 54.903721 148.93019 
L 56.180573 148.723849 
L 57.457426 148.771952 
L 58.734279 149.078694 
L 60.011131 149.645127 
L 61.287984 150.469371 
L 62.564836 151.546847 
L 63.841689 152.870522 
L 65.118541 154.431156 
L 66.395394 156.21755 
L 68.949099 160.414471 
L 71.502804 165.341523 
L 74.056509 170.862194 
L 77.887067 179.933415 
L 89.37874 208.145487 
L 91.932445 213.745714 
L 94.48615 218.85907 
L 97.039855 223.402026 
L 99.593561 227.308409 
L 102.147266 230.529806 
L 103.424118 231.873364 
L 104.700971 233.035541 
L 105.977823 234.015205 
L 107.254676 234.812263 
L 108.531529 235.427625 
L 109.808381 235.863174 
L 111.085234 236.121719 
L 112.362086 236.206955 
L 113.638939 236.123414 
L 114.915791 235.876414 
L 116.192644 235.472006 
L 117.469497 234.916919 
L 118.746349 234.218501 
L 121.300054 232.423799 
L 123.853759 230.156789 
L 126.407465 227.492373 
L 128.96117 224.509497 
L 132.791727 219.615472 
L 144.2834 204.384958 
L 148.113958 199.908709 
L 150.667663 197.25436 
L 153.221368 194.910205 
L 155.775074 192.905929 
L 158.328779 191.262172 
L 160.882484 189.990634 
L 163.436189 189.094368 
L 165.989894 188.568239 
L 168.543599 188.399527 
L 171.097304 188.568664 
L 173.651009 189.050064 
L 176.204715 189.813042 
L 178.75842 190.822773 
L 181.312125 192.041299 
L 185.142683 194.172529 
L 190.250093 197.363748 
L 199.188061 203.019854 
L 203.018619 205.167544 
L 206.849176 207.015796 
L 209.402881 208.049083 
L 211.956586 208.907135 
L 214.510292 209.58129 
L 217.063997 210.06738 
L 219.617702 210.36555 
L 222.171407 210.479989 
L 224.725112 210.418595 
L 227.278817 210.192579 
L 231.109375 209.576364 
L 234.939933 208.679099 
L 238.77049 207.566186 
L 245.154753 205.422268 
L 255.369574 201.939103 
L 260.476984 200.466861 
L 264.307542 199.564138 
L 268.138099 198.863218 
L 271.968657 198.377581 
L 275.799215 198.109359 
L 279.629773 198.050251 
L 283.46033 198.182851 
L 288.567741 198.614029 
L 293.675151 199.267559 
L 302.613119 200.695087 
L 312.827939 202.289795 
L 319.212202 203.047065 
L 324.319612 203.455741 
L 329.427023 203.671745 
L 334.534433 203.697968 
L 340.918696 203.493037 
L 348.579811 202.982537 
L 376.670568 200.761168 
L 384.331683 200.513659 
L 391.992798 200.485079 
L 400.930766 200.679284 
L 416.252997 201.293849 
L 422.63726 201.544032 
L 422.63726 201.544032 
" style="fill:none;stroke:#1f77b4;stroke-linecap:square;stroke-width:1.5;"/>
   </g>
   <g id="line2d_36">
    <path clip-path="url(#p6bdf143b33)" d="M 39.58149 199.707662 
L 45.965753 191.970578 
L 48.519458 189.107164 
L 51.073163 186.518079 
L 53.626868 184.28648 
L 56.180573 182.475555 
L 58.734279 181.126504 
L 60.011131 180.632202 
L 61.287984 180.259319 
L 62.564836 180.007411 
L 63.841689 179.875031 
L 65.118541 179.859822 
L 67.672246 180.167549 
L 70.225952 180.897238 
L 72.779657 182.00692 
L 75.333362 183.44857 
L 77.887067 185.170342 
L 80.440772 187.118483 
L 84.27133 190.347177 
L 91.932445 197.274303 
L 97.039855 201.749885 
L 100.870413 204.821875 
L 104.700971 207.547218 
L 107.254676 209.138257 
L 109.808381 210.532368 
L 112.362086 211.72082 
L 114.915791 212.69922 
L 117.469497 213.467197 
L 120.023202 214.028055 
L 122.576907 214.388384 
L 125.130612 214.557657 
L 127.684317 214.547813 
L 130.238022 214.372831 
L 134.06858 213.8352 
L 137.899138 213.018762 
L 141.729695 211.984092 
L 146.837106 210.370463 
L 165.989894 204.018266 
L 171.097304 202.682098 
L 176.204715 201.605437 
L 181.312125 200.805512 
L 186.419535 200.279386 
L 191.526945 200.007516 
L 196.634356 199.957784 
L 203.018619 200.145769 
L 210.679734 200.621631 
L 237.493638 202.547665 
L 246.431606 202.842155 
L 255.369574 202.899284 
L 265.584394 202.727667 
L 280.906625 202.212993 
L 301.336266 201.555836 
L 315.381644 201.325675 
L 331.980728 201.287975 
L 404.761324 201.431398 
L 422.63726 201.360444 
L 422.63726 201.360444 
" style="fill:none;stroke:#ff7f0e;stroke-linecap:square;stroke-width:1.5;"/>
   </g>
   <g id="line2d_37">
    <path clip-path="url(#p6bdf143b33)" d="M 39.58149 150.369183 
L 43.412048 147.281938 
L 45.965753 145.496802 
L 47.242605 144.786555 
L 48.519458 144.244678 
L 49.796311 143.903312 
L 51.073163 143.790815 
L 52.350016 143.93107 
L 53.626868 144.343117 
L 54.903721 145.04101 
L 56.180573 146.033859 
L 57.457426 147.325987 
L 58.734279 148.917198 
L 60.011131 150.803083 
L 61.287984 152.97539 
L 62.564836 155.422395 
L 65.118541 161.078601 
L 67.672246 167.623298 
L 70.225952 174.876984 
L 74.056509 186.647386 
L 81.717625 210.802778 
L 84.27133 218.306513 
L 86.825035 225.244966 
L 89.37874 231.475614 
L 91.932445 236.881447 
L 93.209298 239.245889 
L 94.48615 241.372604 
L 95.763003 243.254726 
L 97.039855 244.88714 
L 98.316708 246.26646 
L 99.593561 247.391004 
L 100.870413 248.260748 
L 102.147266 248.877285 
L 103.424118 249.24376 
L 104.700971 249.36481 
L 105.977823 249.246487 
L 107.254676 248.896176 
L 108.531529 248.322514 
L 109.808381 247.535294 
L 111.085234 246.54537 
L 112.362086 245.364556 
L 113.638939 244.005525 
L 116.192644 240.807151 
L 118.746349 237.06473 
L 121.300054 232.899607 
L 125.130612 226.13247 
L 132.791727 212.239351 
L 136.622285 205.864231 
L 139.17599 202.040693 
L 141.729695 198.643446 
L 144.2834 195.728973 
L 146.837106 193.338516 
L 149.390811 191.497948 
L 150.667663 190.78781 
L 151.944516 190.218027 
L 153.221368 189.787682 
L 154.498221 189.495011 
L 155.775074 189.337434 
L 157.051926 189.311599 
L 158.328779 189.413426 
L 159.605631 189.638151 
L 162.159336 190.434143 
L 164.713042 191.649809 
L 167.266747 193.227913 
L 169.820452 195.105606 
L 173.651009 198.337686 
L 178.75842 203.063724 
L 183.86583 207.781504 
L 187.696388 211.029056 
L 190.250093 212.962238 
L 192.803798 214.663421 
L 195.357503 216.101741 
L 197.911208 217.254687 
L 200.464913 218.108172 
L 203.018619 218.656384 
L 205.572324 218.901453 
L 208.126029 218.852933 
L 210.679734 218.527126 
L 213.233439 217.946289 
L 215.787144 217.137729 
L 218.340849 216.132833 
L 222.171407 214.333302 
L 227.278817 211.582458 
L 236.216785 206.625213 
L 240.047343 204.732446 
L 243.877901 203.106175 
L 247.708458 201.806891 
L 250.262163 201.141815 
L 252.815869 200.644543 
L 255.369574 200.315974 
L 257.923279 200.152791 
L 260.476984 200.147791 
L 264.307542 200.41267 
L 268.138099 200.96047 
L 271.968657 201.731703 
L 277.076067 202.992145 
L 289.844593 206.31257 
L 294.952003 207.346039 
L 298.782561 207.919018 
L 302.613119 208.29484 
L 306.443676 208.465712 
L 310.274234 208.435832 
L 314.104792 208.220128 
L 319.212202 207.685817 
L 325.596465 206.729312 
L 344.749253 203.548725 
L 349.856664 202.967752 
L 354.964074 202.581808 
L 360.071484 202.398198 
L 366.455747 202.432241 
L 372.84001 202.701552 
L 383.05483 203.404254 
L 395.823356 204.248983 
L 403.484471 204.523786 
L 411.145587 204.559267 
L 418.806702 204.36925 
L 422.63726 204.206837 
L 422.63726 204.206837 
" style="fill:none;stroke:#2ca02c;stroke-linecap:square;stroke-width:1.5;"/>
   </g>
   <g id="line2d_38">
    <path clip-path="url(#p6bdf143b33)" d="M 39.58149 158.470078 
L 44.6889 153.581674 
L 47.242605 151.536541 
L 48.519458 150.718705 
L 49.796311 150.076062 
L 51.073163 149.633986 
L 52.350016 149.41413 
L 53.626868 149.434085 
L 54.903721 149.707241 
L 56.180573 150.242797 
L 57.457426 151.045888 
L 58.734279 152.117781 
L 60.011131 153.456136 
L 61.287984 155.055295 
L 62.564836 156.906595 
L 63.841689 158.998688 
L 66.395394 163.848361 
L 68.949099 169.471904 
L 71.502804 175.7137 
L 75.333362 185.861514 
L 84.27133 210.141412 
L 86.825035 216.499223 
L 89.37874 222.344229 
L 91.932445 227.567126 
L 94.48615 232.079841 
L 97.039855 235.816412 
L 98.316708 237.37915 
L 99.593561 238.733236 
L 100.870413 239.876659 
L 102.147266 240.808736 
L 103.424118 241.530073 
L 104.700971 242.042522 
L 105.977823 242.349131 
L 107.254676 242.454086 
L 108.531529 242.362653 
L 109.808381 242.081109 
L 111.085234 241.616674 
L 112.362086 240.977439 
L 113.638939 240.172288 
L 114.915791 239.210822 
L 117.469497 236.860442 
L 120.023202 234.014341 
L 122.576907 230.766807 
L 126.407465 225.357389 
L 139.17599 206.545744 
L 141.729695 203.274973 
L 144.2834 200.325097 
L 146.837106 197.742679 
L 149.390811 195.562815 
L 151.944516 193.80902 
L 154.498221 192.493394 
L 157.051926 191.617042 
L 159.605631 191.170734 
L 162.159336 191.13576 
L 164.713042 191.484956 
L 167.266747 192.183869 
L 169.820452 193.19201 
L 172.374157 194.464189 
L 174.927862 195.951855 
L 178.75842 198.476578 
L 192.803798 208.213299 
L 196.634356 210.365071 
L 199.188061 211.572927 
L 201.741766 212.576677 
L 204.295471 213.363528 
L 206.849176 213.926602 
L 209.402881 214.264734 
L 211.956586 214.382142 
L 214.510292 214.287995 
L 217.063997 213.995888 
L 219.617702 213.523249 
L 223.44826 212.52159 
L 227.278817 211.240101 
L 232.386228 209.246545 
L 243.877901 204.570387 
L 247.708458 203.223423 
L 251.539016 202.078953 
L 255.369574 201.173254 
L 259.200131 200.527011 
L 263.030689 200.145669 
L 266.861247 200.020545 
L 270.691805 200.13057 
L 274.522362 200.444512 
L 279.629773 201.112409 
L 286.014035 202.199587 
L 298.782561 204.435865 
L 303.889971 205.111151 
L 308.997382 205.574621 
L 314.104792 205.802618 
L 319.212202 205.795864 
L 324.319612 205.576456 
L 330.703875 205.063566 
L 339.641843 204.081664 
L 352.410369 202.669879 
L 360.071484 202.064107 
L 366.455747 201.767321 
L 372.84001 201.664905 
L 380.501125 201.763796 
L 390.715946 202.140685 
L 409.868734 202.889525 
L 420.083555 203.018499 
L 422.63726 203.011676 
L 422.63726 203.011676 
" style="fill:none;stroke:#d62728;stroke-linecap:square;stroke-width:1.5;"/>
   </g>
   <g id="patch_9">
    <path d="M 39.58149 254.64351 
L 39.58149 138.512115 
" style="fill:none;stroke:#000000;stroke-linecap:square;stroke-linejoin:miter;stroke-width:0.8;"/>
   </g>
   <g id="patch_10">
    <path d="M 422.63726 254.64351 
L 422.63726 138.512115 
" style="fill:none;stroke:#000000;stroke-linecap:square;stroke-linejoin:miter;stroke-width:0.8;"/>
   </g>
   <g id="patch_11">
    <path d="M 39.58149 254.64351 
L 422.63726 254.64351 
" style="fill:none;stroke:#000000;stroke-linecap:square;stroke-linejoin:miter;stroke-width:0.8;"/>
   </g>
   <g id="patch_12">
    <path d="M 39.58149 138.512115 
L 422.63726 138.512115 
" style="fill:none;stroke:#000000;stroke-linecap:square;stroke-linejoin:miter;stroke-width:0.8;"/>
   </g>
  </g>
 </g>
 <defs>
  <clipPath id="p17049a7dde">
   <rect height="116.131395" width="383.05577" x="39.58149" y="6.50024"/>
  </clipPath>
  <clipPath id="p6bdf143b33">
   <rect height="116.131395" width="383.05577" x="39.58149" y="138.512115"/>
  </clipPath>
 </defs>
</svg>
