<?xml version="1.0" encoding="utf-8" standalone="no"?>
<!DOCTYPE svg PUBLIC "-//W3C//DTD SVG 1.1//EN"
  "http://www.w3.org/Graphics/SVG/1.1/DTD/svg11.dtd">
<!-- Created with matplotlib (https://matplotlib.org/) -->
<svg height="288pt" version="1.1" viewBox="0 0 432 288" width="432pt" xmlns="http://www.w3.org/2000/svg" xmlns:xlink="http://www.w3.org/1999/xlink">
 <defs>
  <style type="text/css">
*{stroke-linecap:butt;stroke-linejoin:round;}
  </style>
 </defs>
 <g id="figure_1">
  <g id="patch_1">
   <path d="M 0 288 
L 432 288 
L 432 0 
L 0 0 
z
" style="fill:#ffffff;"/>
  </g>
  <g id="axes_1">
   <g id="patch_2">
    <path d="M 39.58149 122.631635 
L 422.63726 122.631635 
L 422.63726 6.50024 
L 39.58149 6.50024 
z
" style="fill:#ffffff;"/>
   </g>
   <g id="matplotlib.axis_1">
    <g id="xtick_1">
     <g id="line2d_1">
      <defs>
       <path d="M 0 0 
L 0 3.5 
" id="m8eb0e47372" style="stroke:#000000;stroke-width:0.8;"/>
      </defs>
      <g>
       <use style="stroke:#000000;stroke-width:0.8;" x="39.58149" xlink:href="#m8eb0e47372" y="122.631635"/>
      </g>
     </g>
    </g>
    <g id="xtick_2">
     <g id="line2d_2">
      <g>
       <use style="stroke:#000000;stroke-width:0.8;" x="103.424118" xlink:href="#m8eb0e47372" y="122.631635"/>
      </g>
     </g>
    </g>
    <g id="xtick_3">
     <g id="line2d_3">
      <g>
       <use style="stroke:#000000;stroke-width:0.8;" x="167.266747" xlink:href="#m8eb0e47372" y="122.631635"/>
      </g>
     </g>
    </g>
    <g id="xtick_4">
     <g id="line2d_4">
      <g>
       <use style="stroke:#000000;stroke-width:0.8;" x="231.109375" xlink:href="#m8eb0e47372" y="122.631635"/>
      </g>
     </g>
    </g>
    <g id="xtick_5">
     <g id="line2d_5">
      <g>
       <use style="stroke:#000000;stroke-width:0.8;" x="294.952003" xlink:href="#m8eb0e47372" y="122.631635"/>
      </g>
     </g>
    </g>
    <g id="xtick_6">
     <g id="line2d_6">
      <g>
       <use style="stroke:#000000;stroke-width:0.8;" x="358.794632" xlink:href="#m8eb0e47372" y="122.631635"/>
      </g>
     </g>
    </g>
    <g id="xtick_7">
     <g id="line2d_7">
      <g>
       <use style="stroke:#000000;stroke-width:0.8;" x="422.63726" xlink:href="#m8eb0e47372" y="122.631635"/>
      </g>
     </g>
    </g>
   </g>
   <g id="matplotlib.axis_2">
    <g id="ytick_1">
     <g id="line2d_8">
      <defs>
       <path d="M 0 0 
L -3.5 0 
" id="mca6d3a325e" style="stroke:#000000;stroke-width:0.8;"/>
      </defs>
      <g>
       <use style="stroke:#000000;stroke-width:0.8;" x="39.58149" xlink:href="#mca6d3a325e" y="117.352935"/>
      </g>
     </g>
     <g id="text_1">
      <!-- 0.0 -->
      <defs>
       <path d="M 31.78125 66.40625 
Q 24.171875 66.40625 20.328125 58.90625 
Q 16.5 51.421875 16.5 36.375 
Q 16.5 21.390625 20.328125 13.890625 
Q 24.171875 6.390625 31.78125 6.390625 
Q 39.453125 6.390625 43.28125 13.890625 
Q 47.125 21.390625 47.125 36.375 
Q 47.125 51.421875 43.28125 58.90625 
Q 39.453125 66.40625 31.78125 66.40625 
z
M 31.78125 74.21875 
Q 44.046875 74.21875 50.515625 64.515625 
Q 56.984375 54.828125 56.984375 36.375 
Q 56.984375 17.96875 50.515625 8.265625 
Q 44.046875 -1.421875 31.78125 -1.421875 
Q 19.53125 -1.421875 13.0625 8.265625 
Q 6.59375 17.96875 6.59375 36.375 
Q 6.59375 54.828125 13.0625 64.515625 
Q 19.53125 74.21875 31.78125 74.21875 
z
" id="DejaVuSans-48"/>
       <path d="M 10.6875 12.40625 
L 21 12.40625 
L 21 0 
L 10.6875 0 
z
" id="DejaVuSans-46"/>
      </defs>
      <g transform="translate(16.678365 121.152154)scale(0.1 -0.1)">
       <use xlink:href="#DejaVuSans-48"/>
       <use x="63.623047" xlink:href="#DejaVuSans-46"/>
       <use x="95.410156" xlink:href="#DejaVuSans-48"/>
      </g>
     </g>
    </g>
    <g id="ytick_2">
     <g id="line2d_9">
      <g>
       <use style="stroke:#000000;stroke-width:0.8;" x="39.58149" xlink:href="#mca6d3a325e" y="73.24313"/>
      </g>
     </g>
     <g id="text_2">
      <!-- 0.5 -->
      <defs>
       <path d="M 10.796875 72.90625 
L 49.515625 72.90625 
L 49.515625 64.59375 
L 19.828125 64.59375 
L 19.828125 46.734375 
Q 21.96875 47.46875 24.109375 47.828125 
Q 26.265625 48.1875 28.421875 48.1875 
Q 40.625 48.1875 47.75 41.5 
Q 54.890625 34.8125 54.890625 23.390625 
Q 54.890625 11.625 47.5625 5.09375 
Q 40.234375 -1.421875 26.90625 -1.421875 
Q 22.3125 -1.421875 17.546875 -0.640625 
Q 12.796875 0.140625 7.71875 1.703125 
L 7.71875 11.625 
Q 12.109375 9.234375 16.796875 8.0625 
Q 21.484375 6.890625 26.703125 6.890625 
Q 35.15625 6.890625 40.078125 11.328125 
Q 45.015625 15.765625 45.015625 23.390625 
Q 45.015625 31 40.078125 35.4375 
Q 35.15625 39.890625 26.703125 39.890625 
Q 22.75 39.890625 18.8125 39.015625 
Q 14.890625 38.140625 10.796875 36.28125 
z
" id="DejaVuSans-53"/>
      </defs>
      <g transform="translate(16.678365 77.042349)scale(0.1 -0.1)">
       <use xlink:href="#DejaVuSans-48"/>
       <use x="63.623047" xlink:href="#DejaVuSans-46"/>
       <use x="95.410156" xlink:href="#DejaVuSans-53"/>
      </g>
     </g>
    </g>
    <g id="ytick_3">
     <g id="line2d_10">
      <g>
       <use style="stroke:#000000;stroke-width:0.8;" x="39.58149" xlink:href="#mca6d3a325e" y="29.133325"/>
      </g>
     </g>
     <g id="text_3">
      <!-- 1.0 -->
      <defs>
       <path d="M 12.40625 8.296875 
L 28.515625 8.296875 
L 28.515625 63.921875 
L 10.984375 60.40625 
L 10.984375 69.390625 
L 28.421875 72.90625 
L 38.28125 72.90625 
L 38.28125 8.296875 
L 54.390625 8.296875 
L 54.390625 0 
L 12.40625 0 
z
" id="DejaVuSans-49"/>
      </defs>
      <g transform="translate(16.678365 32.932543)scale(0.1 -0.1)">
       <use xlink:href="#DejaVuSans-49"/>
       <use x="63.623047" xlink:href="#DejaVuSans-46"/>
       <use x="95.410156" xlink:href="#DejaVuSans-48"/>
      </g>
     </g>
    </g>
    <g id="text_4">
     <!-- y(t) -->
     <defs>
      <path d="M 32.171875 -5.078125 
Q 28.375 -14.84375 24.75 -17.8125 
Q 21.140625 -20.796875 15.09375 -20.796875 
L 7.90625 -20.796875 
L 7.90625 -13.28125 
L 13.1875 -13.28125 
Q 16.890625 -13.28125 18.9375 -11.515625 
Q 21 -9.765625 23.484375 -3.21875 
L 25.09375 0.875 
L 2.984375 54.6875 
L 12.5 54.6875 
L 29.59375 11.921875 
L 46.6875 54.6875 
L 56.203125 54.6875 
z
" id="DejaVuSans-121"/>
      <path d="M 31 75.875 
Q 24.46875 64.65625 21.28125 53.65625 
Q 18.109375 42.671875 18.109375 31.390625 
Q 18.109375 20.125 21.3125 9.0625 
Q 24.515625 -2 31 -13.1875 
L 23.1875 -13.1875 
Q 15.875 -1.703125 12.234375 9.375 
Q 8.59375 20.453125 8.59375 31.390625 
Q 8.59375 42.28125 12.203125 53.3125 
Q 15.828125 64.359375 23.1875 75.875 
z
" id="DejaVuSans-40"/>
      <path d="M 18.3125 70.21875 
L 18.3125 54.6875 
L 36.8125 54.6875 
L 36.8125 47.703125 
L 18.3125 47.703125 
L 18.3125 18.015625 
Q 18.3125 11.328125 20.140625 9.421875 
Q 21.96875 7.515625 27.59375 7.515625 
L 36.8125 7.515625 
L 36.8125 0 
L 27.59375 0 
Q 17.1875 0 13.234375 3.875 
Q 9.28125 7.765625 9.28125 18.015625 
L 9.28125 47.703125 
L 2.6875 47.703125 
L 2.6875 54.6875 
L 9.28125 54.6875 
L 9.28125 70.21875 
z
" id="DejaVuSans-116"/>
      <path d="M 8.015625 75.875 
L 15.828125 75.875 
Q 23.140625 64.359375 26.78125 53.3125 
Q 30.421875 42.28125 30.421875 31.390625 
Q 30.421875 20.453125 26.78125 9.375 
Q 23.140625 -1.703125 15.828125 -13.1875 
L 8.015625 -13.1875 
Q 14.5 -2 17.703125 9.0625 
Q 20.90625 20.125 20.90625 31.390625 
Q 20.90625 42.671875 17.703125 53.65625 
Q 14.5 64.65625 8.015625 75.875 
z
" id="DejaVuSans-41"/>
     </defs>
     <g transform="translate(10.598677 73.387031)rotate(-90)scale(0.1 -0.1)">
      <use xlink:href="#DejaVuSans-121"/>
      <use x="59.179688" xlink:href="#DejaVuSans-40"/>
      <use x="98.193359" xlink:href="#DejaVuSans-116"/>
      <use x="137.402344" xlink:href="#DejaVuSans-41"/>
     </g>
    </g>
   </g>
   <g id="line2d_11">
    <path clip-path="url(#p0615883b6f)" d="M 39.58149 29.133325 
L 422.63726 29.133325 
L 422.63726 29.133325 
" style="fill:none;stroke:#000000;stroke-dasharray:4.44,1.92;stroke-dashoffset:0;stroke-width:1.2;"/>
   </g>
   <g id="line2d_12">
    <path clip-path="url(#p0615883b6f)" d="M 39.58149 117.352935 
L 44.6889 117.242934 
L 47.242605 116.873324 
L 48.519458 116.527803 
L 49.796311 116.04523 
L 51.073163 115.406226 
L 52.350016 114.594463 
L 53.626868 113.596923 
L 54.903721 112.403987 
L 56.180573 111.00941 
L 57.457426 109.410199 
L 58.734279 107.606442 
L 61.287984 103.399676 
L 63.841689 98.442429 
L 66.395394 92.821383 
L 68.949099 86.648254 
L 72.779657 76.638529 
L 84.27133 45.63971 
L 86.825035 39.40894 
L 89.37874 33.66223 
L 91.932445 28.485303 
L 94.48615 23.9469 
L 97.039855 20.098192 
L 98.316708 18.44362 
L 99.593561 16.97265 
L 100.870413 15.686752 
L 102.147266 14.586343 
L 103.424118 13.670826 
L 104.700971 12.938614 
L 105.977823 12.387178 
L 107.254676 12.013082 
L 108.531529 11.812036 
L 109.808381 11.77894 
L 111.085234 11.907939 
L 112.362086 12.192478 
L 113.638939 12.625361 
L 114.915791 13.198807 
L 117.469497 14.733708 
L 120.023202 16.725585 
L 122.576907 19.097444 
L 125.130612 21.768885 
L 128.96117 26.158727 
L 139.17599 38.236135 
L 141.729695 40.957822 
L 144.2834 43.443476 
L 146.837106 45.648563 
L 149.390811 47.53742 
L 151.944516 49.083489 
L 154.498221 50.269339 
L 157.051926 51.086494 
L 159.605631 51.535071 
L 162.159336 51.62326 
L 164.713042 51.366662 
L 167.266747 50.787495 
L 169.820452 49.913726 
L 172.374157 48.778106 
L 174.927862 47.417183 
L 178.75842 45.039875 
L 183.86583 41.460512 
L 194.080651 34.112785 
L 197.911208 31.662729 
L 201.741766 29.527856 
L 204.295471 28.312771 
L 206.849176 27.280596 
L 209.402881 26.440099 
L 211.956586 25.795451 
L 214.510292 25.346413 
L 217.063997 25.0886 
L 219.617702 25.013828 
L 222.171407 25.110512 
L 226.001965 25.544544 
L 229.832522 26.272216 
L 233.66308 27.226147 
L 238.77049 28.725505 
L 251.539016 32.585014 
L 256.646426 33.805871 
L 260.476984 34.507636 
L 264.307542 35.000901 
L 268.138099 35.276087 
L 271.968657 35.335065 
L 275.799215 35.190038 
L 279.629773 34.862035 
L 284.737183 34.189344 
L 291.121446 33.084092 
L 308.997382 29.77708 
L 315.381644 28.936402 
L 320.489055 28.484054 
L 325.596465 28.238404 
L 330.703875 28.190417 
L 337.088138 28.370452 
L 344.749253 28.842123 
L 369.009452 30.587765 
L 376.670568 30.82138 
L 384.331683 30.828066 
L 393.269651 30.588168 
L 406.038177 29.97566 
L 422.63726 29.211246 
L 422.63726 29.211246 
" style="fill:none;stroke:#1f77b4;stroke-linecap:square;stroke-width:1.5;"/>
   </g>
   <g id="line2d_13">
    <path clip-path="url(#p0615883b6f)" d="M 39.58149 117.352935 
L 44.6889 117.282003 
L 47.242605 117.042886 
L 49.796311 116.505239 
L 52.350016 115.559549 
L 53.626868 114.907227 
L 54.903721 114.125266 
L 56.180573 113.208798 
L 58.734279 110.9629 
L 61.287984 108.16895 
L 63.841689 104.852235 
L 66.395394 101.058684 
L 68.949099 96.849676 
L 72.779657 89.916621 
L 77.887067 79.934977 
L 86.825035 62.214811 
L 90.655593 55.135073 
L 94.48615 48.635566 
L 97.039855 44.692831 
L 99.593561 41.097788 
L 102.147266 37.871703 
L 104.700971 35.028053 
L 107.254676 32.572951 
L 109.808381 30.50568 
L 112.362086 28.819287 
L 114.915791 27.501248 
L 117.469497 26.53416 
L 120.023202 25.896458 
L 122.576907 25.563144 
L 125.130612 25.506505 
L 127.684317 25.696814 
L 130.238022 26.103004 
L 132.791727 26.693309 
L 136.622285 27.854352 
L 140.452843 29.252783 
L 148.113958 32.372307 
L 154.498221 34.903458 
L 159.605631 36.665695 
L 163.436189 37.763405 
L 167.266747 38.63711 
L 171.097304 39.271596 
L 174.927862 39.663082 
L 178.75842 39.817843 
L 182.588977 39.750654 
L 186.419535 39.48311 
L 191.526945 38.861403 
L 196.634356 38.003445 
L 204.295471 36.440402 
L 220.894554 32.940375 
L 227.278817 31.846404 
L 233.66308 30.981471 
L 240.047343 30.361071 
L 246.431606 29.975337 
L 252.815869 29.795107 
L 260.476984 29.790806 
L 271.968657 30.045534 
L 294.952003 30.62018 
L 307.720529 30.6629 
L 321.765907 30.461358 
L 375.393715 29.412511 
L 399.653914 29.363469 
L 422.63726 29.382843 
L 422.63726 29.382843 
" style="fill:none;stroke:#ff7f0e;stroke-linecap:square;stroke-width:1.5;"/>
   </g>
   <g id="line2d_14">
    <path clip-path="url(#p0615883b6f)" d="M 39.58149 117.352935 
L 43.412048 117.310242 
L 45.965753 117.070563 
L 47.242605 116.810519 
L 48.519458 116.42171 
L 49.796311 115.880284 
L 51.073163 115.165562 
L 52.350016 114.26054 
L 53.626868 113.152144 
L 54.903721 111.831306 
L 56.180573 110.292895 
L 57.457426 108.535553 
L 58.734279 106.561461 
L 61.287984 101.987723 
L 63.841689 96.648611 
L 66.395394 90.657827 
L 68.949099 84.155663 
L 72.779657 73.790503 
L 79.16392 56.268465 
L 82.994477 46.480157 
L 85.548182 40.546559 
L 88.101888 35.218332 
L 90.655593 30.585137 
L 93.209298 26.714478 
L 94.48615 25.079995 
L 95.763003 23.651183 
L 97.039855 22.430128 
L 98.316708 21.417543 
L 99.593561 20.612814 
L 100.870413 20.014034 
L 102.147266 19.618058 
L 103.424118 19.42056 
L 104.700971 19.416092 
L 105.977823 19.598153 
L 107.254676 19.959265 
L 108.531529 20.491042 
L 109.808381 21.184277 
L 111.085234 22.029021 
L 113.638939 24.13004 
L 116.192644 26.70294 
L 118.746349 29.650247 
L 122.576907 34.551994 
L 132.791727 48.086452 
L 135.345432 51.091247 
L 137.899138 53.796905 
L 140.452843 56.148315 
L 143.006548 58.102444 
L 145.560253 59.628698 
L 148.113958 60.708952 
L 150.667663 61.337273 
L 153.221368 61.51935 
L 155.775074 61.271678 
L 158.328779 60.620512 
L 160.882484 59.600647 
L 163.436189 58.254056 
L 165.989894 56.628426 
L 168.543599 54.775644 
L 172.374157 51.690245 
L 185.142683 40.95397 
L 188.97324 38.22167 
L 191.526945 36.64198 
L 194.080651 35.284078 
L 196.634356 34.164587 
L 199.188061 33.293295 
L 201.741766 32.673318 
L 204.295471 32.301403 
L 206.849176 32.168391 
L 209.402881 32.259778 
L 211.956586 32.556395 
L 214.510292 33.035148 
L 218.340849 34.036794 
L 222.171407 35.2915 
L 228.55567 37.666878 
L 234.939933 40.002702 
L 238.77049 41.21981 
L 242.601048 42.216983 
L 246.431606 42.947875 
L 250.262163 43.384949 
L 254.092721 43.519366 
L 257.923279 43.359843 
L 261.753837 42.930664 
L 265.584394 42.268991 
L 270.691805 41.107132 
L 277.076067 39.386054 
L 287.290888 36.607369 
L 292.398298 35.44313 
L 297.505708 34.533568 
L 301.336266 34.043456 
L 305.166824 33.724085 
L 310.274234 33.554034 
L 315.381644 33.643108 
L 321.765907 34.033658 
L 331.980728 34.983114 
L 340.918696 35.762445 
L 347.302959 36.118956 
L 353.687221 36.241381 
L 360.071484 36.117434 
L 366.455747 35.77355 
L 375.393715 35.032481 
L 395.823356 33.207703 
L 403.484471 32.778338 
L 411.145587 32.554494 
L 420.083555 32.521956 
L 422.63726 32.546788 
L 422.63726 32.546788 
" style="fill:none;stroke:#2ca02c;stroke-linecap:square;stroke-width:1.5;"/>
   </g>
   <g id="line2d_15">
    <path clip-path="url(#p0615883b6f)" d="M 39.58149 117.352935 
L 43.412048 117.313272 
L 45.965753 117.090319 
L 47.242605 116.848172 
L 48.519458 116.485819 
L 49.796311 115.980794 
L 51.073163 115.313512 
L 52.350016 114.467742 
L 53.626868 113.430859 
L 54.903721 112.193911 
L 56.180573 110.751571 
L 57.457426 109.101986 
L 58.734279 107.246571 
L 61.287984 102.938674 
L 63.841689 97.894276 
L 66.395394 92.214001 
L 68.949099 86.023437 
L 72.779657 76.093877 
L 81.717625 52.555822 
L 84.27133 46.376481 
L 86.825035 40.66431 
L 89.37874 35.515767 
L 91.932445 31.0086 
L 94.48615 27.200997 
L 95.763003 25.572291 
L 97.039855 24.131322 
L 98.316708 22.87983 
L 99.593561 21.818379 
L 100.870413 20.946383 
L 102.147266 20.262152 
L 103.424118 19.762932 
L 104.700971 19.444957 
L 105.977823 19.303503 
L 107.254676 19.332947 
L 108.531529 19.526828 
L 109.808381 19.877913 
L 111.085234 20.378264 
L 112.362086 21.019307 
L 114.915791 22.686433 
L 117.469497 24.800739 
L 120.023202 27.278151 
L 122.576907 30.031393 
L 126.407465 34.48569 
L 134.06858 43.518715 
L 137.899138 47.589074 
L 140.452843 49.994566 
L 143.006548 52.098074 
L 145.560253 53.863279 
L 148.113958 55.264154 
L 150.667663 56.284932 
L 153.221368 56.91984 
L 155.775074 57.172612 
L 158.328779 57.05581 
L 160.882484 56.589981 
L 163.436189 55.802676 
L 165.989894 54.727369 
L 168.543599 53.402301 
L 171.097304 51.869287 
L 174.927862 49.276867 
L 181.312125 44.552363 
L 187.696388 39.906017 
L 191.526945 37.399014 
L 195.357503 35.223018 
L 197.911208 33.991515 
L 200.464913 32.952334 
L 203.018619 32.114067 
L 205.572324 31.480119 
L 208.126029 31.048954 
L 210.679734 30.814432 
L 213.233439 30.766241 
L 215.787144 30.890394 
L 219.617702 31.361649 
L 223.44826 32.113877 
L 228.55567 33.422315 
L 243.877901 37.714615 
L 247.708458 38.5269 
L 251.539016 39.142413 
L 255.369574 39.538085 
L 259.200131 39.704591 
L 263.030689 39.645569 
L 266.861247 39.376241 
L 270.691805 38.921553 
L 275.799215 38.083895 
L 282.183478 36.7935 
L 296.228856 33.860838 
L 302.613119 32.826052 
L 307.720529 32.225034 
L 312.827939 31.843439 
L 317.93535 31.675144 
L 324.319612 31.726482 
L 331.980728 32.068246 
L 356.240927 33.422996 
L 363.902042 33.508349 
L 371.563157 33.358487 
L 380.501125 32.940273 
L 414.976145 31.016741 
L 422.63726 30.864856 
L 422.63726 30.864856 
" style="fill:none;stroke:#d62728;stroke-linecap:square;stroke-width:1.5;"/>
   </g>
   <g id="patch_3">
    <path d="M 39.58149 122.631635 
L 39.58149 6.50024 
" style="fill:none;stroke:#000000;stroke-linecap:square;stroke-linejoin:miter;stroke-width:0.8;"/>
   </g>
   <g id="patch_4">
    <path d="M 422.63726 122.631635 
L 422.63726 6.50024 
" style="fill:none;stroke:#000000;stroke-linecap:square;stroke-linejoin:miter;stroke-width:0.8;"/>
   </g>
   <g id="patch_5">
    <path d="M 39.58149 122.631635 
L 422.63726 122.631635 
" style="fill:none;stroke:#000000;stroke-linecap:square;stroke-linejoin:miter;stroke-width:0.8;"/>
   </g>
   <g id="patch_6">
    <path d="M 39.58149 6.50024 
L 422.63726 6.50024 
" style="fill:none;stroke:#000000;stroke-linecap:square;stroke-linejoin:miter;stroke-width:0.8;"/>
   </g>
   <g id="legend_1">
    <g id="patch_7">
     <path d="M 308.665385 117.631635 
L 415.63726 117.631635 
Q 417.63726 117.631635 417.63726 115.631635 
L 417.63726 57.919135 
Q 417.63726 55.919135 415.63726 55.919135 
L 308.665385 55.919135 
Q 306.665385 55.919135 306.665385 57.919135 
L 306.665385 115.631635 
Q 306.665385 117.631635 308.665385 117.631635 
z
" style="fill:#ffffff;opacity:0.8;stroke:#cccccc;stroke-linejoin:miter;"/>
    </g>
    <g id="line2d_16">
     <path d="M 310.665385 64.017572 
L 330.665385 64.017572 
" style="fill:none;stroke:#1f77b4;stroke-linecap:square;stroke-width:1.5;"/>
    </g>
    <g id="line2d_17"/>
    <g id="text_5">
     <!-- PSO -->
     <defs>
      <path d="M 19.671875 64.796875 
L 19.671875 37.40625 
L 32.078125 37.40625 
Q 38.96875 37.40625 42.71875 40.96875 
Q 46.484375 44.53125 46.484375 51.125 
Q 46.484375 57.671875 42.71875 61.234375 
Q 38.96875 64.796875 32.078125 64.796875 
z
M 9.8125 72.90625 
L 32.078125 72.90625 
Q 44.34375 72.90625 50.609375 67.359375 
Q 56.890625 61.8125 56.890625 51.125 
Q 56.890625 40.328125 50.609375 34.8125 
Q 44.34375 29.296875 32.078125 29.296875 
L 19.671875 29.296875 
L 19.671875 0 
L 9.8125 0 
z
" id="DejaVuSans-80"/>
      <path d="M 53.515625 70.515625 
L 53.515625 60.890625 
Q 47.90625 63.578125 42.921875 64.890625 
Q 37.9375 66.21875 33.296875 66.21875 
Q 25.25 66.21875 20.875 63.09375 
Q 16.5 59.96875 16.5 54.203125 
Q 16.5 49.359375 19.40625 46.890625 
Q 22.3125 44.4375 30.421875 42.921875 
L 36.375 41.703125 
Q 47.40625 39.59375 52.65625 34.296875 
Q 57.90625 29 57.90625 20.125 
Q 57.90625 9.515625 50.796875 4.046875 
Q 43.703125 -1.421875 29.984375 -1.421875 
Q 24.8125 -1.421875 18.96875 -0.25 
Q 13.140625 0.921875 6.890625 3.21875 
L 6.890625 13.375 
Q 12.890625 10.015625 18.65625 8.296875 
Q 24.421875 6.59375 29.984375 6.59375 
Q 38.421875 6.59375 43.015625 9.90625 
Q 47.609375 13.234375 47.609375 19.390625 
Q 47.609375 24.75 44.3125 27.78125 
Q 41.015625 30.8125 33.5 32.328125 
L 27.484375 33.5 
Q 16.453125 35.6875 11.515625 40.375 
Q 6.59375 45.0625 6.59375 53.421875 
Q 6.59375 63.09375 13.40625 68.65625 
Q 20.21875 74.21875 32.171875 74.21875 
Q 37.3125 74.21875 42.625 73.28125 
Q 47.953125 72.359375 53.515625 70.515625 
z
" id="DejaVuSans-83"/>
      <path d="M 39.40625 66.21875 
Q 28.65625 66.21875 22.328125 58.203125 
Q 16.015625 50.203125 16.015625 36.375 
Q 16.015625 22.609375 22.328125 14.59375 
Q 28.65625 6.59375 39.40625 6.59375 
Q 50.140625 6.59375 56.421875 14.59375 
Q 62.703125 22.609375 62.703125 36.375 
Q 62.703125 50.203125 56.421875 58.203125 
Q 50.140625 66.21875 39.40625 66.21875 
z
M 39.40625 74.21875 
Q 54.734375 74.21875 63.90625 63.9375 
Q 73.09375 53.65625 73.09375 36.375 
Q 73.09375 19.140625 63.90625 8.859375 
Q 54.734375 -1.421875 39.40625 -1.421875 
Q 24.03125 -1.421875 14.8125 8.828125 
Q 5.609375 19.09375 5.609375 36.375 
Q 5.609375 53.65625 14.8125 63.9375 
Q 24.03125 74.21875 39.40625 74.21875 
z
" id="DejaVuSans-79"/>
     </defs>
     <g transform="translate(338.665385 67.517572)scale(0.1 -0.1)">
      <use xlink:href="#DejaVuSans-80"/>
      <use x="60.302734" xlink:href="#DejaVuSans-83"/>
      <use x="123.779297" xlink:href="#DejaVuSans-79"/>
     </g>
    </g>
    <g id="line2d_18">
     <path d="M 310.665385 78.695697 
L 330.665385 78.695697 
" style="fill:none;stroke:#ff7f0e;stroke-linecap:square;stroke-width:1.5;"/>
    </g>
    <g id="line2d_19"/>
    <g id="text_6">
     <!-- IMC -->
     <defs>
      <path d="M 9.8125 72.90625 
L 19.671875 72.90625 
L 19.671875 0 
L 9.8125 0 
z
" id="DejaVuSans-73"/>
      <path d="M 9.8125 72.90625 
L 24.515625 72.90625 
L 43.109375 23.296875 
L 61.8125 72.90625 
L 76.515625 72.90625 
L 76.515625 0 
L 66.890625 0 
L 66.890625 64.015625 
L 48.09375 14.015625 
L 38.1875 14.015625 
L 19.390625 64.015625 
L 19.390625 0 
L 9.8125 0 
z
" id="DejaVuSans-77"/>
      <path d="M 64.40625 67.28125 
L 64.40625 56.890625 
Q 59.421875 61.53125 53.78125 63.8125 
Q 48.140625 66.109375 41.796875 66.109375 
Q 29.296875 66.109375 22.65625 58.46875 
Q 16.015625 50.828125 16.015625 36.375 
Q 16.015625 21.96875 22.65625 14.328125 
Q 29.296875 6.6875 41.796875 6.6875 
Q 48.140625 6.6875 53.78125 8.984375 
Q 59.421875 11.28125 64.40625 15.921875 
L 64.40625 5.609375 
Q 59.234375 2.09375 53.4375 0.328125 
Q 47.65625 -1.421875 41.21875 -1.421875 
Q 24.65625 -1.421875 15.125 8.703125 
Q 5.609375 18.84375 5.609375 36.375 
Q 5.609375 53.953125 15.125 64.078125 
Q 24.65625 74.21875 41.21875 74.21875 
Q 47.75 74.21875 53.53125 72.484375 
Q 59.328125 70.75 64.40625 67.28125 
z
" id="DejaVuSans-67"/>
     </defs>
     <g transform="translate(338.665385 82.195697)scale(0.1 -0.1)">
      <use xlink:href="#DejaVuSans-73"/>
      <use x="29.492188" xlink:href="#DejaVuSans-77"/>
      <use x="115.771484" xlink:href="#DejaVuSans-67"/>
     </g>
    </g>
    <g id="line2d_20">
     <path d="M 310.665385 93.373822 
L 330.665385 93.373822 
" style="fill:none;stroke:#2ca02c;stroke-linecap:square;stroke-width:1.5;"/>
    </g>
    <g id="line2d_21"/>
    <g id="text_7">
     <!-- Ziegler-Nichols -->
     <defs>
      <path d="M 5.609375 72.90625 
L 62.890625 72.90625 
L 62.890625 65.375 
L 16.796875 8.296875 
L 64.015625 8.296875 
L 64.015625 0 
L 4.5 0 
L 4.5 7.515625 
L 50.59375 64.59375 
L 5.609375 64.59375 
z
" id="DejaVuSans-90"/>
      <path d="M 9.421875 54.6875 
L 18.40625 54.6875 
L 18.40625 0 
L 9.421875 0 
z
M 9.421875 75.984375 
L 18.40625 75.984375 
L 18.40625 64.59375 
L 9.421875 64.59375 
z
" id="DejaVuSans-105"/>
      <path d="M 56.203125 29.59375 
L 56.203125 25.203125 
L 14.890625 25.203125 
Q 15.484375 15.921875 20.484375 11.0625 
Q 25.484375 6.203125 34.421875 6.203125 
Q 39.59375 6.203125 44.453125 7.46875 
Q 49.3125 8.734375 54.109375 11.28125 
L 54.109375 2.78125 
Q 49.265625 0.734375 44.1875 -0.34375 
Q 39.109375 -1.421875 33.890625 -1.421875 
Q 20.796875 -1.421875 13.15625 6.1875 
Q 5.515625 13.8125 5.515625 26.8125 
Q 5.515625 40.234375 12.765625 48.109375 
Q 20.015625 56 32.328125 56 
Q 43.359375 56 49.78125 48.890625 
Q 56.203125 41.796875 56.203125 29.59375 
z
M 47.21875 32.234375 
Q 47.125 39.59375 43.09375 43.984375 
Q 39.0625 48.390625 32.421875 48.390625 
Q 24.90625 48.390625 20.390625 44.140625 
Q 15.875 39.890625 15.1875 32.171875 
z
" id="DejaVuSans-101"/>
      <path d="M 45.40625 27.984375 
Q 45.40625 37.75 41.375 43.109375 
Q 37.359375 48.484375 30.078125 48.484375 
Q 22.859375 48.484375 18.828125 43.109375 
Q 14.796875 37.75 14.796875 27.984375 
Q 14.796875 18.265625 18.828125 12.890625 
Q 22.859375 7.515625 30.078125 7.515625 
Q 37.359375 7.515625 41.375 12.890625 
Q 45.40625 18.265625 45.40625 27.984375 
z
M 54.390625 6.78125 
Q 54.390625 -7.171875 48.1875 -13.984375 
Q 42 -20.796875 29.203125 -20.796875 
Q 24.46875 -20.796875 20.265625 -20.09375 
Q 16.0625 -19.390625 12.109375 -17.921875 
L 12.109375 -9.1875 
Q 16.0625 -11.328125 19.921875 -12.34375 
Q 23.78125 -13.375 27.78125 -13.375 
Q 36.625 -13.375 41.015625 -8.765625 
Q 45.40625 -4.15625 45.40625 5.171875 
L 45.40625 9.625 
Q 42.625 4.78125 38.28125 2.390625 
Q 33.9375 0 27.875 0 
Q 17.828125 0 11.671875 7.65625 
Q 5.515625 15.328125 5.515625 27.984375 
Q 5.515625 40.671875 11.671875 48.328125 
Q 17.828125 56 27.875 56 
Q 33.9375 56 38.28125 53.609375 
Q 42.625 51.21875 45.40625 46.390625 
L 45.40625 54.6875 
L 54.390625 54.6875 
z
" id="DejaVuSans-103"/>
      <path d="M 9.421875 75.984375 
L 18.40625 75.984375 
L 18.40625 0 
L 9.421875 0 
z
" id="DejaVuSans-108"/>
      <path d="M 41.109375 46.296875 
Q 39.59375 47.171875 37.8125 47.578125 
Q 36.03125 48 33.890625 48 
Q 26.265625 48 22.1875 43.046875 
Q 18.109375 38.09375 18.109375 28.8125 
L 18.109375 0 
L 9.078125 0 
L 9.078125 54.6875 
L 18.109375 54.6875 
L 18.109375 46.1875 
Q 20.953125 51.171875 25.484375 53.578125 
Q 30.03125 56 36.53125 56 
Q 37.453125 56 38.578125 55.875 
Q 39.703125 55.765625 41.0625 55.515625 
z
" id="DejaVuSans-114"/>
      <path d="M 4.890625 31.390625 
L 31.203125 31.390625 
L 31.203125 23.390625 
L 4.890625 23.390625 
z
" id="DejaVuSans-45"/>
      <path d="M 9.8125 72.90625 
L 23.09375 72.90625 
L 55.421875 11.921875 
L 55.421875 72.90625 
L 64.984375 72.90625 
L 64.984375 0 
L 51.703125 0 
L 19.390625 60.984375 
L 19.390625 0 
L 9.8125 0 
z
" id="DejaVuSans-78"/>
      <path d="M 48.78125 52.59375 
L 48.78125 44.1875 
Q 44.96875 46.296875 41.140625 47.34375 
Q 37.3125 48.390625 33.40625 48.390625 
Q 24.65625 48.390625 19.8125 42.84375 
Q 14.984375 37.3125 14.984375 27.296875 
Q 14.984375 17.28125 19.8125 11.734375 
Q 24.65625 6.203125 33.40625 6.203125 
Q 37.3125 6.203125 41.140625 7.25 
Q 44.96875 8.296875 48.78125 10.40625 
L 48.78125 2.09375 
Q 45.015625 0.34375 40.984375 -0.53125 
Q 36.96875 -1.421875 32.421875 -1.421875 
Q 20.0625 -1.421875 12.78125 6.34375 
Q 5.515625 14.109375 5.515625 27.296875 
Q 5.515625 40.671875 12.859375 48.328125 
Q 20.21875 56 33.015625 56 
Q 37.15625 56 41.109375 55.140625 
Q 45.0625 54.296875 48.78125 52.59375 
z
" id="DejaVuSans-99"/>
      <path d="M 54.890625 33.015625 
L 54.890625 0 
L 45.90625 0 
L 45.90625 32.71875 
Q 45.90625 40.484375 42.875 44.328125 
Q 39.84375 48.1875 33.796875 48.1875 
Q 26.515625 48.1875 22.3125 43.546875 
Q 18.109375 38.921875 18.109375 30.90625 
L 18.109375 0 
L 9.078125 0 
L 9.078125 75.984375 
L 18.109375 75.984375 
L 18.109375 46.1875 
Q 21.34375 51.125 25.703125 53.5625 
Q 30.078125 56 35.796875 56 
Q 45.21875 56 50.046875 50.171875 
Q 54.890625 44.34375 54.890625 33.015625 
z
" id="DejaVuSans-104"/>
      <path d="M 30.609375 48.390625 
Q 23.390625 48.390625 19.1875 42.75 
Q 14.984375 37.109375 14.984375 27.296875 
Q 14.984375 17.484375 19.15625 11.84375 
Q 23.34375 6.203125 30.609375 6.203125 
Q 37.796875 6.203125 41.984375 11.859375 
Q 46.1875 17.53125 46.1875 27.296875 
Q 46.1875 37.015625 41.984375 42.703125 
Q 37.796875 48.390625 30.609375 48.390625 
z
M 30.609375 56 
Q 42.328125 56 49.015625 48.375 
Q 55.71875 40.765625 55.71875 27.296875 
Q 55.71875 13.875 49.015625 6.21875 
Q 42.328125 -1.421875 30.609375 -1.421875 
Q 18.84375 -1.421875 12.171875 6.21875 
Q 5.515625 13.875 5.515625 27.296875 
Q 5.515625 40.765625 12.171875 48.375 
Q 18.84375 56 30.609375 56 
z
" id="DejaVuSans-111"/>
      <path d="M 44.28125 53.078125 
L 44.28125 44.578125 
Q 40.484375 46.53125 36.375 47.5 
Q 32.28125 48.484375 27.875 48.484375 
Q 21.1875 48.484375 17.84375 46.4375 
Q 14.5 44.390625 14.5 40.28125 
Q 14.5 37.15625 16.890625 35.375 
Q 19.28125 33.59375 26.515625 31.984375 
L 29.59375 31.296875 
Q 39.15625 29.25 43.1875 25.515625 
Q 47.21875 21.78125 47.21875 15.09375 
Q 47.21875 7.46875 41.1875 3.015625 
Q 35.15625 -1.421875 24.609375 -1.421875 
Q 20.21875 -1.421875 15.453125 -0.5625 
Q 10.6875 0.296875 5.421875 2 
L 5.421875 11.28125 
Q 10.40625 8.6875 15.234375 7.390625 
Q 20.0625 6.109375 24.8125 6.109375 
Q 31.15625 6.109375 34.5625 8.28125 
Q 37.984375 10.453125 37.984375 14.40625 
Q 37.984375 18.0625 35.515625 20.015625 
Q 33.0625 21.96875 24.703125 23.78125 
L 21.578125 24.515625 
Q 13.234375 26.265625 9.515625 29.90625 
Q 5.8125 33.546875 5.8125 39.890625 
Q 5.8125 47.609375 11.28125 51.796875 
Q 16.75 56 26.8125 56 
Q 31.78125 56 36.171875 55.265625 
Q 40.578125 54.546875 44.28125 53.078125 
z
" id="DejaVuSans-115"/>
     </defs>
     <g transform="translate(338.665385 96.873822)scale(0.1 -0.1)">
      <use xlink:href="#DejaVuSans-90"/>
      <use x="68.505859" xlink:href="#DejaVuSans-105"/>
      <use x="96.289062" xlink:href="#DejaVuSans-101"/>
      <use x="157.8125" xlink:href="#DejaVuSans-103"/>
      <use x="221.289062" xlink:href="#DejaVuSans-108"/>
      <use x="249.072266" xlink:href="#DejaVuSans-101"/>
      <use x="310.595703" xlink:href="#DejaVuSans-114"/>
      <use x="351.615234" xlink:href="#DejaVuSans-45"/>
      <use x="387.699219" xlink:href="#DejaVuSans-78"/>
      <use x="462.503906" xlink:href="#DejaVuSans-105"/>
      <use x="490.287109" xlink:href="#DejaVuSans-99"/>
      <use x="545.267578" xlink:href="#DejaVuSans-104"/>
      <use x="608.646484" xlink:href="#DejaVuSans-111"/>
      <use x="669.828125" xlink:href="#DejaVuSans-108"/>
      <use x="697.611328" xlink:href="#DejaVuSans-115"/>
     </g>
    </g>
    <g id="line2d_22">
     <path d="M 310.665385 108.051947 
L 330.665385 108.051947 
" style="fill:none;stroke:#d62728;stroke-linecap:square;stroke-width:1.5;"/>
    </g>
    <g id="line2d_23"/>
    <g id="text_8">
     <!-- SIMC -->
     <g transform="translate(338.665385 111.551947)scale(0.1 -0.1)">
      <use xlink:href="#DejaVuSans-83"/>
      <use x="63.476562" xlink:href="#DejaVuSans-73"/>
      <use x="92.96875" xlink:href="#DejaVuSans-77"/>
      <use x="179.248047" xlink:href="#DejaVuSans-67"/>
     </g>
    </g>
   </g>
  </g>
  <g id="axes_2">
   <g id="patch_8">
    <path d="M 39.58149 254.64351 
L 422.63726 254.64351 
L 422.63726 138.512115 
L 39.58149 138.512115 
z
" style="fill:#ffffff;"/>
   </g>
   <g id="matplotlib.axis_3">
    <g id="xtick_8">
     <g id="line2d_24">
      <g>
       <use style="stroke:#000000;stroke-width:0.8;" x="39.58149" xlink:href="#m8eb0e47372" y="254.64351"/>
      </g>
     </g>
     <g id="text_9">
      <!-- 0 -->
      <g transform="translate(36.40024 269.241947)scale(0.1 -0.1)">
       <use xlink:href="#DejaVuSans-48"/>
      </g>
     </g>
    </g>
    <g id="xtick_9">
     <g id="line2d_25">
      <g>
       <use style="stroke:#000000;stroke-width:0.8;" x="103.424118" xlink:href="#m8eb0e47372" y="254.64351"/>
      </g>
     </g>
     <g id="text_10">
      <!-- 5 -->
      <g transform="translate(100.242868 269.241947)scale(0.1 -0.1)">
       <use xlink:href="#DejaVuSans-53"/>
      </g>
     </g>
    </g>
    <g id="xtick_10">
     <g id="line2d_26">
      <g>
       <use style="stroke:#000000;stroke-width:0.8;" x="167.266747" xlink:href="#m8eb0e47372" y="254.64351"/>
      </g>
     </g>
     <g id="text_11">
      <!-- 10 -->
      <g transform="translate(160.904247 269.241947)scale(0.1 -0.1)">
       <use xlink:href="#DejaVuSans-49"/>
       <use x="63.623047" xlink:href="#DejaVuSans-48"/>
      </g>
     </g>
    </g>
    <g id="xtick_11">
     <g id="line2d_27">
      <g>
       <use style="stroke:#000000;stroke-width:0.8;" x="231.109375" xlink:href="#m8eb0e47372" y="254.64351"/>
      </g>
     </g>
     <g id="text_12">
      <!-- 15 -->
      <g transform="translate(224.746875 269.241947)scale(0.1 -0.1)">
       <use xlink:href="#DejaVuSans-49"/>
       <use x="63.623047" xlink:href="#DejaVuSans-53"/>
      </g>
     </g>
    </g>
    <g id="xtick_12">
     <g id="line2d_28">
      <g>
       <use style="stroke:#000000;stroke-width:0.8;" x="294.952003" xlink:href="#m8eb0e47372" y="254.64351"/>
      </g>
     </g>
     <g id="text_13">
      <!-- 20 -->
      <defs>
       <path d="M 19.1875 8.296875 
L 53.609375 8.296875 
L 53.609375 0 
L 7.328125 0 
L 7.328125 8.296875 
Q 12.9375 14.109375 22.625 23.890625 
Q 32.328125 33.6875 34.8125 36.53125 
Q 39.546875 41.84375 41.421875 45.53125 
Q 43.3125 49.21875 43.3125 52.78125 
Q 43.3125 58.59375 39.234375 62.25 
Q 35.15625 65.921875 28.609375 65.921875 
Q 23.96875 65.921875 18.8125 64.3125 
Q 13.671875 62.703125 7.8125 59.421875 
L 7.8125 69.390625 
Q 13.765625 71.78125 18.9375 73 
Q 24.125 74.21875 28.421875 74.21875 
Q 39.75 74.21875 46.484375 68.546875 
Q 53.21875 62.890625 53.21875 53.421875 
Q 53.21875 48.921875 51.53125 44.890625 
Q 49.859375 40.875 45.40625 35.40625 
Q 44.1875 33.984375 37.640625 27.21875 
Q 31.109375 20.453125 19.1875 8.296875 
z
" id="DejaVuSans-50"/>
      </defs>
      <g transform="translate(288.589503 269.241947)scale(0.1 -0.1)">
       <use xlink:href="#DejaVuSans-50"/>
       <use x="63.623047" xlink:href="#DejaVuSans-48"/>
      </g>
     </g>
    </g>
    <g id="xtick_13">
     <g id="line2d_29">
      <g>
       <use style="stroke:#000000;stroke-width:0.8;" x="358.794632" xlink:href="#m8eb0e47372" y="254.64351"/>
      </g>
     </g>
     <g id="text_14">
      <!-- 25 -->
      <g transform="translate(352.432132 269.241947)scale(0.1 -0.1)">
       <use xlink:href="#DejaVuSans-50"/>
       <use x="63.623047" xlink:href="#DejaVuSans-53"/>
      </g>
     </g>
    </g>
    <g id="xtick_14">
     <g id="line2d_30">
      <g>
       <use style="stroke:#000000;stroke-width:0.8;" x="422.63726" xlink:href="#m8eb0e47372" y="254.64351"/>
      </g>
     </g>
     <g id="text_15">
      <!-- 30 -->
      <defs>
       <path d="M 40.578125 39.3125 
Q 47.65625 37.796875 51.625 33 
Q 55.609375 28.21875 55.609375 21.1875 
Q 55.609375 10.40625 48.1875 4.484375 
Q 40.765625 -1.421875 27.09375 -1.421875 
Q 22.515625 -1.421875 17.65625 -0.515625 
Q 12.796875 0.390625 7.625 2.203125 
L 7.625 11.71875 
Q 11.71875 9.328125 16.59375 8.109375 
Q 21.484375 6.890625 26.8125 6.890625 
Q 36.078125 6.890625 40.9375 10.546875 
Q 45.796875 14.203125 45.796875 21.1875 
Q 45.796875 27.640625 41.28125 31.265625 
Q 36.765625 34.90625 28.71875 34.90625 
L 20.21875 34.90625 
L 20.21875 43.015625 
L 29.109375 43.015625 
Q 36.375 43.015625 40.234375 45.921875 
Q 44.09375 48.828125 44.09375 54.296875 
Q 44.09375 59.90625 40.109375 62.90625 
Q 36.140625 65.921875 28.71875 65.921875 
Q 24.65625 65.921875 20.015625 65.03125 
Q 15.375 64.15625 9.8125 62.3125 
L 9.8125 71.09375 
Q 15.4375 72.65625 20.34375 73.4375 
Q 25.25 74.21875 29.59375 74.21875 
Q 40.828125 74.21875 47.359375 69.109375 
Q 53.90625 64.015625 53.90625 55.328125 
Q 53.90625 49.265625 50.4375 45.09375 
Q 46.96875 40.921875 40.578125 39.3125 
z
" id="DejaVuSans-51"/>
      </defs>
      <g transform="translate(416.27476 269.241947)scale(0.1 -0.1)">
       <use xlink:href="#DejaVuSans-51"/>
       <use x="63.623047" xlink:href="#DejaVuSans-48"/>
      </g>
     </g>
    </g>
    <g id="text_16">
     <!-- t (s) -->
     <defs>
      <path id="DejaVuSans-32"/>
     </defs>
     <g transform="translate(221.053906 282.920073)scale(0.1 -0.1)">
      <use xlink:href="#DejaVuSans-116"/>
      <use x="39.208984" xlink:href="#DejaVuSans-32"/>
      <use x="70.996094" xlink:href="#DejaVuSans-40"/>
      <use x="110.009766" xlink:href="#DejaVuSans-115"/>
      <use x="162.109375" xlink:href="#DejaVuSans-41"/>
     </g>
    </g>
   </g>
   <g id="matplotlib.axis_4">
    <g id="ytick_4">
     <g id="line2d_31">
      <g>
       <use style="stroke:#000000;stroke-width:0.8;" x="39.58149" xlink:href="#mca6d3a325e" y="232.442615"/>
      </g>
     </g>
     <g id="text_17">
      <!-- 0.5 -->
      <g transform="translate(16.678365 236.241833)scale(0.1 -0.1)">
       <use xlink:href="#DejaVuSans-48"/>
       <use x="63.623047" xlink:href="#DejaVuSans-46"/>
       <use x="95.410156" xlink:href="#DejaVuSans-53"/>
      </g>
     </g>
    </g>
    <g id="ytick_5">
     <g id="line2d_32">
      <g>
       <use style="stroke:#000000;stroke-width:0.8;" x="39.58149" xlink:href="#mca6d3a325e" y="201.278773"/>
      </g>
     </g>
     <g id="text_18">
      <!-- 1.0 -->
      <g transform="translate(16.678365 205.077992)scale(0.1 -0.1)">
       <use xlink:href="#DejaVuSans-49"/>
       <use x="63.623047" xlink:href="#DejaVuSans-46"/>
       <use x="95.410156" xlink:href="#DejaVuSans-48"/>
      </g>
     </g>
    </g>
    <g id="ytick_6">
     <g id="line2d_33">
      <g>
       <use style="stroke:#000000;stroke-width:0.8;" x="39.58149" xlink:href="#mca6d3a325e" y="170.114931"/>
      </g>
     </g>
     <g id="text_19">
      <!-- 1.5 -->
      <g transform="translate(16.678365 173.91415)scale(0.1 -0.1)">
       <use xlink:href="#DejaVuSans-49"/>
       <use x="63.623047" xlink:href="#DejaVuSans-46"/>
       <use x="95.410156" xlink:href="#DejaVuSans-53"/>
      </g>
     </g>
    </g>
    <g id="ytick_7">
     <g id="line2d_34">
      <g>
       <use style="stroke:#000000;stroke-width:0.8;" x="39.58149" xlink:href="#mca6d3a325e" y="138.95109"/>
      </g>
     </g>
     <g id="text_20">
      <!-- 2.0 -->
      <g transform="translate(16.678365 142.750308)scale(0.1 -0.1)">
       <use xlink:href="#DejaVuSans-50"/>
       <use x="63.623047" xlink:href="#DejaVuSans-46"/>
       <use x="95.410156" xlink:href="#DejaVuSans-48"/>
      </g>
     </g>
    </g>
    <g id="text_21">
     <!-- u(t) -->
     <defs>
      <path d="M 8.5 21.578125 
L 8.5 54.6875 
L 17.484375 54.6875 
L 17.484375 21.921875 
Q 17.484375 14.15625 20.5 10.265625 
Q 23.53125 6.390625 29.59375 6.390625 
Q 36.859375 6.390625 41.078125 11.03125 
Q 45.3125 15.671875 45.3125 23.6875 
L 45.3125 54.6875 
L 54.296875 54.6875 
L 54.296875 0 
L 45.3125 0 
L 45.3125 8.40625 
Q 42.046875 3.421875 37.71875 1 
Q 33.40625 -1.421875 27.6875 -1.421875 
Q 18.265625 -1.421875 13.375 4.4375 
Q 8.5 10.296875 8.5 21.578125 
z
M 31.109375 56 
z
" id="DejaVuSans-117"/>
     </defs>
     <g transform="translate(10.598677 205.608281)rotate(-90)scale(0.1 -0.1)">
      <use xlink:href="#DejaVuSans-117"/>
      <use x="63.378906" xlink:href="#DejaVuSans-40"/>
      <use x="102.392578" xlink:href="#DejaVuSans-116"/>
      <use x="141.601562" xlink:href="#DejaVuSans-41"/>
     </g>
    </g>
   </g>
   <g id="line2d_35">
    <path clip-path="url(#p3765df07df)" d="M 39.58149 164.264193 
L 44.6889 157.001106 
L 47.242605 153.730875 
L 49.796311 150.996729 
L 51.073163 149.896697 
L 52.350016 149.004582 
L 53.626868 148.338663 
L 54.903721 147.913659 
L 56.180573 147.740695 
L 57.457426 147.827362 
L 58.734279 148.177845 
L 60.011131 148.793112 
L 61.287984 149.671129 
L 62.564836 150.807096 
L 63.841689 152.193703 
L 65.118541 153.82138 
L 66.395394 155.678553 
L 68.949099 160.026555 
L 71.502804 165.114271 
L 74.056509 170.801176 
L 77.887067 180.123014 
L 88.101888 205.962641 
L 90.655593 211.875569 
L 93.209298 217.328663 
L 95.763003 222.228299 
L 98.316708 226.498442 
L 100.870413 230.081293 
L 102.147266 231.601959 
L 103.424118 232.937463 
L 104.700971 234.085717 
L 105.977823 235.045733 
L 107.254676 235.817594 
L 108.531529 236.40242 
L 109.808381 236.80233 
L 111.085234 237.020402 
L 112.362086 237.060621 
L 113.638939 236.927837 
L 114.915791 236.627705 
L 116.192644 236.166634 
L 117.469497 235.551725 
L 118.746349 234.790714 
L 121.300054 232.864119 
L 123.853759 230.459015 
L 126.407465 227.653644 
L 128.96117 224.530263 
L 132.791727 219.433295 
L 143.006548 205.373006 
L 146.837106 200.629641 
L 149.390811 197.790467 
L 151.944516 195.261741 
L 154.498221 193.077648 
L 157.051926 191.26293 
L 159.605631 189.832913 
L 162.159336 188.793742 
L 164.713042 188.142796 
L 167.266747 187.869274 
L 169.820452 187.954914 
L 172.374157 188.374836 
L 174.927862 189.098477 
L 177.481567 190.090587 
L 180.035272 191.312276 
L 183.86583 193.484091 
L 188.97324 196.786195 
L 197.911208 202.738489 
L 201.741766 205.029991 
L 205.572324 207.019757 
L 208.126029 208.142318 
L 210.679734 209.083266 
L 213.233439 209.832252 
L 215.787144 210.383717 
L 218.340849 210.736727 
L 220.894554 210.894715 
L 223.44826 210.865143 
L 226.001965 210.659098 
L 228.55567 210.290833 
L 232.386228 209.471897 
L 236.216785 208.392134 
L 241.324196 206.672178 
L 256.646426 201.22478 
L 260.476984 200.125439 
L 264.307542 199.221102 
L 268.138099 198.535906 
L 271.968657 198.081453 
L 275.799215 197.857373 
L 279.629773 197.852393 
L 283.46033 198.045844 
L 288.567741 198.562783 
L 294.952003 199.508599 
L 315.381644 202.858341 
L 320.489055 203.399764 
L 325.596465 203.739816 
L 330.703875 203.871536 
L 335.811285 203.806244 
L 342.195548 203.489121 
L 349.856664 202.865076 
L 371.563157 200.921996 
L 379.224273 200.538487 
L 386.885388 200.397121 
L 394.546504 200.478811 
L 404.761324 200.835036 
L 422.63726 201.626122 
L 422.63726 201.626122 
" style="fill:none;stroke:#1f77b4;stroke-linecap:square;stroke-width:1.5;"/>
   </g>
   <g id="line2d_36">
    <path clip-path="url(#p3765df07df)" d="M 39.58149 199.707662 
L 45.965753 191.970578 
L 48.519458 189.107164 
L 51.073163 186.518079 
L 53.626868 184.28648 
L 56.180573 182.475555 
L 58.734279 181.126504 
L 60.011131 180.632202 
L 61.287984 180.259319 
L 62.564836 180.007411 
L 63.841689 179.875031 
L 65.118541 179.859822 
L 67.672246 180.167549 
L 70.225952 180.897238 
L 72.779657 182.00692 
L 75.333362 183.44857 
L 77.887067 185.170342 
L 80.440772 187.118483 
L 84.27133 190.347177 
L 91.932445 197.274303 
L 97.039855 201.749885 
L 100.870413 204.821875 
L 104.700971 207.547218 
L 107.254676 209.138257 
L 109.808381 210.532368 
L 112.362086 211.72082 
L 114.915791 212.69922 
L 117.469497 213.467197 
L 120.023202 214.028055 
L 122.576907 214.388384 
L 125.130612 214.557657 
L 127.684317 214.547813 
L 130.238022 214.372831 
L 134.06858 213.8352 
L 137.899138 213.018762 
L 141.729695 211.984092 
L 146.837106 210.370463 
L 165.989894 204.018266 
L 171.097304 202.682098 
L 176.204715 201.605437 
L 181.312125 200.805512 
L 186.419535 200.279386 
L 191.526945 200.007516 
L 196.634356 199.957784 
L 203.018619 200.145769 
L 210.679734 200.621631 
L 237.493638 202.547665 
L 246.431606 202.842155 
L 255.369574 202.899284 
L 265.584394 202.727667 
L 280.906625 202.212993 
L 301.336266 201.555836 
L 315.381644 201.325675 
L 331.980728 201.287975 
L 404.761324 201.431398 
L 422.63726 201.360444 
L 422.63726 201.360444 
" style="fill:none;stroke:#ff7f0e;stroke-linecap:square;stroke-width:1.5;"/>
   </g>
   <g id="line2d_37">
    <path clip-path="url(#p3765df07df)" d="M 39.58149 150.369183 
L 43.412048 147.281938 
L 45.965753 145.496802 
L 47.242605 144.786555 
L 48.519458 144.244678 
L 49.796311 143.903312 
L 51.073163 143.790815 
L 52.350016 143.93107 
L 53.626868 144.343117 
L 54.903721 145.04101 
L 56.180573 146.033859 
L 57.457426 147.325987 
L 58.734279 148.917198 
L 60.011131 150.803083 
L 61.287984 152.97539 
L 62.564836 155.422395 
L 65.118541 161.078601 
L 67.672246 167.623298 
L 70.225952 174.876984 
L 74.056509 186.647386 
L 81.717625 210.802778 
L 84.27133 218.306513 
L 86.825035 225.244966 
L 89.37874 231.475614 
L 91.932445 236.881447 
L 93.209298 239.245889 
L 94.48615 241.372604 
L 95.763003 243.254726 
L 97.039855 244.88714 
L 98.316708 246.26646 
L 99.593561 247.391004 
L 100.870413 248.260748 
L 102.147266 248.877285 
L 103.424118 249.24376 
L 104.700971 249.36481 
L 105.977823 249.246487 
L 107.254676 248.896176 
L 108.531529 248.322514 
L 109.808381 247.535294 
L 111.085234 246.54537 
L 112.362086 245.364556 
L 113.638939 244.005525 
L 116.192644 240.807151 
L 118.746349 237.06473 
L 121.300054 232.899607 
L 125.130612 226.13247 
L 132.791727 212.239351 
L 136.622285 205.864231 
L 139.17599 202.040693 
L 141.729695 198.643446 
L 144.2834 195.728973 
L 146.837106 193.338516 
L 149.390811 191.497948 
L 150.667663 190.78781 
L 151.944516 190.218027 
L 153.221368 189.787682 
L 154.498221 189.495011 
L 155.775074 189.337434 
L 157.051926 189.311599 
L 158.328779 189.413426 
L 159.605631 189.638151 
L 162.159336 190.434143 
L 164.713042 191.649809 
L 167.266747 193.227913 
L 169.820452 195.105606 
L 173.651009 198.337686 
L 178.75842 203.063724 
L 183.86583 207.781504 
L 187.696388 211.029056 
L 190.250093 212.962238 
L 192.803798 214.663421 
L 195.357503 216.101741 
L 197.911208 217.254687 
L 200.464913 218.108172 
L 203.018619 218.656384 
L 205.572324 218.901453 
L 208.126029 218.852933 
L 210.679734 218.527126 
L 213.233439 217.946289 
L 215.787144 217.137729 
L 218.340849 216.132833 
L 222.171407 214.333302 
L 227.278817 211.582458 
L 236.216785 206.625213 
L 240.047343 204.732446 
L 243.877901 203.106175 
L 247.708458 201.806891 
L 250.262163 201.141815 
L 252.815869 200.644543 
L 255.369574 200.315974 
L 257.923279 200.152791 
L 260.476984 200.147791 
L 264.307542 200.41267 
L 268.138099 200.96047 
L 271.968657 201.731703 
L 277.076067 202.992145 
L 289.844593 206.31257 
L 294.952003 207.346039 
L 298.782561 207.919018 
L 302.613119 208.29484 
L 306.443676 208.465712 
L 310.274234 208.435832 
L 314.104792 208.220128 
L 319.212202 207.685817 
L 325.596465 206.729312 
L 344.749253 203.548725 
L 349.856664 202.967752 
L 354.964074 202.581808 
L 360.071484 202.398198 
L 366.455747 202.432241 
L 372.84001 202.701552 
L 383.05483 203.404254 
L 395.823356 204.248983 
L 403.484471 204.523786 
L 411.145587 204.559267 
L 418.806702 204.36925 
L 422.63726 204.206837 
L 422.63726 204.206837 
" style="fill:none;stroke:#2ca02c;stroke-linecap:square;stroke-width:1.5;"/>
   </g>
   <g id="line2d_38">
    <path clip-path="url(#p3765df07df)" d="M 39.58149 158.470078 
L 44.6889 153.581674 
L 47.242605 151.536541 
L 48.519458 150.718705 
L 49.796311 150.076062 
L 51.073163 149.633986 
L 52.350016 149.41413 
L 53.626868 149.434085 
L 54.903721 149.707241 
L 56.180573 150.242797 
L 57.457426 151.045888 
L 58.734279 152.117781 
L 60.011131 153.456136 
L 61.287984 155.055295 
L 62.564836 156.906595 
L 63.841689 158.998688 
L 66.395394 163.848361 
L 68.949099 169.471904 
L 71.502804 175.7137 
L 75.333362 185.861514 
L 84.27133 210.141412 
L 86.825035 216.499223 
L 89.37874 222.344229 
L 91.932445 227.567126 
L 94.48615 232.079841 
L 97.039855 235.816412 
L 98.316708 237.37915 
L 99.593561 238.733236 
L 100.870413 239.876659 
L 102.147266 240.808736 
L 103.424118 241.530073 
L 104.700971 242.042522 
L 105.977823 242.349131 
L 107.254676 242.454086 
L 108.531529 242.362653 
L 109.808381 242.081109 
L 111.085234 241.616674 
L 112.362086 240.977439 
L 113.638939 240.172288 
L 114.915791 239.210822 
L 117.469497 236.860442 
L 120.023202 234.014341 
L 122.576907 230.766807 
L 126.407465 225.357389 
L 139.17599 206.545744 
L 141.729695 203.274973 
L 144.2834 200.325097 
L 146.837106 197.742679 
L 149.390811 195.562815 
L 151.944516 193.80902 
L 154.498221 192.493394 
L 157.051926 191.617042 
L 159.605631 191.170734 
L 162.159336 191.13576 
L 164.713042 191.484956 
L 167.266747 192.183869 
L 169.820452 193.19201 
L 172.374157 194.464189 
L 174.927862 195.951855 
L 178.75842 198.476578 
L 192.803798 208.213299 
L 196.634356 210.365071 
L 199.188061 211.572927 
L 201.741766 212.576677 
L 204.295471 213.363528 
L 206.849176 213.926602 
L 209.402881 214.264734 
L 211.956586 214.382142 
L 214.510292 214.287995 
L 217.063997 213.995888 
L 219.617702 213.523249 
L 223.44826 212.52159 
L 227.278817 211.240101 
L 232.386228 209.246545 
L 243.877901 204.570387 
L 247.708458 203.223423 
L 251.539016 202.078953 
L 255.369574 201.173254 
L 259.200131 200.527011 
L 263.030689 200.145669 
L 266.861247 200.020545 
L 270.691805 200.13057 
L 274.522362 200.444512 
L 279.629773 201.112409 
L 286.014035 202.199587 
L 298.782561 204.435865 
L 303.889971 205.111151 
L 308.997382 205.574621 
L 314.104792 205.802618 
L 319.212202 205.795864 
L 324.319612 205.576456 
L 330.703875 205.063566 
L 339.641843 204.081664 
L 352.410369 202.669879 
L 360.071484 202.064107 
L 366.455747 201.767321 
L 372.84001 201.664905 
L 380.501125 201.763796 
L 390.715946 202.140685 
L 409.868734 202.889525 
L 420.083555 203.018499 
L 422.63726 203.011676 
L 422.63726 203.011676 
" style="fill:none;stroke:#d62728;stroke-linecap:square;stroke-width:1.5;"/>
   </g>
   <g id="patch_9">
    <path d="M 39.58149 254.64351 
L 39.58149 138.512115 
" style="fill:none;stroke:#000000;stroke-linecap:square;stroke-linejoin:miter;stroke-width:0.8;"/>
   </g>
   <g id="patch_10">
    <path d="M 422.63726 254.64351 
L 422.63726 138.512115 
" style="fill:none;stroke:#000000;stroke-linecap:square;stroke-linejoin:miter;stroke-width:0.8;"/>
   </g>
   <g id="patch_11">
    <path d="M 39.58149 254.64351 
L 422.63726 254.64351 
" style="fill:none;stroke:#000000;stroke-linecap:square;stroke-linejoin:miter;stroke-width:0.8;"/>
   </g>
   <g id="patch_12">
    <path d="M 39.58149 138.512115 
L 422.63726 138.512115 
" style="fill:none;stroke:#000000;stroke-linecap:square;stroke-linejoin:miter;stroke-width:0.8;"/>
   </g>
  </g>
 </g>
 <defs>
  <clipPath id="p0615883b6f">
   <rect height="116.131395" width="383.05577" x="39.58149" y="6.50024"/>
  </clipPath>
  <clipPath id="p3765df07df">
   <rect height="116.131395" width="383.05577" x="39.58149" y="138.512115"/>
  </clipPath>
 </defs>
</svg>
