<?xml version="1.0" encoding="utf-8" standalone="no"?>
<!DOCTYPE svg PUBLIC "-//W3C//DTD SVG 1.1//EN"
  "http://www.w3.org/Graphics/SVG/1.1/DTD/svg11.dtd">
<!-- Created with matplotlib (https://matplotlib.org/) -->
<svg height="432pt" version="1.1" viewBox="0 0 648 432" width="648pt" xmlns="http://www.w3.org/2000/svg" xmlns:xlink="http://www.w3.org/1999/xlink">
 <defs>
  <style type="text/css">
*{stroke-linecap:butt;stroke-linejoin:round;}
  </style>
 </defs>
 <g id="figure_1">
  <g id="patch_1">
   <path d="M 0 432 
L 648 432 
L 648 0 
L 0 0 
z
" style="fill:#ffffff;"/>
  </g>
  <g id="axes_1">
   <g id="patch_2">
    <path d="M 39.58149 193.911635 
L 638.63726 193.911635 
L 638.63726 6.50024 
L 39.58149 6.50024 
z
" style="fill:#ffffff;"/>
   </g>
   <g id="matplotlib.axis_1">
    <g id="xtick_1">
     <g id="line2d_1">
      <defs>
       <path d="M 0 0 
L 0 3.5 
" id="mea248a84d5" style="stroke:#000000;stroke-width:0.8;"/>
      </defs>
      <g>
       <use style="stroke:#000000;stroke-width:0.8;" x="39.58149" xlink:href="#mea248a84d5" y="193.911635"/>
      </g>
     </g>
    </g>
    <g id="xtick_2">
     <g id="line2d_2">
      <g>
       <use style="stroke:#000000;stroke-width:0.8;" x="139.424118" xlink:href="#mea248a84d5" y="193.911635"/>
      </g>
     </g>
    </g>
    <g id="xtick_3">
     <g id="line2d_3">
      <g>
       <use style="stroke:#000000;stroke-width:0.8;" x="239.266747" xlink:href="#mea248a84d5" y="193.911635"/>
      </g>
     </g>
    </g>
    <g id="xtick_4">
     <g id="line2d_4">
      <g>
       <use style="stroke:#000000;stroke-width:0.8;" x="339.109375" xlink:href="#mea248a84d5" y="193.911635"/>
      </g>
     </g>
    </g>
    <g id="xtick_5">
     <g id="line2d_5">
      <g>
       <use style="stroke:#000000;stroke-width:0.8;" x="438.952003" xlink:href="#mea248a84d5" y="193.911635"/>
      </g>
     </g>
    </g>
    <g id="xtick_6">
     <g id="line2d_6">
      <g>
       <use style="stroke:#000000;stroke-width:0.8;" x="538.794632" xlink:href="#mea248a84d5" y="193.911635"/>
      </g>
     </g>
    </g>
    <g id="xtick_7">
     <g id="line2d_7">
      <g>
       <use style="stroke:#000000;stroke-width:0.8;" x="638.63726" xlink:href="#mea248a84d5" y="193.911635"/>
      </g>
     </g>
    </g>
   </g>
   <g id="matplotlib.axis_2">
    <g id="ytick_1">
     <g id="line2d_8">
      <defs>
       <path d="M 0 0 
L -3.5 0 
" id="m0803debff6" style="stroke:#000000;stroke-width:0.8;"/>
      </defs>
      <g>
       <use style="stroke:#000000;stroke-width:0.8;" x="39.58149" xlink:href="#m0803debff6" y="185.392935"/>
      </g>
     </g>
     <g id="text_1">
      <!-- 0.0 -->
      <defs>
       <path d="M 31.78125 66.40625 
Q 24.171875 66.40625 20.328125 58.90625 
Q 16.5 51.421875 16.5 36.375 
Q 16.5 21.390625 20.328125 13.890625 
Q 24.171875 6.390625 31.78125 6.390625 
Q 39.453125 6.390625 43.28125 13.890625 
Q 47.125 21.390625 47.125 36.375 
Q 47.125 51.421875 43.28125 58.90625 
Q 39.453125 66.40625 31.78125 66.40625 
z
M 31.78125 74.21875 
Q 44.046875 74.21875 50.515625 64.515625 
Q 56.984375 54.828125 56.984375 36.375 
Q 56.984375 17.96875 50.515625 8.265625 
Q 44.046875 -1.421875 31.78125 -1.421875 
Q 19.53125 -1.421875 13.0625 8.265625 
Q 6.59375 17.96875 6.59375 36.375 
Q 6.59375 54.828125 13.0625 64.515625 
Q 19.53125 74.21875 31.78125 74.21875 
z
" id="DejaVuSans-48"/>
       <path d="M 10.6875 12.40625 
L 21 12.40625 
L 21 0 
L 10.6875 0 
z
" id="DejaVuSans-46"/>
      </defs>
      <g transform="translate(16.678365 189.192154)scale(0.1 -0.1)">
       <use xlink:href="#DejaVuSans-48"/>
       <use x="63.623047" xlink:href="#DejaVuSans-46"/>
       <use x="95.410156" xlink:href="#DejaVuSans-48"/>
      </g>
     </g>
    </g>
    <g id="ytick_2">
     <g id="line2d_9">
      <g>
       <use style="stroke:#000000;stroke-width:0.8;" x="39.58149" xlink:href="#m0803debff6" y="158.239479"/>
      </g>
     </g>
     <g id="text_2">
      <!-- 0.2 -->
      <defs>
       <path d="M 19.1875 8.296875 
L 53.609375 8.296875 
L 53.609375 0 
L 7.328125 0 
L 7.328125 8.296875 
Q 12.9375 14.109375 22.625 23.890625 
Q 32.328125 33.6875 34.8125 36.53125 
Q 39.546875 41.84375 41.421875 45.53125 
Q 43.3125 49.21875 43.3125 52.78125 
Q 43.3125 58.59375 39.234375 62.25 
Q 35.15625 65.921875 28.609375 65.921875 
Q 23.96875 65.921875 18.8125 64.3125 
Q 13.671875 62.703125 7.8125 59.421875 
L 7.8125 69.390625 
Q 13.765625 71.78125 18.9375 73 
Q 24.125 74.21875 28.421875 74.21875 
Q 39.75 74.21875 46.484375 68.546875 
Q 53.21875 62.890625 53.21875 53.421875 
Q 53.21875 48.921875 51.53125 44.890625 
Q 49.859375 40.875 45.40625 35.40625 
Q 44.1875 33.984375 37.640625 27.21875 
Q 31.109375 20.453125 19.1875 8.296875 
z
" id="DejaVuSans-50"/>
      </defs>
      <g transform="translate(16.678365 162.038698)scale(0.1 -0.1)">
       <use xlink:href="#DejaVuSans-48"/>
       <use x="63.623047" xlink:href="#DejaVuSans-46"/>
       <use x="95.410156" xlink:href="#DejaVuSans-50"/>
      </g>
     </g>
    </g>
    <g id="ytick_3">
     <g id="line2d_10">
      <g>
       <use style="stroke:#000000;stroke-width:0.8;" x="39.58149" xlink:href="#m0803debff6" y="131.086023"/>
      </g>
     </g>
     <g id="text_3">
      <!-- 0.4 -->
      <defs>
       <path d="M 37.796875 64.3125 
L 12.890625 25.390625 
L 37.796875 25.390625 
z
M 35.203125 72.90625 
L 47.609375 72.90625 
L 47.609375 25.390625 
L 58.015625 25.390625 
L 58.015625 17.1875 
L 47.609375 17.1875 
L 47.609375 0 
L 37.796875 0 
L 37.796875 17.1875 
L 4.890625 17.1875 
L 4.890625 26.703125 
z
" id="DejaVuSans-52"/>
      </defs>
      <g transform="translate(16.678365 134.885242)scale(0.1 -0.1)">
       <use xlink:href="#DejaVuSans-48"/>
       <use x="63.623047" xlink:href="#DejaVuSans-46"/>
       <use x="95.410156" xlink:href="#DejaVuSans-52"/>
      </g>
     </g>
    </g>
    <g id="ytick_4">
     <g id="line2d_11">
      <g>
       <use style="stroke:#000000;stroke-width:0.8;" x="39.58149" xlink:href="#m0803debff6" y="103.932567"/>
      </g>
     </g>
     <g id="text_4">
      <!-- 0.6 -->
      <defs>
       <path d="M 33.015625 40.375 
Q 26.375 40.375 22.484375 35.828125 
Q 18.609375 31.296875 18.609375 23.390625 
Q 18.609375 15.53125 22.484375 10.953125 
Q 26.375 6.390625 33.015625 6.390625 
Q 39.65625 6.390625 43.53125 10.953125 
Q 47.40625 15.53125 47.40625 23.390625 
Q 47.40625 31.296875 43.53125 35.828125 
Q 39.65625 40.375 33.015625 40.375 
z
M 52.59375 71.296875 
L 52.59375 62.3125 
Q 48.875 64.0625 45.09375 64.984375 
Q 41.3125 65.921875 37.59375 65.921875 
Q 27.828125 65.921875 22.671875 59.328125 
Q 17.53125 52.734375 16.796875 39.40625 
Q 19.671875 43.65625 24.015625 45.921875 
Q 28.375 48.1875 33.59375 48.1875 
Q 44.578125 48.1875 50.953125 41.515625 
Q 57.328125 34.859375 57.328125 23.390625 
Q 57.328125 12.15625 50.6875 5.359375 
Q 44.046875 -1.421875 33.015625 -1.421875 
Q 20.359375 -1.421875 13.671875 8.265625 
Q 6.984375 17.96875 6.984375 36.375 
Q 6.984375 53.65625 15.1875 63.9375 
Q 23.390625 74.21875 37.203125 74.21875 
Q 40.921875 74.21875 44.703125 73.484375 
Q 48.484375 72.75 52.59375 71.296875 
z
" id="DejaVuSans-54"/>
      </defs>
      <g transform="translate(16.678365 107.731786)scale(0.1 -0.1)">
       <use xlink:href="#DejaVuSans-48"/>
       <use x="63.623047" xlink:href="#DejaVuSans-46"/>
       <use x="95.410156" xlink:href="#DejaVuSans-54"/>
      </g>
     </g>
    </g>
    <g id="ytick_5">
     <g id="line2d_12">
      <g>
       <use style="stroke:#000000;stroke-width:0.8;" x="39.58149" xlink:href="#m0803debff6" y="76.779112"/>
      </g>
     </g>
     <g id="text_5">
      <!-- 0.8 -->
      <defs>
       <path d="M 31.78125 34.625 
Q 24.75 34.625 20.71875 30.859375 
Q 16.703125 27.09375 16.703125 20.515625 
Q 16.703125 13.921875 20.71875 10.15625 
Q 24.75 6.390625 31.78125 6.390625 
Q 38.8125 6.390625 42.859375 10.171875 
Q 46.921875 13.96875 46.921875 20.515625 
Q 46.921875 27.09375 42.890625 30.859375 
Q 38.875 34.625 31.78125 34.625 
z
M 21.921875 38.8125 
Q 15.578125 40.375 12.03125 44.71875 
Q 8.5 49.078125 8.5 55.328125 
Q 8.5 64.0625 14.71875 69.140625 
Q 20.953125 74.21875 31.78125 74.21875 
Q 42.671875 74.21875 48.875 69.140625 
Q 55.078125 64.0625 55.078125 55.328125 
Q 55.078125 49.078125 51.53125 44.71875 
Q 48 40.375 41.703125 38.8125 
Q 48.828125 37.15625 52.796875 32.3125 
Q 56.78125 27.484375 56.78125 20.515625 
Q 56.78125 9.90625 50.3125 4.234375 
Q 43.84375 -1.421875 31.78125 -1.421875 
Q 19.734375 -1.421875 13.25 4.234375 
Q 6.78125 9.90625 6.78125 20.515625 
Q 6.78125 27.484375 10.78125 32.3125 
Q 14.796875 37.15625 21.921875 38.8125 
z
M 18.3125 54.390625 
Q 18.3125 48.734375 21.84375 45.5625 
Q 25.390625 42.390625 31.78125 42.390625 
Q 38.140625 42.390625 41.71875 45.5625 
Q 45.3125 48.734375 45.3125 54.390625 
Q 45.3125 60.0625 41.71875 63.234375 
Q 38.140625 66.40625 31.78125 66.40625 
Q 25.390625 66.40625 21.84375 63.234375 
Q 18.3125 60.0625 18.3125 54.390625 
z
" id="DejaVuSans-56"/>
      </defs>
      <g transform="translate(16.678365 80.57833)scale(0.1 -0.1)">
       <use xlink:href="#DejaVuSans-48"/>
       <use x="63.623047" xlink:href="#DejaVuSans-46"/>
       <use x="95.410156" xlink:href="#DejaVuSans-56"/>
      </g>
     </g>
    </g>
    <g id="ytick_6">
     <g id="line2d_13">
      <g>
       <use style="stroke:#000000;stroke-width:0.8;" x="39.58149" xlink:href="#m0803debff6" y="49.625656"/>
      </g>
     </g>
     <g id="text_6">
      <!-- 1.0 -->
      <defs>
       <path d="M 12.40625 8.296875 
L 28.515625 8.296875 
L 28.515625 63.921875 
L 10.984375 60.40625 
L 10.984375 69.390625 
L 28.421875 72.90625 
L 38.28125 72.90625 
L 38.28125 8.296875 
L 54.390625 8.296875 
L 54.390625 0 
L 12.40625 0 
z
" id="DejaVuSans-49"/>
      </defs>
      <g transform="translate(16.678365 53.424874)scale(0.1 -0.1)">
       <use xlink:href="#DejaVuSans-49"/>
       <use x="63.623047" xlink:href="#DejaVuSans-46"/>
       <use x="95.410156" xlink:href="#DejaVuSans-48"/>
      </g>
     </g>
    </g>
    <g id="ytick_7">
     <g id="line2d_14">
      <g>
       <use style="stroke:#000000;stroke-width:0.8;" x="39.58149" xlink:href="#m0803debff6" y="22.4722"/>
      </g>
     </g>
     <g id="text_7">
      <!-- 1.2 -->
      <g transform="translate(16.678365 26.271418)scale(0.1 -0.1)">
       <use xlink:href="#DejaVuSans-49"/>
       <use x="63.623047" xlink:href="#DejaVuSans-46"/>
       <use x="95.410156" xlink:href="#DejaVuSans-50"/>
      </g>
     </g>
    </g>
    <g id="text_8">
     <!-- y(t) -->
     <defs>
      <path d="M 32.171875 -5.078125 
Q 28.375 -14.84375 24.75 -17.8125 
Q 21.140625 -20.796875 15.09375 -20.796875 
L 7.90625 -20.796875 
L 7.90625 -13.28125 
L 13.1875 -13.28125 
Q 16.890625 -13.28125 18.9375 -11.515625 
Q 21 -9.765625 23.484375 -3.21875 
L 25.09375 0.875 
L 2.984375 54.6875 
L 12.5 54.6875 
L 29.59375 11.921875 
L 46.6875 54.6875 
L 56.203125 54.6875 
z
" id="DejaVuSans-121"/>
      <path d="M 31 75.875 
Q 24.46875 64.65625 21.28125 53.65625 
Q 18.109375 42.671875 18.109375 31.390625 
Q 18.109375 20.125 21.3125 9.0625 
Q 24.515625 -2 31 -13.1875 
L 23.1875 -13.1875 
Q 15.875 -1.703125 12.234375 9.375 
Q 8.59375 20.453125 8.59375 31.390625 
Q 8.59375 42.28125 12.203125 53.3125 
Q 15.828125 64.359375 23.1875 75.875 
z
" id="DejaVuSans-40"/>
      <path d="M 18.3125 70.21875 
L 18.3125 54.6875 
L 36.8125 54.6875 
L 36.8125 47.703125 
L 18.3125 47.703125 
L 18.3125 18.015625 
Q 18.3125 11.328125 20.140625 9.421875 
Q 21.96875 7.515625 27.59375 7.515625 
L 36.8125 7.515625 
L 36.8125 0 
L 27.59375 0 
Q 17.1875 0 13.234375 3.875 
Q 9.28125 7.765625 9.28125 18.015625 
L 9.28125 47.703125 
L 2.6875 47.703125 
L 2.6875 54.6875 
L 9.28125 54.6875 
L 9.28125 70.21875 
z
" id="DejaVuSans-116"/>
      <path d="M 8.015625 75.875 
L 15.828125 75.875 
Q 23.140625 64.359375 26.78125 53.3125 
Q 30.421875 42.28125 30.421875 31.390625 
Q 30.421875 20.453125 26.78125 9.375 
Q 23.140625 -1.703125 15.828125 -13.1875 
L 8.015625 -13.1875 
Q 14.5 -2 17.703125 9.0625 
Q 20.90625 20.125 20.90625 31.390625 
Q 20.90625 42.671875 17.703125 53.65625 
Q 14.5 64.65625 8.015625 75.875 
z
" id="DejaVuSans-41"/>
     </defs>
     <g transform="translate(10.598678 109.027031)rotate(-90)scale(0.1 -0.1)">
      <use xlink:href="#DejaVuSans-121"/>
      <use x="59.179688" xlink:href="#DejaVuSans-40"/>
      <use x="98.193359" xlink:href="#DejaVuSans-116"/>
      <use x="137.402344" xlink:href="#DejaVuSans-41"/>
     </g>
    </g>
   </g>
   <g id="line2d_15">
    <path clip-path="url(#pe6eaf68640)" d="M 39.58149 49.625656 
L 638.63726 49.625656 
L 638.63726 49.625656 
" style="fill:none;stroke:#000000;stroke-dasharray:4.44,1.92;stroke-dashoffset:0;stroke-width:1.2;"/>
   </g>
   <g id="line2d_16">
    <path clip-path="url(#pe6eaf68640)" d="M 39.58149 185.392935 
L 47.5689 185.3175 
L 51.562605 185.06161 
L 55.556311 184.482407 
L 57.553163 184.031915 
L 59.550016 183.456253 
L 61.546868 182.744492 
L 63.543721 181.887833 
L 65.540573 180.879617 
L 67.537426 179.71527 
L 69.534279 178.392206 
L 71.531131 176.909699 
L 73.527984 175.268734 
L 75.524836 173.47185 
L 79.518541 169.427259 
L 83.512246 164.821088 
L 87.505952 159.713137 
L 91.499657 154.173335 
L 95.493362 148.277833 
L 101.48392 138.94084 
L 111.468182 122.713245 
L 119.455593 109.780274 
L 125.44615 100.4354 
L 131.436708 91.583072 
L 135.430413 86.022074 
L 139.424118 80.770608 
L 143.417823 75.853191 
L 147.411529 71.288179 
L 151.405234 67.088112 
L 155.398939 63.26012 
L 159.392644 59.806347 
L 163.386349 56.724408 
L 167.380054 54.007862 
L 171.373759 51.64668 
L 175.367465 49.627727 
L 179.36117 47.93522 
L 183.354875 46.551185 
L 187.34858 45.455891 
L 191.342285 44.628262 
L 195.33599 44.046268 
L 199.329695 43.687287 
L 203.3234 43.528435 
L 207.317106 43.546873 
L 213.307663 43.857819 
L 219.298221 44.443662 
L 225.288779 45.235263 
L 233.276189 46.501738 
L 263.228977 51.502978 
L 271.216388 52.542061 
L 279.203798 53.373812 
L 287.191208 53.985678 
L 295.178619 54.379295 
L 303.166029 54.567538 
L 313.150292 54.546923 
L 323.134554 54.292052 
L 335.11567 53.76084 
L 353.087343 52.713988 
L 381.043279 51.080525 
L 397.018099 50.363908 
L 412.99292 49.865533 
L 430.964593 49.55342 
L 450.933119 49.448337 
L 480.885907 49.554131 
L 542.788337 49.815982 
L 596.703356 49.750638 
L 638.63726 49.662884 
L 638.63726 49.662884 
" style="fill:none;stroke:#1f77b4;stroke-linecap:square;stroke-width:1.5;"/>
   </g>
   <g id="line2d_17">
    <path clip-path="url(#pe6eaf68640)" d="M 39.58149 185.392935 
L 47.5689 185.332216 
L 51.562605 185.126046 
L 55.556311 184.6589 
L 59.550016 183.83034 
L 61.546868 183.255129 
L 63.543721 182.562368 
L 65.540573 181.746489 
L 67.537426 180.803584 
L 69.534279 179.731329 
L 73.527984 177.196763 
L 77.521689 174.15163 
L 81.515394 170.622426 
L 85.509099 166.64919 
L 89.502804 162.281677 
L 93.496509 157.576005 
L 97.490214 152.591812 
L 103.480772 144.726241 
L 113.465035 131.068633 
L 123.449298 117.440459 
L 129.439856 109.564753 
L 135.430413 102.057368 
L 141.420971 95.006222 
L 145.414676 90.591783 
L 149.408381 86.423124 
L 153.402086 82.510113 
L 157.395791 78.858982 
L 161.389497 75.472652 
L 165.383202 72.351055 
L 169.376907 69.491463 
L 173.370612 66.888806 
L 177.364317 64.535988 
L 181.358022 62.424186 
L 185.351727 60.543138 
L 189.345433 58.881413 
L 193.339138 57.426669 
L 197.332843 56.165885 
L 201.326548 55.085579 
L 205.320253 54.172006 
L 211.310811 53.084034 
L 217.301368 52.293897 
L 223.291926 51.756761 
L 229.282484 51.430004 
L 237.269894 51.2533 
L 245.257304 51.295256 
L 257.23842 51.610784 
L 297.175471 52.930447 
L 311.153439 53.097671 
L 327.12826 53.043539 
L 345.099933 52.729811 
L 371.059016 52.010923 
L 414.989773 50.787187 
L 440.948856 50.299669 
L 468.904792 49.992075 
L 506.844991 49.819217 
L 594.706504 49.733848 
L 638.63726 49.695844 
L 638.63726 49.695844 
" style="fill:none;stroke:#ff7f0e;stroke-linecap:square;stroke-width:1.5;"/>
   </g>
   <g id="line2d_18">
    <path clip-path="url(#pe6eaf68640)" d="M 39.58149 185.392935 
L 45.572048 185.345456 
L 49.565753 185.077753 
L 51.562605 184.786279 
L 53.559458 184.349246 
L 55.556311 183.738864 
L 57.553163 182.930606 
L 59.550016 181.903789 
L 61.546868 180.64189 
L 63.543721 179.132652 
L 65.540573 177.368036 
L 67.537426 175.344066 
L 69.534279 173.060594 
L 71.531131 170.521012 
L 73.527984 167.731932 
L 75.524836 164.702849 
L 77.521689 161.445798 
L 81.515394 154.306627 
L 85.509099 146.448935 
L 89.502804 138.027531 
L 95.493362 124.703893 
L 107.474477 97.647611 
L 111.468182 89.081609 
L 115.461888 80.968266 
L 119.455593 73.418477 
L 123.449298 66.52447 
L 127.443003 60.359131 
L 129.439856 57.567158 
L 131.436708 54.975869 
L 133.433561 52.588949 
L 135.430413 50.408926 
L 137.427266 48.437203 
L 139.424118 46.674092 
L 141.420971 45.118858 
L 143.417823 43.769756 
L 145.414676 42.624084 
L 147.411529 41.678233 
L 149.408381 40.927737 
L 151.405234 40.367331 
L 153.402086 39.991008 
L 155.398939 39.792077 
L 157.395791 39.763225 
L 159.392644 39.896579 
L 161.389497 40.183763 
L 163.386349 40.615963 
L 165.383202 41.18399 
L 169.376907 42.689242 
L 173.370612 44.620756 
L 177.364317 46.897544 
L 181.358022 49.43816 
L 187.34858 53.568914 
L 201.326548 63.410741 
L 205.320253 65.985953 
L 209.313958 68.359824 
L 213.307663 70.492326 
L 217.301368 72.351468 
L 221.295074 73.913321 
L 225.288779 75.161872 
L 229.282484 76.088738 
L 233.276189 76.692752 
L 237.269894 76.979426 
L 241.263599 76.960339 
L 245.257304 76.652435 
L 249.25101 76.077281 
L 253.244715 75.260277 
L 257.23842 74.229863 
L 261.232125 73.016715 
L 267.222683 70.924864 
L 275.210093 67.799981 
L 293.181766 60.569873 
L 299.172324 58.413791 
L 305.162881 56.495966 
L 311.153439 54.859108 
L 317.143997 53.529429 
L 323.134554 52.517314 
L 329.125112 51.818617 
L 335.11567 51.416444 
L 341.106228 51.283291 
L 347.096785 51.38342 
L 353.087343 51.675319 
L 361.074753 52.285135 
L 375.052721 53.658178 
L 389.030689 54.981343 
L 399.014952 55.68068 
L 407.002362 56.027512 
L 414.989773 56.166679 
L 422.977183 56.101261 
L 432.961446 55.761992 
L 442.945708 55.196341 
L 458.920529 54.020909 
L 480.885907 52.393845 
L 492.867023 51.707475 
L 504.848138 51.231171 
L 516.829253 50.968093 
L 530.807221 50.889263 
L 550.775747 51.040204 
L 586.719093 51.347508 
L 606.687619 51.279361 
L 632.646702 50.9497 
L 638.63726 50.854523 
L 638.63726 50.854523 
" style="fill:none;stroke:#2ca02c;stroke-linecap:square;stroke-width:1.5;"/>
   </g>
   <g id="line2d_19">
    <path clip-path="url(#pe6eaf68640)" d="M 39.58149 185.392935 
L 45.572048 185.344861 
L 49.565753 185.072555 
L 51.562605 184.774962 
L 53.559458 184.327445 
L 55.556311 183.700518 
L 57.553163 182.867737 
L 59.550016 181.806332 
L 61.546868 180.497561 
L 63.543721 178.926871 
L 65.540573 177.083894 
L 67.537426 174.962339 
L 69.534279 172.559796 
L 71.531131 169.877489 
L 73.527984 166.919994 
L 75.524836 163.694927 
L 77.521689 160.212638 
L 81.515394 152.529555 
L 85.509099 143.996362 
L 89.502804 134.763149 
L 93.496509 124.9961 
L 99.487067 109.728091 
L 109.47133 84.094352 
L 113.465035 74.257188 
L 117.45874 64.879592 
L 121.452445 56.088365 
L 125.44615 47.992742 
L 129.439856 40.6833 
L 131.436708 37.346442 
L 133.433561 34.231353 
L 135.430413 31.343909 
L 137.427266 28.688783 
L 139.424118 26.269461 
L 141.420971 24.088263 
L 143.417823 22.146368 
L 145.414676 20.443845 
L 147.411529 18.979686 
L 149.408381 17.75185 
L 151.405234 16.757295 
L 153.402086 15.992036 
L 155.398939 15.451183 
L 157.395791 15.128996 
L 159.392644 15.01894 
L 161.389497 15.113736 
L 163.386349 15.405423 
L 165.383202 15.885411 
L 167.380054 16.544543 
L 169.376907 17.373153 
L 171.373759 18.361131 
L 173.370612 19.497976 
L 177.364317 22.174698 
L 181.358022 25.313857 
L 185.351727 28.823586 
L 189.345433 32.611404 
L 195.33599 38.615312 
L 207.317106 50.725886 
L 211.310811 54.512069 
L 215.304516 58.063865 
L 219.298221 61.327922 
L 223.291926 64.259632 
L 227.285631 66.82337 
L 231.279336 68.992563 
L 235.273042 70.749588 
L 239.266747 72.08552 
L 243.260452 72.999735 
L 247.254157 73.499391 
L 251.247862 73.598799 
L 255.241567 73.318709 
L 259.235272 72.685526 
L 263.228977 71.730466 
L 267.222683 70.488689 
L 271.216388 68.998406 
L 275.210093 67.299999 
L 281.200651 64.453474 
L 289.188061 60.320346 
L 301.169176 54.044669 
L 307.159734 51.131464 
L 313.150292 48.498862 
L 317.143997 46.937158 
L 321.137702 45.550429 
L 325.131407 44.351383 
L 329.125112 43.348598 
L 333.118817 42.546623 
L 337.112522 41.94615 
L 341.106228 41.544244 
L 345.099933 41.33462 
L 349.093638 41.307967 
L 353.087343 41.452308 
L 359.077901 41.957703 
L 365.068458 42.759628 
L 371.059016 43.795971 
L 379.046426 45.429091 
L 405.00551 51.012146 
L 412.99292 52.358834 
L 418.983478 53.162183 
L 424.974035 53.769053 
L 430.964593 54.172317 
L 436.955151 54.373707 
L 442.945708 54.382911 
L 450.933119 54.125599 
L 458.920529 53.610415 
L 468.904792 52.703933 
L 486.876465 50.754821 
L 500.854433 49.353145 
L 510.838696 48.574463 
L 520.822959 48.043114 
L 530.807221 47.776515 
L 540.791484 47.761473 
L 550.775747 47.960171 
L 564.753715 48.491417 
L 604.690766 50.23244 
L 618.668734 50.533146 
L 632.646702 50.600592 
L 638.63726 50.564763 
L 638.63726 50.564763 
" style="fill:none;stroke:#d62728;stroke-linecap:square;stroke-width:1.5;"/>
   </g>
   <g id="patch_3">
    <path d="M 39.58149 193.911635 
L 39.58149 6.50024 
" style="fill:none;stroke:#000000;stroke-linecap:square;stroke-linejoin:miter;stroke-width:0.8;"/>
   </g>
   <g id="patch_4">
    <path d="M 638.63726 193.911635 
L 638.63726 6.50024 
" style="fill:none;stroke:#000000;stroke-linecap:square;stroke-linejoin:miter;stroke-width:0.8;"/>
   </g>
   <g id="patch_5">
    <path d="M 39.58149 193.911635 
L 638.63726 193.911635 
" style="fill:none;stroke:#000000;stroke-linecap:square;stroke-linejoin:miter;stroke-width:0.8;"/>
   </g>
   <g id="patch_6">
    <path d="M 39.58149 6.50024 
L 638.63726 6.50024 
" style="fill:none;stroke:#000000;stroke-linecap:square;stroke-linejoin:miter;stroke-width:0.8;"/>
   </g>
   <g id="legend_1">
    <g id="patch_7">
     <path d="M 501.87101 187.911635 
L 630.23726 187.911635 
Q 632.63726 187.911635 632.63726 185.511635 
L 632.63726 116.256635 
Q 632.63726 113.856635 630.23726 113.856635 
L 501.87101 113.856635 
Q 499.47101 113.856635 499.47101 116.256635 
L 499.47101 185.511635 
Q 499.47101 187.911635 501.87101 187.911635 
z
" style="fill:#ffffff;opacity:0.8;stroke:#cccccc;stroke-linejoin:miter;"/>
    </g>
    <g id="line2d_20">
     <path d="M 504.27101 123.57476 
L 528.27101 123.57476 
" style="fill:none;stroke:#1f77b4;stroke-linecap:square;stroke-width:1.5;"/>
    </g>
    <g id="line2d_21"/>
    <g id="text_9">
     <!-- PSO-ITAE -->
     <defs>
      <path d="M 19.671875 64.796875 
L 19.671875 37.40625 
L 32.078125 37.40625 
Q 38.96875 37.40625 42.71875 40.96875 
Q 46.484375 44.53125 46.484375 51.125 
Q 46.484375 57.671875 42.71875 61.234375 
Q 38.96875 64.796875 32.078125 64.796875 
z
M 9.8125 72.90625 
L 32.078125 72.90625 
Q 44.34375 72.90625 50.609375 67.359375 
Q 56.890625 61.8125 56.890625 51.125 
Q 56.890625 40.328125 50.609375 34.8125 
Q 44.34375 29.296875 32.078125 29.296875 
L 19.671875 29.296875 
L 19.671875 0 
L 9.8125 0 
z
" id="DejaVuSans-80"/>
      <path d="M 53.515625 70.515625 
L 53.515625 60.890625 
Q 47.90625 63.578125 42.921875 64.890625 
Q 37.9375 66.21875 33.296875 66.21875 
Q 25.25 66.21875 20.875 63.09375 
Q 16.5 59.96875 16.5 54.203125 
Q 16.5 49.359375 19.40625 46.890625 
Q 22.3125 44.4375 30.421875 42.921875 
L 36.375 41.703125 
Q 47.40625 39.59375 52.65625 34.296875 
Q 57.90625 29 57.90625 20.125 
Q 57.90625 9.515625 50.796875 4.046875 
Q 43.703125 -1.421875 29.984375 -1.421875 
Q 24.8125 -1.421875 18.96875 -0.25 
Q 13.140625 0.921875 6.890625 3.21875 
L 6.890625 13.375 
Q 12.890625 10.015625 18.65625 8.296875 
Q 24.421875 6.59375 29.984375 6.59375 
Q 38.421875 6.59375 43.015625 9.90625 
Q 47.609375 13.234375 47.609375 19.390625 
Q 47.609375 24.75 44.3125 27.78125 
Q 41.015625 30.8125 33.5 32.328125 
L 27.484375 33.5 
Q 16.453125 35.6875 11.515625 40.375 
Q 6.59375 45.0625 6.59375 53.421875 
Q 6.59375 63.09375 13.40625 68.65625 
Q 20.21875 74.21875 32.171875 74.21875 
Q 37.3125 74.21875 42.625 73.28125 
Q 47.953125 72.359375 53.515625 70.515625 
z
" id="DejaVuSans-83"/>
      <path d="M 39.40625 66.21875 
Q 28.65625 66.21875 22.328125 58.203125 
Q 16.015625 50.203125 16.015625 36.375 
Q 16.015625 22.609375 22.328125 14.59375 
Q 28.65625 6.59375 39.40625 6.59375 
Q 50.140625 6.59375 56.421875 14.59375 
Q 62.703125 22.609375 62.703125 36.375 
Q 62.703125 50.203125 56.421875 58.203125 
Q 50.140625 66.21875 39.40625 66.21875 
z
M 39.40625 74.21875 
Q 54.734375 74.21875 63.90625 63.9375 
Q 73.09375 53.65625 73.09375 36.375 
Q 73.09375 19.140625 63.90625 8.859375 
Q 54.734375 -1.421875 39.40625 -1.421875 
Q 24.03125 -1.421875 14.8125 8.828125 
Q 5.609375 19.09375 5.609375 36.375 
Q 5.609375 53.65625 14.8125 63.9375 
Q 24.03125 74.21875 39.40625 74.21875 
z
" id="DejaVuSans-79"/>
      <path d="M 4.890625 31.390625 
L 31.203125 31.390625 
L 31.203125 23.390625 
L 4.890625 23.390625 
z
" id="DejaVuSans-45"/>
      <path d="M 9.8125 72.90625 
L 19.671875 72.90625 
L 19.671875 0 
L 9.8125 0 
z
" id="DejaVuSans-73"/>
      <path d="M -0.296875 72.90625 
L 61.375 72.90625 
L 61.375 64.59375 
L 35.5 64.59375 
L 35.5 0 
L 25.59375 0 
L 25.59375 64.59375 
L -0.296875 64.59375 
z
" id="DejaVuSans-84"/>
      <path d="M 34.1875 63.1875 
L 20.796875 26.90625 
L 47.609375 26.90625 
z
M 28.609375 72.90625 
L 39.796875 72.90625 
L 67.578125 0 
L 57.328125 0 
L 50.6875 18.703125 
L 17.828125 18.703125 
L 11.1875 0 
L 0.78125 0 
z
" id="DejaVuSans-65"/>
      <path d="M 9.8125 72.90625 
L 55.90625 72.90625 
L 55.90625 64.59375 
L 19.671875 64.59375 
L 19.671875 43.015625 
L 54.390625 43.015625 
L 54.390625 34.71875 
L 19.671875 34.71875 
L 19.671875 8.296875 
L 56.78125 8.296875 
L 56.78125 0 
L 9.8125 0 
z
" id="DejaVuSans-69"/>
     </defs>
     <g transform="translate(537.87101 127.77476)scale(0.12 -0.12)">
      <use xlink:href="#DejaVuSans-80"/>
      <use x="60.302734" xlink:href="#DejaVuSans-83"/>
      <use x="123.779297" xlink:href="#DejaVuSans-79"/>
      <use x="202.521484" xlink:href="#DejaVuSans-45"/>
      <use x="238.605469" xlink:href="#DejaVuSans-73"/>
      <use x="268.097656" xlink:href="#DejaVuSans-84"/>
      <use x="329.072266" xlink:href="#DejaVuSans-65"/>
      <use x="397.480469" xlink:href="#DejaVuSans-69"/>
     </g>
    </g>
    <g id="line2d_22">
     <path d="M 504.27101 141.18851 
L 528.27101 141.18851 
" style="fill:none;stroke:#ff7f0e;stroke-linecap:square;stroke-width:1.5;"/>
    </g>
    <g id="line2d_23"/>
    <g id="text_10">
     <!-- IMC -->
     <defs>
      <path d="M 9.8125 72.90625 
L 24.515625 72.90625 
L 43.109375 23.296875 
L 61.8125 72.90625 
L 76.515625 72.90625 
L 76.515625 0 
L 66.890625 0 
L 66.890625 64.015625 
L 48.09375 14.015625 
L 38.1875 14.015625 
L 19.390625 64.015625 
L 19.390625 0 
L 9.8125 0 
z
" id="DejaVuSans-77"/>
      <path d="M 64.40625 67.28125 
L 64.40625 56.890625 
Q 59.421875 61.53125 53.78125 63.8125 
Q 48.140625 66.109375 41.796875 66.109375 
Q 29.296875 66.109375 22.65625 58.46875 
Q 16.015625 50.828125 16.015625 36.375 
Q 16.015625 21.96875 22.65625 14.328125 
Q 29.296875 6.6875 41.796875 6.6875 
Q 48.140625 6.6875 53.78125 8.984375 
Q 59.421875 11.28125 64.40625 15.921875 
L 64.40625 5.609375 
Q 59.234375 2.09375 53.4375 0.328125 
Q 47.65625 -1.421875 41.21875 -1.421875 
Q 24.65625 -1.421875 15.125 8.703125 
Q 5.609375 18.84375 5.609375 36.375 
Q 5.609375 53.953125 15.125 64.078125 
Q 24.65625 74.21875 41.21875 74.21875 
Q 47.75 74.21875 53.53125 72.484375 
Q 59.328125 70.75 64.40625 67.28125 
z
" id="DejaVuSans-67"/>
     </defs>
     <g transform="translate(537.87101 145.38851)scale(0.12 -0.12)">
      <use xlink:href="#DejaVuSans-73"/>
      <use x="29.492188" xlink:href="#DejaVuSans-77"/>
      <use x="115.771484" xlink:href="#DejaVuSans-67"/>
     </g>
    </g>
    <g id="line2d_24">
     <path d="M 504.27101 158.80226 
L 528.27101 158.80226 
" style="fill:none;stroke:#2ca02c;stroke-linecap:square;stroke-width:1.5;"/>
    </g>
    <g id="line2d_25"/>
    <g id="text_11">
     <!-- Ziegler-Nichols -->
     <defs>
      <path d="M 5.609375 72.90625 
L 62.890625 72.90625 
L 62.890625 65.375 
L 16.796875 8.296875 
L 64.015625 8.296875 
L 64.015625 0 
L 4.5 0 
L 4.5 7.515625 
L 50.59375 64.59375 
L 5.609375 64.59375 
z
" id="DejaVuSans-90"/>
      <path d="M 9.421875 54.6875 
L 18.40625 54.6875 
L 18.40625 0 
L 9.421875 0 
z
M 9.421875 75.984375 
L 18.40625 75.984375 
L 18.40625 64.59375 
L 9.421875 64.59375 
z
" id="DejaVuSans-105"/>
      <path d="M 56.203125 29.59375 
L 56.203125 25.203125 
L 14.890625 25.203125 
Q 15.484375 15.921875 20.484375 11.0625 
Q 25.484375 6.203125 34.421875 6.203125 
Q 39.59375 6.203125 44.453125 7.46875 
Q 49.3125 8.734375 54.109375 11.28125 
L 54.109375 2.78125 
Q 49.265625 0.734375 44.1875 -0.34375 
Q 39.109375 -1.421875 33.890625 -1.421875 
Q 20.796875 -1.421875 13.15625 6.1875 
Q 5.515625 13.8125 5.515625 26.8125 
Q 5.515625 40.234375 12.765625 48.109375 
Q 20.015625 56 32.328125 56 
Q 43.359375 56 49.78125 48.890625 
Q 56.203125 41.796875 56.203125 29.59375 
z
M 47.21875 32.234375 
Q 47.125 39.59375 43.09375 43.984375 
Q 39.0625 48.390625 32.421875 48.390625 
Q 24.90625 48.390625 20.390625 44.140625 
Q 15.875 39.890625 15.1875 32.171875 
z
" id="DejaVuSans-101"/>
      <path d="M 45.40625 27.984375 
Q 45.40625 37.75 41.375 43.109375 
Q 37.359375 48.484375 30.078125 48.484375 
Q 22.859375 48.484375 18.828125 43.109375 
Q 14.796875 37.75 14.796875 27.984375 
Q 14.796875 18.265625 18.828125 12.890625 
Q 22.859375 7.515625 30.078125 7.515625 
Q 37.359375 7.515625 41.375 12.890625 
Q 45.40625 18.265625 45.40625 27.984375 
z
M 54.390625 6.78125 
Q 54.390625 -7.171875 48.1875 -13.984375 
Q 42 -20.796875 29.203125 -20.796875 
Q 24.46875 -20.796875 20.265625 -20.09375 
Q 16.0625 -19.390625 12.109375 -17.921875 
L 12.109375 -9.1875 
Q 16.0625 -11.328125 19.921875 -12.34375 
Q 23.78125 -13.375 27.78125 -13.375 
Q 36.625 -13.375 41.015625 -8.765625 
Q 45.40625 -4.15625 45.40625 5.171875 
L 45.40625 9.625 
Q 42.625 4.78125 38.28125 2.390625 
Q 33.9375 0 27.875 0 
Q 17.828125 0 11.671875 7.65625 
Q 5.515625 15.328125 5.515625 27.984375 
Q 5.515625 40.671875 11.671875 48.328125 
Q 17.828125 56 27.875 56 
Q 33.9375 56 38.28125 53.609375 
Q 42.625 51.21875 45.40625 46.390625 
L 45.40625 54.6875 
L 54.390625 54.6875 
z
" id="DejaVuSans-103"/>
      <path d="M 9.421875 75.984375 
L 18.40625 75.984375 
L 18.40625 0 
L 9.421875 0 
z
" id="DejaVuSans-108"/>
      <path d="M 41.109375 46.296875 
Q 39.59375 47.171875 37.8125 47.578125 
Q 36.03125 48 33.890625 48 
Q 26.265625 48 22.1875 43.046875 
Q 18.109375 38.09375 18.109375 28.8125 
L 18.109375 0 
L 9.078125 0 
L 9.078125 54.6875 
L 18.109375 54.6875 
L 18.109375 46.1875 
Q 20.953125 51.171875 25.484375 53.578125 
Q 30.03125 56 36.53125 56 
Q 37.453125 56 38.578125 55.875 
Q 39.703125 55.765625 41.0625 55.515625 
z
" id="DejaVuSans-114"/>
      <path d="M 9.8125 72.90625 
L 23.09375 72.90625 
L 55.421875 11.921875 
L 55.421875 72.90625 
L 64.984375 72.90625 
L 64.984375 0 
L 51.703125 0 
L 19.390625 60.984375 
L 19.390625 0 
L 9.8125 0 
z
" id="DejaVuSans-78"/>
      <path d="M 48.78125 52.59375 
L 48.78125 44.1875 
Q 44.96875 46.296875 41.140625 47.34375 
Q 37.3125 48.390625 33.40625 48.390625 
Q 24.65625 48.390625 19.8125 42.84375 
Q 14.984375 37.3125 14.984375 27.296875 
Q 14.984375 17.28125 19.8125 11.734375 
Q 24.65625 6.203125 33.40625 6.203125 
Q 37.3125 6.203125 41.140625 7.25 
Q 44.96875 8.296875 48.78125 10.40625 
L 48.78125 2.09375 
Q 45.015625 0.34375 40.984375 -0.53125 
Q 36.96875 -1.421875 32.421875 -1.421875 
Q 20.0625 -1.421875 12.78125 6.34375 
Q 5.515625 14.109375 5.515625 27.296875 
Q 5.515625 40.671875 12.859375 48.328125 
Q 20.21875 56 33.015625 56 
Q 37.15625 56 41.109375 55.140625 
Q 45.0625 54.296875 48.78125 52.59375 
z
" id="DejaVuSans-99"/>
      <path d="M 54.890625 33.015625 
L 54.890625 0 
L 45.90625 0 
L 45.90625 32.71875 
Q 45.90625 40.484375 42.875 44.328125 
Q 39.84375 48.1875 33.796875 48.1875 
Q 26.515625 48.1875 22.3125 43.546875 
Q 18.109375 38.921875 18.109375 30.90625 
L 18.109375 0 
L 9.078125 0 
L 9.078125 75.984375 
L 18.109375 75.984375 
L 18.109375 46.1875 
Q 21.34375 51.125 25.703125 53.5625 
Q 30.078125 56 35.796875 56 
Q 45.21875 56 50.046875 50.171875 
Q 54.890625 44.34375 54.890625 33.015625 
z
" id="DejaVuSans-104"/>
      <path d="M 30.609375 48.390625 
Q 23.390625 48.390625 19.1875 42.75 
Q 14.984375 37.109375 14.984375 27.296875 
Q 14.984375 17.484375 19.15625 11.84375 
Q 23.34375 6.203125 30.609375 6.203125 
Q 37.796875 6.203125 41.984375 11.859375 
Q 46.1875 17.53125 46.1875 27.296875 
Q 46.1875 37.015625 41.984375 42.703125 
Q 37.796875 48.390625 30.609375 48.390625 
z
M 30.609375 56 
Q 42.328125 56 49.015625 48.375 
Q 55.71875 40.765625 55.71875 27.296875 
Q 55.71875 13.875 49.015625 6.21875 
Q 42.328125 -1.421875 30.609375 -1.421875 
Q 18.84375 -1.421875 12.171875 6.21875 
Q 5.515625 13.875 5.515625 27.296875 
Q 5.515625 40.765625 12.171875 48.375 
Q 18.84375 56 30.609375 56 
z
" id="DejaVuSans-111"/>
      <path d="M 44.28125 53.078125 
L 44.28125 44.578125 
Q 40.484375 46.53125 36.375 47.5 
Q 32.28125 48.484375 27.875 48.484375 
Q 21.1875 48.484375 17.84375 46.4375 
Q 14.5 44.390625 14.5 40.28125 
Q 14.5 37.15625 16.890625 35.375 
Q 19.28125 33.59375 26.515625 31.984375 
L 29.59375 31.296875 
Q 39.15625 29.25 43.1875 25.515625 
Q 47.21875 21.78125 47.21875 15.09375 
Q 47.21875 7.46875 41.1875 3.015625 
Q 35.15625 -1.421875 24.609375 -1.421875 
Q 20.21875 -1.421875 15.453125 -0.5625 
Q 10.6875 0.296875 5.421875 2 
L 5.421875 11.28125 
Q 10.40625 8.6875 15.234375 7.390625 
Q 20.0625 6.109375 24.8125 6.109375 
Q 31.15625 6.109375 34.5625 8.28125 
Q 37.984375 10.453125 37.984375 14.40625 
Q 37.984375 18.0625 35.515625 20.015625 
Q 33.0625 21.96875 24.703125 23.78125 
L 21.578125 24.515625 
Q 13.234375 26.265625 9.515625 29.90625 
Q 5.8125 33.546875 5.8125 39.890625 
Q 5.8125 47.609375 11.28125 51.796875 
Q 16.75 56 26.8125 56 
Q 31.78125 56 36.171875 55.265625 
Q 40.578125 54.546875 44.28125 53.078125 
z
" id="DejaVuSans-115"/>
     </defs>
     <g transform="translate(537.87101 163.00226)scale(0.12 -0.12)">
      <use xlink:href="#DejaVuSans-90"/>
      <use x="68.505859" xlink:href="#DejaVuSans-105"/>
      <use x="96.289062" xlink:href="#DejaVuSans-101"/>
      <use x="157.8125" xlink:href="#DejaVuSans-103"/>
      <use x="221.289062" xlink:href="#DejaVuSans-108"/>
      <use x="249.072266" xlink:href="#DejaVuSans-101"/>
      <use x="310.595703" xlink:href="#DejaVuSans-114"/>
      <use x="351.615234" xlink:href="#DejaVuSans-45"/>
      <use x="387.699219" xlink:href="#DejaVuSans-78"/>
      <use x="462.503906" xlink:href="#DejaVuSans-105"/>
      <use x="490.287109" xlink:href="#DejaVuSans-99"/>
      <use x="545.267578" xlink:href="#DejaVuSans-104"/>
      <use x="608.646484" xlink:href="#DejaVuSans-111"/>
      <use x="669.828125" xlink:href="#DejaVuSans-108"/>
      <use x="697.611328" xlink:href="#DejaVuSans-115"/>
     </g>
    </g>
    <g id="line2d_26">
     <path d="M 504.27101 176.41601 
L 528.27101 176.41601 
" style="fill:none;stroke:#d62728;stroke-linecap:square;stroke-width:1.5;"/>
    </g>
    <g id="line2d_27"/>
    <g id="text_12">
     <!-- SIMC -->
     <g transform="translate(537.87101 180.61601)scale(0.12 -0.12)">
      <use xlink:href="#DejaVuSans-83"/>
      <use x="63.476562" xlink:href="#DejaVuSans-73"/>
      <use x="92.96875" xlink:href="#DejaVuSans-77"/>
      <use x="179.248047" xlink:href="#DejaVuSans-67"/>
     </g>
    </g>
   </g>
  </g>
  <g id="axes_2">
   <g id="patch_8">
    <path d="M 39.58149 398.64351 
L 638.63726 398.64351 
L 638.63726 211.232115 
L 39.58149 211.232115 
z
" style="fill:#ffffff;"/>
   </g>
   <g id="matplotlib.axis_3">
    <g id="xtick_8">
     <g id="line2d_28">
      <g>
       <use style="stroke:#000000;stroke-width:0.8;" x="39.58149" xlink:href="#mea248a84d5" y="398.64351"/>
      </g>
     </g>
     <g id="text_13">
      <!-- 0 -->
      <g transform="translate(36.40024 413.241948)scale(0.1 -0.1)">
       <use xlink:href="#DejaVuSans-48"/>
      </g>
     </g>
    </g>
    <g id="xtick_9">
     <g id="line2d_29">
      <g>
       <use style="stroke:#000000;stroke-width:0.8;" x="139.424118" xlink:href="#mea248a84d5" y="398.64351"/>
      </g>
     </g>
     <g id="text_14">
      <!-- 5 -->
      <defs>
       <path d="M 10.796875 72.90625 
L 49.515625 72.90625 
L 49.515625 64.59375 
L 19.828125 64.59375 
L 19.828125 46.734375 
Q 21.96875 47.46875 24.109375 47.828125 
Q 26.265625 48.1875 28.421875 48.1875 
Q 40.625 48.1875 47.75 41.5 
Q 54.890625 34.8125 54.890625 23.390625 
Q 54.890625 11.625 47.5625 5.09375 
Q 40.234375 -1.421875 26.90625 -1.421875 
Q 22.3125 -1.421875 17.546875 -0.640625 
Q 12.796875 0.140625 7.71875 1.703125 
L 7.71875 11.625 
Q 12.109375 9.234375 16.796875 8.0625 
Q 21.484375 6.890625 26.703125 6.890625 
Q 35.15625 6.890625 40.078125 11.328125 
Q 45.015625 15.765625 45.015625 23.390625 
Q 45.015625 31 40.078125 35.4375 
Q 35.15625 39.890625 26.703125 39.890625 
Q 22.75 39.890625 18.8125 39.015625 
Q 14.890625 38.140625 10.796875 36.28125 
z
" id="DejaVuSans-53"/>
      </defs>
      <g transform="translate(136.242868 413.241948)scale(0.1 -0.1)">
       <use xlink:href="#DejaVuSans-53"/>
      </g>
     </g>
    </g>
    <g id="xtick_10">
     <g id="line2d_30">
      <g>
       <use style="stroke:#000000;stroke-width:0.8;" x="239.266747" xlink:href="#mea248a84d5" y="398.64351"/>
      </g>
     </g>
     <g id="text_15">
      <!-- 10 -->
      <g transform="translate(232.904247 413.241948)scale(0.1 -0.1)">
       <use xlink:href="#DejaVuSans-49"/>
       <use x="63.623047" xlink:href="#DejaVuSans-48"/>
      </g>
     </g>
    </g>
    <g id="xtick_11">
     <g id="line2d_31">
      <g>
       <use style="stroke:#000000;stroke-width:0.8;" x="339.109375" xlink:href="#mea248a84d5" y="398.64351"/>
      </g>
     </g>
     <g id="text_16">
      <!-- 15 -->
      <g transform="translate(332.746875 413.241948)scale(0.1 -0.1)">
       <use xlink:href="#DejaVuSans-49"/>
       <use x="63.623047" xlink:href="#DejaVuSans-53"/>
      </g>
     </g>
    </g>
    <g id="xtick_12">
     <g id="line2d_32">
      <g>
       <use style="stroke:#000000;stroke-width:0.8;" x="438.952003" xlink:href="#mea248a84d5" y="398.64351"/>
      </g>
     </g>
     <g id="text_17">
      <!-- 20 -->
      <g transform="translate(432.589503 413.241948)scale(0.1 -0.1)">
       <use xlink:href="#DejaVuSans-50"/>
       <use x="63.623047" xlink:href="#DejaVuSans-48"/>
      </g>
     </g>
    </g>
    <g id="xtick_13">
     <g id="line2d_33">
      <g>
       <use style="stroke:#000000;stroke-width:0.8;" x="538.794632" xlink:href="#mea248a84d5" y="398.64351"/>
      </g>
     </g>
     <g id="text_18">
      <!-- 25 -->
      <g transform="translate(532.432132 413.241948)scale(0.1 -0.1)">
       <use xlink:href="#DejaVuSans-50"/>
       <use x="63.623047" xlink:href="#DejaVuSans-53"/>
      </g>
     </g>
    </g>
    <g id="xtick_14">
     <g id="line2d_34">
      <g>
       <use style="stroke:#000000;stroke-width:0.8;" x="638.63726" xlink:href="#mea248a84d5" y="398.64351"/>
      </g>
     </g>
     <g id="text_19">
      <!-- 30 -->
      <defs>
       <path d="M 40.578125 39.3125 
Q 47.65625 37.796875 51.625 33 
Q 55.609375 28.21875 55.609375 21.1875 
Q 55.609375 10.40625 48.1875 4.484375 
Q 40.765625 -1.421875 27.09375 -1.421875 
Q 22.515625 -1.421875 17.65625 -0.515625 
Q 12.796875 0.390625 7.625 2.203125 
L 7.625 11.71875 
Q 11.71875 9.328125 16.59375 8.109375 
Q 21.484375 6.890625 26.8125 6.890625 
Q 36.078125 6.890625 40.9375 10.546875 
Q 45.796875 14.203125 45.796875 21.1875 
Q 45.796875 27.640625 41.28125 31.265625 
Q 36.765625 34.90625 28.71875 34.90625 
L 20.21875 34.90625 
L 20.21875 43.015625 
L 29.109375 43.015625 
Q 36.375 43.015625 40.234375 45.921875 
Q 44.09375 48.828125 44.09375 54.296875 
Q 44.09375 59.90625 40.109375 62.90625 
Q 36.140625 65.921875 28.71875 65.921875 
Q 24.65625 65.921875 20.015625 65.03125 
Q 15.375 64.15625 9.8125 62.3125 
L 9.8125 71.09375 
Q 15.4375 72.65625 20.34375 73.4375 
Q 25.25 74.21875 29.59375 74.21875 
Q 40.828125 74.21875 47.359375 69.109375 
Q 53.90625 64.015625 53.90625 55.328125 
Q 53.90625 49.265625 50.4375 45.09375 
Q 46.96875 40.921875 40.578125 39.3125 
z
" id="DejaVuSans-51"/>
      </defs>
      <g transform="translate(632.27476 413.241948)scale(0.1 -0.1)">
       <use xlink:href="#DejaVuSans-51"/>
       <use x="63.623047" xlink:href="#DejaVuSans-48"/>
      </g>
     </g>
    </g>
    <g id="text_20">
     <!-- t (s) -->
     <defs>
      <path id="DejaVuSans-32"/>
     </defs>
     <g transform="translate(329.053906 426.920073)scale(0.1 -0.1)">
      <use xlink:href="#DejaVuSans-116"/>
      <use x="39.208984" xlink:href="#DejaVuSans-32"/>
      <use x="70.996094" xlink:href="#DejaVuSans-40"/>
      <use x="110.009766" xlink:href="#DejaVuSans-115"/>
      <use x="162.109375" xlink:href="#DejaVuSans-41"/>
     </g>
    </g>
   </g>
   <g id="matplotlib.axis_4">
    <g id="ytick_8">
     <g id="line2d_35">
      <g>
       <use style="stroke:#000000;stroke-width:0.8;" x="39.58149" xlink:href="#m0803debff6" y="385.44473"/>
      </g>
     </g>
     <g id="text_21">
      <!-- 0.6 -->
      <g transform="translate(16.678365 389.243949)scale(0.1 -0.1)">
       <use xlink:href="#DejaVuSans-48"/>
       <use x="63.623047" xlink:href="#DejaVuSans-46"/>
       <use x="95.410156" xlink:href="#DejaVuSans-54"/>
      </g>
     </g>
    </g>
    <g id="ytick_9">
     <g id="line2d_36">
      <g>
       <use style="stroke:#000000;stroke-width:0.8;" x="39.58149" xlink:href="#m0803debff6" y="357.017047"/>
      </g>
     </g>
     <g id="text_22">
      <!-- 0.8 -->
      <g transform="translate(16.678365 360.816266)scale(0.1 -0.1)">
       <use xlink:href="#DejaVuSans-48"/>
       <use x="63.623047" xlink:href="#DejaVuSans-46"/>
       <use x="95.410156" xlink:href="#DejaVuSans-56"/>
      </g>
     </g>
    </g>
    <g id="ytick_10">
     <g id="line2d_37">
      <g>
       <use style="stroke:#000000;stroke-width:0.8;" x="39.58149" xlink:href="#m0803debff6" y="328.589365"/>
      </g>
     </g>
     <g id="text_23">
      <!-- 1.0 -->
      <g transform="translate(16.678365 332.388583)scale(0.1 -0.1)">
       <use xlink:href="#DejaVuSans-49"/>
       <use x="63.623047" xlink:href="#DejaVuSans-46"/>
       <use x="95.410156" xlink:href="#DejaVuSans-48"/>
      </g>
     </g>
    </g>
    <g id="ytick_11">
     <g id="line2d_38">
      <g>
       <use style="stroke:#000000;stroke-width:0.8;" x="39.58149" xlink:href="#m0803debff6" y="300.161682"/>
      </g>
     </g>
     <g id="text_24">
      <!-- 1.2 -->
      <g transform="translate(16.678365 303.960901)scale(0.1 -0.1)">
       <use xlink:href="#DejaVuSans-49"/>
       <use x="63.623047" xlink:href="#DejaVuSans-46"/>
       <use x="95.410156" xlink:href="#DejaVuSans-50"/>
      </g>
     </g>
    </g>
    <g id="ytick_12">
     <g id="line2d_39">
      <g>
       <use style="stroke:#000000;stroke-width:0.8;" x="39.58149" xlink:href="#m0803debff6" y="271.733999"/>
      </g>
     </g>
     <g id="text_25">
      <!-- 1.4 -->
      <g transform="translate(16.678365 275.533218)scale(0.1 -0.1)">
       <use xlink:href="#DejaVuSans-49"/>
       <use x="63.623047" xlink:href="#DejaVuSans-46"/>
       <use x="95.410156" xlink:href="#DejaVuSans-52"/>
      </g>
     </g>
    </g>
    <g id="ytick_13">
     <g id="line2d_40">
      <g>
       <use style="stroke:#000000;stroke-width:0.8;" x="39.58149" xlink:href="#m0803debff6" y="243.306317"/>
      </g>
     </g>
     <g id="text_26">
      <!-- 1.6 -->
      <g transform="translate(16.678365 247.105535)scale(0.1 -0.1)">
       <use xlink:href="#DejaVuSans-49"/>
       <use x="63.623047" xlink:href="#DejaVuSans-46"/>
       <use x="95.410156" xlink:href="#DejaVuSans-54"/>
      </g>
     </g>
    </g>
    <g id="ytick_14">
     <g id="line2d_41">
      <g>
       <use style="stroke:#000000;stroke-width:0.8;" x="39.58149" xlink:href="#m0803debff6" y="214.878634"/>
      </g>
     </g>
     <g id="text_27">
      <!-- 1.8 -->
      <g transform="translate(16.678365 218.677853)scale(0.1 -0.1)">
       <use xlink:href="#DejaVuSans-49"/>
       <use x="63.623047" xlink:href="#DejaVuSans-46"/>
       <use x="95.410156" xlink:href="#DejaVuSans-56"/>
      </g>
     </g>
    </g>
    <g id="text_28">
     <!-- u(t) -->
     <defs>
      <path d="M 8.5 21.578125 
L 8.5 54.6875 
L 17.484375 54.6875 
L 17.484375 21.921875 
Q 17.484375 14.15625 20.5 10.265625 
Q 23.53125 6.390625 29.59375 6.390625 
Q 36.859375 6.390625 41.078125 11.03125 
Q 45.3125 15.671875 45.3125 23.6875 
L 45.3125 54.6875 
L 54.296875 54.6875 
L 54.296875 0 
L 45.3125 0 
L 45.3125 8.40625 
Q 42.046875 3.421875 37.71875 1 
Q 33.40625 -1.421875 27.6875 -1.421875 
Q 18.265625 -1.421875 13.375 4.4375 
Q 8.5 10.296875 8.5 21.578125 
z
M 31.109375 56 
z
" id="DejaVuSans-117"/>
     </defs>
     <g transform="translate(10.598678 313.968281)rotate(-90)scale(0.1 -0.1)">
      <use xlink:href="#DejaVuSans-117"/>
      <use x="63.378906" xlink:href="#DejaVuSans-40"/>
      <use x="102.392578" xlink:href="#DejaVuSans-116"/>
      <use x="141.601562" xlink:href="#DejaVuSans-41"/>
     </g>
    </g>
   </g>
   <g id="line2d_42">
    <path clip-path="url(#p0c5fdbf1d6)" d="M 39.58149 370.514906 
L 49.565753 352.495136 
L 55.556311 342.179856 
L 59.550016 335.738331 
L 63.543721 329.758921 
L 67.537426 324.317234 
L 71.531131 319.467373 
L 75.524836 315.242727 
L 77.521689 313.370113 
L 79.518541 311.65799 
L 81.515394 310.105694 
L 83.512246 308.711724 
L 85.509099 307.473823 
L 87.505952 306.389059 
L 89.502804 305.453904 
L 91.499657 304.664303 
L 93.496509 304.015747 
L 95.493362 303.503335 
L 97.490214 303.121832 
L 99.487067 302.865728 
L 101.48392 302.729288 
L 105.477625 302.791608 
L 109.47133 303.260092 
L 113.465035 304.085073 
L 117.45874 305.216922 
L 121.452445 306.606885 
L 125.44615 308.207765 
L 131.436708 310.906587 
L 139.424118 314.844416 
L 155.398939 322.848349 
L 161.389497 325.615332 
L 167.380054 328.152008 
L 173.370612 330.41523 
L 179.36117 332.376386 
L 185.351727 334.019982 
L 191.342285 335.342072 
L 197.332843 336.348613 
L 203.3234 337.053792 
L 209.313958 337.478372 
L 215.304516 337.648115 
L 221.295074 337.5923 
L 227.285631 337.342367 
L 235.273042 336.763141 
L 245.257304 335.750305 
L 259.235272 334.038489 
L 281.200651 331.326499 
L 293.181766 330.08463 
L 303.166029 329.245204 
L 313.150292 328.59809 
L 325.131407 328.069561 
L 337.112522 327.783698 
L 351.09049 327.697413 
L 369.062164 327.852083 
L 448.936266 328.913433 
L 480.885907 328.89892 
L 610.681324 328.562246 
L 638.63726 328.578576 
L 638.63726 328.578576 
" style="fill:none;stroke:#1f77b4;stroke-linecap:square;stroke-width:1.5;"/>
   </g>
   <g id="line2d_43">
    <path clip-path="url(#p0c5fdbf1d6)" d="M 39.58149 390.12481 
L 51.562605 371.895836 
L 57.553163 363.225822 
L 61.546868 357.772578 
L 65.540573 352.649585 
L 69.534279 347.901078 
L 73.527984 343.557794 
L 77.521689 339.637895 
L 81.515394 336.14845 
L 85.509099 333.08713 
L 89.502804 330.443907 
L 93.496509 328.20265 
L 97.490214 326.342555 
L 101.48392 324.839396 
L 105.477625 323.666585 
L 109.47133 322.796072 
L 113.465035 322.19908 
L 117.45874 321.846716 
L 121.452445 321.710456 
L 125.44615 321.762544 
L 131.436708 322.135801 
L 137.427266 322.78874 
L 145.414676 323.96332 
L 155.398939 325.703318 
L 175.367465 329.227947 
L 185.351727 330.711235 
L 193.339138 331.686825 
L 201.326548 332.456536 
L 209.313958 333.018421 
L 217.301368 333.381319 
L 227.285631 333.581177 
L 237.269894 333.540493 
L 249.25101 333.245002 
L 263.228977 332.671254 
L 327.12826 329.72086 
L 347.096785 329.195119 
L 369.062164 328.865175 
L 395.021247 328.71202 
L 440.948856 328.711525 
L 532.804074 328.691853 
L 638.63726 328.604795 
L 638.63726 328.604795 
" style="fill:none;stroke:#ff7f0e;stroke-linecap:square;stroke-width:1.5;"/>
   </g>
   <g id="line2d_44">
    <path clip-path="url(#p0c5fdbf1d6)" d="M 39.58149 284.509084 
L 47.5689 270.935474 
L 51.562605 264.70526 
L 53.559458 261.878588 
L 55.556311 259.30076 
L 57.553163 257.009812 
L 59.550016 255.039128 
L 61.546868 253.41691 
L 63.543721 252.165931 
L 65.540573 251.303486 
L 67.537426 250.841501 
L 69.534279 250.786754 
L 71.531131 251.14117 
L 73.527984 251.902173 
L 75.524836 253.063064 
L 77.521689 254.613417 
L 79.518541 256.539481 
L 81.515394 258.824573 
L 83.512246 261.449466 
L 85.509099 264.392757 
L 87.505952 267.631222 
L 89.502804 271.140147 
L 93.496509 278.864943 
L 97.490214 287.351042 
L 101.48392 296.376415 
L 119.455593 337.965142 
L 123.449298 346.304338 
L 127.443003 353.98456 
L 131.436708 360.894872 
L 133.433561 364.033158 
L 135.430413 366.948167 
L 137.427266 369.632732 
L 139.424118 372.081144 
L 141.420971 374.289124 
L 143.417823 376.253796 
L 145.414676 377.973639 
L 147.411529 379.448449 
L 149.408381 380.679286 
L 151.405234 381.668418 
L 153.402086 382.419268 
L 155.398939 382.936345 
L 157.395791 383.225183 
L 159.392644 383.292272 
L 161.389497 383.144987 
L 163.386349 382.791517 
L 165.383202 382.240792 
L 167.380054 381.502407 
L 169.376907 380.58655 
L 171.373759 379.503925 
L 173.370612 378.265678 
L 177.364317 375.368672 
L 181.358022 371.990771 
L 185.351727 368.229695 
L 189.345433 364.183512 
L 195.33599 357.78973 
L 205.320253 347.01575 
L 211.310811 340.917796 
L 215.304516 337.143864 
L 219.298221 333.664852 
L 223.291926 330.52291 
L 227.285631 327.750412 
L 231.279336 325.370052 
L 235.273042 323.395126 
L 239.266747 321.829976 
L 243.260452 320.670584 
L 247.254157 319.90528 
L 251.247862 319.515553 
L 255.241567 319.476936 
L 259.235272 319.759939 
L 263.228977 320.331015 
L 267.222683 321.153534 
L 271.216388 322.188735 
L 277.206945 324.052805 
L 283.197503 326.170123 
L 303.166029 333.456835 
L 309.156587 335.312264 
L 315.147144 336.880276 
L 319.140849 337.743073 
L 323.134554 338.449585 
L 327.12826 338.995311 
L 331.121965 339.379345 
L 335.11567 339.604117 
L 339.109375 339.675095 
L 345.099933 339.511696 
L 351.09049 339.058118 
L 357.081048 338.360134 
L 365.068458 337.138955 
L 375.052721 335.327551 
L 393.024394 331.98946 
L 401.011805 330.718043 
L 408.999215 329.675035 
L 416.986625 328.896051 
L 424.974035 328.391959 
L 432.961446 328.151633 
L 440.948856 328.14599 
L 450.933119 328.403777 
L 462.914234 328.969698 
L 494.863875 330.622326 
L 506.844991 330.954107 
L 518.826106 331.050859 
L 530.807221 330.929799 
L 546.782042 330.519516 
L 594.706504 329.071577 
L 612.678177 328.85677 
L 632.646702 328.854888 
L 638.63726 328.887145 
L 638.63726 328.887145 
" style="fill:none;stroke:#2ca02c;stroke-linecap:square;stroke-width:1.5;"/>
   </g>
   <g id="line2d_45">
    <path clip-path="url(#p0c5fdbf1d6)" d="M 39.58149 282.605176 
L 47.5689 261.392662 
L 51.562605 251.36634 
L 55.556311 242.216275 
L 57.553163 238.084315 
L 59.550016 234.301975 
L 61.546868 230.904236 
L 63.543721 227.921018 
L 65.540573 225.377011 
L 67.537426 223.291669 
L 69.534279 221.679313 
L 71.531131 220.549323 
L 73.527984 219.906393 
L 75.524836 219.750815 
L 77.521689 220.078798 
L 79.518541 220.882798 
L 81.515394 222.151847 
L 83.512246 223.871884 
L 85.509099 226.026085 
L 87.505952 228.595171 
L 89.502804 231.557714 
L 91.499657 234.890429 
L 93.496509 238.568445 
L 95.493362 242.565573 
L 97.490214 246.854549 
L 101.48392 256.195011 
L 105.477625 266.358802 
L 109.47133 277.111298 
L 117.45874 299.459011 
L 123.449298 316.096967 
L 127.443003 326.756664 
L 131.436708 336.86648 
L 135.430413 346.274768 
L 139.424118 354.852241 
L 143.417823 362.492927 
L 145.414676 365.935354 
L 147.411529 369.114617 
L 149.408381 372.024152 
L 151.405234 374.658852 
L 153.402086 377.015046 
L 155.398939 379.090467 
L 157.395791 380.884221 
L 159.392644 382.396743 
L 161.389497 383.629756 
L 163.386349 384.586214 
L 165.383202 385.270259 
L 167.380054 385.687154 
L 169.376907 385.843228 
L 171.373759 385.745811 
L 173.370612 385.403169 
L 175.367465 384.824433 
L 177.364317 384.019532 
L 179.36117 382.999121 
L 181.358022 381.774507 
L 183.354875 380.357578 
L 185.351727 378.76073 
L 187.34858 376.996789 
L 191.342285 373.020676 
L 195.33599 368.537787 
L 199.329695 363.659036 
L 205.320253 355.841329 
L 219.298221 337.115991 
L 223.291926 332.071493 
L 227.285631 327.312803 
L 231.279336 322.906323 
L 235.273042 318.907973 
L 239.266747 315.362836 
L 243.260452 312.305033 
L 247.254157 309.757795 
L 249.25101 308.679981 
L 251.247862 307.733729 
L 253.244715 306.919027 
L 255.241567 306.235264 
L 257.23842 305.68125 
L 259.235272 305.255242 
L 261.232125 304.954968 
L 263.228977 304.777657 
L 265.22583 304.720061 
L 267.222683 304.778494 
L 271.216388 305.226674 
L 275.210093 306.085051 
L 279.203798 307.311466 
L 283.197503 308.859826 
L 287.191208 310.681177 
L 291.184913 312.724765 
L 297.175471 316.094171 
L 307.159734 322.099531 
L 315.147144 326.831211 
L 321.137702 330.12194 
L 325.131407 332.129285 
L 329.125112 333.955393 
L 333.118817 335.578378 
L 337.112522 336.981414 
L 341.106228 338.152721 
L 345.099933 339.085459 
L 349.093638 339.777535 
L 353.087343 340.231344 
L 357.081048 340.453438 
L 361.074753 340.454149 
L 365.068458 340.247159 
L 369.062164 339.849043 
L 373.055869 339.278787 
L 379.046426 338.146764 
L 385.036984 336.75079 
L 393.024394 334.61634 
L 414.989773 328.529579 
L 420.98033 327.117018 
L 426.970888 325.901794 
L 432.961446 324.913456 
L 438.952003 324.169793 
L 444.942561 323.677215 
L 450.933119 323.431557 
L 456.923676 323.419231 
L 462.914234 323.618647 
L 470.901644 324.164816 
L 478.889055 324.958587 
L 490.87017 326.424876 
L 510.838696 328.914167 
L 520.822959 329.903663 
L 528.810369 330.493716 
L 536.797779 330.882772 
L 544.785189 331.068071 
L 552.7726 331.061382 
L 562.756862 330.820025 
L 574.737978 330.276225 
L 620.665587 327.838573 
L 632.646702 327.550163 
L 638.63726 327.485604 
L 638.63726 327.485604 
" style="fill:none;stroke:#d62728;stroke-linecap:square;stroke-width:1.5;"/>
   </g>
   <g id="patch_9">
    <path d="M 39.58149 398.64351 
L 39.58149 211.232115 
" style="fill:none;stroke:#000000;stroke-linecap:square;stroke-linejoin:miter;stroke-width:0.8;"/>
   </g>
   <g id="patch_10">
    <path d="M 638.63726 398.64351 
L 638.63726 211.232115 
" style="fill:none;stroke:#000000;stroke-linecap:square;stroke-linejoin:miter;stroke-width:0.8;"/>
   </g>
   <g id="patch_11">
    <path d="M 39.58149 398.64351 
L 638.63726 398.64351 
" style="fill:none;stroke:#000000;stroke-linecap:square;stroke-linejoin:miter;stroke-width:0.8;"/>
   </g>
   <g id="patch_12">
    <path d="M 39.58149 211.232115 
L 638.63726 211.232115 
" style="fill:none;stroke:#000000;stroke-linecap:square;stroke-linejoin:miter;stroke-width:0.8;"/>
   </g>
  </g>
 </g>
 <defs>
  <clipPath id="pe6eaf68640">
   <rect height="187.411395" width="599.05577" x="39.58149" y="6.50024"/>
  </clipPath>
  <clipPath id="p0c5fdbf1d6">
   <rect height="187.411395" width="599.05577" x="39.58149" y="211.232115"/>
  </clipPath>
 </defs>
</svg>
